<svg width="32" height="32" viewBox="0 0 32 32" fill="none" xmlns="http://www.w3.org/2000/svg">
<path d="M16 32C24.8366 32 32 24.8366 32 16C32 7.16344 24.8366 0 16 0C7.16344 0 0 7.16344 0 16C0 24.8366 7.16344 32 16 32Z" fill="#FF914D"/>
<path fill-rule="evenodd" clip-rule="evenodd" d="M16.0002 27.258C9.78219 27.258 4.74219 22.218 4.74219 16C4.74219 9.782 9.78219 4.742 16.0002 4.742C22.2182 4.742 27.2582 9.782 27.2582 16C27.2582 22.218 22.2182 27.258 16.0002 27.258ZM16.0002 26.596C21.8522 26.596 26.5962 21.852 26.5962 16C26.5962 10.148 21.8522 5.404 16.0002 5.404C10.1482 5.404 5.40419 10.148 5.40419 16C5.40419 21.852 10.1482 26.596 16.0002 26.596Z" fill="white"/>
<path d="M14.09 24.132C14.338 24.03 15.308 23.282 16.245 22.477C17.4063 21.4892 18.5234 20.4505 19.593 19.364C20.619 18.338 21 17.897 21.063 17.669C21.285 16.868 18.858 8.06301 18.364 7.87401C18.063 7.75801 15.371 9.99701 12.987 12.341C11.589 13.715 11.202 14.172 11.172 14.471C11.152 14.702 11.232 15.281 11.381 15.967C11.974 18.689 13.053 22.45 13.599 23.685C13.828 24.209 13.854 24.232 14.089 24.132H14.09Z" fill="white"/>
</svg>
