<svg width="32" height="32" viewBox="0 0 32 32" fill="none" xmlns="http://www.w3.org/2000/svg">
<path d="M16 32C24.8366 32 32 24.8366 32 16C32 7.16344 24.8366 0 16 0C7.16344 0 0 7.16344 0 16C0 24.8366 7.16344 32 16 32Z" fill="#F1CB60"/>
<path d="M15.2629 24.856V26.319H15.9999V24.13H14.5369V24.856H15.2629ZM7.92589 16.826H7.19989V20.478H7.92589V19.015H8.66289V17.552H7.92589V16.826ZM16.7369 21.204H17.4629V23.393H16.7369V21.204ZM15.9999 23.393H16.7369V24.13H15.9999V23.393ZM8.66289 22.667H10.8629V24.856H8.66289V22.667ZM7.19989 15.363H7.93689V16.089H7.19989V15.363ZM11.5999 13.9H12.3369V14.637H11.5999V13.9ZM15.9999 13.163H16.7369V14.626H15.9999V13.163ZM6.46289 10.974H8.66289V13.163H6.46289V10.974ZM13.0629 24.856H13.7999V26.319H13.0629V24.856ZM13.7999 13.163H13.0739V14.626H13.7999V13.9H14.5369V12.437H13.7999V13.163ZM14.5369 11.711H15.2629V12.437H14.5369V11.711ZM14.5369 13.9H15.2629V14.626H14.5369V13.9ZM10.8629 15.363H13.0629V16.089H10.8629V15.363Z" fill="white"/>
<path d="M13.8 12.437V11.711H14.526V10.974H13.8V9.52203H11.6V10.248H13.063V10.974H12.326V11.7H11.6V12.426H10.874V11.711H10.126V10.985H10.863V11.7H11.6V10.974H10.874V9.52203H5V14.637H10.874V13.9H11.6V12.437H12.337V13.163H13.074V12.437H13.8ZM9.4 13.9H5.737V10.248H9.4V13.9ZM10.126 13.9V12.437H10.863V13.9H10.126ZM13.063 11.7V10.985H13.8V11.7H13.063ZM18.937 19.741V19.015H17.463V17.552H16.737V18.278H16.011V17.552H16.737V15.352H15.274V16.089H14.526V17.552H13.8V18.278H14.537V17.552H15.263V19.741H13.8V19.015H13.063V17.552H12.337V16.826H10.863V16.1H10.126V15.374H8.663V16.1H7.926V16.826H8.663V17.552H9.4V16.826H10.137V17.552H9.4V18.278H10.137V19.004H10.863V18.278H11.6V17.552H12.326V18.278H11.6V19.004H10.874V20.467H12.337V21.204H10.863V20.478H10.126V21.204H8.663V20.478H7.937V21.204H7.2V26.319H12.337V21.93H13.063V24.13H14.537V23.404H15.274V21.93H14.537V21.204H13.8V21.93H13.074V20.467H15.274V21.193H16.011V19.741H17.463V20.478H18.2V19.741H18.937ZM11.6 25.582H7.937V21.93H11.6V25.582ZM12.337 19.741H11.6V19.015H12.337V19.741ZM13.8 22.667H14.537V23.393H13.8V22.667ZM18.937 9.52203H19.663V10.974H18.937V9.52203ZM17.463 9.52203H16.737V11.711H16V12.437H16.737V13.163H17.463V14.626H18.2V13.163H18.937V14.637H19.663V13.9H20.4V12.437H18.937V10.974H17.463V9.52203Z" fill="white"/>
<path fill-rule="evenodd" clip-rule="evenodd" d="M24.0632 17.552H22.6002V18.278H21.8632V19.015H21.1372V16.826H21.8632V16.089H21.1372V16.815H20.4002V17.552H19.6632V16.089H18.9372V17.552H18.2002V18.289L18.9372 18.278H19.6632V19.741H21.8632V20.478H19.6632V21.204H18.9372V21.93H18.2002V22.667H18.9372V23.393H18.2002V24.13H18.9372V24.856H19.6632V25.582H18.9372V26.319H24.8002V21.93H24.0632V25.582H20.4002V21.93H22.6002V19.015H23.3372V19.741H24.8002V18.289H24.0742V17.552H24.8002V15.363H24.0632V17.552Z" fill="white"/>
<path d="M18.1997 20.478H18.9367V21.204H18.1997V20.478ZM21.8627 16.826H22.5997V17.552H21.8627V16.826ZM23.3367 20.478H24.7997V21.215H23.3367V20.478ZM23.3367 10.985H25.5367V13.174H23.3367V10.985ZM20.3997 13.9H21.1367V14.637H20.3997V13.9ZM17.4627 15.363H18.1997V16.089H17.4627V15.363ZM22.5997 15.363H23.3367V16.089H22.5997V15.363ZM21.1367 22.667H23.3367V24.856H21.1367V22.667ZM20.3997 15.363H21.1367V16.089H20.3997V15.363ZM15.2627 10.974H15.9997V11.711H15.2627V10.974Z" fill="white"/>
<path d="M20.3996 9.52202V10.248H21.8626V10.974H21.1256V11.7H20.3996V10.974H19.6626V11.711H20.3996V12.426H21.1366V13.152H21.8736V14.615H26.9996V9.52202H20.3996ZM26.2626 13.9H22.5996V10.248H26.2626V13.9ZM9.85057 8.23502C10.3566 8.57602 10.9286 8.64202 11.3796 8.66402C11.7646 8.68602 12.4136 8.68602 13.0956 8.68602C14.3606 8.68602 15.8456 8.70802 15.9996 8.70802C16.4066 8.71902 17.6496 8.71902 18.7496 8.71902C19.4316 8.71902 20.0696 8.70802 20.4656 8.69702C20.9166 8.67502 21.4886 8.59802 21.9946 8.26802C22.6326 7.83902 22.9516 7.13502 22.9516 6.17802C22.9516 5.40802 22.6326 4.94602 22.3686 4.68202C21.6536 3.98902 20.5536 4.03302 20.1906 4.04402H20.1466C19.9266 4.04402 19.1346 4.16502 18.1996 4.69302C17.3746 5.15502 16.6596 5.81502 16.0766 6.64002L16.0106 6.80502L15.9556 6.71702C15.3396 5.79302 14.5366 5.16602 13.6456 4.66002C12.7216 4.13202 11.9296 4.02202 11.7096 4.02202H11.6656C11.3026 4.01102 10.2026 3.96702 9.48757 4.66002C9.00357 5.12202 8.90457 5.72702 8.90457 6.15602C8.89357 7.10202 9.21257 7.80602 9.85057 8.23502ZM18.7386 5.77102C19.5196 5.32002 20.1136 5.25402 20.1576 5.25402H20.2346C20.8616 5.23202 21.3016 5.33102 21.5326 5.55102C21.6756 5.69402 21.7526 5.89202 21.7526 6.17802C21.7526 7.22302 21.2576 7.45402 20.4106 7.49802C19.6956 7.53102 18.0346 7.52002 16.9566 7.50902C17.4001 6.79315 18.0118 6.19651 18.7386 5.77102ZM10.3126 5.51802C10.5216 5.32002 10.8956 5.22102 11.4346 5.22102H11.6986C11.7426 5.22102 12.3366 5.28702 13.1176 5.73802C13.8216 6.14502 14.4266 6.72802 14.9106 7.47602C13.8216 7.48702 12.1606 7.49802 11.4456 7.46502C10.5986 7.42102 10.1036 7.19002 10.1036 6.14502C10.1036 5.85902 10.1696 5.66102 10.3126 5.51802ZM17.4626 24.856H16.7366V26.319H17.4736V24.856H18.1996V24.13H17.4626V24.856Z" fill="white"/>
</svg>
