<svg width="32" height="32" viewBox="0 0 32 32" fill="none" xmlns="http://www.w3.org/2000/svg">
<path d="M16 32C24.8366 32 32 24.8366 32 16C32 7.16344 24.8366 0 16 0C7.16344 0 0 7.16344 0 16C0 24.8366 7.16344 32 16 32Z" fill="#0D1E30"/>
<g filter="url(#filter0_d)">
<path d="M15.7246 6.06001C16.2036 5.81301 16.7886 6.38401 16.5346 6.85501C16.3856 7.23901 15.8246 7.34101 15.5386 7.04801C15.2356 6.76801 15.3346 6.21201 15.7246 6.05901V6.06001ZM10.5696 6.60601C10.8606 6.48801 11.2296 6.75001 11.1996 7.06301C11.2296 7.40101 10.8096 7.65101 10.5126 7.49001C10.1196 7.34001 10.1646 6.71201 10.5696 6.60601ZM21.1276 7.49901C20.6726 7.44501 20.6006 6.74101 21.0376 6.59901C21.3776 6.43701 21.6896 6.74201 21.7396 7.05901C21.6676 7.32901 21.4376 7.57701 21.1276 7.49901ZM11.7426 8.76401C12.2296 8.46101 12.9236 8.91201 12.8486 9.46901C12.8236 10.03 12.0656 10.356 11.6376 9.97601C11.2236 9.67801 11.2866 8.99401 11.7426 8.76401ZM19.1726 9.08601C19.3896 8.53601 20.2696 8.51801 20.5166 9.05401C20.7616 9.47101 20.4606 9.98801 20.0256 10.13C19.4486 10.236 18.9016 9.62201 19.1726 9.08601ZM15.1036 10.099C15.0986 9.62501 15.5366 9.27301 15.9936 9.24001C16.2976 9.30001 16.6276 9.42701 16.7576 9.72801C17.0006 10.144 16.7846 10.715 16.3476 10.906C16.1476 11.016 15.9096 10.975 15.6916 10.962C15.3586 10.802 15.0776 10.485 15.1036 10.099ZM7.43756 10.789C7.88256 10.519 8.48256 11.009 8.31356 11.485C8.22156 11.896 7.65956 12.063 7.33856 11.801C6.99556 11.555 7.04956 10.964 7.43856 10.788L7.43756 10.789ZM23.8996 10.787C24.2766 10.499 24.8996 10.83 24.8536 11.298C24.8796 11.725 24.3406 12.048 23.9666 11.828C23.5546 11.645 23.5116 11.021 23.8996 10.788V10.787ZM17.2596 11.638C17.8816 11.418 18.6216 11.681 18.9756 12.228C19.4436 12.895 19.1956 13.911 18.4686 14.294C17.7166 14.747 16.6176 14.364 16.3386 13.536C16.0236 12.796 16.4836 11.87 17.2586 11.638H17.2596ZM13.6066 11.711C14.2966 11.391 15.2256 11.659 15.5586 12.353C15.9506 13.029 15.6476 13.97 14.9466 14.319C14.2446 14.712 13.2536 14.414 12.9146 13.689C12.5336 12.987 12.8716 12.034 13.6066 11.711ZM9.94956 12.94C10.0026 12.503 10.4216 12.218 10.8446 12.188C11.0652 12.2113 11.2713 12.3088 11.4294 12.4644C11.5874 12.6201 11.6879 12.8248 11.7146 13.045C11.6846 13.495 11.3316 13.933 10.8476 13.931C10.3146 13.976 9.84756 13.454 9.94956 12.94ZM20.7516 12.284C21.2986 11.971 22.0576 12.426 22.0336 13.044C22.0706 13.699 21.2306 14.16 20.6866 13.776C20.1206 13.456 20.1646 12.556 20.7516 12.284ZM12.1216 14.591C12.7596 14.418 13.4916 14.714 13.8046 15.292C14.1476 15.874 14.0076 16.682 13.4746 17.11C12.7896 17.736 11.5286 17.484 11.1646 16.63C10.7456 15.847 11.2546 14.797 12.1206 14.59L12.1216 14.591ZM19.0486 14.588C19.6696 14.413 20.3996 14.648 20.7336 15.205C21.1756 15.842 20.9646 16.793 20.3076 17.203C19.6176 17.68 18.5516 17.43 18.1716 16.684C17.7116 15.913 18.1746 14.823 19.0486 14.588ZM8.00856 15.314C8.56056 15.109 9.17256 15.708 8.94856 16.247C8.81256 16.737 8.10956 16.919 7.74656 16.557C7.32156 16.217 7.47856 15.462 8.00856 15.314ZM22.9776 16.096C22.9672 15.8759 23.0442 15.6606 23.1917 15.4969C23.3393 15.3332 23.5455 15.2344 23.7656 15.222C24.1436 15.282 24.5116 15.582 24.4816 15.987C24.5166 16.522 23.8616 16.885 23.3976 16.634C23.1806 16.525 23.0696 16.306 22.9776 16.096ZM5.29356 15.58C5.62556 15.437 6.03656 15.72 5.96056 16.083C5.94256 16.494 5.32556 16.653 5.09956 16.309C4.89956 16.07 5.01956 15.703 5.29356 15.579V15.58ZM26.2426 15.571C26.4766 15.408 26.8526 15.525 26.9446 15.794C27.1016 16.088 26.8136 16.49 26.4776 16.441C26.0056 16.483 25.8536 15.776 26.2426 15.571ZM13.9256 17.544C14.7996 17.321 15.7396 18.038 15.7456 18.924C15.8016 19.819 14.8756 20.612 13.9816 20.406C13.2896 20.296 12.7466 19.64 12.7696 18.953C12.7676 18.295 13.2716 17.683 13.9256 17.544ZM17.3876 17.543C18.2746 17.299 19.2426 18.029 19.2286 18.935C19.2756 19.813 18.3786 20.58 17.5026 20.405C16.6776 20.301 16.0696 19.41 16.2996 18.622C16.4156 18.098 16.8616 17.672 17.3876 17.542V17.543ZM10.7116 18.088C11.3256 17.985 11.9016 18.658 11.6526 19.232C11.4706 19.844 10.5666 20.009 10.1666 19.51C9.69856 19.03 10.0486 18.154 10.7116 18.088ZM20.8656 18.115C21.4136 17.889 22.0856 18.355 22.0436 18.94C22.0656 19.583 21.2356 20.027 20.7006 19.651C20.0936 19.314 20.2046 18.321 20.8656 18.115ZM23.7036 20.915C23.4896 20.522 23.8786 20.001 24.3236 20.074C24.5436 20.07 24.6986 20.241 24.8396 20.385C24.8686 20.618 24.9176 20.896 24.7206 21.075C24.4536 21.408 23.8486 21.313 23.7036 20.915ZM7.43556 20.183C7.85056 19.912 8.44756 20.317 8.35356 20.793C8.30356 21.216 7.76356 21.457 7.40856 21.217C7.02656 21 7.04056 20.381 7.43556 20.183ZM15.6286 21.066C16.1716 20.831 16.8636 21.296 16.8116 21.884C16.8516 22.534 15.9966 22.984 15.4656 22.594C14.8756 22.259 14.9746 21.273 15.6286 21.066ZM11.8346 21.937C12.2966 21.698 12.9166 22.111 12.8746 22.621C12.8886 23.039 12.4746 23.395 12.0546 23.333C11.7076 23.326 11.4816 23.019 11.3696 22.728C11.3756 22.411 11.5086 22.058 11.8346 21.938V21.937ZM19.5206 21.945C19.9966 21.655 20.6726 22.071 20.6276 22.615C20.6396 23.185 19.8756 23.549 19.4326 23.175C19.0046 22.882 19.0566 22.178 19.5206 21.945ZM20.8576 25.195C20.6456 24.881 20.8946 24.502 21.2376 24.43C21.5146 24.485 21.8076 24.69 21.7486 25.004C21.7086 25.431 21.0746 25.561 20.8576 25.196V25.195ZM10.2466 24.922C10.3306 24.672 10.5346 24.425 10.8336 24.49C11.2686 24.52 11.3976 25.166 11.0166 25.365C10.6746 25.592 10.2766 25.281 10.2466 24.922ZM15.3666 25.209C15.4496 24.839 15.9346 24.66 16.2546 24.856C16.4666 24.946 16.5286 25.178 16.5826 25.376C16.554 25.4789 16.5273 25.5822 16.5026 25.686C16.3716 25.838 16.2026 25.991 15.9846 25.986C15.5796 26.033 15.2136 25.582 15.3656 25.209H15.3666Z" fill="black"/>
</g>
<path d="M15.7246 6.06001C16.2036 5.81301 16.7886 6.38401 16.5346 6.85501C16.3856 7.23901 15.8246 7.34101 15.5386 7.04801C15.2356 6.76801 15.3346 6.21201 15.7246 6.05901V6.06001ZM10.5696 6.60601C10.8606 6.48801 11.2296 6.75001 11.1996 7.06301C11.2296 7.40101 10.8096 7.65101 10.5126 7.49001C10.1196 7.34001 10.1646 6.71201 10.5696 6.60601ZM21.1276 7.49901C20.6726 7.44501 20.6006 6.74101 21.0376 6.59901C21.3776 6.43701 21.6896 6.74201 21.7396 7.05901C21.6676 7.32901 21.4376 7.57701 21.1276 7.49901ZM11.7426 8.76401C12.2296 8.46101 12.9236 8.91201 12.8486 9.46901C12.8236 10.03 12.0656 10.356 11.6376 9.97601C11.2236 9.67801 11.2866 8.99401 11.7426 8.76401ZM19.1726 9.08601C19.3896 8.53601 20.2696 8.51801 20.5166 9.05401C20.7616 9.47101 20.4606 9.98801 20.0256 10.13C19.4486 10.236 18.9016 9.62201 19.1726 9.08601ZM15.1036 10.099C15.0986 9.62501 15.5366 9.27301 15.9936 9.24001C16.2976 9.30001 16.6276 9.42701 16.7576 9.72801C17.0006 10.144 16.7846 10.715 16.3476 10.906C16.1476 11.016 15.9096 10.975 15.6916 10.962C15.3586 10.802 15.0776 10.485 15.1036 10.099ZM7.43756 10.789C7.88256 10.519 8.48256 11.009 8.31356 11.485C8.22156 11.896 7.65956 12.063 7.33856 11.801C6.99556 11.555 7.04956 10.964 7.43856 10.788L7.43756 10.789ZM23.8996 10.787C24.2766 10.499 24.8996 10.83 24.8536 11.298C24.8796 11.725 24.3406 12.048 23.9666 11.828C23.5546 11.645 23.5116 11.021 23.8996 10.788V10.787ZM17.2596 11.638C17.8816 11.418 18.6216 11.681 18.9756 12.228C19.4436 12.895 19.1956 13.911 18.4686 14.294C17.7166 14.747 16.6176 14.364 16.3386 13.536C16.0236 12.796 16.4836 11.87 17.2586 11.638H17.2596ZM13.6066 11.711C14.2966 11.391 15.2256 11.659 15.5586 12.353C15.9506 13.029 15.6476 13.97 14.9466 14.319C14.2446 14.712 13.2536 14.414 12.9146 13.689C12.5336 12.987 12.8716 12.034 13.6066 11.711ZM9.94956 12.94C10.0026 12.503 10.4216 12.218 10.8446 12.188C11.0652 12.2113 11.2713 12.3088 11.4294 12.4644C11.5874 12.6201 11.6879 12.8248 11.7146 13.045C11.6846 13.495 11.3316 13.933 10.8476 13.931C10.3146 13.976 9.84756 13.454 9.94956 12.94ZM20.7516 12.284C21.2986 11.971 22.0576 12.426 22.0336 13.044C22.0706 13.699 21.2306 14.16 20.6866 13.776C20.1206 13.456 20.1646 12.556 20.7516 12.284ZM12.1216 14.591C12.7596 14.418 13.4916 14.714 13.8046 15.292C14.1476 15.874 14.0076 16.682 13.4746 17.11C12.7896 17.736 11.5286 17.484 11.1646 16.63C10.7456 15.847 11.2546 14.797 12.1206 14.59L12.1216 14.591ZM19.0486 14.588C19.6696 14.413 20.3996 14.648 20.7336 15.205C21.1756 15.842 20.9646 16.793 20.3076 17.203C19.6176 17.68 18.5516 17.43 18.1716 16.684C17.7116 15.913 18.1746 14.823 19.0486 14.588ZM8.00856 15.314C8.56056 15.109 9.17256 15.708 8.94856 16.247C8.81256 16.737 8.10956 16.919 7.74656 16.557C7.32156 16.217 7.47856 15.462 8.00856 15.314ZM22.9776 16.096C22.9672 15.8759 23.0442 15.6606 23.1917 15.4969C23.3393 15.3332 23.5455 15.2344 23.7656 15.222C24.1436 15.282 24.5116 15.582 24.4816 15.987C24.5166 16.522 23.8616 16.885 23.3976 16.634C23.1806 16.525 23.0696 16.306 22.9776 16.096ZM5.29356 15.58C5.62556 15.437 6.03656 15.72 5.96056 16.083C5.94256 16.494 5.32556 16.653 5.09956 16.309C4.89956 16.07 5.01956 15.703 5.29356 15.579V15.58ZM26.2426 15.571C26.4766 15.408 26.8526 15.525 26.9446 15.794C27.1016 16.088 26.8136 16.49 26.4776 16.441C26.0056 16.483 25.8536 15.776 26.2426 15.571ZM13.9256 17.544C14.7996 17.321 15.7396 18.038 15.7456 18.924C15.8016 19.819 14.8756 20.612 13.9816 20.406C13.2896 20.296 12.7466 19.64 12.7696 18.953C12.7676 18.295 13.2716 17.683 13.9256 17.544ZM17.3876 17.543C18.2746 17.299 19.2426 18.029 19.2286 18.935C19.2756 19.813 18.3786 20.58 17.5026 20.405C16.6776 20.301 16.0696 19.41 16.2996 18.622C16.4156 18.098 16.8616 17.672 17.3876 17.542V17.543ZM10.7116 18.088C11.3256 17.985 11.9016 18.658 11.6526 19.232C11.4706 19.844 10.5666 20.009 10.1666 19.51C9.69856 19.03 10.0486 18.154 10.7116 18.088ZM20.8656 18.115C21.4136 17.889 22.0856 18.355 22.0436 18.94C22.0656 19.583 21.2356 20.027 20.7006 19.651C20.0936 19.314 20.2046 18.321 20.8656 18.115ZM23.7036 20.915C23.4896 20.522 23.8786 20.001 24.3236 20.074C24.5436 20.07 24.6986 20.241 24.8396 20.385C24.8686 20.618 24.9176 20.896 24.7206 21.075C24.4536 21.408 23.8486 21.313 23.7036 20.915ZM7.43556 20.183C7.85056 19.912 8.44756 20.317 8.35356 20.793C8.30356 21.216 7.76356 21.457 7.40856 21.217C7.02656 21 7.04056 20.381 7.43556 20.183ZM15.6286 21.066C16.1716 20.831 16.8636 21.296 16.8116 21.884C16.8516 22.534 15.9966 22.984 15.4656 22.594C14.8756 22.259 14.9746 21.273 15.6286 21.066ZM11.8346 21.937C12.2966 21.698 12.9166 22.111 12.8746 22.621C12.8886 23.039 12.4746 23.395 12.0546 23.333C11.7076 23.326 11.4816 23.019 11.3696 22.728C11.3756 22.411 11.5086 22.058 11.8346 21.938V21.937ZM19.5206 21.945C19.9966 21.655 20.6726 22.071 20.6276 22.615C20.6396 23.185 19.8756 23.549 19.4326 23.175C19.0046 22.882 19.0566 22.178 19.5206 21.945ZM20.8576 25.195C20.6456 24.881 20.8946 24.502 21.2376 24.43C21.5146 24.485 21.8076 24.69 21.7486 25.004C21.7086 25.431 21.0746 25.561 20.8576 25.196V25.195ZM10.2466 24.922C10.3306 24.672 10.5346 24.425 10.8336 24.49C11.2686 24.52 11.3976 25.166 11.0166 25.365C10.6746 25.592 10.2766 25.281 10.2466 24.922ZM15.3666 25.209C15.4496 24.839 15.9346 24.66 16.2546 24.856C16.4666 24.946 16.5286 25.178 16.5826 25.376C16.554 25.4789 16.5273 25.5822 16.5026 25.686C16.3716 25.838 16.2026 25.991 15.9846 25.986C15.5796 26.033 15.2136 25.582 15.3656 25.209H15.3666Z" fill="white"/>
<defs>
<filter id="filter0_d" x="4" y="5.50043" width="23.9886" height="21.989" filterUnits="userSpaceOnUse" color-interpolation-filters="sRGB">
<feFlood flood-opacity="0" result="BackgroundImageFix"/>
<feColorMatrix in="SourceAlpha" type="matrix" values="0 0 0 0 0 0 0 0 0 0 0 0 0 0 0 0 0 0 127 0" result="hardAlpha"/>
<feOffset dy="0.5"/>
<feGaussianBlur stdDeviation="0.5"/>
<feColorMatrix type="matrix" values="0 0 0 0 0 0 0 0 0 0 0 0 0 0 0 0 0 0 0.204257 0"/>
<feBlend mode="normal" in2="BackgroundImageFix" result="effect1_dropShadow"/>
<feBlend mode="normal" in="SourceGraphic" in2="effect1_dropShadow" result="shape"/>
</filter>
</defs>
</svg>
