<svg width="32" height="32" viewBox="0 0 32 32" fill="none" xmlns="http://www.w3.org/2000/svg">
<path d="M16 32C24.8366 32 32 24.8366 32 16C32 7.16344 24.8366 0 16 0C7.16344 0 0 7.16344 0 16C0 24.8366 7.16344 32 16 32Z" fill="#FEC807"/>
<path fill-rule="evenodd" clip-rule="evenodd" d="M24.9842 17.631H20.0562L19.1763 14.991H24.9762C25.1746 14.991 25.3649 14.9122 25.5052 14.7719C25.6454 14.6317 25.7243 14.4414 25.7243 14.243C25.7243 14.0446 25.6454 13.8544 25.5052 13.7141C25.3649 13.5738 25.1746 13.495 24.9762 13.495H18.7003L16.1833 5.82203C16.1513 5.56853 16.0301 5.33471 15.8413 5.16256C15.6525 4.99042 15.4085 4.89122 15.1531 4.88279C14.8977 4.87436 14.6477 4.95724 14.448 5.11656C14.2482 5.27587 14.1118 5.50118 14.0632 5.75203L8.04325 24.055C8.02725 24.155 8.02725 24.255 8.04325 24.355C8.04742 24.5989 8.13953 24.8331 8.30262 25.0144C8.46571 25.1958 8.68882 25.3121 8.93088 25.3421C9.17295 25.372 9.41768 25.3135 9.62004 25.1774C9.82241 25.0412 9.96879 24.8365 10.0322 24.601L15.0833 9.20103L16.5262 13.495H15.2762C15.0779 13.495 14.8876 13.5738 14.7473 13.7141C14.6071 13.8544 14.5282 14.0446 14.5282 14.243C14.5282 14.4414 14.6071 14.6317 14.7473 14.7719C14.8876 14.9122 15.0779 14.991 15.2762 14.991H17.0362L17.9163 17.631H15.2762C15.178 17.631 15.0808 17.6504 14.99 17.688C14.8993 17.7256 14.8168 17.7807 14.7473 17.8501C14.6779 17.9196 14.6228 18.002 14.5852 18.0928C14.5476 18.1835 14.5282 18.2808 14.5282 18.379C14.5282 18.4773 14.5476 18.5745 14.5852 18.6653C14.6228 18.756 14.6779 18.8385 14.7473 18.9079C14.8168 18.9774 14.8993 19.0325 14.99 19.0701C15.0808 19.1077 15.178 19.127 15.2762 19.127H18.4363L19.8612 23.351H12.3022C12.0222 23.351 11.7536 23.4623 11.5555 23.6603C11.3575 23.8584 11.2463 24.127 11.2463 24.407C11.2463 24.6871 11.3575 24.9557 11.5555 25.1537C11.7536 25.3518 12.0222 25.463 12.3022 25.463H21.2432C21.7972 25.463 22.2463 25.014 22.2463 24.46C22.2468 24.308 22.2137 24.1577 22.1493 24.02L20.5392 19.127H24.9392C25.0375 19.127 25.1347 19.1077 25.2255 19.0701C25.3162 19.0325 25.3987 18.9774 25.4682 18.9079C25.5376 18.8385 25.5927 18.756 25.6303 18.6653C25.6679 18.5745 25.6873 18.4773 25.6873 18.379C25.6873 18.2808 25.6679 18.1835 25.6303 18.0928C25.5927 18.002 25.5376 17.9196 25.4682 17.8501C25.3987 17.7807 25.3162 17.7256 25.2255 17.688C25.1347 17.6504 25.0375 17.631 24.9392 17.631H24.9832H24.9842Z" fill="white"/>
</svg>
