<svg width="32" height="32" viewBox="0 0 32 32" fill="none" xmlns="http://www.w3.org/2000/svg">
<path d="M16 32C24.8366 32 32 24.8366 32 16C32 7.16344 24.8366 0 16 0C7.16344 0 0 7.16344 0 16C0 24.8366 7.16344 32 16 32Z" fill="#134451"/>
<path d="M13.9992 16.322C13.5022 16.322 13.1262 16.406 12.8662 16.565C12.6162 16.72 12.4902 16.955 12.4902 17.263C12.4902 17.493 12.5682 17.679 12.7152 17.811C12.8662 17.944 13.0782 18.01 13.3422 18.01C13.7522 18.01 14.0942 17.882 14.3662 17.63C14.6392 17.374 14.8242 17.016 14.9162 16.557L14.9582 16.322H13.9982H13.9992ZM19.2632 14.153C19.1122 14.021 18.9002 13.955 18.6372 13.955C18.2262 13.955 17.8842 14.083 17.6122 14.335C17.3402 14.591 17.1542 14.949 17.0632 15.408L17.0202 15.642L17.9802 15.638C18.4772 15.638 18.8532 15.554 19.1122 15.395C19.3622 15.24 19.4882 15.006 19.4882 14.697C19.4882 14.467 19.4152 14.286 19.2632 14.153Z" fill="white"/>
<path d="M26.9653 14.71C26.6373 11.746 21.4553 9.91204 15.3953 10.615C9.33533 11.317 4.68933 14.29 5.01733 17.255C5.34633 20.219 10.5243 22.052 16.5873 21.35C22.6523 20.647 27.2943 17.674 26.9653 14.71ZM20.6253 16.194C20.0113 16.632 19.1163 16.848 17.9413 16.853L16.8003 16.857L16.7653 17.02C16.755 17.0558 16.7492 17.0928 16.7483 17.13C16.7433 17.153 16.7433 17.175 16.7433 17.193C16.7433 17.445 16.8603 17.63 17.0893 17.753C17.3193 17.882 17.6593 17.943 18.1053 17.943C18.5283 17.943 18.9353 17.895 19.3193 17.807C19.6993 17.718 20.0673 17.586 20.4173 17.409L20.1273 18.964C19.6913 19.07 19.2723 19.154 18.8573 19.207C18.4578 19.2643 18.0549 19.294 17.6513 19.296C17.0983 19.296 16.6403 19.229 16.2723 19.088C15.8923 18.942 15.4683 18.624 15.2573 18.169C14.866 18.5422 14.4125 18.844 13.9173 19.061C13.4581 19.2572 12.9637 19.3579 12.4643 19.357C11.8343 19.362 11.3363 19.207 10.9823 18.902C10.6233 18.598 10.4463 18.173 10.4423 17.639C10.4373 16.817 10.7443 16.194 11.3543 15.761C11.9673 15.324 12.8623 15.108 14.0383 15.103L15.1783 15.099L15.2133 14.935C15.224 14.8993 15.2301 14.8623 15.2313 14.825C15.2353 14.803 15.2353 14.781 15.2353 14.763C15.2353 14.511 15.1183 14.326 14.8893 14.202C14.6603 14.074 14.3193 14.012 13.8733 14.012C13.4503 14.012 13.0433 14.061 12.6593 14.149C12.2793 14.237 11.9113 14.369 11.5613 14.547L11.8513 12.992C12.2873 12.886 12.7063 12.802 13.1213 12.749C13.5208 12.6918 13.9238 12.662 14.3273 12.66C14.8813 12.66 15.3393 12.727 15.7073 12.868C16.0873 13.014 16.5103 13.332 16.7223 13.787C17.1135 13.4136 17.567 13.1114 18.0623 12.894C18.5213 12.698 19.0153 12.5973 19.5143 12.598C20.1453 12.594 20.6423 12.748 20.9963 13.053C21.3563 13.358 21.5323 13.783 21.5363 14.317C21.5413 15.134 21.2393 15.761 20.6253 16.194Z" fill="white"/>
<path d="M16.5229 21.703C15.6459 21.805 14.7769 21.853 13.9339 21.853C11.9279 21.853 10.0529 21.571 8.4919 21.018C7.84643 20.7959 7.22895 20.4996 6.6519 20.135C6.4389 21.253 6.5819 22.238 7.1309 22.971C8.7079 25.078 13.1209 24.407 17.4869 21.571C17.1669 21.619 16.8469 21.663 16.5229 21.703ZM15.4989 10.306C18.4589 9.96099 21.3119 10.204 23.5289 10.99C24.1751 11.2122 24.7933 11.5089 25.3709 11.874C25.5819 10.756 25.4399 9.77099 24.8909 9.03799C23.3129 6.93099 18.9009 7.60199 14.5349 10.438C14.8549 10.385 15.1789 10.341 15.4989 10.306Z" fill="white"/>
<path d="M12.2795 24.265C11.7022 24.4033 11.1127 24.4847 10.5195 24.508C10.9655 25.688 11.6615 26.514 12.5815 26.823C14.8035 27.57 17.6775 25.123 19.7135 21.071C19.2335 21.204 18.7365 21.323 18.2355 21.425C16.2465 22.83 14.1725 23.824 12.2795 24.265ZM19.8775 7.71202C20.4551 7.57648 21.0446 7.49811 21.6375 7.47802C21.1955 6.29802 20.5045 5.46802 19.5835 5.15502C17.3665 4.39902 14.4795 6.83302 12.4305 10.871C12.9105 10.739 13.4075 10.624 13.9125 10.527C15.9015 9.12702 17.9805 8.14502 19.8775 7.71202Z" fill="white"/>
</svg>
