<svg width="32" height="32" viewBox="0 0 32 32" fill="none" xmlns="http://www.w3.org/2000/svg">
<path d="M16 32C24.8366 32 32 24.8366 32 16C32 7.16344 24.8366 0 16 0C7.16344 0 0 7.16344 0 16C0 24.8366 7.16344 32 16 32Z" fill="#6916FF"/>
<path d="M17.1448 6.42398C17.0892 6.38388 17.0502 6.32477 17.0353 6.25787C17.0204 6.19097 17.0305 6.12091 17.0638 6.06098C17.1103 6.03113 17.1645 6.01526 17.2198 6.01526C17.2751 6.01526 17.3292 6.03113 17.3758 6.06098C18.0805 6.35354 18.7184 6.7863 19.2508 7.33298C19.5538 7.61398 19.8078 7.94198 20.0008 8.30298C20.2048 8.67098 20.3718 9.05598 20.5008 9.45498C20.6238 9.86798 20.6878 10.297 20.6888 10.727C20.6258 11.152 20.5638 13.212 19.3758 14.182C19.2246 14.2729 19.0451 14.3046 18.8719 14.271C18.6986 14.2374 18.544 14.1408 18.4378 14C18.3529 13.9004 18.3013 13.7768 18.2901 13.6464C18.279 13.5161 18.309 13.3855 18.3758 13.273C18.8809 12.4911 19.1599 11.5847 19.1819 10.6541C19.204 9.72351 18.9682 8.80495 18.5008 7.99998C18.1008 7.43398 17.6468 6.90698 17.1448 6.42398ZM15.3008 25.006C15.4258 25.127 15.4258 25.248 15.3638 25.309C15.3018 25.37 15.1758 25.43 15.1138 25.369C14.409 25.0764 13.7711 24.6437 13.2388 24.097C12.9367 23.8175 12.6832 23.4897 12.4888 23.127C12.2852 22.7604 12.1177 22.375 11.9888 21.976C11.8652 21.5629 11.8019 21.1341 11.8008 20.703C11.8638 20.279 11.9258 18.218 13.1138 17.248C13.2649 17.1573 13.4442 17.1258 13.6172 17.1594C13.7901 17.193 13.9446 17.2894 14.0508 17.43C14.1418 17.5294 14.1923 17.6592 14.1923 17.794C14.1923 17.9287 14.1418 18.0586 14.0508 18.158C13.5459 18.9398 13.267 19.846 13.245 20.7764C13.2229 21.7067 13.4585 22.6251 13.9258 23.43C14.3308 23.997 14.7918 24.525 15.3008 25.006Z" fill="white" fill-opacity="0.5"/>
<path d="M20.6943 20.006C20.6038 18.8425 20.1437 17.7385 19.3813 16.855C18.6095 16.0792 17.7244 15.4251 16.7563 14.915C15.9119 14.4482 15.1162 13.8981 14.3813 13.273C13.7769 12.7049 13.3624 11.9642 13.1943 11.152C13.045 10.3133 13.1517 9.44918 13.5003 8.67197C13.918 7.80731 14.5169 7.04266 15.2563 6.42997C15.2979 6.39288 15.3264 6.34342 15.3378 6.28887C15.3491 6.23431 15.3426 6.17756 15.3193 6.12697C15.3015 6.09508 15.2766 6.06764 15.2467 6.04672C15.2167 6.02579 15.1824 6.01193 15.1463 6.00615C15.1102 6.00038 15.0733 6.00285 15.0383 6.01339C15.0033 6.02392 14.9712 6.04224 14.9443 6.06697C13.9483 6.50146 13.1009 7.21745 12.5063 8.12697C11.8413 9.08248 11.5298 10.2397 11.6253 11.4C11.6752 11.9862 11.8232 12.5598 12.0633 13.097C12.3231 13.6286 12.66 14.1189 13.0633 14.552C13.858 15.3113 14.7641 15.9446 15.7503 16.43C16.5983 16.87 17.3953 17.399 18.1253 18.006C18.7675 18.5695 19.1885 19.3428 19.3133 20.188C19.4893 21.067 19.3793 21.978 19.0003 22.794C18.5749 23.6531 17.9539 24.4004 17.1873 24.976C17.1619 24.9905 17.14 25.0103 17.1228 25.034C17.1056 25.0577 17.0937 25.0847 17.0877 25.1133C17.0818 25.1419 17.082 25.1715 17.0883 25.2001C17.0946 25.2286 17.1069 25.2555 17.1243 25.279C17.1593 25.343 17.2243 25.389 17.2973 25.4C17.3703 25.411 17.4463 25.39 17.5003 25.34C18.4295 24.8035 19.238 24.0811 19.8753 23.218C20.4953 22.26 20.7813 21.134 20.6943 20.006Z" fill="white"/>
</svg>
