<svg width="32" height="32" viewBox="0 0 32 32" fill="none" xmlns="http://www.w3.org/2000/svg">
<path d="M16 32C24.8366 32 32 24.8366 32 16C32 7.16344 24.8366 0 16 0C7.16344 0 0 7.16344 0 16C0 24.8366 7.16344 32 16 32Z" fill="#F49E00"/>
<path d="M19.7549 17.334C22.0009 13.815 23.7499 8 23.7499 8L20.0049 8.849L18.6339 13.699C18.5049 10.063 16.0119 8.732 16.0119 8.732C14.0149 7.759 12.2349 8.187 10.9519 8.856C9.36395 9.682 8.20895 11.122 7.65595 12.78C6.86995 15.139 6.96595 17.786 7.06995 18.984C7.11195 19.546 7.23595 20.099 7.43995 20.627C8.81795 24.2 12.6349 23.997 12.6349 23.997C16.1319 23.873 18.2569 19.755 18.2569 19.755L19.2589 22.783C20.1569 24.302 22.1459 23.733 22.5549 23.648C22.6269 23.632 22.6909 23.624 22.7639 23.608L24.9999 23.267V22.294C20.1319 22.426 19.7549 17.335 19.7549 17.335V17.334ZM15.0159 20.994C14.7148 21.3026 14.3352 21.5232 13.9179 21.632C13.0109 21.858 12.3139 21.477 11.8329 21.01C11.2956 20.4673 10.9276 19.7801 10.7739 19.032C9.89195 14.042 11.1109 11.855 11.9209 10.85C12.1416 10.5683 12.426 10.343 12.7508 10.1928C13.0756 10.0426 13.4314 9.9717 13.7889 9.986C16.9329 10.15 17.6389 16.728 17.6389 16.728C16.7489 19.063 15.6019 20.418 15.0159 20.994Z" fill="white"/>
</svg>
