<svg width="32" height="32" viewBox="0 0 32 32" fill="none" xmlns="http://www.w3.org/2000/svg">
<path d="M16 32C24.8366 32 32 24.8366 32 16C32 7.16344 24.8366 0 16 0C7.16344 0 0 7.16344 0 16C0 24.8366 7.16344 32 16 32Z" fill="#2DAEE4"/>
<path fill-rule="evenodd" clip-rule="evenodd" d="M8.30343 11.957H8.41343C9.37643 11.939 10.2134 11.575 10.9234 10.866C11.6134 10.12 11.9594 9.26501 11.9594 8.30101C11.9594 7.81001 12.1364 7.38701 12.4914 7.03201C12.6597 6.85952 12.8615 6.72333 13.0843 6.63183C13.3072 6.54034 13.5465 6.49547 13.7874 6.50001C14.2774 6.50001 14.7014 6.67701 15.0554 7.03201C15.4104 7.38701 15.5874 7.81001 15.5874 8.30101C15.5874 8.79101 15.4194 9.21501 15.0834 9.57001C14.929 9.73992 14.7419 9.87698 14.5333 9.97303C14.3247 10.0691 14.0989 10.1221 13.8694 10.129C12.8324 10.092 11.9414 10.447 11.1954 11.193C10.4494 11.939 10.0954 12.812 10.1314 13.813C10.1674 14.849 10.5414 15.713 11.2504 16.404C12.0324 17.095 12.9054 17.432 13.8694 17.414C14.099 17.421 14.3248 17.4742 14.5334 17.5704C14.742 17.6667 14.9291 17.8039 15.0834 17.974C15.4194 18.328 15.5874 18.742 15.5874 19.214C15.5874 19.724 15.4104 20.156 15.0554 20.511C14.8916 20.6816 14.6946 20.8167 14.4765 20.9082C14.2584 20.9997 14.0239 21.0456 13.7874 21.043C13.2774 21.043 12.8464 20.865 12.4914 20.511C12.3189 20.3428 12.1827 20.141 12.0913 19.9181C11.9998 19.6952 11.9549 19.4559 11.9594 19.215C11.9671 18.748 11.8791 18.2843 11.7007 17.8527C11.5224 17.421 11.2575 17.0304 10.9224 16.705C10.5988 16.3617 10.2104 16.086 9.77953 15.8938C9.34871 15.7015 8.88405 15.5966 8.41243 15.585C8.06743 15.604 7.77243 15.549 7.52643 15.422C7.28476 15.2981 7.07836 15.1151 6.92643 14.89C6.76974 14.6584 6.65844 14.3991 6.59843 14.126C6.53553 13.8533 6.52198 13.5715 6.55843 13.294C6.79443 12.403 7.37643 11.957 8.30343 11.957ZM8.32843 17.414C8.80143 17.414 9.21543 17.587 9.56943 17.933C9.92443 18.278 10.1104 18.688 10.1294 19.161C10.1104 20.161 10.4564 21.034 11.1654 21.78C11.8754 22.507 12.7294 22.871 13.7304 22.871H13.8124C14.7944 22.871 15.6394 22.507 16.3494 21.78C17.0764 21.052 17.4314 20.18 17.4134 19.16C17.4121 18.6828 17.3119 18.2111 17.1193 17.7744C16.9268 17.3378 16.6459 16.9458 16.2944 16.623C15.5764 15.94 14.7414 15.594 13.7874 15.586H13.6754C13.4459 15.5791 13.2201 15.5261 13.0115 15.43C12.803 15.334 12.6159 15.1969 12.4614 15.027C12.2978 14.8591 12.169 14.6606 12.0824 14.4429C11.9957 14.2251 11.9529 13.9924 11.9564 13.758C11.9564 13.268 12.1344 12.844 12.4884 12.489C12.7894 12.189 13.1464 12.015 13.5584 11.969L13.6784 11.957L13.7244 11.958C13.7721 11.9567 13.8198 11.9571 13.8674 11.959C14.8074 11.947 15.6254 11.592 16.3244 10.893C17.0704 10.147 17.4344 9.26501 17.4154 8.24601C17.4154 7.84601 17.5524 7.48201 17.8254 7.15501L17.8524 7.12801L17.8794 7.10001C17.8794 7.08201 17.8894 7.07301 17.9064 7.07301L17.9344 7.04601V7.01901H17.9614V6.99001C17.9794 6.99001 17.9884 6.98101 17.9884 6.96301L18.0154 6.93601H18.0704C18.0704 6.91701 18.0804 6.90801 18.0974 6.90801L18.1254 6.88101V6.85401H18.1794C18.1794 6.83501 18.1894 6.82601 18.2064 6.82601L18.2344 6.79901L18.2614 6.77201H18.2884C18.2884 6.75401 18.2984 6.74501 18.3164 6.74501C18.3344 6.74501 18.3434 6.73501 18.3434 6.71701H18.3704L18.3974 6.69001H18.4524V6.66301H18.4794L18.5074 6.63501H18.5614V6.61001H18.6164L18.6434 6.58301H18.6984L18.7254 6.55601H18.8074L18.8344 6.52801H18.9164C18.9344 6.52801 18.9434 6.51901 18.9434 6.50101H19.5164L19.5304 6.51501C19.5394 6.52401 19.5524 6.52801 19.5704 6.52801H19.6254L19.6394 6.54201C19.6484 6.55101 19.6614 6.55601 19.6794 6.55601H19.7344L19.7614 6.58301H19.8164L19.8434 6.61001H19.8984C19.9164 6.62801 19.9344 6.63701 19.9524 6.63701L19.9804 6.66501H20.0344V6.69201H20.0624L20.0894 6.71901L20.1024 6.73301C20.1124 6.74301 20.1254 6.74701 20.1434 6.74701L20.1714 6.77401H20.1984C20.1984 6.79201 20.2164 6.80101 20.2524 6.80101L20.2804 6.82801V6.85601H20.3074C20.3074 6.87401 20.3254 6.88301 20.3624 6.88301C20.3624 6.90101 20.3714 6.91001 20.3894 6.91001V6.93801H20.4164L20.4444 6.96501C20.4624 6.98301 20.4804 6.99201 20.4984 6.99201L20.5254 7.02001C20.5254 7.03801 20.5354 7.04701 20.5534 7.04701V7.07401H20.5804C20.5804 7.09201 20.5854 7.10601 20.5944 7.11401L20.6074 7.12901C20.6074 7.14701 20.6174 7.15601 20.6354 7.15601L20.6624 7.18301C20.6624 7.20101 20.6664 7.21501 20.6754 7.22401L20.6894 7.23801L20.7164 7.26501L20.7444 7.29201V7.34701L20.7714 7.37401V7.40001H20.7984C20.7984 7.41901 20.8034 7.43201 20.8124 7.44101L20.8254 7.45501C20.8254 7.47301 20.8354 7.48201 20.8534 7.48201V7.51001C20.8534 7.52801 20.8574 7.54101 20.8664 7.55001L20.8804 7.56401L20.9074 7.59101C20.9074 7.62801 20.9174 7.64601 20.9354 7.64601V7.67301C20.9354 7.69201 20.9394 7.70501 20.9484 7.71401L20.9624 7.72801V7.78201L20.9894 7.81001V7.89201C21.0074 7.91001 21.0164 7.92801 21.0164 7.94601V8.02801C21.0354 8.04601 21.0444 8.06401 21.0444 8.08301V8.30001C21.0444 9.26401 21.3894 10.119 22.0804 10.865C22.7904 11.574 23.6364 11.938 24.6184 11.956C25.1084 11.938 25.5454 12.106 25.9284 12.461C26.3094 12.815 26.5004 13.247 26.5004 13.757C26.5004 14.266 26.3234 14.697 25.9684 15.053C25.8045 15.2237 25.6073 15.3589 25.389 15.4504C25.1708 15.5419 24.9361 15.5877 24.6994 15.585C24.4652 15.5884 24.2327 15.5455 24.0151 15.4589C23.7975 15.3722 23.5992 15.2435 23.4314 15.08C23.2593 14.9213 23.121 14.7295 23.0247 14.5161C22.9285 14.3027 22.8764 14.0721 22.8714 13.838C22.8904 12.838 22.5264 11.956 21.7814 11.192C21.0534 10.464 20.1714 10.11 19.1344 10.128C18.6629 10.1395 18.1983 10.2442 17.7674 10.4363C17.3366 10.6284 16.9481 10.9039 16.6244 11.247C16.2893 11.5724 16.0244 11.9629 15.846 12.3946C15.6677 12.8263 15.5797 13.29 15.5874 13.757L15.5864 13.841C15.6064 14.771 15.9514 15.598 16.6224 16.321C17.3314 17.031 18.1774 17.395 19.1594 17.413C19.8134 17.377 20.3144 17.613 20.6594 18.123C21.0054 18.613 21.1144 19.133 20.9874 19.678C20.7324 20.588 20.1504 21.042 19.2414 21.042H19.1594C18.1404 21.078 17.2944 21.452 16.6224 22.161C15.9304 22.852 15.5854 23.698 15.5854 24.698C15.5854 25.189 15.4084 25.612 15.0534 25.967C14.8895 26.1377 14.6923 26.2729 14.474 26.3644C14.2558 26.4559 14.0211 26.5017 13.7844 26.499H13.7304C13.2394 26.499 12.8204 26.322 12.4754 25.967C12.3082 25.8011 12.176 25.6033 12.0869 25.3853C11.9977 25.1673 11.9533 24.9335 11.9564 24.698C11.9564 23.698 11.6114 22.852 10.9204 22.161C10.5967 21.8179 10.2082 21.5424 9.77741 21.3503C9.34659 21.1582 8.88198 21.0535 8.41043 21.042C8.16271 21.0558 7.91482 21.0181 7.68245 20.9311C7.45007 20.8442 7.23826 20.71 7.06043 20.537C6.87889 20.3686 6.73511 20.1636 6.63858 19.9355C6.54206 19.7075 6.49497 19.4616 6.50043 19.214C6.50043 18.723 6.67743 18.3 7.03243 17.945C7.20066 17.7725 7.40245 17.6363 7.62535 17.5448C7.84824 17.4533 8.08752 17.4085 8.32843 17.413V17.414Z" fill="white"/>
</svg>
