<svg width="32" height="32" viewBox="0 0 32 32" fill="none" xmlns="http://www.w3.org/2000/svg">
<path d="M16 32C24.8366 32 32 24.8366 32 16C32 7.16344 24.8366 0 16 0C7.16344 0 0 7.16344 0 16C0 24.8366 7.16344 32 16 32Z" fill="#A71435"/>
<path d="M10.7552 5.24599C13.2268 4.02013 16.0467 3.68831 18.7353 4.30699C21.424 4.92566 23.8153 6.45662 25.5025 8.63946C27.1897 10.8223 28.0687 13.5222 27.9899 16.28C27.911 19.0378 26.8793 21.6831 25.0702 23.766C24.4752 22.47 24.0192 21.111 23.5092 19.773L20.4292 11.703C20.1322 10.885 19.6332 10.099 18.8582 9.67399C17.773 9.15083 16.5568 8.96217 15.3642 9.13199C14.4082 9.23899 13.4102 9.56799 12.7622 10.322C12.1462 11.033 11.8702 11.947 11.5202 12.807L9.30019 18.435C8.55719 20.219 7.93019 22.067 7.12319 23.84C5.96077 22.5845 5.10656 21.0757 4.62819 19.433C3.80154 16.7229 3.96497 13.8073 5.08929 11.2066C6.21362 8.60585 8.22565 6.48938 10.7662 5.23499L10.7552 5.24499V5.24599Z" fill="white"/>
<path d="M15.1944 13.38C15.4064 12.743 16.2564 12.53 16.8084 12.892C17.1054 13.115 17.2124 13.497 17.3504 13.837C18.7304 17.447 20.0904 21.079 21.4604 24.701C21.6404 25.221 21.9054 25.72 22.0124 26.261C21.9255 26.3536 21.825 26.4325 21.7144 26.495C20.2161 27.2966 18.5643 27.77 16.8689 27.8836C15.1734 27.9972 13.4732 27.7485 11.8814 27.154C11.2864 26.909 10.6714 26.697 10.1504 26.325C10.2034 25.837 10.4474 25.401 10.6284 24.955C12.1574 21.101 13.6544 17.235 15.1944 13.38Z" fill="white"/>
</svg>
