<svg width="32" height="32" viewBox="0 0 32 32" fill="none" xmlns="http://www.w3.org/2000/svg">
<path d="M16 32C24.8366 32 32 24.8366 32 16C32 7.16344 24.8366 0 16 0C7.16344 0 0 7.16344 0 16C0 24.8366 7.16344 32 16 32Z" fill="#0092B5"/>
<path d="M11.7596 14.102L16.0416 6.564C16.0496 6.55 16.0656 6.541 16.1216 6.564L20.1956 13.965C20.0814 14.0582 19.9898 14.1761 19.9276 14.3099C19.8655 14.4436 19.8345 14.5896 19.8369 14.7371C19.8393 14.8845 19.8751 15.0295 19.9415 15.1611C20.008 15.2927 20.1034 15.4075 20.2206 15.497L16.4576 22.285C16.3236 22.2206 16.177 22.1867 16.0283 22.1857C15.8796 22.1846 15.7325 22.2165 15.5976 22.279L11.7246 15.38C11.8841 15.2072 11.9754 14.9824 11.9816 14.7474C11.9879 14.5124 11.9086 14.283 11.7586 14.102H11.7596ZM11.3496 15.636L15.2376 22.561C15.1537 22.666 15.0924 22.7872 15.0576 22.917C11.9186 22.165 9.96863 21.7 9.20563 21.521C8.88294 21.0672 8.60053 20.586 8.36163 20.083L10.8536 15.697C11.0214 15.7183 11.1918 15.6976 11.3496 15.637V15.636ZM10.8106 13.753L7.72363 8.253C9.82763 7.136 12.4386 6.55 15.5586 6.5L11.3966 13.826C11.213 13.7437 11.0089 13.7183 10.8106 13.753ZM10.3906 13.929C10.2623 14.0216 10.1584 14.1439 10.0879 14.2855C10.0173 14.4271 9.9822 14.5837 9.98554 14.7419C9.98889 14.9001 10.0306 15.0551 10.1071 15.1936C10.1836 15.3321 10.2925 15.4499 10.4246 15.537L8.13463 19.567C7.75415 18.6247 7.52792 17.6273 7.46463 16.613L7.00163 9.231C6.99301 9.08884 7.01867 8.9467 7.07644 8.81653C7.13422 8.68636 7.22242 8.57197 7.33363 8.483L10.3906 13.929ZM16.9906 22.927C16.9572 22.7979 16.8976 22.6771 16.8156 22.572L20.6336 15.685C20.7984 15.7181 20.9688 15.7098 21.1296 15.661L23.6036 20.155C23.3936 20.587 23.1516 21.003 22.8796 21.4L16.9906 22.927ZM16.2496 24.127C16.4308 24.086 16.5968 23.995 16.7289 23.8644C16.8609 23.7338 16.9537 23.5687 16.9966 23.388L22.4526 21.973C21.7931 22.7929 21.004 23.4995 20.1166 24.065L16.4936 26.379C16.4181 26.4274 16.3359 26.4645 16.2496 26.489V24.127ZM15.7956 24.127V26.5C15.6927 26.4767 15.5946 26.4358 15.5056 26.379L11.8826 24.065C11.0355 23.5251 10.2777 22.8564 9.63663 22.083C10.6266 22.318 12.4296 22.748 15.0456 23.374C15.1256 23.747 15.4196 24.042 15.7956 24.128V24.127ZM21.1656 13.793C20.9841 13.7303 20.7885 13.7206 20.6016 13.765L16.6046 6.503C19.6366 6.57 22.1846 7.149 24.2456 8.238L21.1656 13.793ZM21.5486 14.034L24.6386 8.462C24.7579 8.55004 24.8534 8.6665 24.9162 8.8008C24.9791 8.9351 25.0074 9.08298 24.9986 9.231L24.5356 16.614C24.4704 17.654 24.2339 18.6761 23.8356 19.639L21.5216 15.436C21.6176 15.347 21.6946 15.2395 21.7481 15.1201C21.8016 15.0006 21.8305 14.8716 21.833 14.7407C21.8355 14.6099 21.8116 14.4798 21.7628 14.3584C21.7139 14.237 21.6411 14.1267 21.5486 14.034ZM15.9996 11.234C15.8581 11.2363 15.7228 11.293 15.622 11.3925C15.5213 11.492 15.4627 11.6265 15.4586 11.768V13.722L12.5726 15.5L12.8816 16.167L15.4586 15.323V17.277L14.7366 17.81V18.343L15.9996 17.987L17.2626 18.342V17.809L16.5406 17.276V15.322L19.0736 16.212L19.4266 15.5L16.5406 13.722V11.768C16.5363 11.6268 16.4778 11.4927 16.3773 11.3935C16.2767 11.2942 16.1419 11.2375 16.0006 11.235L15.9996 11.234Z" fill="white"/>
</svg>
