<svg width="32" height="32" viewBox="0 0 32 32" fill="none" xmlns="http://www.w3.org/2000/svg">
<path d="M16 32C24.8366 32 32 24.8366 32 16C32 7.16344 24.8366 0 16 0C7.16344 0 0 7.16344 0 16C0 24.8366 7.16344 32 16 32Z" fill="#436697"/>
<path d="M19.0751 20.716C19.0264 20.7137 18.9792 20.6978 18.9391 20.67C18.9027 20.6472 18.8719 20.6164 18.8491 20.58H18.8401L16.6221 24.475C18.8761 23.98 21.1221 23.475 23.3751 22.979C23.3236 22.9152 23.2756 22.8488 23.2311 22.78C23.1681 22.69 23.1141 22.582 23.0511 22.465C22.9935 22.3585 22.9395 22.2501 22.8891 22.14V22.131C22.8891 22.122 22.8791 22.113 22.8791 22.113C22.772 21.8852 22.673 21.6537 22.5821 21.419C22.5551 21.356 22.5371 21.302 22.5101 21.248C22.3729 20.9084 22.2435 20.5656 22.1221 20.22C21.7431 20.292 21.4281 20.355 21.2121 20.4C21.2021 20.4 21.1931 20.4 21.1841 20.409C20.8511 20.481 20.5351 20.544 20.2291 20.599C20.0571 20.634 19.8951 20.652 19.7421 20.679C19.7061 20.689 19.6611 20.689 19.6071 20.698C19.6071 20.698 19.4981 20.716 19.3541 20.725C19.2607 20.7321 19.1668 20.7287 19.0741 20.715L19.0751 20.716ZM21.1481 17.271C21.1001 17.0988 21.061 16.9242 21.0311 16.748L19.3361 19.724L19.3461 19.714C19.4171 19.688 19.4981 19.661 19.5981 19.634C19.8321 19.561 20.1201 19.489 20.4721 19.399C20.8241 19.309 21.2391 19.209 21.7251 19.084C21.6261 18.786 21.5181 18.48 21.4191 18.164C21.3176 17.8699 21.2276 17.572 21.1491 17.271H21.1481ZM23.7631 11.997H23.7271L21.5371 15.847C21.5451 15.847 21.5631 15.856 21.5901 15.856C21.6001 15.856 21.6001 15.856 21.6081 15.865C21.6181 15.865 21.6181 15.865 21.6261 15.874C21.6361 15.874 21.6361 15.883 21.6441 15.883C21.6541 15.883 21.6541 15.883 21.6621 15.892C21.6887 15.9062 21.713 15.9244 21.7341 15.946C21.7701 15.982 21.7981 16.018 21.8071 16.027C21.8161 16.037 21.8161 16.045 21.8251 16.054C21.8451 16.0828 21.8631 16.1128 21.8791 16.144C21.9241 16.225 21.9511 16.27 21.9511 16.27C22.0591 16.478 22.1671 16.721 22.2751 17.01C22.3841 17.298 22.5011 17.605 22.6091 17.93C22.6361 18.002 22.6541 18.065 22.6811 18.137C22.7441 18.327 22.8251 18.561 22.9161 18.831C23.2941 18.759 23.6551 18.687 24.0061 18.624C24.3581 18.561 24.6741 18.516 24.9621 18.489C25.2511 18.461 25.4941 18.443 25.7021 18.452C25.8191 18.452 25.9091 18.462 25.9901 18.48C26.0081 18.48 26.0351 18.489 26.0531 18.489C25.8821 18.011 25.7021 17.479 25.4941 16.911L23.7641 11.997H23.7631ZM25.8281 19.291C25.579 19.3825 25.3261 19.4636 25.0701 19.534C25.0161 19.552 24.9621 19.561 24.9171 19.58C24.8721 19.589 24.8271 19.607 24.7821 19.616C24.6569 19.6503 24.5305 19.6804 24.4031 19.706C24.3317 19.7261 24.2596 19.7441 24.1871 19.76H24.1771C23.9611 19.814 23.6731 19.877 23.3391 19.95C23.4111 20.202 23.5021 20.481 23.6091 20.797C23.7091 21.112 23.8091 21.419 23.8891 21.707C23.9161 21.797 23.9341 21.879 23.9611 21.969C24.0071 22.104 24.0431 22.239 24.0701 22.402C24.0791 22.429 24.0791 22.456 24.0881 22.482C24.1241 22.627 24.1331 22.735 24.1241 22.816C24.1241 22.816 24.5021 22.744 24.6921 22.699C25.4401 21.7355 26.022 20.654 26.4141 19.499C26.3601 19.336 26.3061 19.183 26.2521 19.02C26.1701 19.129 26.0351 19.21 25.8281 19.291ZM13.9711 5.31598H14.0071C14.0431 5.31598 14.0891 5.33398 14.1431 5.36998C14.1701 5.38798 14.2061 5.40598 14.2331 5.43298C14.2713 5.46028 14.3074 5.49036 14.3411 5.52298C14.5031 5.66698 14.6841 5.83898 14.8911 6.04598C15.0891 6.24398 15.2971 6.46098 15.5131 6.69598C15.7201 6.91998 15.9101 7.12798 16.0811 7.29898C16.1621 7.21798 16.2431 7.12798 16.3251 7.02898C16.4241 6.91998 16.5231 6.81198 16.6221 6.69498C16.7221 6.58698 16.8201 6.46998 16.9291 6.36998C17.0281 6.26198 17.1271 6.16298 17.2261 6.06398L17.3701 5.91998C17.4251 5.86598 17.4791 5.81998 17.5241 5.77498C17.6141 5.69498 17.6951 5.62198 17.7761 5.55898C17.9481 5.41498 18.0741 5.35198 18.1731 5.35198C18.2091 5.35198 18.2451 5.36098 18.2811 5.36998L18.1821 5.25198L17.9201 5.19798C17.9111 5.19798 17.9021 5.19798 17.8931 5.18898C17.8131 5.17098 17.7311 5.16198 17.6501 5.15298H17.6321C17.5511 5.14398 17.4611 5.12598 17.3801 5.11698H17.3701C16.9201 5.06298 16.4601 5.02698 15.9911 5.02698H15.7381C15.6581 5.02698 15.5851 5.03698 15.5131 5.03698H15.4861C15.4051 5.03698 15.3331 5.04498 15.2521 5.05398H15.2421C14.8281 5.08098 14.4221 5.13498 14.0251 5.20698C13.9891 5.24298 13.9621 5.27998 13.9261 5.32498C13.9441 5.32498 13.9531 5.31498 13.9711 5.31498V5.31598ZM7.78613 10.446C7.83113 10.41 7.88613 10.356 7.97613 10.32C8.0809 10.2719 8.19396 10.2444 8.30913 10.239C8.46213 10.229 8.57913 10.275 8.64313 10.293C10.0761 8.67898 11.5101 7.07298 12.9431 5.45998L12.5921 5.56798C11.7891 5.83798 10.7251 6.28898 9.61613 7.08298C8.64743 7.7865 7.79565 8.63828 7.09213 9.60698C7.02013 9.71598 6.93913 9.81498 6.86613 9.92298C7.17313 10.094 7.48013 10.275 7.78613 10.446ZM7.55213 11.519C7.48637 11.397 7.45201 11.2606 7.45213 11.122V11.059C7.45213 11.059 7.46213 11.014 7.46213 10.996L6.53213 10.473C5.61997 12.0245 5.10602 13.7776 5.03613 15.576V16.334C5.06313 17.181 5.18013 18.002 5.38813 18.786C6.19013 16.46 7.00213 14.143 7.80413 11.816C7.69959 11.7364 7.61361 11.6351 7.55213 11.519ZM18.4981 5.88398C18.4773 5.94815 18.447 6.00884 18.4081 6.06398C18.3473 6.17559 18.2809 6.28406 18.2091 6.38898C18.1641 6.45198 18.1191 6.52398 18.0741 6.59598C17.9564 6.76833 17.833 6.93675 17.7041 7.10098C17.6411 7.17298 17.5871 7.25398 17.5241 7.33498C17.5141 7.34498 17.5061 7.36198 17.4971 7.37098C17.3801 7.51598 17.2531 7.66898 17.1181 7.82198C17.0181 7.93898 16.9281 8.04798 16.8201 8.16498C16.9561 8.31798 17.1091 8.47998 17.2621 8.66098C17.3161 8.71498 17.3701 8.77798 17.4161 8.84098C17.5241 8.95798 17.6231 9.07498 17.7221 9.19298L18.0111 9.53498C18.1911 9.76098 18.3441 9.95898 18.4711 10.139C18.5791 10.302 18.6331 10.419 18.6511 10.509V10.545C18.6511 10.635 18.6061 10.725 18.5251 10.807H22.8351C22.8621 10.7361 22.8984 10.6692 22.9431 10.608L18.5331 5.65798V5.67598C18.5358 5.74697 18.5239 5.81776 18.4981 5.88398ZM21.0851 6.27998C21.0671 6.27098 21.0581 6.26198 21.0401 6.26198C20.9195 6.19658 20.796 6.13652 20.6701 6.08198C20.6464 6.07551 20.6247 6.06312 20.6071 6.04598C20.4879 5.9903 20.3679 5.93629 20.2471 5.88398C20.2201 5.87398 20.2021 5.86598 20.1751 5.85698C20.045 5.80022 19.9125 5.74884 19.7781 5.70298C19.7601 5.69398 19.7421 5.69398 19.7241 5.68498C19.5891 5.63098 19.4441 5.58598 19.3001 5.54098C20.6981 7.10998 22.0951 8.68798 23.5021 10.257C23.5201 10.257 23.5471 10.247 23.5651 10.247H23.7541C23.7991 10.257 23.8801 10.266 23.9801 10.302C23.9891 10.302 23.9981 10.311 24.0071 10.32C24.0161 10.329 24.0341 10.329 24.0431 10.338C24.1108 10.3726 24.1742 10.4149 24.2321 10.464C24.2411 10.464 24.2411 10.473 24.2501 10.473C24.2771 10.491 24.2951 10.518 24.3131 10.536C24.6111 10.365 24.9081 10.202 25.1971 10.031C24.25 8.58287 22.9779 7.37585 21.4821 6.50598H21.4731C21.3471 6.42498 21.2111 6.35198 21.0851 6.27998ZM17.7041 10.68C17.6591 10.644 17.6231 10.608 17.5781 10.572L17.2981 10.32L17.1541 10.175C16.9941 10.0194 16.8407 9.85728 16.6941 9.68898C16.5861 9.57098 16.4871 9.45398 16.3881 9.34598C16.2881 9.22898 16.1801 9.11998 16.0811 9.01198C15.7481 9.35498 15.4681 9.65198 15.2341 9.90498C15.1801 9.95898 15.1251 10.022 15.0711 10.076L15.0531 10.094C14.9451 10.202 14.8551 10.302 14.7651 10.392L14.6391 10.518C14.5306 10.6238 14.4161 10.7233 14.2961 10.816H17.8571C17.8481 10.806 17.8301 10.798 17.8211 10.789C17.7851 10.743 17.7411 10.716 17.7041 10.68ZM9.15713 10.807H13.6111C13.5931 10.789 13.5751 10.761 13.5571 10.743C13.5391 10.725 13.5301 10.698 13.5201 10.68C13.5021 10.635 13.4841 10.59 13.4841 10.545C13.4841 10.518 13.4941 10.482 13.5021 10.437C13.5021 10.427 13.5121 10.419 13.5121 10.41C13.5201 10.392 13.5301 10.365 13.5481 10.338C13.5751 10.284 13.6111 10.22 13.6561 10.158C13.6651 10.148 13.6651 10.139 13.6741 10.139C13.9443 9.75918 14.2361 9.39525 14.5481 9.04898C14.6056 8.98042 14.6657 8.91405 14.7281 8.84998C14.7921 8.78698 14.8461 8.71498 14.9091 8.65198C15.0441 8.49798 15.1791 8.34498 15.2971 8.20098C15.3061 8.19098 15.3151 8.18298 15.3151 8.17398C14.9861 7.79252 14.6643 7.40478 14.3501 7.01098C14.2601 6.89298 14.1791 6.77598 14.0981 6.66798C13.9644 6.47938 13.8409 6.28377 13.7281 6.08198L13.6741 5.97398C13.6561 5.93798 13.6471 5.90198 13.6291 5.87398C13.6111 5.81098 13.5931 5.75698 13.5931 5.71198L9.12013 10.725C9.13013 10.752 9.14813 10.78 9.15713 10.807ZM16.4061 26.955C19.2861 26.8504 22.0082 25.6126 23.9801 23.511C21.4551 24.07 18.9301 24.629 16.4061 25.179V26.955ZM26.8471 17.614C26.8561 17.578 26.8561 17.551 26.8651 17.514C26.8741 17.424 26.8921 17.344 26.9011 17.254V17.244L26.9281 16.964C26.9281 16.938 26.9371 16.911 26.9371 16.884C26.9371 16.83 26.9461 16.784 26.9461 16.73C26.9641 16.45 26.9731 16.19 26.9731 15.946C26.9651 14.3056 26.5892 12.6879 25.8731 11.212L25.8461 11.158C25.8101 11.077 25.7651 11.005 25.7291 10.924L25.6751 10.816C25.6301 10.734 25.5851 10.644 25.5391 10.563C25.2061 10.753 24.8811 10.933 24.5481 11.123C24.5481 11.149 24.5481 11.176 24.5381 11.203C24.5301 11.257 24.5201 11.303 24.5111 11.348C24.5021 11.375 24.4931 11.393 24.4841 11.42C24.4585 11.4866 24.4253 11.55 24.3851 11.609C24.3671 11.627 24.3581 11.645 24.3401 11.663C25.1251 13.926 25.9091 16.18 26.6931 18.443C26.7391 18.254 26.7751 18.056 26.8111 17.866C26.8111 17.848 26.8201 17.83 26.8201 17.803C26.8311 17.7399 26.8401 17.6766 26.8471 17.613V17.614Z" fill="white"/>
<path d="M22.8429 11.438C22.8974 11.5787 22.9877 11.7028 23.1049 11.798L16.0449 24.214L8.95791 11.744C9.04251 11.6551 9.10998 11.5514 9.15691 11.438H22.8429ZM15.7109 19.58C15.5869 19.58 15.4859 19.68 15.4859 19.805V19.809C15.4859 19.919 15.5549 20.006 15.6509 20.031L15.7109 20.039C15.741 20.0394 15.771 20.0337 15.7988 20.0223C15.8267 20.0108 15.852 19.9938 15.8731 19.9723C15.8942 19.9508 15.9108 19.9253 15.9217 19.8972C15.9327 19.8691 15.9379 19.8391 15.9369 19.809V19.805C15.9369 19.7754 15.9311 19.746 15.9197 19.7187C15.9083 19.6913 15.8917 19.6664 15.8707 19.6455C15.8497 19.6246 15.8247 19.6081 15.7973 19.5968C15.7699 19.5856 15.7405 19.5799 15.7109 19.58ZM13.8099 17.36C13.765 17.3599 13.7211 17.3733 13.6838 17.3985C13.6466 17.4236 13.6177 17.4593 13.6009 17.501L13.5929 17.525L13.5849 17.585C13.5849 17.712 13.6839 17.811 13.8099 17.811C13.9359 17.811 14.0349 17.712 14.0349 17.586C14.0349 17.46 13.9359 17.36 13.8099 17.36ZM17.4259 12.924C16.9749 12.757 16.7079 12.939 16.5919 13.06L16.5829 13.07C16.5561 13.0962 16.5331 13.1262 16.5149 13.159C16.5149 13.168 16.5049 13.177 16.5149 13.177C16.5149 13.186 16.5239 13.186 16.5329 13.195C17.3349 13.592 17.9399 13.898 18.2009 14.033L18.2279 14.051C18.2549 14.069 18.3359 14.106 18.3449 14.169C18.3559 14.222 18.3219 14.276 18.2769 14.324L18.2379 14.362L18.1919 14.403L18.1519 14.437C18.0489 14.523 17.9109 14.635 17.1549 15.224C17.1241 15.255 17.0874 15.2795 17.0469 15.296C17.0082 15.3173 16.9651 15.3297 16.9209 15.332H16.8939C16.8489 15.332 16.8119 15.332 16.6589 15.269C16.5931 15.2436 16.5221 15.2344 16.4519 15.242L16.3619 15.269C16.3439 15.278 16.3349 15.287 16.3169 15.296C16.3086 15.3038 16.3 15.3111 16.2909 15.318L16.3079 15.305C16.2848 15.3207 16.2633 15.3388 16.2439 15.359C16.2349 15.368 16.2349 15.377 16.2349 15.386C16.2489 15.386 16.2579 15.386 16.2649 15.39L16.2679 15.398L16.2809 15.404C16.2989 15.404 16.3079 15.404 16.3259 15.413C16.3481 15.4135 16.3698 15.4197 16.3889 15.431C16.4632 15.4613 16.5337 15.5003 16.5989 15.547L16.5509 15.512C16.5891 15.5393 16.6252 15.5694 16.6589 15.602C16.6915 15.6357 16.7216 15.6718 16.7489 15.71L16.8309 15.828L16.9029 15.927C16.9233 15.9669 16.9384 16.0092 16.9479 16.053C16.9658 16.1147 16.9749 16.1787 16.9749 16.243V16.351C16.9749 16.36 16.9749 16.369 16.9839 16.378L16.9879 16.38L16.9929 16.387H17.0199C17.0469 16.369 17.0739 16.36 17.0919 16.342C17.1009 16.324 17.1189 16.315 17.1279 16.306C17.1535 16.2883 17.1725 16.2626 17.1819 16.233C17.2179 16.153 17.2179 16.071 17.2179 16.026C17.1999 15.855 17.2179 15.819 17.2359 15.783C17.2359 15.773 17.2459 15.765 17.2459 15.756C17.262 15.7152 17.2861 15.6781 17.3169 15.647C17.351 15.6143 17.3874 15.5843 17.4259 15.557C17.7625 15.3144 18.1057 15.081 18.4549 14.857L18.5169 14.817C18.5969 14.773 18.7149 14.692 18.7969 14.737C18.8078 14.7434 18.8176 14.7515 18.8259 14.761C18.8499 14.8 18.8619 14.855 18.8679 14.881L18.8779 14.926C18.9309 15.242 19.0399 15.891 19.1749 16.756C19.1749 16.766 19.1839 16.774 19.1839 16.774C19.1849 16.78 19.1869 16.784 19.1929 16.784C19.2019 16.792 19.2019 16.792 19.2109 16.792C19.2199 16.792 19.7339 16.675 19.6979 15.999L19.6259 14.385V14.345C19.6277 14.2609 19.6489 14.1785 19.6879 14.104C19.727 14.0296 19.7828 13.9652 19.8509 13.916L20.3379 13.529C20.3379 13.529 20.6349 13.321 20.5809 12.997C20.5719 12.987 20.5719 12.979 20.5629 12.979L20.5699 12.983C20.5629 12.972 20.5589 12.969 20.5539 12.969C20.2569 12.816 19.9769 13.042 19.9769 13.042L19.4539 13.393C19.3824 13.4497 19.2971 13.4863 19.2067 13.4989C19.1163 13.5116 19.0242 13.4999 18.9399 13.465L18.4529 13.295L17.4259 12.924ZM13.3679 13.465C13.3081 13.4653 13.2509 13.4892 13.2088 13.5315C13.1666 13.5739 13.1429 13.6312 13.1429 13.691V13.695C13.1429 13.805 13.2119 13.891 13.3079 13.917L13.3679 13.925C13.398 13.9254 13.428 13.9197 13.4558 13.9083C13.4837 13.8968 13.509 13.8798 13.5301 13.8583C13.5512 13.8368 13.5678 13.8113 13.5787 13.7832C13.5897 13.7551 13.5949 13.7251 13.5939 13.695V13.691C13.5939 13.631 13.5701 13.5736 13.5277 13.5312C13.4853 13.4888 13.4279 13.465 13.3679 13.465ZM15.0719 12.338C15.0121 12.3383 14.9549 12.3622 14.9128 12.4045C14.8706 12.4469 14.8469 12.5042 14.8469 12.564V12.568C14.8469 12.678 14.9159 12.764 15.0119 12.79L15.0719 12.798C15.102 12.7984 15.132 12.7927 15.1598 12.7813C15.1877 12.7698 15.213 12.7528 15.2341 12.7313C15.2552 12.7098 15.2718 12.6843 15.2827 12.6562C15.2937 12.6281 15.2989 12.5981 15.2979 12.568V12.564C15.2979 12.504 15.2741 12.4466 15.2317 12.4042C15.1893 12.3618 15.1319 12.338 15.0719 12.338ZM10.9519 12.338C10.9222 12.338 10.8928 12.3438 10.8654 12.3552C10.838 12.3665 10.8131 12.3832 10.7921 12.4042C10.7711 12.4252 10.7545 12.4501 10.7431 12.4775C10.7318 12.5049 10.7259 12.5343 10.7259 12.564L10.7269 12.568C10.7269 12.678 10.7949 12.764 10.8909 12.79L10.9509 12.798C10.981 12.7984 11.011 12.7927 11.0388 12.7813C11.0667 12.7698 11.092 12.7528 11.1131 12.7313C11.1342 12.7098 11.1508 12.6843 11.1617 12.6562C11.1727 12.6281 11.1779 12.5981 11.1769 12.568V12.564C11.1769 12.439 11.0769 12.338 10.9519 12.338ZM8.02991 22.492C8.06591 22.32 8.10991 22.14 8.16491 21.932L8.21891 21.716C8.29991 21.428 8.38991 21.121 8.49891 20.806C8.52491 20.725 8.55191 20.652 8.56991 20.58C8.61591 20.436 8.65991 20.292 8.70591 20.157C8.72269 20.0923 8.74373 20.0289 8.76891 19.967C8.52491 19.913 8.23691 19.841 7.92991 19.777C7.62777 19.7094 7.32735 19.6344 7.02891 19.552C6.81191 19.489 6.61391 19.435 6.44291 19.372C6.37991 19.354 6.32491 19.327 6.27091 19.309C6.20656 19.2853 6.14347 19.2582 6.08191 19.228C6.03461 19.205 5.98943 19.1779 5.94691 19.147C5.86591 19.372 5.79291 19.597 5.71191 19.823C6.09991 20.86 6.63191 21.816 7.29891 22.681C7.53391 22.735 7.75891 22.781 7.99291 22.834C7.99004 22.7189 8.00249 22.6038 8.02991 22.492ZM6.17191 18.48C6.24391 18.47 6.31591 18.461 6.40691 18.461C6.61391 18.461 6.85691 18.471 7.13691 18.498C7.42491 18.525 7.74091 18.57 8.08391 18.633C8.43491 18.696 8.79591 18.759 9.16591 18.84C9.26491 18.56 9.36391 18.263 9.47191 17.939C9.6221 17.4974 9.78753 17.0611 9.96791 16.631C10.0184 16.5154 10.0724 16.4013 10.1299 16.289C10.1659 16.207 10.2019 16.144 10.2389 16.09C10.268 16.0451 10.3012 16.0029 10.3379 15.964C10.3567 15.9461 10.3779 15.9309 10.4009 15.919C10.4417 15.8946 10.4884 15.8821 10.5359 15.883L8.39991 12.069L6.17291 18.479L6.17191 18.48ZM11.8429 20.607C11.7709 20.589 11.6899 20.58 11.6179 20.562C11.4579 20.5324 11.2985 20.4994 11.1399 20.463L10.8969 20.409C10.5629 20.337 10.2569 20.274 9.96791 20.219C9.90491 20.4 9.84191 20.571 9.76991 20.752C9.70904 20.9224 9.64267 21.0908 9.57091 21.257C9.50791 21.419 9.44491 21.572 9.38191 21.725C9.32201 21.8649 9.25865 22.0032 9.19191 22.14C9.08703 22.363 8.96985 22.58 8.84091 22.79C8.8047 22.8588 8.75928 22.9224 8.70591 22.979L15.4499 24.466L13.2049 20.616L13.1689 20.652C13.1532 20.6674 13.1349 20.6799 13.1149 20.689C13.0339 20.734 12.8799 20.743 12.6449 20.725C12.4521 20.704 12.26 20.6767 12.0689 20.643C11.9879 20.634 11.9159 20.616 11.8429 20.607ZM10.9959 16.992C10.9779 17.082 10.9509 17.182 10.9239 17.289L10.8699 17.506C10.8069 17.722 10.7429 17.948 10.6619 18.182C10.6068 18.337 10.5558 18.4934 10.5089 18.651C10.4549 18.804 10.4089 18.957 10.3559 19.101C10.5989 19.165 10.8339 19.219 11.0409 19.273C11.1489 19.3 11.2479 19.327 11.3479 19.345C11.4469 19.372 11.5369 19.39 11.6269 19.417C11.6719 19.427 11.7169 19.435 11.7529 19.453L11.8799 19.48C11.9599 19.498 12.0329 19.516 12.1049 19.543C12.2489 19.58 12.3849 19.616 12.4929 19.652C12.6009 19.679 12.6909 19.715 12.7729 19.742L11.0589 16.73C11.0316 16.8157 11.0105 16.9032 10.9959 16.992ZM9.90491 25.116C10.0849 25.233 10.2749 25.35 10.4819 25.467C11.0409 25.792 11.5729 26.035 12.0509 26.225C12.1859 26.279 12.3209 26.333 12.4749 26.387C13.5333 26.7449 14.64 26.9394 15.7569 26.964V25.188C13.1599 24.62 10.5719 24.043 7.97491 23.475C8.55851 24.0883 9.20546 24.638 9.90491 25.115V25.116Z" fill="white"/>
</svg>
