<svg width="32" height="32" viewBox="0 0 32 32" fill="none" xmlns="http://www.w3.org/2000/svg">
<path d="M16 32C24.8366 32 32 24.8366 32 16C32 7.16344 24.8366 0 16 0C7.16344 0 0 7.16344 0 16C0 24.8366 7.16344 32 16 32Z" fill="#343434"/>
<path d="M23.9171 21.11C24.0935 21.0493 24.2449 20.9321 24.3479 20.7766C24.451 20.6212 24.4999 20.4361 24.4871 20.25V21.35C24.4884 21.5371 24.4319 21.7201 24.3255 21.874C24.219 22.0279 24.0677 22.1452 23.8921 22.21L16.3041 24.943C16.1127 25.0191 15.8995 25.0191 15.7081 24.943L8.1201 22.211C7.9437 22.1475 7.79154 22.0304 7.68487 21.8763C7.5782 21.7221 7.52234 21.5384 7.5251 21.351V20.251C7.5251 20.63 7.7601 20.984 8.1201 21.111L15.7331 23.843C15.9242 23.9189 16.137 23.9189 16.3281 23.843L23.9171 21.11ZM23.9171 19.162C24.0917 19.0986 24.2413 18.9808 24.3439 18.826C24.4466 18.6712 24.4967 18.4875 24.4871 18.302V19.402C24.4884 19.5891 24.4319 19.7721 24.3255 19.926C24.219 20.0799 24.0677 20.1972 23.8921 20.262L16.3041 22.995C16.1127 23.0711 15.8995 23.0711 15.7081 22.995L8.1201 20.263C7.9437 20.1995 7.79154 20.0824 7.68487 19.9283C7.5782 19.7741 7.52234 19.5904 7.5251 19.403V18.29C7.5251 18.682 7.7601 19.023 8.1201 19.162L15.7331 21.895C15.9242 21.9709 16.137 21.9709 16.3281 21.895L23.9171 19.162ZM23.9171 17.202C24.091 17.1397 24.2408 17.0243 24.3455 16.8721C24.4501 16.7199 24.5042 16.5386 24.5001 16.354V17.454C24.5013 17.6412 24.4447 17.8243 24.3381 17.9782C24.2314 18.1321 24.0799 18.2494 23.9041 18.314L16.3161 21.047C16.125 21.1229 15.9122 21.1229 15.7211 21.047L8.1201 18.302C7.9437 18.2385 7.79154 18.1214 7.68487 17.9673C7.5782 17.8131 7.52234 17.6294 7.5251 17.442V16.342C7.5251 16.721 7.7601 17.075 8.1201 17.202L15.7331 19.934C15.9242 20.0099 16.137 20.0099 16.3281 19.934L23.9171 17.202ZM7.5001 10.662C7.49734 10.4745 7.5532 10.2909 7.65987 10.1367C7.76654 9.98251 7.9187 9.86549 8.0951 9.80198L15.6961 7.05698C15.8872 6.98109 16.1 6.98109 16.2911 7.05698L23.8921 9.80198C24.0685 9.86549 24.2207 9.98251 24.3273 10.1367C24.434 10.2909 24.4899 10.4745 24.4871 10.662V15.494C24.4884 15.6811 24.4319 15.8641 24.3255 16.018C24.219 16.1719 24.0677 16.2892 23.8921 16.354L16.2791 19.086C16.088 19.1619 15.8752 19.1619 15.6841 19.086L8.0951 16.354C7.9187 16.2905 7.76654 16.1734 7.65987 16.0193C7.5532 15.8651 7.49734 15.6814 7.5001 15.494V10.662Z" fill="white"/>
</svg>
