<svg width="32" height="32" viewBox="0 0 32 32" fill="none" xmlns="http://www.w3.org/2000/svg">
<path d="M16 32C24.8366 32 32 24.8366 32 16C32 7.16344 24.8366 0 16 0C7.16344 0 0 7.16344 0 16C0 24.8366 7.16344 32 16 32Z" fill="#346FCE"/>
<path fill-rule="evenodd" clip-rule="evenodd" d="M20.1605 18.706L21.1165 20.503C21.6603 21.526 21.7755 22.7231 21.4368 23.831C21.0981 24.9389 20.3333 25.8669 19.3105 26.411L19.1865 26.477C18.6799 26.7464 18.1252 26.9134 17.5541 26.9685C16.983 27.0235 16.4066 26.9655 15.8579 26.7978C15.3092 26.6301 14.7989 26.356 14.3562 25.9911C13.9134 25.6262 13.5469 25.1776 13.2775 24.671L10.0545 18.609C9.53045 17.6236 9.40343 16.475 9.69947 15.3989C9.99551 14.3228 10.6921 13.4007 11.6465 12.822L10.6905 11.025C10.1467 10.0019 10.0317 8.80475 10.3705 7.69681C10.7094 6.58888 11.4745 5.66091 12.4975 5.11701L12.6215 5.05101C13.6444 4.50721 14.8415 4.39198 15.9494 4.73066C17.0573 5.06933 17.9854 5.83419 18.5295 6.85701L21.7525 12.919C22.2766 13.9043 22.4037 15.0528 22.1079 16.1289C21.812 17.205 21.1156 18.1271 20.1615 18.706H20.1605ZM20.1605 18.706L17.8935 14.441C17.3494 13.4182 16.4213 12.6533 15.3134 12.3147C14.2055 11.976 13.0084 12.0912 11.9855 12.635L11.8615 12.7C11.7885 12.74 11.7165 12.78 11.6465 12.822L13.9145 17.087C14.4585 18.1098 15.3866 18.8747 16.4945 19.2134C17.6024 19.552 18.7995 19.4368 19.8225 18.893L19.9465 18.828C20.0195 18.788 20.0915 18.748 20.1615 18.706H20.1605Z" fill="white"/>
</svg>
