<svg width="32" height="32" viewBox="0 0 32 32" fill="none" xmlns="http://www.w3.org/2000/svg">
<path d="M16 32C24.8366 32 32 24.8366 32 16C32 7.16344 24.8366 0 16 0C7.16344 0 0 7.16344 0 16C0 24.8366 7.16344 32 16 32Z" fill="#2E3148"/>
<path d="M16.0198 5.53003C14.7248 5.53003 13.6748 10.227 13.6748 16.02C13.6748 21.813 14.7248 26.51 16.0198 26.51C17.3138 26.51 18.3638 21.813 18.3638 16.02C18.3638 10.227 17.3138 5.53003 16.0198 5.53003ZM16.1818 25.917C16.0338 26.115 15.8848 25.967 15.8848 25.967C15.2888 25.275 14.9908 23.992 14.9908 23.992C13.9478 20.635 14.1958 13.428 14.1958 13.428C14.6858 7.70703 15.5778 6.35503 15.8808 6.05503C15.9118 6.02426 15.9528 6.00547 15.9963 6.002C16.0399 5.99852 16.0833 6.01058 16.1188 6.03603C16.5588 6.34903 16.9288 7.65303 16.9288 7.65303C18.0188 11.701 17.9198 15.501 17.9198 15.501C18.0188 18.809 17.3738 22.511 17.3738 22.511C16.8768 25.325 16.1818 25.917 16.1818 25.917Z" fill="white"/>
<path d="M25.118 10.8C24.473 9.67602 19.878 11.103 14.851 13.986C9.824 16.869 6.278 20.116 6.921 21.24C7.566 22.364 12.162 20.937 17.189 18.054C22.216 15.171 25.763 11.923 25.119 10.8H25.118ZM7.515 21.085C7.269 21.055 7.325 20.851 7.325 20.851C7.627 19.991 8.591 19.093 8.591 19.093C10.984 16.518 17.36 13.147 17.36 13.147C22.566 10.725 24.183 10.827 24.593 10.939C24.6353 10.9506 24.6722 10.9769 24.6969 11.0132C24.7216 11.0495 24.7327 11.0934 24.728 11.137C24.678 11.674 23.728 12.644 23.728 12.644C20.762 15.605 17.416 17.412 17.416 17.412C14.596 19.144 11.063 20.425 11.063 20.425C8.375 21.393 7.515 21.085 7.515 21.085Z" fill="white"/>
<path d="M25.0952 21.277C25.7452 20.157 22.2082 16.894 17.1972 13.989C12.1872 11.085 7.59317 9.64104 6.94417 10.763C6.29417 11.886 9.83217 15.146 14.8442 18.051C19.8572 20.955 24.4462 22.399 25.0952 21.277ZM7.37517 11.196C7.27817 10.968 7.48117 10.913 7.48117 10.913C8.37817 10.743 9.63817 11.13 9.63817 11.13C13.0652 11.91 19.1762 15.738 19.1762 15.738C23.8812 19.03 24.6032 20.481 24.7112 20.892C24.7221 20.9343 24.7178 20.979 24.6989 21.0183C24.6801 21.0577 24.6479 21.0891 24.6082 21.107C24.1182 21.332 22.8032 20.997 22.8032 20.997C18.7532 19.911 15.5142 17.922 15.5142 17.922C12.6042 16.352 9.72617 13.937 9.72617 13.937C7.53917 12.095 7.37617 11.197 7.37617 11.197L7.37417 11.196H7.37517Z" fill="white"/>
<path d="M15.9947 17.229C16.6763 17.229 17.2287 16.6766 17.2287 15.995C17.2287 15.3135 16.6763 14.761 15.9947 14.761C15.3132 14.761 14.7607 15.3135 14.7607 15.995C14.7607 16.6766 15.3132 17.229 15.9947 17.229Z" fill="white"/>
<path d="M21.0547 12.256C21.607 12.256 22.0547 11.8083 22.0547 11.256C22.0547 10.7038 21.607 10.256 21.0547 10.256C20.5024 10.256 20.0547 10.7038 20.0547 11.256C20.0547 11.8083 20.5024 12.256 21.0547 12.256Z" fill="white"/>
<path d="M9.30566 14.774C9.85795 14.774 10.3057 14.3263 10.3057 13.774C10.3057 13.2218 9.85795 12.774 9.30566 12.774C8.75338 12.774 8.30566 13.2218 8.30566 13.774C8.30566 14.3263 8.75338 14.774 9.30566 14.774Z" fill="white"/>
<path d="M14.5391 23.856C15.0913 23.856 15.5391 23.4083 15.5391 22.856C15.5391 22.3037 15.0913 21.856 14.5391 21.856C13.9868 21.856 13.5391 22.3037 13.5391 22.856C13.5391 23.4083 13.9868 23.856 14.5391 23.856Z" fill="white"/>
</svg>
