<svg width="32" height="32" viewBox="0 0 32 32" fill="none" xmlns="http://www.w3.org/2000/svg">
<path d="M16 32C24.8366 32 32 24.8366 32 16C32 7.16344 24.8366 0 16 0C7.16344 0 0 7.16344 0 16C0 24.8366 7.16344 32 16 32Z" fill="#004AB5"/>
<path d="M12.4828 7.79299C11.1632 8.29025 9.98318 9.09893 9.04322 10.1502C8.10327 11.2015 7.43118 12.4644 7.08414 13.8312C6.73711 15.1981 6.7254 16.6286 7.05001 18.0009C7.37462 19.3733 8.02594 20.6469 8.94857 21.7135C9.87119 22.78 11.0378 23.6079 12.3491 24.1267C13.6605 24.6455 15.0777 24.8399 16.4803 24.6932C17.8829 24.5466 19.2293 24.0633 20.405 23.2844C21.5807 22.5056 22.5508 21.4543 23.2328 20.22L15.5708 15.985L18.6798 7.79999C16.6844 7.04248 14.481 7.03999 12.4839 7.79299H12.4828ZM13.0288 9.36599C14.6463 8.75612 16.4309 8.75825 18.0469 9.37199L15.5298 15.999L21.7338 19.429C21.1814 20.4282 20.3959 21.2792 19.4439 21.9096C18.492 22.5401 17.4018 22.9312 16.2663 23.0498C15.1307 23.1684 13.9832 23.011 12.9216 22.5909C11.8599 22.1708 10.9154 21.5005 10.1684 20.637C9.42145 19.7735 8.8941 18.7424 8.63123 17.6313C8.36836 16.5202 8.37776 15.3621 8.65862 14.2554C8.93947 13.1487 9.48348 12.1262 10.2444 11.275C11.0053 10.4237 11.9605 9.7688 13.0288 9.36599ZM15.9648 4.97999C17.1558 5.02699 18.3308 5.26699 19.4448 5.68999L15.5298 15.999L25.1808 21.334C24.2313 23.0521 22.8403 24.4855 21.1515 25.4864C19.4628 26.4872 17.5375 27.0192 15.5745 27.0273C13.6115 27.0354 11.6819 26.5194 9.98493 25.5325C8.28799 24.5456 6.88522 23.1237 5.92148 21.4135C4.95774 19.7033 4.46796 17.7669 4.50271 15.8042C4.53745 13.8414 5.09548 11.9235 6.11915 10.2485C7.14283 8.57355 8.59505 7.20216 10.3259 6.27598C12.0567 5.3498 14.0033 4.90241 15.9648 4.97999ZM23.4938 8.79199C23.7578 8.79199 24.0038 8.82299 24.2298 8.88699C24.8958 9.06999 25.3458 9.48399 25.5798 10.128C25.7228 10.519 25.7538 10.903 25.6738 11.28C25.6018 11.654 25.4289 11.99 25.1549 12.29C25.6688 12.267 26.1178 12.382 26.5048 12.632C26.8878 12.874 27.1708 13.245 27.3518 13.743C27.6088 14.449 27.5318 15.094 27.1188 15.678C26.7108 16.252 25.9818 16.731 24.9308 17.113L20.7668 18.629L17.8358 10.576L21.7698 9.14399C22.4138 8.90999 22.9888 8.79199 23.4938 8.79199ZM22.8839 10.458C22.6439 10.458 22.3668 10.516 22.0508 10.631L20.1988 11.305L20.8888 13.204L22.7418 12.529C23.2018 12.362 23.5219 12.155 23.6999 11.907C23.8799 11.659 23.9118 11.378 23.7969 11.064C23.6828 10.75 23.4788 10.559 23.1848 10.492C23.0863 10.4682 22.9852 10.4568 22.8839 10.458ZM24.4458 13.58C24.1938 13.583 23.8979 13.646 23.5578 13.77L21.3839 14.561L22.1078 16.551L24.2818 15.76C24.7718 15.581 25.1118 15.367 25.2978 15.116C25.4928 14.863 25.5278 14.568 25.4058 14.23C25.2458 13.793 24.9258 13.576 24.4458 13.58Z" fill="white"/>
</svg>
