<svg width="32" height="32" viewBox="0 0 32 32" fill="none" xmlns="http://www.w3.org/2000/svg">
<path d="M16 32C24.8366 32 32 24.8366 32 16C32 7.16344 24.8366 0 16 0C7.16344 0 0 7.16344 0 16C0 24.8366 7.16344 32 16 32Z" fill="#F7931C"/>
<path d="M7.35061 19.32C7.34261 16.308 9.46361 13.78 12.4976 13.211C12.7576 13.163 12.8316 13.076 12.8246 12.822C12.8081 12.1458 12.8081 11.4693 12.8246 10.793C12.8296 10.55 12.7526 10.405 12.5436 10.269C11.8146 9.79403 11.5166 8.93003 11.7836 8.15303C11.912 7.75989 12.1667 7.42023 12.5082 7.18692C12.8497 6.9536 13.2587 6.83973 13.6716 6.86303C14.4416 6.89903 15.1466 7.47203 15.3546 8.23303C15.5646 8.99703 15.2726 9.82803 14.5946 10.259C14.3546 10.411 14.2796 10.564 14.2876 10.836C14.3076 11.512 14.3006 12.188 14.2916 12.865C14.2886 13.061 14.3176 13.166 14.5506 13.196C14.9936 13.255 15.4266 13.374 15.8366 13.55C15.9906 13.616 16.0736 13.576 16.1766 13.462C17.6116 11.881 19.0516 10.303 20.4946 8.72903C20.6436 8.56703 20.6006 8.45603 20.5326 8.28903C20.1806 7.42103 20.3866 6.48403 21.0506 5.86403C21.6566 5.29903 22.6586 5.13803 23.3826 5.48903C24.2346 5.90203 24.7026 6.69403 24.6446 7.62403C24.5666 8.86803 23.3566 9.80503 22.1286 9.55003C21.8796 9.49803 21.7356 9.55803 21.5746 9.73603C20.2389 11.2124 18.8975 12.6838 17.5506 14.15C17.3876 14.327 17.3646 14.422 17.5676 14.598C19.7716 16.52 20.3716 19.416 19.1156 22.054C19.0206 22.254 19.0416 22.368 19.1956 22.514C19.5626 22.863 19.9176 23.224 20.2696 23.589C20.4096 23.734 20.5406 23.772 20.7486 23.719C21.5586 23.515 22.3986 23.879 22.8026 24.582C23.0028 24.9299 23.0855 25.3331 23.0385 25.7317C22.9915 26.1304 22.8172 26.5032 22.5416 26.795C21.9876 27.384 21.0826 27.555 20.3796 27.203C19.6116 26.819 19.1876 25.998 19.3696 25.155C19.4226 24.913 19.3666 24.775 19.2046 24.622C18.9064 24.34 18.6172 24.0485 18.3376 23.748C18.1746 23.572 18.0736 23.569 17.8876 23.744C15.9886 25.514 13.7866 25.972 11.3566 25.108C8.94061 24.251 7.35761 21.902 7.35061 19.321" fill="#FEFDFC"/>
</svg>
