<svg width="32" height="32" viewBox="0 0 32 32" fill="none" xmlns="http://www.w3.org/2000/svg">
<path d="M16 32C24.8366 32 32 24.8366 32 16C32 7.16344 24.8366 0 16 0C7.16344 0 0 7.16344 0 16C0 24.8366 7.16344 32 16 32Z" fill="#3F43AD"/>
<path d="M11.9401 7.43598C11.7168 7.44906 11.5069 7.547 11.3534 7.70975C11.1999 7.8725 11.1144 8.08776 11.1144 8.31148C11.1144 8.5352 11.1999 8.75046 11.3534 8.91321C11.5069 9.07597 11.7168 9.1739 11.9401 9.18698C12.1635 9.1739 12.3734 9.07597 12.5269 8.91321C12.6804 8.75046 12.7659 8.5352 12.7659 8.31148C12.7659 8.08776 12.6804 7.8725 12.5269 7.70975C12.3734 7.547 12.1635 7.44906 11.9401 7.43598ZM15.9901 5.00598C15.7651 5.01674 15.5527 5.11373 15.3973 5.27683C15.2418 5.43994 15.155 5.65663 15.155 5.88198C15.155 6.10733 15.2418 6.32403 15.3973 6.48713C15.5527 6.65023 15.7651 6.74722 15.9901 6.75798C16.2152 6.74722 16.4275 6.65023 16.583 6.48713C16.7385 6.32403 16.8253 6.10733 16.8253 5.88198C16.8253 5.65663 16.7385 5.43994 16.583 5.27683C16.4275 5.11373 16.2152 5.01674 15.9901 5.00598ZM15.9901 14.725C15.7668 14.7381 15.5569 14.836 15.4034 14.9987C15.2499 15.1615 15.1644 15.3768 15.1644 15.6005C15.1644 15.8242 15.2499 16.0395 15.4034 16.2022C15.5569 16.365 15.7668 16.4629 15.9901 16.476C16.2135 16.4629 16.4234 16.365 16.5769 16.2022C16.7304 16.0395 16.8159 15.8242 16.8159 15.6005C16.8159 15.3768 16.7304 15.1615 16.5769 14.9987C16.4234 14.836 16.2135 14.7381 15.9901 14.725ZM20.0391 12.295C19.924 12.2951 19.8101 12.3179 19.7038 12.3621C19.5975 12.4063 19.501 12.4709 19.4197 12.5524C19.3384 12.6339 19.2739 12.7306 19.23 12.837C19.1861 12.9434 19.1635 13.0574 19.1636 13.1725C19.1638 13.2876 19.1866 13.4015 19.2308 13.5078C19.2749 13.6141 19.3396 13.7107 19.4211 13.792C19.5026 13.8733 19.5993 13.9377 19.7057 13.9816C19.812 14.0256 19.926 14.0481 20.0411 14.048C20.2736 14.0477 20.4964 13.9551 20.6606 13.7906C20.8248 13.626 20.9169 13.4029 20.9166 13.1705C20.9164 12.938 20.8238 12.7152 20.6592 12.551C20.4947 12.3868 20.2716 12.2947 20.0391 12.295ZM24.0881 9.86598C23.9706 9.86215 23.8534 9.88201 23.7436 9.9244C23.6339 9.96678 23.5338 10.0308 23.4493 10.1127C23.3648 10.1946 23.2976 10.2926 23.2518 10.401C23.206 10.5094 23.1824 10.6259 23.1826 10.7435C23.1827 10.8612 23.2065 10.9776 23.2526 11.0859C23.2986 11.1941 23.366 11.292 23.4507 11.3737C23.5354 11.4554 23.6356 11.5192 23.7455 11.5614C23.8553 11.6035 23.9726 11.6231 24.0901 11.619C24.3175 11.611 24.5328 11.5151 24.6908 11.3514C24.8487 11.1877 24.9368 10.969 24.9366 10.7415C24.9363 10.514 24.8477 10.2956 24.6894 10.1322C24.5311 9.96886 24.3155 9.8734 24.0881 9.86598ZM11.9401 17.155C11.7168 17.1681 11.5069 17.266 11.3534 17.4287C11.1999 17.5915 11.1144 17.8068 11.1144 18.0305C11.1144 18.2542 11.1999 18.4695 11.3534 18.6322C11.5069 18.795 11.7168 18.8929 11.9401 18.906C12.1635 18.8929 12.3734 18.795 12.5269 18.6322C12.6804 18.4695 12.7659 18.2542 12.7659 18.0305C12.7659 17.8068 12.6804 17.5915 12.5269 17.4287C12.3734 17.266 12.1635 17.1681 11.9401 17.155ZM7.89015 9.86598C7.77511 9.86611 7.66123 9.8889 7.55499 9.93305C7.44876 9.97719 7.35227 10.0418 7.27102 10.1233C7.18976 10.2047 7.12535 10.3013 7.08145 10.4077C7.03755 10.514 7.01502 10.6279 7.01515 10.743C7.01528 10.858 7.03807 10.9719 7.08221 11.0781C7.12636 11.1844 7.19099 11.2809 7.27243 11.3621C7.35387 11.4434 7.45051 11.5078 7.55684 11.5517C7.66317 11.5956 7.77711 11.6181 7.89215 11.618C8.12448 11.6177 8.34719 11.5252 8.51128 11.3607C8.67538 11.1962 8.76741 10.9733 8.76715 10.741C8.76688 10.5087 8.67434 10.2859 8.50987 10.1218C8.3454 9.95775 8.12248 9.86572 7.89015 9.86598ZM7.89015 19.584C7.77505 19.5841 7.66109 19.6069 7.5548 19.6511C7.44851 19.6953 7.35196 19.7599 7.27066 19.8414C7.10647 20.006 7.01438 20.229 7.01465 20.4615C7.01491 20.6939 7.10751 20.9168 7.27208 21.081C7.43664 21.2452 7.65969 21.3372 7.89215 21.337C8.12461 21.3367 8.34745 21.2441 8.51163 21.0796C8.67582 20.915 8.76791 20.6919 8.76765 20.4595C8.76738 20.227 8.67478 20.0042 8.51022 19.84C8.34566 19.6758 8.12261 19.5837 7.89015 19.584ZM7.89015 14.725C7.66681 14.7381 7.45692 14.836 7.30342 14.9987C7.14992 15.1615 7.06442 15.3768 7.06442 15.6005C7.06442 15.8242 7.14992 16.0395 7.30342 16.2022C7.45692 16.365 7.66681 16.4629 7.89015 16.476C8.11349 16.4629 8.32338 16.365 8.47688 16.2022C8.63038 16.0395 8.71588 15.8242 8.71588 15.6005C8.71588 15.3768 8.63038 15.1615 8.47688 14.9987C8.32338 14.836 8.11349 14.7381 7.89015 14.725ZM15.9901 9.86598C15.8726 9.86201 15.7554 9.88174 15.6456 9.924C15.5357 9.96626 15.4356 10.0302 15.351 10.112C15.2664 10.1937 15.1991 10.2917 15.1532 10.4C15.1072 10.5084 15.0835 10.6248 15.0835 10.7425C15.0835 10.8601 15.1072 10.9766 15.1532 11.0849C15.1991 11.1932 15.2664 11.2912 15.351 11.373C15.4356 11.4548 15.5357 11.5187 15.6456 11.561C15.7554 11.6032 15.8726 11.623 15.9901 11.619C16.2175 11.6113 16.4329 11.5156 16.5911 11.3521C16.7492 11.1885 16.8375 10.9699 16.8375 10.7425C16.8375 10.515 16.7492 10.2964 16.5911 10.1329C16.4329 9.96937 16.2175 9.87366 15.9901 9.86598ZM20.0391 7.43598C19.9216 7.43215 19.8044 7.45201 19.6946 7.4944C19.5849 7.53678 19.4848 7.60082 19.4003 7.6827C19.3158 7.76458 19.2486 7.86263 19.2028 7.971C19.157 8.07937 19.1334 8.19586 19.1336 8.31352C19.1337 8.43118 19.1575 8.54761 19.2036 8.65587C19.2496 8.76414 19.317 8.86203 19.4017 8.94372C19.4864 9.0254 19.5866 9.08922 19.6965 9.13135C19.8063 9.17349 19.9236 9.19309 20.0411 9.18898C20.2685 9.18105 20.4838 9.08509 20.6418 8.92138C20.7997 8.75766 20.8878 8.53899 20.8876 8.31151C20.8873 8.08404 20.7987 7.86557 20.6404 7.70222C20.4821 7.53886 20.2665 7.4434 20.0391 7.43598ZM20.0391 17.155C19.9241 17.155 19.8102 17.1778 19.704 17.2219C19.5977 17.2659 19.5012 17.3305 19.4199 17.4119C19.3386 17.4933 19.2741 17.5899 19.2301 17.6962C19.1862 17.8025 19.1636 17.9164 19.1636 18.0315C19.1637 18.1465 19.1864 18.2604 19.2305 18.3667C19.2746 18.4729 19.3392 18.5695 19.4206 18.6508C19.502 18.7321 19.5986 18.7965 19.7049 18.8405C19.8112 18.8845 19.9251 18.907 20.0401 18.907C20.2725 18.9068 20.4952 18.8144 20.6594 18.6501C20.8236 18.4857 20.9158 18.2628 20.9156 18.0305C20.9155 17.7982 20.8231 17.5754 20.6587 17.4112C20.4943 17.247 20.2715 17.1548 20.0391 17.155ZM24.0881 14.725C23.8648 14.7381 23.6549 14.836 23.5014 14.9987C23.3479 15.1615 23.2624 15.3768 23.2624 15.6005C23.2624 15.8242 23.3479 16.0395 23.5014 16.2022C23.6549 16.365 23.8648 16.4629 24.0881 16.476C24.3115 16.4629 24.5214 16.365 24.6749 16.2022C24.8284 16.0395 24.9139 15.8242 24.9139 15.6005C24.9139 15.3768 24.8284 15.1615 24.6749 14.9987C24.5214 14.836 24.3115 14.7381 24.0881 14.725ZM20.0391 22.014C19.924 22.014 19.8101 22.0368 19.7038 22.0809C19.5974 22.125 19.5009 22.1896 19.4195 22.2711C19.3382 22.3525 19.2737 22.4492 19.2297 22.5555C19.1857 22.6619 19.1631 22.7759 19.1631 22.891C19.1632 23.0061 19.186 23.12 19.2301 23.2264C19.2742 23.3327 19.3388 23.4293 19.4202 23.5106C19.5017 23.592 19.5983 23.6565 19.7047 23.7005C19.8111 23.7444 19.925 23.767 20.0401 23.767C20.2726 23.7668 20.4955 23.6744 20.6598 23.5099C20.8241 23.3454 20.9163 23.1224 20.9161 22.89C20.916 22.6575 20.8235 22.4346 20.6591 22.2703C20.4946 22.1061 20.2716 22.0138 20.0391 22.014ZM24.0881 19.584C23.8631 19.5947 23.6507 19.6917 23.4953 19.8548C23.3398 20.0179 23.253 20.2346 23.253 20.46C23.253 20.6853 23.3398 20.902 23.4953 21.0651C23.6507 21.2282 23.8631 21.3252 24.0881 21.336C24.3132 21.3252 24.5255 21.2282 24.681 21.0651C24.8365 20.902 24.9233 20.6853 24.9233 20.46C24.9233 20.2346 24.8365 20.0179 24.681 19.8548C24.5255 19.6917 24.3132 19.5947 24.0881 19.584ZM15.9901 24.444C15.7668 24.4571 15.5569 24.555 15.4034 24.7177C15.2499 24.8805 15.1644 25.0958 15.1644 25.3195C15.1644 25.5432 15.2499 25.7585 15.4034 25.9212C15.5569 26.084 15.7668 26.1819 15.9901 26.195C16.2222 26.1947 16.4447 26.1025 16.6089 25.9385C16.7731 25.7745 16.8656 25.5521 16.8661 25.32C16.8659 25.0877 16.7735 24.8651 16.6093 24.7008C16.4451 24.5366 16.2224 24.4442 15.9901 24.444ZM15.9901 19.584C15.875 19.584 15.761 19.6068 15.6546 19.6509C15.5482 19.6951 15.4516 19.7597 15.3702 19.8412C15.2888 19.9227 15.2242 20.0194 15.1802 20.1258C15.1362 20.2323 15.1136 20.3463 15.1136 20.4615C15.1137 20.5767 15.1365 20.6907 15.1806 20.7971C15.2247 20.9034 15.2894 21.0001 15.3709 21.0815C15.4524 21.1629 15.5491 21.2274 15.6555 21.2714C15.7619 21.3154 15.876 21.338 15.9911 21.338C16.2237 21.3378 16.4468 21.2453 16.6111 21.0808C16.7755 20.9162 16.8678 20.6931 16.8676 20.4605C16.8675 20.2279 16.775 20.0049 16.6104 19.8405C16.4459 19.6761 16.2227 19.5838 15.9901 19.584ZM11.9401 12.295C11.7168 12.3081 11.5069 12.406 11.3534 12.5687C11.1999 12.7315 11.1144 12.9468 11.1144 13.1705C11.1144 13.3942 11.1999 13.6095 11.3534 13.7722C11.5069 13.935 11.7168 14.0329 11.9401 14.046C12.162 14.031 12.3698 13.9323 12.5217 13.7698C12.6735 13.6074 12.758 13.3933 12.758 13.171C12.758 12.9486 12.6735 12.7346 12.5217 12.5721C12.3698 12.4097 12.162 12.311 11.9401 12.296V12.295ZM11.9401 22.014C11.7168 22.0271 11.5069 22.125 11.3534 22.2877C11.1999 22.4505 11.1144 22.6658 11.1144 22.8895C11.1144 23.1132 11.1999 23.3285 11.3534 23.4912C11.5069 23.654 11.7168 23.7519 11.9401 23.765C12.1635 23.7519 12.3734 23.654 12.5269 23.4912C12.6804 23.3285 12.7659 23.1132 12.7659 22.8895C12.7659 22.6658 12.6804 22.4505 12.5269 22.2877C12.3734 22.125 12.1635 22.0271 11.9401 22.014Z" fill="white"/>
</svg>
