<svg width="32" height="32" viewBox="0 0 32 32" fill="none" xmlns="http://www.w3.org/2000/svg">
<path d="M15.999 31.998C24.835 31.998 31.998 24.835 31.998 15.999C31.998 7.163 24.835 0 15.999 0C7.163 0 0 7.163 0 15.999C0 24.835 7.163 31.998 15.999 31.998Z" fill="#F04086"/>
<path d="M23.4367 16.754C22.8067 16.058 21.9007 15.626 20.7167 15.458V15.433C21.7537 15.265 22.5687 14.84 23.1227 14.16C23.6849 13.4856 23.9903 12.634 23.9847 11.756C23.9847 10.295 23.5147 9.30201 22.5407 8.52101C21.5667 7.74101 20.1047 7.48401 18.1237 7.48401H10.6427V14.447H6.34668V17.114H18.0737C18.9967 17.114 19.6897 17.179 20.1477 17.548C20.6057 17.917 20.8397 18.394 20.8397 19.099C20.8397 19.804 20.6087 20.406 20.1477 20.784C19.6877 21.161 18.9937 21.41 18.0737 21.41H14.0497V19.336H10.6427V24.077H18.3697C20.3347 24.077 21.8367 23.564 22.8787 22.767C23.9197 21.97 24.4087 20.793 24.4087 19.348C24.4216 18.392 24.0747 17.4661 23.4367 16.754ZM17.6437 14.44H14.0497V10.144H17.6437C19.4917 10.144 20.4137 10.865 20.4137 12.292C20.4137 13.719 19.4917 14.44 17.6437 14.44Z" fill="white"/>
</svg>
