<svg width="32" height="32" viewBox="0 0 32 32" fill="none" xmlns="http://www.w3.org/2000/svg">
<path d="M16 32C24.8366 32 32 24.8366 32 16C32 7.16344 24.8366 0 16 0C7.16344 0 0 7.16344 0 16C0 24.8366 7.16344 32 16 32Z" fill="#E54C40"/>
<path d="M9.32814 8.61702C9.30814 8.47002 9.44614 8.38202 9.52514 8.28202C10.5192 7.29844 11.5086 6.3101 12.4931 5.31702C12.4791 8.03302 12.5011 10.749 12.4821 13.465C14.5311 12.335 17.1121 12.285 19.2181 13.297C19.2161 13.472 19.2161 13.646 19.2161 13.822C17.5351 12.918 15.4681 12.802 13.6751 13.432C11.6121 14.142 9.96814 15.889 9.32514 17.968C9.32814 14.85 9.32414 11.734 9.32814 8.61702ZM22.7181 20.279C22.6556 21.9322 21.9792 23.5027 20.8211 24.684C19.7322 25.8032 18.2864 26.5067 16.7338 26.6729C15.1811 26.8391 13.6192 26.4574 12.3181 25.594C10.8381 24.62 9.76814 23.04 9.44014 21.298C9.15514 19.918 9.34814 18.453 9.94114 17.178C10.615 15.744 11.7718 14.5928 13.2091 13.926C15.0931 13.038 17.3891 13.113 19.2131 14.118C19.2021 15.612 19.2031 17.106 19.2141 18.6C18.9161 17.983 18.4741 17.431 17.8891 17.065C16.7321 16.318 15.1241 16.353 14.0071 17.163C12.7771 18.009 12.2221 19.687 12.7111 21.098C13.1481 22.489 14.5311 23.51 15.9931 23.494C17.3991 23.529 18.7561 22.61 19.2591 21.299C19.5791 20.556 19.4991 19.735 19.5061 18.949C19.5121 14.894 19.4961 10.839 19.4981 6.78502C19.4991 6.27502 19.5081 5.76502 19.4781 5.25702C20.5681 6.33102 21.6481 7.41802 22.7281 8.50302C22.7061 12.428 22.7281 16.353 22.7181 20.28V20.279Z" fill="white"/>
</svg>
