<svg width="32" height="32" viewBox="0 0 32 32" fill="none" xmlns="http://www.w3.org/2000/svg">
<path d="M16 32C24.8366 32 32 24.8366 32 16C32 7.16344 24.8366 0 16 0C7.16344 0 0 7.16344 0 16C0 24.8366 7.16344 32 16 32Z" fill="#13A0F6"/>
<path fill-rule="evenodd" clip-rule="evenodd" d="M8.29669 11.568C7.90527 11.3627 7.57749 11.0542 7.34886 10.6759C7.12024 10.2976 6.99949 9.86402 6.99969 9.42202C6.82878 9.09794 6.7338 8.73923 6.72196 8.37304C6.71013 8.00684 6.78173 7.64275 6.93136 7.3083C7.08099 6.97386 7.30472 6.67783 7.58563 6.44261C7.86654 6.20739 8.19727 6.03914 8.5528 5.95059C8.90832 5.86204 9.27933 5.85551 9.63775 5.93149C9.99618 6.00748 10.3326 6.16399 10.6216 6.38918C10.9107 6.61437 11.1447 6.90234 11.306 7.23131C11.4673 7.56028 11.5516 7.92163 11.5527 8.28802C12.9181 7.48952 14.4719 7.06975 16.0537 7.07202C20.9937 7.07202 24.9997 11.086 24.9997 16.036C24.9997 20.986 20.9947 25 16.0537 25C11.1127 25 7.10769 20.987 7.10769 16.036C7.10539 14.4682 7.51543 12.9273 8.29669 11.568ZM16.0537 20.446C18.4837 20.446 20.4537 18.472 20.4537 16.036C20.4537 13.6 18.4837 11.626 16.0537 11.626C13.6237 11.626 11.6537 13.601 11.6537 16.036C11.6537 18.471 13.6237 20.446 16.0537 20.446Z" fill="white"/>
</svg>
