<svg width="32" height="32" viewBox="0 0 32 32" fill="none" xmlns="http://www.w3.org/2000/svg">
<path d="M16 32C24.8366 32 32 24.8366 32 16C32 7.16344 24.8366 0 16 0C7.16344 0 0 7.16344 0 16C0 24.8366 7.16344 32 16 32Z" fill="#000D2B"/>
<path d="M15.9196 5.88L11.4016 8.52701L15.9196 11.175L20.5226 8.52701L15.9196 5.88ZM16.6626 20.014V25.309L22.7996 21.808V16.512L16.6626 20.014ZM21.2656 10.192V15.488L16.6616 18.136V12.84L21.2656 10.192ZM10.1836 15.488L14.7876 18.136V12.84L10.1836 10.192V15.488ZM10.1836 22.662L14.7876 25.309V20.014L10.1836 17.367V22.661V22.662Z" fill="white"/>
</svg>
