<svg width="32" height="32" viewBox="0 0 32 32" fill="none" xmlns="http://www.w3.org/2000/svg">
<path d="M16 32C24.8366 32 32 24.8366 32 16C32 7.16344 24.8366 0 16 0C7.16344 0 0 7.16344 0 16C0 24.8366 7.16344 32 16 32Z" fill="#EAB304"/>
<path d="M22.1495 14.57L22.2195 14.43C22.2195 14.36 22.2195 14.29 22.3595 14.34C22.3703 14.2771 22.3703 14.2129 22.3595 14.15C22.3933 14.0597 22.3933 13.9603 22.3595 13.87C22.2177 13.5241 22.1931 13.1412 22.2895 12.78C22.3006 12.734 22.3006 12.686 22.2895 12.64L22.3595 12.57C22.3879 12.5957 22.4116 12.6262 22.4295 12.66C22.4406 12.706 22.4406 12.754 22.4295 12.8V12.87C22.4295 12.94 22.5495 12.8 22.5995 12.75C22.6613 12.7023 22.7284 12.6621 22.7995 12.63C22.8128 12.4471 22.789 12.2634 22.7295 12.09C22.6182 11.7136 22.6429 11.31 22.7995 10.95C22.7995 11.02 22.8895 11.07 22.8895 11.14C22.9065 11.4 23.0165 11.645 23.1995 11.83C23.4025 12.063 23.5555 12.335 23.6495 12.63C23.6495 12.63 23.6495 12.72 23.7195 12.72C24.0075 12.803 24.2695 12.957 24.4795 13.17C24.7215 13.388 24.9515 13.618 25.1695 13.86C25.2073 13.9012 25.2377 13.9486 25.2595 14H25.3295C25.3412 13.7802 25.3412 13.5599 25.3295 13.34C25.3295 13.15 25.4195 12.96 25.6095 12.99H25.6995C25.7038 12.9056 25.7353 12.8249 25.7894 12.7599C25.8435 12.695 25.9173 12.6494 25.9995 12.63C26.0346 12.6908 26.0531 12.7598 26.0531 12.83C26.0531 12.9002 26.0346 12.9692 25.9995 13.03C26.1395 13.2 26.1695 13.29 25.9995 13.48C25.8295 13.67 25.9095 13.69 25.9995 13.88C26.019 13.7699 26.0597 13.6646 26.1195 13.57C26.1695 13.47 26.1895 13.31 26.3095 13.26C26.3483 13.2463 26.3907 13.2463 26.4295 13.26C26.5451 13.2829 26.664 13.2829 26.7795 13.26C26.8525 13.254 26.9255 13.271 26.9883 13.3087C27.0511 13.3464 27.1005 13.4028 27.1295 13.47L26.7995 13.63C26.8695 13.77 26.7995 13.82 26.6595 13.91C26.5898 13.974 26.5262 14.0443 26.4695 14.12C26.5978 14.0973 26.7247 14.0672 26.8495 14.03C26.9345 14.0084 27.0243 14.0177 27.103 14.0561C27.1818 14.0946 27.2443 14.1598 27.2795 14.24C27.3063 14.2966 27.3477 14.3449 27.3995 14.38C27.4964 14.4641 27.5573 14.5823 27.5695 14.71C27.5771 14.7395 27.5771 14.7705 27.5695 14.8L27.3795 14.66C27.3553 14.6368 27.3231 14.6238 27.2895 14.6238C27.256 14.6238 27.2237 14.6368 27.1995 14.66C27.166 14.6924 27.1212 14.7105 27.0745 14.7105C27.0279 14.7105 26.9831 14.6924 26.9495 14.66C26.8815 14.6195 26.8037 14.5981 26.7245 14.5981C26.6453 14.5981 26.5676 14.6195 26.4995 14.66C26.3934 14.7298 26.2832 14.7932 26.1695 14.85C26.3008 14.8677 26.4261 14.9157 26.5355 14.9904C26.6448 15.065 26.7353 15.1642 26.7995 15.28C26.8695 15.42 26.9695 15.56 27.0395 15.71C27.0669 15.7697 27.0697 15.8379 27.0472 15.8996C27.0248 15.9614 26.9789 16.0118 26.9195 16.04H26.8695V15.99C26.8695 15.87 26.7995 15.85 26.6795 15.87C26.6467 15.8809 26.6121 15.8851 26.5776 15.8824C26.5431 15.8797 26.5096 15.8701 26.4788 15.8543C26.4481 15.8385 26.4209 15.8167 26.3986 15.7902C26.3764 15.7637 26.3597 15.733 26.3495 15.7C26.2335 15.4671 26.0386 15.2828 25.7995 15.18L25.5895 15.09C25.5738 15.181 25.5434 15.2688 25.4995 15.35C25.4666 15.4023 25.4262 15.4495 25.3795 15.49C25.2395 15.61 25.2395 15.63 25.3795 15.8C25.5195 15.97 25.4495 15.89 25.4995 15.97C25.4243 15.9743 25.349 15.9613 25.2796 15.9318C25.2103 15.9023 25.1486 15.8572 25.0995 15.8C24.9753 15.6602 24.8741 15.5015 24.7995 15.33C24.7706 15.25 24.7686 15.1627 24.7939 15.0815C24.8191 15.0002 24.8703 14.9295 24.9395 14.88C25.0097 14.8105 25.0672 14.7293 25.1095 14.64L24.3995 14.45C24.4109 14.5597 24.4109 14.6703 24.3995 14.78C24.4235 15.183 24.4235 15.587 24.3995 15.99C24.3754 16.5889 24.2814 17.1829 24.1195 17.76C24.0024 18.2044 23.8347 18.6339 23.6195 19.04C23.4391 19.406 23.2353 19.7601 23.0095 20.1C22.8166 20.3824 22.6027 20.6498 22.3695 20.9C22.1335 21.1768 21.8724 21.4313 21.5895 21.66C21.2795 21.92 20.9495 22.13 20.5895 22.35C20.1048 22.6576 19.5798 22.8966 19.0295 23.06C18.6583 23.1689 18.281 23.2557 17.8995 23.32C17.688 23.3616 17.4743 23.3916 17.2595 23.41C17.1938 23.4308 17.1341 23.4671 17.0854 23.5159C17.0366 23.5646 17.0003 23.6243 16.9795 23.69C16.9502 23.8485 16.889 23.9993 16.7996 24.1334C16.7102 24.2674 16.5945 24.382 16.4595 24.47C16.3395 24.56 16.1995 24.64 16.0595 24.73L16.1295 24.52C16.1416 24.4743 16.1415 24.4263 16.1292 24.3807C16.117 24.335 16.0929 24.2934 16.0595 24.26C15.9895 24.19 15.8895 24.26 15.7995 24.26C15.7095 24.26 15.6295 24.38 15.6095 24.52C15.5903 24.6483 15.539 24.7696 15.4603 24.8728C15.3816 24.9759 15.2782 25.0575 15.1595 25.11H15.0395C15.0709 25.0257 15.0943 24.9387 15.1095 24.85C15.1095 24.78 15.0395 24.71 14.9895 24.64C14.9395 24.57 14.8995 24.64 14.8495 24.64L14.4195 24.85L14.2795 24.92L14.6595 25.09C14.8652 25.1885 15.031 25.3543 15.1295 25.56C15.1701 25.615 15.192 25.6816 15.192 25.75C15.192 25.8184 15.1701 25.885 15.1295 25.94C15.1179 25.9579 15.1117 25.9787 15.1117 26C15.1117 26.0213 15.1179 26.0422 15.1295 26.06C15.1622 26.1784 15.171 26.3021 15.1556 26.424C15.1401 26.5459 15.1007 26.6635 15.0395 26.77C15.0395 26.84 14.9195 26.91 14.8695 26.98L14.7995 26.5C14.7995 26.4761 14.79 26.4532 14.7732 26.4364C14.7563 26.4195 14.7334 26.41 14.7095 26.41C14.5683 26.4162 14.4283 26.3818 14.306 26.3109C14.1838 26.24 14.0843 26.1356 14.0195 26.01L13.9495 25.92C13.8257 26.0972 13.6403 26.222 13.4295 26.27C13.2866 26.3347 13.1597 26.4301 13.0577 26.5493C12.9558 26.6686 12.8813 26.8088 12.8395 26.96C12.8052 27.1335 12.748 27.3016 12.6695 27.46C12.6269 27.5689 12.5436 27.657 12.4372 27.7055C12.3308 27.754 12.2097 27.7592 12.0995 27.72V28.1C12.0454 28.0861 11.9945 28.0615 11.95 28.0277C11.9055 27.9939 11.8681 27.9515 11.8402 27.9031C11.8122 27.8547 11.7943 27.8011 11.7873 27.7456C11.7803 27.6902 11.7845 27.6339 11.7995 27.58C11.8117 27.524 11.8117 27.466 11.7995 27.41C11.7299 27.2742 11.7129 27.1175 11.7516 26.9699C11.7904 26.8223 11.8822 26.6941 12.0095 26.61C12.2053 26.4673 12.3746 26.2913 12.5095 26.09C12.5165 26.0672 12.5165 26.0428 12.5095 26.02L11.7995 25.93C11.7126 25.9061 11.6217 25.9 11.5324 25.912C11.443 25.924 11.357 25.954 11.2795 26L11.1395 26.18C10.9295 26.42 10.8295 26.44 10.5495 26.3C10.4392 26.494 10.397 26.7193 10.4295 26.94C10.3236 26.8368 10.2505 26.7046 10.2195 26.56C10.2073 26.4805 10.2073 26.3995 10.2195 26.32V26.18C10.1967 26.1119 10.1967 26.0381 10.2195 25.97C10.3033 25.7774 10.457 25.6238 10.6495 25.54C10.8619 25.4008 11.1063 25.3182 11.3595 25.3C11.5495 25.288 11.7395 25.288 11.9295 25.3H12.0695C12.0271 25.1963 11.9633 25.1026 11.8823 25.0251C11.8014 24.9475 11.705 24.8879 11.5995 24.85L11.0595 24.64C10.9999 24.6487 10.9393 24.6336 10.8907 24.5981C10.8421 24.5626 10.8094 24.5094 10.7995 24.45C10.7995 24.4261 10.79 24.4032 10.7732 24.3864C10.7563 24.3695 10.7334 24.36 10.7095 24.36C10.5425 24.3595 10.379 24.4082 10.2395 24.5C10.3095 24.29 10.4095 24.07 10.6395 24.03C10.7425 24.018 10.8465 24.018 10.9495 24.03H11.0395C11.1795 23.82 11.3895 23.86 11.5795 23.96C11.8565 24.092 12.0865 24.304 12.2395 24.57C12.2744 24.639 12.3237 24.6997 12.3841 24.748C12.4445 24.7963 12.5145 24.8311 12.5895 24.85C12.6028 24.6671 12.579 24.4834 12.5195 24.31C12.516 24.2295 12.487 24.1522 12.4366 24.0893C12.3863 24.0264 12.3173 23.9811 12.2395 23.96C11.9995 23.89 11.9295 23.72 12.0495 23.46C11.9705 23.3898 11.8743 23.3417 11.7707 23.3206C11.6671 23.2996 11.5597 23.3063 11.4595 23.34C11.5295 23.15 11.8095 23.08 11.9995 23.1C12.1712 23.2026 12.3698 23.2514 12.5695 23.24C12.6365 23.2526 12.6996 23.2809 12.7535 23.3226C12.8074 23.3644 12.8506 23.4183 12.8795 23.48L13.0195 23.76C13.1395 23.97 13.2295 24.21 13.3295 24.42C13.4695 24.02 13.6395 23.59 13.7995 23.14L13.5595 23.05L12.8695 22.77C12.3431 22.5423 11.8434 22.2573 11.3795 21.92C11.2983 21.8761 11.2105 21.8457 11.1195 21.83C11.0495 21.83 10.9495 21.92 10.9995 22C11.0495 22.08 11.1195 22.09 11.1695 22.17C11.2195 22.25 11.1695 22.24 11.2595 22.29H11.1395C10.9771 22.2937 10.8173 22.2479 10.6815 22.1586C10.5458 22.0692 10.4404 21.9407 10.3795 21.79C10.2322 21.4932 10.1439 21.1705 10.1195 20.84C10.1242 20.8289 10.1266 20.817 10.1266 20.805C10.1266 20.793 10.1242 20.7811 10.1195 20.77L9.47953 20.06C9.43159 20.1821 9.43159 20.3179 9.47953 20.44L9.54953 20.58V20.75H9.35953C9.25151 20.6318 9.16368 20.4967 9.09953 20.35C9.00953 20 8.95953 19.64 8.88953 19.29C8.87233 19.1147 8.84224 18.9409 8.79953 18.77C8.74771 18.5698 8.68427 18.3728 8.60953 18.18V18.73C8.60953 18.78 8.48953 18.73 8.46953 18.64C8.361 18.4536 8.29604 18.2451 8.27953 18.03C8.26781 17.5252 8.33875 17.0219 8.48953 16.54C8.53538 16.3633 8.59215 16.1897 8.65953 16.02C8.63658 16.077 8.60632 16.1308 8.56953 16.18L8.47953 16.27V16.15C8.47662 15.9251 8.53542 15.7038 8.64953 15.51C8.81953 15.13 9.02953 14.75 9.21953 14.38C9.29802 14.2479 9.38486 14.121 9.47953 14L9.30953 14.18L9.18953 14.25V14.18C9.25388 14.073 9.32398 13.9695 9.39953 13.87C9.62449 13.5975 9.88713 13.3584 10.1795 13.16C10.2475 13.1364 10.3215 13.1364 10.3895 13.16L11.3895 13.37L11.7395 13.46C11.6443 13.5581 11.5635 13.6692 11.4995 13.79C11.4688 13.8504 11.4528 13.9172 11.4528 13.985C11.4528 14.0528 11.4688 14.1196 11.4995 14.18C11.5167 14.205 11.5259 14.2347 11.5259 14.265C11.5259 14.2954 11.5167 14.325 11.4995 14.35C11.2719 14.5462 11.0792 14.7795 10.9295 15.04V15.13C10.9295 15.13 11.2595 15.46 11.4295 15.65C11.4395 15.68 11.4395 15.71 11.4295 15.74C11.3539 15.8689 11.3141 16.0156 11.3141 16.165C11.3141 16.3144 11.3539 16.4611 11.4295 16.59C11.441 16.6346 11.4614 16.6764 11.4895 16.7129C11.5177 16.7493 11.5529 16.7797 11.5931 16.8022C11.6333 16.8246 11.6777 16.8386 11.7235 16.8434C11.7693 16.8482 11.8155 16.8436 11.8595 16.83C11.8512 17.0244 11.9113 17.2155 12.0295 17.37C12.0995 17.44 12.1995 17.49 12.2695 17.56C12.3116 17.5894 12.3431 17.6314 12.3595 17.68C12.4152 17.8582 12.5196 18.0173 12.661 18.1393C12.8024 18.2612 12.9751 18.3411 13.1595 18.37C13.4475 18.41 13.7395 18.35 13.9895 18.2C14.0795 18.2 14.1095 18.13 14.1295 18.2C14.1855 18.549 14.2975 18.886 14.4595 19.2C14.6665 19.566 14.9225 19.902 15.2195 20.2C15.4865 20.455 15.8135 20.64 16.1695 20.74C16.6095 20.839 17.0695 20.715 17.3995 20.41C17.6068 20.2002 17.782 19.961 17.9195 19.7L18.3495 19.01C18.5388 18.7493 18.7807 18.5313 19.0595 18.37C19.1058 18.3344 19.1595 18.3096 19.2166 18.2975C19.2737 18.2854 19.3328 18.2862 19.3895 18.3L19.3195 18.44C19.2664 18.5256 19.2382 18.6243 19.2382 18.725C19.2382 18.8257 19.2664 18.9245 19.3195 19.01C19.3895 19.1 19.4395 19.1 19.4895 19.01C19.5395 18.92 19.6295 18.75 19.8195 18.77C20.0095 18.79 20.0095 18.65 20.0295 18.53C20.0493 18.0092 20.2044 17.5026 20.4795 17.06C20.5309 17.0072 20.5879 16.9603 20.6495 16.92V17.3C20.6685 17.406 20.6995 17.51 20.7395 17.61L20.7995 17.48C20.8166 17.4441 20.8435 17.4137 20.8771 17.3925C20.9108 17.3712 20.9497 17.36 20.9895 17.36C21.0366 17.3518 21.0792 17.3269 21.1095 17.29C21.1755 17.2125 21.221 17.1198 21.242 17.0203C21.2629 16.9207 21.2586 16.8175 21.2295 16.72C21.2058 16.5709 21.2058 16.4191 21.2295 16.27C21.229 16.081 21.2772 15.895 21.3695 15.73C21.3913 15.6785 21.4218 15.6312 21.4595 15.59H21.5295V15.92C21.5219 15.9495 21.5219 15.9805 21.5295 16.01H21.6195L21.7995 15.89C21.8677 15.7682 21.8989 15.6292 21.8895 15.49C21.8757 15.4106 21.8757 15.3294 21.8895 15.25V14.43C21.8895 14.32 21.8895 14.31 21.9595 14.24L22.0695 14.18V14.62C22.0769 14.6051 22.0883 14.5925 22.1025 14.5837C22.1166 14.5749 22.1329 14.5701 22.1495 14.57ZM9.85953 10.01L10.4495 9.42001C10.4837 9.38288 10.5243 9.35237 10.5695 9.33001C10.6395 9.26001 10.5695 9.19001 10.5695 9.12001C10.5695 9.05001 10.4795 9.12001 10.3995 9.12001H10.3095V9.00001C10.3344 8.91808 10.3768 8.84256 10.4338 8.77866C10.4908 8.71477 10.561 8.66404 10.6395 8.63001C10.8981 8.53685 11.181 8.53685 11.4395 8.63001C11.4613 8.64062 11.4853 8.64613 11.5095 8.64613C11.5338 8.64613 11.5577 8.64062 11.5795 8.63001L12.1495 8.32001C12.2395 8.32001 12.2195 8.23001 12.1495 8.18001C12.0795 8.13001 11.9795 8.06001 11.8895 8.18001C11.86 8.18763 11.829 8.18763 11.7995 8.18001C11.7995 8.01001 11.9695 7.87001 12.1295 7.80001C12.3995 7.71701 12.6895 7.71701 12.9595 7.80001H12.9995C13.0695 7.80001 13.2795 7.89001 13.4495 7.80001L13.7995 7.68001C13.8895 7.68001 13.8895 7.61001 13.7995 7.56001C13.7095 7.51001 13.6795 7.42001 13.5895 7.49001C13.4995 7.56001 13.5895 7.49001 13.4995 7.49001C13.4805 7.46964 13.47 7.44284 13.47 7.41501C13.47 7.38717 13.4805 7.36037 13.4995 7.34001C13.6739 7.2085 13.8931 7.15101 14.1095 7.18001C14.3063 7.19519 14.4942 7.26825 14.6495 7.39001H14.7195C14.7533 7.4295 14.7973 7.45884 14.8468 7.47473C14.8962 7.49062 14.9491 7.49245 14.9995 7.48001C15.0569 7.44564 15.1226 7.4275 15.1895 7.4275C15.2564 7.4275 15.3221 7.44564 15.3795 7.48001H15.4495V7.39001C15.4337 7.3284 15.3973 7.27404 15.3464 7.23587C15.2955 7.1977 15.2331 7.178 15.1695 7.18001H15.0995C15.2183 7.08731 15.3593 7.02743 15.5085 7.00637C15.6577 6.98531 15.8097 7.00381 15.9495 7.06001C16.1555 7.14401 16.3355 7.28201 16.4695 7.46001C16.522 7.49239 16.5794 7.51603 16.6395 7.53001C16.7762 7.52574 16.9124 7.54956 17.0395 7.60001C17.1595 7.67001 17.1095 7.60001 17.1295 7.69001C17.1447 7.65785 17.1534 7.623 17.1551 7.58748C17.1568 7.55195 17.1514 7.51644 17.1393 7.48299C17.1273 7.44954 17.1087 7.41881 17.0847 7.39255C17.0607 7.3663 17.0318 7.34504 16.9995 7.33001H16.7995V7.18001C16.9085 7.1587 17.0206 7.1587 17.1295 7.18001C17.4455 7.21701 17.7295 7.38801 17.9095 7.65001C17.9795 7.77001 18.0375 7.89701 18.0795 8.03001C18.1646 8.01955 18.2509 8.0316 18.3299 8.06494C18.4089 8.09828 18.4777 8.15175 18.5295 8.22001H18.5995C18.641 8.21161 18.6813 8.19817 18.7195 8.18001C18.7174 8.10204 18.6912 8.02662 18.6447 7.96401C18.5982 7.90139 18.5335 7.85461 18.4595 7.83001H18.3895C18.4795 7.83001 18.5595 7.76001 18.6495 7.83001C18.7995 7.84401 18.9445 7.88501 19.0795 7.95001C19.4355 8.09501 19.7015 8.39901 19.7995 8.77001C19.9695 8.86001 20.0795 8.96001 20.1995 9.03001H20.3395V8.82001C20.3248 8.7486 20.2936 8.68161 20.2485 8.62434C20.2033 8.56707 20.1455 8.52108 20.0795 8.49001L19.9895 8.42001C20.0989 8.39547 20.2129 8.4001 20.3199 8.43344C20.427 8.46679 20.5234 8.52768 20.5995 8.61001C20.7845 8.76601 20.9225 8.97001 20.9995 9.20001C21.0076 9.23746 21.0245 9.27244 21.0489 9.30201C21.0732 9.33159 21.1043 9.3549 21.1395 9.37001C21.2155 9.42701 21.2855 9.49001 21.3495 9.56001C21.4395 9.30001 21.2295 9.16001 21.1595 8.97001C21.2358 8.97161 21.3109 8.98937 21.3799 9.02212C21.4488 9.05487 21.5101 9.10187 21.5595 9.16001C21.6995 9.30601 21.8255 9.46301 21.9395 9.63001C22.0115 9.75201 22.0915 9.86901 22.1795 9.98001C22.2515 10.114 22.2985 10.26 22.3195 10.41C22.3336 10.7491 22.2862 11.0879 22.1795 11.41C22.1674 11.6298 22.1674 11.8502 22.1795 12.07C22.1895 12.1 22.1895 12.13 22.1795 12.16C22.0912 12.2328 22.0183 12.3224 21.965 12.4238C21.9118 12.5251 21.8793 12.636 21.8695 12.75C21.822 13.0481 21.822 13.3519 21.8695 13.65V13.72C21.732 13.8106 21.6189 13.9338 21.5404 14.0786C21.4619 14.2234 21.4204 14.3853 21.4195 14.55V15.07C21.2755 15.0992 21.1419 15.1666 21.0329 15.2651C20.9238 15.3636 20.8432 15.4897 20.7995 15.63C20.7295 15.77 20.7095 15.94 20.6295 16.08C20.5495 16.22 20.5395 16.17 20.4895 16.22V16.03C20.5492 15.7171 20.5727 15.3983 20.5595 15.08C20.5693 14.6102 20.4808 14.1436 20.2995 13.71V13.54C20.4563 13.3802 20.5549 13.1725 20.5795 12.95C20.6046 12.6171 20.6046 12.2829 20.5795 11.95C20.5837 11.7139 20.4979 11.4851 20.3395 11.31C20.2582 11.2266 20.1537 11.1696 20.0396 11.1464C19.9254 11.1232 19.8069 11.1349 19.6995 11.18C19.56 11.239 19.4411 11.3378 19.3575 11.4641C19.2739 11.5904 19.2294 11.7386 19.2295 11.89V12.24C18.876 11.8856 18.4494 11.6125 17.9795 11.44C17.7098 11.345 17.432 11.2747 17.1495 11.23H16.5395C16.1452 11.2315 15.7537 11.2956 15.3795 11.42C15.1695 11.49 14.9795 11.59 14.7695 11.66C14.748 11.6714 14.7239 11.6773 14.6995 11.6773C14.6751 11.6773 14.6511 11.6714 14.6295 11.66C14.1809 11.3894 13.696 11.184 13.1895 11.05C12.9509 10.9854 12.7063 10.9452 12.4595 10.93C11.9595 10.83 11.4595 10.76 11.0395 10.63C10.6635 10.5403 10.3052 10.3882 9.97953 10.18C9.95713 10.1128 9.91539 10.0536 9.85953 10.01ZM19.3095 14.71C19.3095 14.88 18.9995 14.92 18.6695 14.83V15.18C18.6745 15.2199 18.6745 15.2602 18.6695 15.3H18.5295C18.4304 15.2197 18.3369 15.1329 18.2495 15.04C18.1909 15.0653 18.1387 15.1037 18.0972 15.1523C18.0556 15.2008 18.0256 15.2582 18.0095 15.32C17.9395 15.51 17.8395 15.53 17.6995 15.32C17.6479 15.2676 17.5909 15.2206 17.5295 15.18C17.4654 15.2712 17.3952 15.3581 17.3195 15.44C17.3021 15.4605 17.2807 15.4772 17.2567 15.4893C17.2326 15.5013 17.2064 15.5084 17.1795 15.51C17.1437 15.4748 17.1133 15.4343 17.0895 15.39C17.0793 15.3204 17.0793 15.2496 17.0895 15.18C16.9695 15.49 16.8295 15.75 16.4795 15.82C16.4667 15.6893 16.491 15.5576 16.5495 15.44C16.6195 15.32 16.5495 15.44 16.5495 15.37C16.3934 15.52 16.3005 15.7238 16.2895 15.94C16.3055 16.373 16.4175 16.797 16.6195 17.18C16.7595 17.53 16.9295 17.87 17.0695 18.18C17.1975 18.497 17.2555 18.838 17.2395 19.18C17.2556 19.3539 17.2208 19.5287 17.1392 19.6831C17.0577 19.8375 16.9331 19.9648 16.7804 20.0496C16.6278 20.1344 16.4538 20.173 16.2796 20.1606C16.1055 20.1483 15.9387 20.0855 15.7995 19.98C15.571 19.8383 15.3709 19.6552 15.2095 19.44C15.0695 19.25 14.9295 19.06 14.8095 18.87C14.7424 18.731 14.6856 18.5873 14.6395 18.44V18.3C14.6954 18.2966 14.7509 18.3113 14.7977 18.3419C14.8445 18.3725 14.8803 18.4175 14.8995 18.47C14.9495 18.55 15.1595 18.87 15.2995 19.06C15.4145 19.29 15.5875 19.486 15.7995 19.63C15.8698 19.6596 15.9452 19.6751 16.0214 19.6755C16.0976 19.6759 16.1732 19.6613 16.2438 19.6326C16.3144 19.6038 16.3786 19.5613 16.4328 19.5077C16.4869 19.4541 16.53 19.3903 16.5595 19.32V19.25C16.6017 19.1255 16.6172 18.9935 16.6051 18.8626C16.5931 18.7317 16.5537 18.6047 16.4895 18.49C16.3195 18.11 16.1095 17.73 15.9195 17.36C15.6997 16.9612 15.5476 16.5287 15.4695 16.08C15.4577 15.9703 15.4577 15.8597 15.4695 15.75C15.3195 15.762 15.1695 15.762 15.0195 15.75L14.5695 15.63L14.3595 15.77C14.369 15.7238 14.369 15.6762 14.3595 15.63C14.3616 15.5384 14.3384 15.4479 14.2926 15.3686C14.2467 15.2892 14.1799 15.224 14.0995 15.18C14.0491 15.18 14.0008 15.2 13.9652 15.2357C13.9295 15.2713 13.9095 15.3196 13.9095 15.37C13.9022 15.472 13.9225 15.5742 13.9682 15.6656C14.014 15.7571 14.0835 15.8346 14.1695 15.89L14.5695 16.17C14.7095 16.26 14.6895 16.26 14.7595 16.17C14.7692 16.1238 14.7692 16.0762 14.7595 16.03C14.9495 16.03 15.0195 16.15 15.0395 16.34C15.0855 16.58 15.1495 16.818 15.2295 17.05C15.2339 17.1003 15.2282 17.151 15.2127 17.1991C15.1973 17.2471 15.1724 17.2917 15.1395 17.33C15.016 17.4856 14.854 17.6063 14.6695 17.68C14.5183 17.7386 14.3507 17.7386 14.1995 17.68C14.2868 17.5932 14.3804 17.513 14.4795 17.44C14.5215 17.3973 14.5518 17.3445 14.5676 17.2868C14.5833 17.229 14.584 17.1681 14.5695 17.11C14.5624 17.0912 14.5502 17.0748 14.5343 17.0624C14.5184 17.0501 14.4995 17.0423 14.4795 17.04C14.3865 17.0285 14.2925 17.0285 14.1995 17.04C14.1272 17.0452 14.0594 17.0773 14.0095 17.13C13.8456 17.2601 13.6717 17.3771 13.4895 17.48C13.3411 17.5571 13.1721 17.585 13.0067 17.5598C12.8414 17.5347 12.6883 17.4577 12.5695 17.34C12.4841 17.2443 12.4194 17.1319 12.3795 17.01L12.3095 16.87C12.2743 16.9059 12.2338 16.9362 12.1895 16.96C12.1395 16.96 12.1195 16.84 12.1895 16.82C12.2185 16.69 12.2595 16.563 12.3095 16.44C12.3209 16.4184 12.3269 16.3944 12.3269 16.37C12.3269 16.3456 12.3209 16.3216 12.3095 16.3C12.2295 16.1888 12.123 16.0994 11.9995 16.04C11.9095 15.97 11.8295 16.04 11.7595 16.04H11.6395C11.6419 16 11.6419 15.96 11.6395 15.92C11.6564 15.8147 11.703 15.7164 11.7739 15.6367C11.8448 15.557 11.9369 15.4991 12.0395 15.47H12.1595C11.8729 15.3606 11.6135 15.19 11.3995 14.97C11.3295 14.9 11.3095 14.85 11.3995 14.78C11.4895 14.71 11.6595 14.55 11.7995 14.45C12.068 14.3547 12.3611 14.3547 12.6295 14.45C12.8765 14.532 13.1025 14.668 13.2895 14.85L13.3595 14.92C13.3031 14.7488 13.2078 14.5929 13.0812 14.4645C12.9546 14.3361 12.8 14.2388 12.6295 14.18C12.325 14.0666 12.0043 14.0025 11.6795 13.99C11.6956 13.9294 11.7286 13.8747 11.7746 13.8322C11.8207 13.7897 11.8779 13.7612 11.9395 13.75L12.4795 13.65C12.6716 13.6073 12.8501 13.518 12.9995 13.39C12.903 13.3105 12.7992 13.2402 12.6895 13.18C12.4095 13.06 12.1195 12.92 11.8395 12.83C11.5851 12.7178 11.3156 12.6436 11.0395 12.61C10.6542 12.5562 10.2754 12.4623 9.90953 12.33C9.46796 12.2095 9.04672 12.0241 8.65953 11.78C8.25953 11.52 7.91953 11.18 7.65953 10.78C7.59891 10.6765 7.55186 10.5656 7.51953 10.45V10.33H7.63953L7.79953 10.42C8.05953 10.63 8.29953 10.89 8.55953 11.08C8.87847 11.3115 9.23803 11.4811 9.61953 11.58C9.92953 11.65 10.2295 11.72 10.5395 11.77C10.8495 11.82 11.0595 11.77 11.3195 11.84L11.8895 11.91C12.1065 11.925 12.3215 11.965 12.5295 12.03C12.8595 12.15 13.1695 12.29 13.4795 12.41C13.4974 12.4216 13.5182 12.4278 13.5395 12.4278C13.5608 12.4278 13.5817 12.4216 13.5995 12.41C13.7295 12.381 13.8565 12.34 13.9795 12.29V12.18C13.749 12.0514 13.512 11.9345 13.2695 11.83C12.8149 11.6512 12.3364 11.54 11.8495 11.5L11.1895 11.43C10.8278 11.3701 10.4703 11.2866 10.1195 11.18C9.75638 11.0479 9.41826 10.8551 9.11953 10.61C8.86807 10.4159 8.68009 10.1513 8.57953 9.85001V9.64001C8.60645 9.62873 8.63534 9.62292 8.66453 9.62292C8.69371 9.62292 8.72261 9.62873 8.74953 9.64001L9.00953 9.92001C9.14953 10.06 9.28953 10.2 9.45953 10.35C9.85553 10.66 10.3115 10.885 10.7995 11.01C11.0795 11.08 11.3695 11.13 11.6495 11.18C12.0995 11.25 12.5695 11.32 13.0195 11.42C13.553 11.5157 14.0507 11.7541 14.4595 12.11C14.6295 12.25 14.7695 12.18 14.9295 12.11C15.0143 12.094 15.1019 12.1058 15.1794 12.1436C15.2569 12.1815 15.3201 12.2433 15.3595 12.32C15.4795 12.643 15.4795 12.997 15.3595 13.32C15.3487 13.3798 15.3563 13.4414 15.3813 13.4968C15.4063 13.5521 15.4476 13.5986 15.4995 13.63H15.6195C15.7591 13.5728 15.9114 13.5537 16.0608 13.5748C16.2102 13.5959 16.3512 13.6564 16.4695 13.75C16.5066 13.7792 16.5524 13.7951 16.5995 13.7951C16.6467 13.7951 16.6925 13.7792 16.7295 13.75C16.9256 13.6583 17.116 13.5548 17.2995 13.44C17.4895 13.32 17.3895 13.27 17.4395 13.18C17.5077 13.0416 17.6179 12.9283 17.7545 12.8564C17.891 12.7846 18.0468 12.7578 18.1995 12.78C18.4145 12.78 18.6295 12.803 18.8395 12.85C19.0098 12.8959 19.1892 12.8959 19.3595 12.85C19.4669 12.8371 19.5673 12.7905 19.6464 12.7168C19.7255 12.6431 19.7791 12.5462 19.7995 12.44V11.8C19.7995 11.73 19.7995 11.66 19.9195 11.66C20.0395 11.66 20.0095 11.75 20.0095 11.83C20.0815 12.16 20.0815 12.5 20.0095 12.83C19.9896 12.9726 19.9146 13.1017 19.8005 13.1896C19.6865 13.2775 19.5425 13.3171 19.3995 13.3H18.5495C18.4344 13.2927 18.3206 13.3271 18.2288 13.3969C18.1369 13.4667 18.0733 13.5672 18.0495 13.68C18.0385 13.726 18.0385 13.774 18.0495 13.82C18.1195 13.96 18.1695 14.08 18.3795 14.06C18.4915 14.07 18.5795 14.158 18.5895 14.27C18.6113 14.3898 18.6722 14.4989 18.7627 14.5804C18.8532 14.6618 18.9681 14.7109 19.0895 14.72L19.3095 14.71ZM13.7395 14.02C13.8595 14.143 13.9865 14.26 14.1195 14.37C14.1872 14.4211 14.2697 14.4488 14.3545 14.4488C14.4393 14.4488 14.5218 14.4211 14.5895 14.37C14.7216 14.2915 14.8485 14.2047 14.9695 14.11V14.04C14.9582 13.9947 14.9371 13.9525 14.9078 13.9162C14.8784 13.8799 14.8415 13.8505 14.7995 13.83C14.7143 13.8075 14.6247 13.8075 14.5395 13.83L14.3695 13.9C14.1992 13.9459 14.0198 13.9459 13.8495 13.9L13.7395 14.02ZM16.9995 14.35C17.0403 14.3836 17.0882 14.4075 17.1395 14.42C17.3146 14.4534 17.4731 14.5451 17.5895 14.68C17.7055 14.691 17.8235 14.691 17.9395 14.68C18.0095 14.68 18.0595 14.61 18.1295 14.59C18.0723 14.5209 18.0087 14.4572 17.9395 14.4C17.6415 14.2745 17.3091 14.2568 16.9995 14.35ZM4.53953 17.43C4.6646 17.5638 4.82399 17.6606 5.00033 17.71C5.17667 17.7594 5.36318 17.7594 5.53953 17.71C5.59837 17.6926 5.65242 17.6619 5.69751 17.6203C5.74259 17.5787 5.7775 17.5273 5.79953 17.47C5.42464 17.5566 5.03116 17.507 4.68953 17.33C4.52793 17.2378 4.38748 17.1128 4.27724 16.9629C4.167 16.813 4.08942 16.6417 4.04953 16.46C3.97465 16.1938 3.98663 15.9106 4.08375 15.6516C4.18086 15.3926 4.35804 15.1714 4.58953 15.02C4.48625 15.3515 4.51882 15.7105 4.68008 16.018C4.84134 16.3255 5.1181 16.5564 5.44953 16.66H5.58953C5.88767 16.722 6.19797 16.6829 6.47142 16.5489C6.74487 16.4149 6.96587 16.1936 7.09953 15.92C6.99474 16.001 6.89458 16.0878 6.79953 16.18C6.36253 16.48 5.78653 16.48 5.34953 16.18C5.231 16.1018 5.13292 15.9963 5.06348 15.8724C4.99404 15.7485 4.95525 15.6098 4.95036 15.4679C4.94546 15.326 4.9746 15.1849 5.03535 15.0566C5.09609 14.9282 5.18667 14.8162 5.29953 14.73C5.31297 14.8135 5.34514 14.8929 5.39364 14.9621C5.44213 15.0314 5.50568 15.0888 5.57953 15.13C5.72632 15.2109 5.88492 15.2683 6.04953 15.3C6.22883 15.3288 6.41234 15.3158 6.58579 15.262C6.75924 15.2082 6.91793 15.1151 7.04953 14.99C7.19431 14.8414 7.30668 14.6643 7.37953 14.47C7.56953 14.02 7.70953 13.55 7.91953 13.1C8.05549 12.8257 8.2057 12.5587 8.36953 12.3C8.36953 12.23 8.45953 12.3 8.50953 12.3L9.02953 12.58L9.35953 12.72L9.21953 12.84C8.90619 13.174 8.6373 13.5471 8.41953 13.95C8.24953 14.26 8.08953 14.54 7.94953 14.85C7.80953 15.16 7.66953 15.56 7.54953 15.91L7.26953 16.71C7.19953 16.92 7.09953 17.11 7.00953 17.32C6.87547 17.6241 6.64299 17.8741 6.34953 18.03C6.17713 18.1138 5.9906 18.1647 5.79953 18.18C5.61028 18.2039 5.41878 18.2039 5.22953 18.18C5.07636 18.1683 4.93035 18.1104 4.81074 18.014C4.69113 17.9176 4.60355 17.7872 4.55953 17.64C4.57338 17.5695 4.56643 17.4966 4.53953 17.43ZM18.6095 16.63C18.6215 16.74 18.6215 16.85 18.6095 16.96C18.6095 17.1 18.5195 17.1 18.3995 17.03L18.1195 16.89H17.9995C18.04 16.9707 18.0611 17.0597 18.0611 17.15C18.0611 17.2403 18.04 17.3293 17.9995 17.41C17.9831 17.4586 17.9516 17.5007 17.9095 17.53H17.7995L17.7295 17.32C17.7053 17.2646 17.6603 17.2209 17.6041 17.1985C17.548 17.176 17.4853 17.1766 17.4295 17.2C17.3368 17.2254 17.249 17.2659 17.1695 17.32H17.0295C16.8568 16.9893 16.7451 16.6303 16.6995 16.26L16.7995 16.38C16.8814 16.4425 16.9815 16.4763 17.0845 16.4763C17.1875 16.4763 17.2876 16.4425 17.3695 16.38C17.3937 16.3283 17.4062 16.272 17.4062 16.215C17.4062 16.158 17.3937 16.1017 17.3695 16.05C17.3695 15.98 17.2995 15.93 17.2795 15.86C17.4195 15.86 17.4195 15.74 17.7795 16.17L18.0395 16.03C18.1295 16.03 18.0395 15.89 18.0395 15.84V15.63L18.2095 15.7C18.2581 15.7164 18.3002 15.748 18.3295 15.79C18.4788 15.9583 18.6465 16.1092 18.8295 16.24C18.8851 16.286 18.9294 16.3443 18.9589 16.4102C18.9884 16.4761 19.0023 16.5479 18.9995 16.62V16.71H18.9295C18.6795 16.63 18.6795 16.63 18.6095 16.63ZM6.79953 15.04C6.60658 14.9263 6.38233 14.8772 6.15953 14.9C6.06655 14.9115 5.97251 14.9115 5.87953 14.9C5.82129 14.8903 5.76611 14.8672 5.71836 14.8325C5.67061 14.7978 5.6316 14.7525 5.60442 14.7001C5.57725 14.6477 5.56266 14.5896 5.56181 14.5306C5.56096 14.4716 5.57387 14.4132 5.59953 14.36C5.68953 14.36 5.76953 14.48 5.85953 14.53C5.94953 14.58 5.97953 14.53 5.97953 14.46C5.97634 14.4016 5.99087 14.3437 6.02121 14.2937C6.05154 14.2437 6.09627 14.2041 6.14953 14.18C6.22571 14.1533 6.30769 14.1475 6.38686 14.1633C6.46604 14.1792 6.53949 14.216 6.59953 14.27C6.80153 14.47 6.87953 14.766 6.79953 15.04Z" fill="white"/>
</svg>
