<svg width="32" height="32" viewBox="0 0 32 32" fill="none" xmlns="http://www.w3.org/2000/svg">
<path d="M16 32C24.8366 32 32 24.8366 32 16C32 7.16344 24.8366 0 16 0C7.16344 0 0 7.16344 0 16C0 24.8366 7.16344 32 16 32Z" fill="#4700C2"/>
<path fill-rule="evenodd" clip-rule="evenodd" d="M13.6817 14.51C13.3717 14.712 13.0167 14.926 12.6487 15.15V17.171C12.9827 17.002 13.3267 16.831 13.6817 16.662V14.509V14.51ZM8.51473 18.247C8.6086 18.429 8.77035 18.5667 8.96499 18.6303C9.15962 18.6939 9.37148 18.6784 9.55473 18.587L10.5207 18.1C10.5267 17.288 10.5307 16.671 10.5307 16.426V16.361C9.71073 16.769 9.08873 17.082 8.84973 17.201C8.66667 17.2953 8.52855 17.4585 8.46574 17.6546C8.40292 17.8508 8.42054 18.0638 8.51473 18.247ZM13.9737 18.042C13.9733 18.1433 13.993 18.2438 14.0315 18.3376C14.07 18.4313 14.1267 18.5166 14.1982 18.5884C14.2697 18.6602 14.3547 18.7172 14.4484 18.7561C14.542 18.795 14.6424 18.815 14.7437 18.815H14.7527C14.9576 18.8147 15.1539 18.7331 15.2987 18.5882C15.4434 18.4433 15.5247 18.2468 15.5247 18.042V11.639C15.5247 11.5289 15.5011 11.4202 15.4557 11.3199C15.4103 11.2197 15.344 11.1303 15.2613 11.0577C15.1785 10.9851 15.0813 10.931 14.976 10.899C14.8707 10.867 14.7599 10.8577 14.6507 10.872C14.4644 10.8949 14.293 10.9854 14.1688 11.1261C14.0446 11.2669 13.9763 11.4483 13.9767 11.636V14.834C13.9737 15.908 13.9737 16.974 13.9737 18.042Z" fill="white"/>
<path fill-rule="evenodd" clip-rule="evenodd" d="M24.985 13.083C24.936 12.709 24.688 12.501 24.311 12.403C24.011 12.326 23.701 12.311 23.385 12.308C22.649 12.305 21.919 12.424 21.195 12.565C20.149 12.768 19.115 13.028 18.098 13.345C17.791 13.439 17.488 13.537 17.181 13.635L17.178 13.623L17.233 13.577C17.825 13.071 18.413 12.565 19.009 12.065C20.315 10.961 21.493 9.74997 22.587 8.47197C22.885 8.12497 23.142 7.75397 23.274 7.33097C23.474 6.69597 23.25 6.30097 22.606 6.12297C22.3331 6.05692 22.0528 6.02601 21.772 6.03097C21.158 6.02797 20.552 6.12897 19.953 6.25097C19.328 6.38097 18.423 6.61097 17.81 6.79697C16.829 7.09697 15.617 7.61297 14.535 8.05097C13.983 8.26597 13.395 8.54197 12.845 8.75697L10.766 9.60297C8.00602 10.79 7.20302 9.93697 7.20302 9.93697C7.20302 9.94097 7.20402 9.94397 7.20602 9.94697C7.20078 9.93929 7.19674 9.93086 7.19402 9.92197C6.65702 10.98 7.10402 12.902 10.208 11.529C10.696 11.339 11.192 11.133 11.677 10.946C12.612 10.581 13.538 10.13 14.477 9.76897C15.1229 9.50328 15.774 9.25056 16.43 9.01097L17.022 8.78097C17.629 8.58097 18.236 8.38297 18.855 8.22897C19.53 8.05497 20.119 7.94997 20.475 7.99597C20.511 7.99897 20.548 8.00197 20.582 8.00897C20.744 8.02997 20.83 8.11597 20.815 8.22897C20.809 8.40397 20.527 8.98397 17.96 11.121C17.773 11.281 17.586 11.443 17.399 11.602C17.111 11.851 16.832 12.096 16.549 12.342L16.313 12.55L16.31 12.553L16.2 12.651C16.1914 12.6601 16.182 12.6684 16.172 12.676L16.145 12.7L15.93 12.863C15.9154 12.8771 15.9 12.8904 15.884 12.903V15.616C16.792 15.306 21.21 13.832 21.686 14.264C21.723 14.314 22.284 14.663 17.147 18.177C16.945 18.33 16.749 18.483 16.547 18.637L15.804 19.204C14.875 19.876 13.952 20.55 13.024 21.222L12.621 21.513C12.615 22.246 12.612 22.948 12.609 23.593L22.409 16.361C23.0067 15.8573 23.5731 15.3177 24.105 14.745C24.405 14.424 24.675 14.083 24.853 13.694C24.945 13.491 25.013 13.295 24.985 13.084V13.083ZM9.01802 24.205C8.89171 24.3625 8.82729 24.5607 8.83686 24.7623C8.84644 24.964 8.92936 25.1552 9.07002 25.3C9.19839 25.4361 9.36939 25.5242 9.5547 25.5499C9.74001 25.5755 9.92852 25.5371 10.089 25.441L10.481 25.153C10.484 24.564 10.491 23.847 10.496 23.073L9.17202 24.055C9.11482 24.0986 9.06311 24.1489 9.01802 24.205Z" fill="white"/>
<path fill-rule="evenodd" clip-rule="evenodd" d="M12.3637 12.945C12.3151 12.7633 12.202 12.6056 12.0456 12.5013C11.8891 12.3969 11.7001 12.3531 11.5137 12.378C11.3274 12.4009 11.156 12.4913 11.0318 12.6321C10.9076 12.7729 10.8393 12.9542 10.8397 13.142V16.34C10.8397 16.987 10.8117 20.198 10.7877 22.862C10.7817 23.626 10.7747 24.343 10.7717 24.942C10.7657 25.702 10.7627 26.272 10.7627 26.505C10.7623 26.6063 10.7819 26.7068 10.8205 26.8005C10.859 26.8943 10.9156 26.9795 10.9872 27.0514C11.0587 27.1232 11.1437 27.1802 11.2373 27.2191C11.331 27.2579 11.4313 27.278 11.5327 27.278H11.5417C11.7467 27.278 11.9433 27.1965 12.0883 27.0515C12.2333 26.9066 12.3147 26.71 12.3147 26.505C12.3147 25.969 12.3207 24.99 12.3267 23.791C12.3297 23.151 12.3367 22.445 12.3387 21.712C12.3607 18.379 12.3907 14.452 12.3887 13.142C12.388 13.0755 12.3796 13.0094 12.3637 12.945Z" fill="white"/>
</svg>
