<svg width="32" height="32" viewBox="0 0 32 32" fill="none" xmlns="http://www.w3.org/2000/svg">
<path d="M16 32C24.8366 32 32 24.8366 32 16C32 7.16344 24.8366 0 16 0C7.16344 0 0 7.16344 0 16C0 24.8366 7.16344 32 16 32Z" fill="#00AAFF"/>
<path d="M15.9624 4.94C9.87443 4.94 4.94043 9.874 4.94043 15.962C4.94043 22.049 9.87443 26.985 15.9624 26.985C22.0494 26.985 26.9854 22.049 26.9854 15.962C26.9854 9.874 22.0494 4.94 15.9624 4.94ZM15.9974 6.686C16.8794 6.68573 17.7484 6.89845 18.5305 7.30607C19.3126 7.71369 19.9847 8.30416 20.4896 9.02727C20.9946 9.75037 21.3174 10.5847 21.4307 11.4594C21.544 12.334 21.4445 13.2231 21.1404 14.051C20.6669 13.9678 20.1815 13.981 19.7131 14.0895C19.2447 14.1981 18.8031 14.4 18.4144 14.683C18.7544 14.3579 19.0249 13.9672 19.2095 13.5346C19.3941 13.102 19.489 12.6364 19.4884 12.166C19.4882 11.2394 19.1202 10.3508 18.4652 9.69531C17.8103 9.03983 16.922 8.67106 15.9954 8.67C15.1306 8.6707 14.2968 8.992 13.6551 9.5718C13.0134 10.1516 12.6095 10.9487 12.5214 11.809C11.8645 11.6916 11.1926 11.6849 10.5334 11.789C10.6284 10.4045 11.2453 9.10768 12.2596 8.16048C13.2738 7.21327 14.6097 6.68629 15.9974 6.686ZM18.0124 16.978L16.0744 15.818C16.0113 15.7799 15.9388 15.76 15.865 15.7606C15.7912 15.7611 15.7191 15.782 15.6564 15.821L13.9564 16.871C13.8899 16.9115 13.8368 16.9706 13.8034 17.041C13.77 17.1113 13.7578 17.1899 13.7684 17.267C13.8131 17.5903 13.7895 17.9194 13.699 18.233C13.6085 18.5466 13.4531 18.8377 13.243 19.0875C13.0329 19.3373 12.7727 19.5402 12.4793 19.6831C12.1858 19.826 11.8656 19.9057 11.5394 19.917C11.228 19.9268 10.9178 19.8738 10.6273 19.7613C10.3368 19.6488 10.0719 19.4789 9.84835 19.2619C9.6248 19.0449 9.44719 18.7852 9.32609 18.4981C9.20499 18.211 9.14287 17.9026 9.14343 17.591C9.14694 16.9824 9.38779 16.3993 9.81474 15.9656C10.2417 15.532 10.821 15.282 11.4294 15.269C11.7636 15.2633 12.095 15.3299 12.401 15.4642C12.707 15.5985 12.9804 15.7973 13.2024 16.047C13.3264 16.187 13.5324 16.217 13.6944 16.127L15.3324 15.208C15.3946 15.1728 15.4464 15.1218 15.4826 15.0602C15.5188 14.9985 15.538 14.9285 15.5384 14.857V14.757C15.5379 14.6725 15.5109 14.5903 15.4612 14.522C15.4115 14.4536 15.3416 14.4026 15.2614 14.376C14.7287 14.1983 14.2782 13.8339 13.9932 13.35C13.7082 12.8662 13.6078 12.2955 13.7107 11.7435C13.8136 11.1914 14.1127 10.6952 14.5528 10.3464C14.993 9.99765 15.5445 9.81991 16.1054 9.846C16.6719 9.87523 17.2083 10.1098 17.6143 10.5059C18.0204 10.902 18.2682 11.4324 18.3114 11.998C18.3516 12.5401 18.2004 13.079 17.8841 13.5211C17.5678 13.9631 17.1065 14.2801 16.5804 14.417C16.4931 14.4386 16.4154 14.4886 16.3596 14.5592C16.3038 14.6298 16.2731 14.717 16.2724 14.807V14.824C16.2724 14.964 16.3464 15.093 16.4644 15.167L18.1854 16.225C18.2682 16.2765 18.3669 16.2959 18.4631 16.2797C18.5592 16.2635 18.6461 16.2128 18.7074 16.137C18.9311 15.8578 19.2163 15.6341 19.5406 15.4832C19.865 15.3323 20.2198 15.2583 20.5774 15.267C21.1941 15.2907 21.776 15.5585 22.1952 16.0113C22.6145 16.4641 22.8367 17.0649 22.8129 17.6815C22.7892 18.2981 22.5215 18.8801 22.0687 19.2993C21.6159 19.7185 21.0151 19.9407 20.3984 19.917C20.0843 19.8999 19.777 19.8194 19.4948 19.6803C19.2127 19.5413 18.9615 19.3466 18.7566 19.1081C18.5516 18.8695 18.397 18.5919 18.3021 18.292C18.2073 17.9921 18.174 17.6761 18.2044 17.363C18.2124 17.2872 18.1986 17.2107 18.1646 17.1425C18.1306 17.0743 18.0778 17.0172 18.0124 16.978ZM11.4654 23.011C10.7533 23.0113 10.0481 22.8712 9.39006 22.5988C8.73205 22.3265 8.13417 21.9271 7.63056 21.4236C7.12695 20.9201 6.72748 20.3222 6.45498 19.6643C6.18249 19.0063 6.0423 18.3012 6.04243 17.589C6.04191 16.7887 6.21858 15.9983 6.55976 15.2744C6.90094 14.5505 7.39815 13.9111 8.01572 13.4021C8.63328 12.8932 9.35587 12.5273 10.1316 12.3306C10.9074 12.134 11.717 12.1116 12.5024 12.265C12.5284 13.1818 12.9142 14.0515 13.5764 14.686C12.9646 14.2389 12.2262 13.9986 11.4684 14C10.5268 14.0157 9.62907 14.4008 8.96874 15.0723C8.3084 15.7437 7.93834 16.6478 7.93834 17.5895C7.93834 18.5313 8.3084 19.4353 8.96874 20.1067C9.62907 20.7782 10.5268 21.1633 11.4684 21.179C12.1859 21.1789 12.8869 20.9635 13.4806 20.5605C14.0743 20.1576 14.5334 19.5858 14.7984 18.919C14.9694 19.665 15.2854 20.354 15.7114 20.962C15.2043 21.602 14.5588 22.1189 13.8235 22.4739C13.0882 22.8289 12.282 23.0129 11.4654 23.012V23.011ZM20.5214 23.011C19.147 23.0109 17.8239 22.489 16.8194 21.5509C15.815 20.6127 15.2042 19.3282 15.1104 17.957C15.7209 18.0499 16.3421 18.0462 16.9514 17.946C17.0161 18.595 17.2564 19.2142 17.6465 19.7369C18.0366 20.2597 18.5617 20.6663 19.1655 20.913C19.7692 21.1598 20.4288 21.2374 21.0734 21.1376C21.7179 21.0377 22.3231 20.7641 22.8239 20.3462C23.3247 19.9283 23.7021 19.3819 23.9157 18.7656C24.1294 18.1493 24.171 17.4865 24.0363 16.8483C23.9016 16.2101 23.5955 15.6207 23.151 15.1434C22.7065 14.666 22.1404 14.3188 21.5134 14.139C21.7216 13.5582 21.8357 12.9478 21.8514 12.331C23.1313 12.6572 24.2483 13.4392 24.9926 14.5303C25.737 15.6214 26.0576 16.9466 25.8944 18.2573C25.7312 19.568 25.0953 20.7741 24.1061 21.6493C23.1168 22.5245 21.8422 23.0087 20.5214 23.011Z" fill="white"/>
<path d="M16 3C8.821 3 3 8.821 3 16C3 23.179 8.821 29 16 29C23.179 29 29 23.179 29 16C29 8.821 23.179 3 16 3ZM15.962 28.022C9.302 28.022 3.904 22.624 3.904 15.964C3.904 9.304 9.302 3.907 15.962 3.907C22.621 3.907 28.019 9.305 28.019 15.964C28.019 22.624 22.621 28.022 15.962 28.022Z" fill="white"/>
</svg>
