<svg width="32" height="32" viewBox="0 0 32 32" fill="none" xmlns="http://www.w3.org/2000/svg">
<path d="M16 32C24.8366 32 32 24.8366 32 16C32 7.16344 24.8366 0 16 0C7.16344 0 0 7.16344 0 16C0 24.8366 7.16344 32 16 32Z" fill="#35BAEB"/>
<path d="M9.03045 5L15.3044 10.565C15.3774 10.632 15.4564 10.688 15.5174 10.76C15.5244 10.8026 15.5274 10.8458 15.5264 10.889C15.5234 13.286 15.5324 15.681 15.5234 18.075C15.2096 18.1396 14.9088 18.2562 14.6334 18.42L9.09045 12.878C9.06908 12.8606 9.05246 12.8381 9.04215 12.8126C9.03183 12.7871 9.02815 12.7593 9.03145 12.732C9.03745 10.154 9.03145 7.578 9.03745 5.002L9.03045 5ZM16.4774 13.607C17.9968 13.7086 19.4411 14.305 20.5894 15.305C20.2624 15.655 19.9094 15.985 19.5714 16.328C18.8574 17.04 18.1484 17.758 17.4314 18.463C17.1418 18.274 16.8187 18.1423 16.4794 18.075C16.4714 16.588 16.4794 15.098 16.4794 13.607H16.4774ZM9.03345 14.275C10.6614 15.888 12.2794 17.512 13.9044 19.128C13.7144 19.423 13.5784 19.748 13.5024 20.091H9.03045V14.272L9.03345 14.275ZM20.6394 16.608C20.8524 16.404 21.0474 16.185 21.2724 15.988C22.2725 17.1318 22.8697 18.5721 22.9724 20.088C21.5054 20.094 20.0354 20.088 18.5684 20.091C18.4804 20.111 18.4804 20.009 18.4634 19.954C18.3931 19.6644 18.2715 19.3897 18.1044 19.143C18.9444 18.297 19.7934 17.454 20.6394 16.611V16.608ZM9.03045 21.042H12.8514C13.0704 21.042 13.2894 21.032 13.5114 21.047C13.5794 21.385 13.7114 21.707 13.8984 21.995L10.7984 25.087C10.7754 25.105 10.7374 25.16 10.7104 25.117C9.72113 23.9782 9.13117 22.5472 9.03045 21.042ZM18.4924 21.047C19.1224 21.033 19.7464 21.047 20.3764 21.042H22.9724C22.8743 22.5346 22.2926 23.9545 21.3154 25.087L19.5074 23.285C19.0554 22.83 18.5944 22.383 18.1474 21.922C18.3144 21.654 18.4314 21.357 18.4924 21.047ZM17.2384 22.777C17.3084 22.737 17.3784 22.695 17.4484 22.66L20.6044 25.81C19.4546 26.8184 18.0037 27.4186 16.4774 27.517V23.054C16.7431 23.0006 16.9988 22.9061 17.2354 22.774L17.2384 22.777ZM12.6474 24.571C13.2894 23.935 13.9244 23.291 14.5724 22.661C14.8624 22.847 15.1854 22.981 15.5224 23.054V27.517C14.0025 27.4179 12.5575 26.8211 11.4104 25.819C11.8134 25.396 12.2364 24.991 12.6474 24.574V24.571Z" fill="white"/>
</svg>
