<svg width="32" height="32" viewBox="0 0 32 32" fill="none" xmlns="http://www.w3.org/2000/svg">
<path d="M16 32C24.8366 32 32 24.8366 32 16C32 7.16344 24.8366 0 16 0C7.16344 0 0 7.16344 0 16C0 24.8366 7.16344 32 16 32Z" fill="#FB2EA3"/>
<path d="M22.6316 14.02C22.4046 15.555 21.5536 16.298 20.4246 16.558C21.9746 17.365 22.7646 18.604 22.0126 20.75C21.0796 23.416 18.8636 23.64 15.9166 23.083L15.1996 25.95L13.4716 25.519L14.1776 22.691C13.717 22.5766 13.2577 22.4573 12.7996 22.333L12.0916 25.175L10.3646 24.745L11.0806 21.872C10.6766 21.769 10.2666 21.659 9.84763 21.554L7.59863 20.994L8.45663 19.014C8.45663 19.014 9.73063 19.354 9.71263 19.328C10.2026 19.449 10.4196 19.13 10.5056 18.918L11.6356 14.386L11.8186 14.431C11.76 14.4081 11.6998 14.389 11.6386 14.374L12.4446 11.139C12.4656 10.771 12.3396 10.309 11.6396 10.133C11.6666 10.115 10.3836 9.821 10.3836 9.821L10.8436 7.975L13.2276 8.57L13.2256 8.58C13.5836 8.668 13.9536 8.753 14.3296 8.839L15.0386 6L16.7666 6.43L16.0726 9.214C16.5356 9.32 17.0026 9.426 17.4566 9.54L18.1466 6.775L19.8746 7.205L19.1666 10.045C21.3496 10.797 22.9456 11.924 22.6316 14.02ZM18.6816 19.558C19.2416 17.32 15.4836 16.741 14.3116 16.448L13.3626 20.253C14.5346 20.544 18.1486 21.705 18.6826 19.558H18.6816ZM19.2166 13.989C19.7246 11.952 16.5826 11.499 15.6066 11.255L14.7466 14.706C15.7216 14.95 18.7296 15.942 19.2166 13.989ZM24.2466 21.618C24.1628 21.6068 24.0777 21.6122 23.996 21.634C23.9143 21.6558 23.8377 21.6935 23.7706 21.745C23.6407 21.8564 23.5525 22.0088 23.5206 22.177C23.5001 22.2705 23.4934 22.3665 23.5006 22.462C23.5092 22.5708 23.5442 22.6758 23.6026 22.768C23.6626 22.868 23.7586 22.962 23.8886 23.05C24.0186 23.137 24.1986 23.207 24.4286 23.26C24.5526 23.29 24.6806 23.304 24.8116 23.303C24.9436 23.303 25.0656 23.282 25.1776 23.24C25.2961 23.1982 25.4017 23.1264 25.484 23.0315C25.5664 22.9367 25.6228 22.8221 25.6476 22.699C25.6712 22.6112 25.6772 22.5196 25.6652 22.4295C25.6532 22.3394 25.6234 22.2525 25.5776 22.174C25.4856 22.02 25.3346 21.902 25.1236 21.82L25.2776 21.154C25.6576 21.307 25.9236 21.526 26.0776 21.809C26.2316 22.093 26.2636 22.43 26.1736 22.82C26.1281 23.0363 26.0378 23.2407 25.9086 23.42C25.7926 23.5782 25.6438 23.7096 25.4725 23.8051C25.3011 23.9007 25.1112 23.9583 24.9156 23.974C24.7005 23.9935 24.4836 23.9776 24.2736 23.927C24.0576 23.8788 23.8502 23.7979 23.6586 23.687C23.482 23.5858 23.3279 23.4497 23.2056 23.287C23.0867 23.1253 23.0054 22.9391 22.9676 22.742C22.9273 22.5158 22.9358 22.2836 22.9926 22.061C23.0309 21.892 23.0925 21.7291 23.1756 21.577C23.2566 21.429 23.3556 21.304 23.4746 21.202C23.5926 21.1 23.7286 21.026 23.8826 20.98C24.0376 20.933 24.2096 20.924 24.4006 20.951L24.2466 21.618ZM26.9386 19.505C26.8915 19.7273 26.8 19.9379 26.6696 20.124C26.5466 20.294 26.3996 20.428 26.2296 20.527C26.0537 20.6269 25.8589 20.6889 25.6576 20.709C25.4343 20.7313 25.2088 20.7158 24.9906 20.663C24.7733 20.615 24.5657 20.5305 24.3766 20.413C24.2047 20.3068 24.0569 20.1657 23.9426 19.999C23.8305 19.8315 23.7555 19.6419 23.7226 19.443C23.6874 19.2189 23.6976 18.99 23.7526 18.77C23.7998 18.5477 23.8913 18.3371 24.0216 18.151C24.1456 17.981 24.2916 17.846 24.4626 17.748C24.6385 17.6481 24.8334 17.5861 25.0346 17.566C25.2446 17.543 25.4646 17.558 25.6946 17.611C25.9139 17.659 26.1235 17.7435 26.3146 17.861C26.4946 17.975 26.6386 18.113 26.7486 18.276C26.8586 18.439 26.9316 18.624 26.9686 18.831C27.004 19.0554 26.9938 19.2846 26.9386 19.505ZM24.3146 16.707L24.4596 16.082L25.0436 16.217L25.0466 16.205C24.9651 16.163 24.8927 16.1052 24.8336 16.035C24.6979 15.8772 24.608 15.6853 24.5736 15.48C24.5569 15.3763 24.5603 15.2704 24.5836 15.168C24.6017 15.0836 24.6272 15.001 24.6596 14.921L25.3026 15.069C25.2839 15.1149 25.2662 15.1613 25.2496 15.208C25.2328 15.2541 25.2188 15.3012 25.2076 15.349C25.18 15.4587 25.1775 15.5733 25.2004 15.6841C25.2232 15.7949 25.2708 15.8992 25.3396 15.989C25.4175 16.0896 25.5139 16.1745 25.6236 16.239C25.7426 16.312 25.8856 16.368 26.0536 16.407L27.4916 16.739L27.3376 17.405L24.3146 16.707ZM26.5946 14.517C26.7106 14.545 26.8276 14.554 26.9446 14.547C27.0557 14.54 27.1644 14.5115 27.2646 14.463C27.364 14.4143 27.4512 14.3439 27.5196 14.257C27.5969 14.1552 27.6502 14.0373 27.6756 13.912C27.7221 13.7476 27.7161 13.5729 27.6586 13.412C27.5937 13.2639 27.4834 13.1403 27.3436 13.059L27.4886 12.428C27.7055 12.5266 27.8909 12.6833 28.0242 12.8809C28.1574 13.0784 28.2334 13.3089 28.2436 13.547C28.2536 13.707 28.2396 13.869 28.2026 14.033C28.1476 14.271 28.0596 14.473 27.9396 14.638C27.8243 14.8 27.6744 14.9343 27.5007 15.0311C27.3271 15.128 27.1341 15.185 26.9356 15.198C26.4976 15.233 26.0596 15.1295 25.6836 14.902C25.5117 14.7945 25.3617 14.6554 25.2416 14.492C25.1247 14.3307 25.0426 14.1468 25.0006 13.952C24.9556 13.754 24.9606 13.542 25.0116 13.315C25.0593 13.0917 25.1614 12.8835 25.3086 12.709C25.4466 12.5472 25.6183 12.4175 25.8116 12.329C26.0094 12.2415 26.2224 12.1939 26.4386 12.189C26.6646 12.181 26.8866 12.217 27.1066 12.296L26.5936 14.518L26.5946 14.517ZM26.4126 19.384C26.4456 19.2559 26.4457 19.1215 26.4128 18.9934C26.3799 18.8652 26.3152 18.7474 26.2246 18.651C26.1372 18.5556 26.0336 18.4764 25.9186 18.417C25.68 18.2915 25.4131 18.2295 25.1436 18.237C25.0143 18.2395 24.8866 18.2656 24.7666 18.314C24.6435 18.3615 24.5343 18.4392 24.4492 18.5401C24.3641 18.641 24.3058 18.7616 24.2796 18.891C24.2463 19.0186 24.2457 19.1526 24.2779 19.2806C24.31 19.4085 24.3739 19.5263 24.4636 19.623C24.5466 19.717 24.6486 19.794 24.7696 19.857C25.0084 19.982 25.2752 20.044 25.5446 20.037C25.6742 20.0338 25.8022 20.0077 25.9226 19.96C26.0462 19.913 26.1559 19.8356 26.2416 19.7349C26.3272 19.6342 26.3861 19.5135 26.4126 19.384ZM26.5146 12.861C26.4087 12.8444 26.3009 12.8434 26.1946 12.858C26.0935 12.8693 25.9956 12.9005 25.9065 12.9497C25.8174 12.999 25.739 13.0654 25.6756 13.145C25.6101 13.2336 25.563 13.3346 25.5372 13.4418C25.5114 13.549 25.5075 13.6602 25.5256 13.769C25.5456 13.874 25.5826 13.969 25.6386 14.054C25.7621 14.2329 25.9455 14.3616 26.1556 14.417L26.5146 12.861Z" fill="white"/>
</svg>
