<svg width="32" height="32" viewBox="0 0 32 32" fill="none" xmlns="http://www.w3.org/2000/svg">
<path d="M16 32C24.8366 32 32 24.8366 32 16C32 7.16344 24.8366 0 16 0C7.16344 0 0 7.16344 0 16C0 24.8366 7.16344 32 16 32Z" fill="#FBB413"/>
<path d="M16.0167 21.804C16.6804 21.8343 17.3428 21.7196 17.9577 21.468C18.2017 21.381 18.4347 21.266 18.6527 21.126C18.672 21.1089 18.6947 21.0961 18.7193 21.0885C18.7439 21.0809 18.7699 21.0786 18.7954 21.0818C18.821 21.085 18.8455 21.0937 18.8675 21.1071C18.8894 21.1206 18.9083 21.1386 18.9227 21.16L20.5017 22.785C20.6147 22.903 20.6107 22.941 20.4757 23.034C19.9273 23.41 19.3314 23.7116 18.7037 23.931C17.9268 24.1966 17.1152 24.3469 16.2947 24.377C15.2501 24.4308 14.2046 24.288 13.2127 23.956C12.3587 23.66 11.5645 23.2136 10.8677 22.638C10.2384 22.1174 9.68565 21.5108 9.22571 20.836C8.96593 20.468 8.7416 20.0762 8.55571 19.666C8.41532 19.3415 8.28887 19.0112 8.17671 18.676C7.99043 18.0607 7.87205 17.427 7.82371 16.786C7.77158 16.3153 7.7783 15.84 7.84371 15.371C7.89371 14.907 7.97571 14.447 8.08871 13.994C8.27759 13.3016 8.55204 12.6354 8.90571 12.011C9.66555 10.696 10.7805 9.62159 12.1227 8.91097C12.632 8.63486 13.1699 8.41491 13.7267 8.25497C14.1784 8.11973 14.6423 8.02929 15.1117 7.98497C15.4732 7.93958 15.8385 7.9312 16.2017 7.95997C16.2667 7.96397 16.3317 7.96397 16.3957 7.95997C16.9907 7.97519 17.5811 8.06866 18.1517 8.23797C18.6387 8.36797 19.1097 8.55197 19.5537 8.78997C20.0227 9.02197 20.4637 9.30397 20.8717 9.63197C20.9517 9.70297 21.0147 9.66997 21.0777 9.60197L22.0507 8.57497L23.4527 7.08497C23.6167 6.90797 23.6587 6.90297 23.8357 7.06297C24.3757 7.54997 24.8757 8.08097 25.3257 8.65097C25.8976 9.36119 26.3852 10.1354 26.7787 10.958C27.0937 11.638 27.3527 12.342 27.5537 13.063C27.7227 13.657 27.7767 14.263 27.9077 14.857C27.9091 14.8683 27.9091 14.8797 27.9077 14.891C27.9077 15.442 28.0297 15.994 27.9707 16.545C27.9037 17.173 27.8697 17.809 27.7387 18.428C27.6277 18.948 27.4867 19.46 27.3187 19.964C26.9054 21.2145 26.2863 22.3873 25.4867 23.434C25.3647 23.594 25.3267 23.598 25.1867 23.434C24.7247 22.966 24.2617 22.491 23.7937 22.028C23.6967 21.931 23.7097 21.855 23.7937 21.75C24.2867 21.0589 24.6861 20.3057 24.9817 19.51C25.2467 18.763 25.4287 17.989 25.5247 17.202C25.5827 16.599 25.5947 15.992 25.5627 15.388C25.5485 15.0439 25.5074 14.7016 25.4397 14.364C25.1846 12.9778 24.6236 11.666 23.7977 10.524C23.7097 10.398 23.5997 10.284 23.5197 10.15C23.4397 10.015 23.4317 10.053 23.3557 10.129C22.9097 10.579 22.4507 11.017 22.0167 11.476C21.8657 11.636 21.6927 11.762 21.5497 11.926C21.4067 12.091 21.2337 12.246 21.0737 12.406L20.5857 12.895C20.5097 12.971 20.4507 12.941 20.3997 12.87C19.9865 12.2646 19.4552 11.7489 18.8377 11.354C18.241 10.9697 17.5719 10.7117 16.8717 10.596C16.3254 10.512 15.77 10.5049 15.2217 10.575C14.5477 10.647 13.8949 10.853 13.3017 11.181C12.6649 11.5307 12.1059 12.0064 11.6587 12.579C11.2695 13.072 10.969 13.6289 10.7707 14.225C10.5475 14.9313 10.4463 15.6706 10.4717 16.411C10.4627 17.7393 10.956 19.0219 11.8527 20.002C12.3914 20.5977 13.052 21.0704 13.7897 21.388C14.4897 21.696 15.2527 21.839 16.0167 21.804Z" fill="white"/>
<path d="M25.0372 23.711L20.7772 19.374C20.6842 19.277 20.6072 19.274 20.5322 19.374C20.2312 19.8129 19.8665 20.2045 19.4502 20.536C19.3492 20.616 19.3492 20.679 19.4502 20.772C19.8332 21.155 20.2122 21.547 20.5912 21.93C21.0842 22.431 21.5762 22.932 22.0732 23.433C22.1612 23.521 22.1572 23.563 22.0732 23.639C21.8752 23.787 21.6812 23.939 21.4752 24.06C20.3953 24.8054 19.1697 25.3136 17.8792 25.551C17.3777 25.6647 16.8654 25.724 16.3512 25.728H16.1452C15.7812 25.753 15.4152 25.742 15.0552 25.694C14.6332 25.631 14.2372 25.58 13.8372 25.492C13.3303 25.3765 12.8344 25.2172 12.3552 25.016C11.541 24.6769 10.7772 24.2277 10.0852 23.681C9.40173 23.143 8.79185 22.5177 8.27116 21.821C7.72225 21.0911 7.28512 20.2836 6.97416 19.425C6.63345 18.5843 6.43964 17.6913 6.40116 16.785C6.39398 16.6894 6.39398 16.5935 6.40116 16.498V15.505C6.37819 15.3979 6.37819 15.2871 6.40116 15.18C6.40116 15.1 6.43516 15.025 6.44816 14.945C6.49016 14.572 6.55616 14.202 6.64616 13.837C6.76116 13.347 6.91416 12.867 7.10516 12.401C7.95279 10.3252 9.49448 8.60782 11.4672 7.54197C12.634 6.89424 13.9266 6.50543 15.2572 6.40197H15.5002C16.8854 6.31406 18.273 6.53258 19.5642 7.04197L19.9262 7.19297C20.4781 7.4377 21.0067 7.73226 21.5052 8.07297C21.5231 8.08934 21.5442 8.10176 21.5672 8.10943C21.5902 8.1171 21.6146 8.11985 21.6387 8.11749C21.6629 8.11513 21.6862 8.10773 21.7073 8.09575C21.7284 8.08377 21.7468 8.06749 21.7612 8.04797C22.2082 7.53797 22.6792 7.05397 23.1472 6.56597C23.2352 6.47297 23.2392 6.38897 23.1472 6.31297C21.6038 5.1907 19.8155 4.45169 17.9302 4.15697C17.3893 4.07102 16.8435 4.01891 16.2962 4.00097C15.4481 3.98755 14.6011 4.06669 13.7702 4.23697C13.2394 4.34245 12.7163 4.48309 12.2042 4.65797C11.2922 4.96297 10.4222 5.38097 9.61416 5.89997C8.64416 6.51997 7.76716 7.27197 7.00816 8.13597C5.9944 9.28645 5.21241 10.6219 4.70516 12.069C4.49316 12.681 4.32516 13.307 4.20416 13.943C4.11116 14.5 4.04816 15.063 4.01416 15.627C3.97983 16.2329 4.00797 16.8408 4.09816 17.441C4.16416 18.038 4.27816 18.628 4.43916 19.206C4.55316 19.597 4.66716 19.989 4.81416 20.368C5.10816 21.128 5.47716 21.858 5.91716 22.545C6.4645 23.3901 7.11037 24.1673 7.84116 24.86C8.31416 25.296 8.82116 25.693 9.35716 26.048C10.0752 26.539 10.8472 26.948 11.6572 27.265C12.4632 27.585 13.3042 27.813 14.1612 27.947C14.8042 28.043 15.4532 28.099 16.1032 28.115C16.5232 28.115 16.9452 28.048 17.3402 28.039C17.6402 28.017 17.9372 27.972 18.2292 27.905C18.5532 27.85 18.8732 27.765 19.1932 27.681C20.3899 27.3679 21.5275 26.8616 22.5612 26.182C23.4982 25.582 24.3482 24.857 25.0882 24.027C25.2102 23.887 25.2062 23.863 25.0382 23.711H25.0372Z" fill="white"/>
</svg>
