<svg width="32" height="32" viewBox="0 0 32 32" fill="none" xmlns="http://www.w3.org/2000/svg">
<path d="M16 32C24.8366 32 32 24.8366 32 16C32 7.16344 24.8366 0 16 0C7.16344 0 0 7.16344 0 16C0 24.8366 7.16344 32 16 32Z" fill="#36B0F3"/>
<path fill-rule="evenodd" clip-rule="evenodd" d="M14.0903 4.26097C14.8903 4.10097 15.7053 4.03197 16.5203 4.05497C17.0283 4.05497 17.5363 4.10097 18.0373 4.19197C19.0123 4.32597 19.9523 4.63597 20.8693 4.98397C21.5363 5.28197 22.2353 5.56197 22.7773 6.06797C22.9283 6.17797 22.8473 6.39797 22.7133 6.48497C22.4033 6.68397 22.0303 6.74097 21.6763 6.81897C20.0803 7.09297 18.4563 7.21597 16.8883 7.64097C16.1853 7.79897 15.5093 8.05697 14.8403 8.32397C13.5973 8.87997 12.4543 9.69697 11.6273 10.789C11.4693 11.02 11.3172 11.2551 11.1713 11.494C11.0403 11.749 10.9083 12.004 10.8013 12.271C10.7213 12.462 10.6473 12.655 10.5773 12.849C10.4363 13.262 10.3673 13.693 10.2623 14.117C10.2293 14.395 10.2103 14.675 10.1523 14.95C10.1153 15.58 10.1333 16.21 10.1383 16.84C10.1383 17.05 10.1953 17.256 10.1983 17.467C10.2013 17.661 10.2283 17.854 10.2803 18.041C10.3803 18.566 10.5023 19.098 10.7253 19.589C11.0143 20.286 11.4643 20.939 12.1043 21.354C12.6353 21.748 13.2923 21.916 13.9363 22.016C14.7963 22.128 15.6693 22.026 16.5163 21.872C16.9593 21.792 17.3993 21.692 17.8363 21.575C18.1133 21.497 18.3983 21.445 18.6723 21.352C18.7774 21.3338 18.8837 21.3238 18.9903 21.322C18.6473 21.628 18.3023 21.932 17.9143 22.179C16.5923 23.031 15.0553 23.475 13.5223 23.761C12.8293 23.903 12.1243 23.987 11.4263 24.107C10.6313 24.222 9.80729 24.317 9.09029 24.707C8.87629 24.857 8.71029 25.061 8.56129 25.273C8.51629 25.365 8.43129 25.273 8.38129 25.24C8.21829 25.053 8.00929 24.916 7.83229 24.743C7.64347 24.5612 7.45811 24.3758 7.27629 24.187C6.98529 23.848 6.68629 23.514 6.42929 23.149C5.91729 22.455 5.46429 21.712 5.13229 20.916L5.07429 20.89C5.03229 20.661 4.91629 20.459 4.83929 20.242C4.65772 19.7665 4.51067 19.2786 4.39929 18.782C4.35531 18.6303 4.32091 18.476 4.29629 18.32C4.24256 18.1445 4.21033 17.9632 4.20029 17.78C4.10229 17.35 4.12029 16.906 4.05829 16.472C4.05829 16.11 4.03429 15.745 4.07829 15.384C4.12629 15.084 4.10629 14.777 4.16829 14.478C4.22929 14.235 4.21729 13.981 4.29429 13.742C4.39036 13.2072 4.53085 12.6814 4.71429 12.17C4.78629 11.982 4.85129 11.792 4.91829 11.603C4.95829 11.516 4.99129 11.427 5.01829 11.336L5.07129 11.273C5.13538 11.0852 5.21812 10.9043 5.31829 10.733C5.41787 10.5244 5.5263 10.3203 5.64329 10.121C5.67729 10.05 5.71529 9.98097 5.75529 9.91097C6.38529 8.92397 7.12129 7.98897 8.00729 7.21697C9.10639 6.23861 10.3685 5.4605 11.7363 4.91797C12.4968 4.61903 13.2859 4.39888 14.0913 4.26097H14.0903Z" fill="white"/>
<path fill-rule="evenodd" clip-rule="evenodd" d="M23.2409 7.38997C23.4609 7.26197 23.6119 7.05497 23.7639 6.85797C24.9642 7.88423 25.9502 9.13726 26.6654 10.5453C27.3806 11.9533 27.8109 13.4886 27.9317 15.0632C28.0524 16.6378 27.8613 18.2207 27.3692 19.7213C26.8771 21.2219 26.0937 22.6107 25.0639 23.808C23.2269 25.966 20.5889 27.432 17.7779 27.821C16.4849 28.011 15.1679 27.961 13.8759 27.784C12.8859 27.644 11.9179 27.374 10.9989 26.979C10.4989 26.759 10.0019 26.501 9.61089 26.111C9.50989 26.023 9.44589 25.877 9.51289 25.75C9.61289 25.595 9.79289 25.518 9.96289 25.463C10.4479 25.323 10.9469 25.241 11.4459 25.164C12.3479 25.007 13.2589 24.906 14.1539 24.709C15.6409 24.388 17.1279 23.933 18.4139 23.099C19.2879 22.541 20.0579 21.815 20.6249 20.945C21.4389 19.717 21.8149 18.246 21.9049 16.788C21.9499 15.703 21.9249 14.608 21.6979 13.542C21.4909 12.622 21.1279 11.695 20.4409 11.025C19.9159 10.486 19.2009 10.151 18.4629 10.023C17.2379 9.79397 15.9869 10.015 14.7869 10.285C14.2249 10.418 13.6709 10.585 13.1029 10.695C13.9109 9.93397 14.8999 9.38997 15.9389 9.01797C16.5359 8.79697 17.1559 8.64997 17.7729 8.50497C19.1249 8.20097 20.5089 8.08497 21.8729 7.85097C22.3489 7.75097 22.8329 7.65497 23.2409 7.38997Z" fill="white"/>
</svg>
