<svg width="32" height="32" viewBox="0 0 32 32" fill="none" xmlns="http://www.w3.org/2000/svg">
<path d="M16 32C24.8366 32 32 24.8366 32 16C32 7.16344 24.8366 0 16 0C7.16344 0 0 7.16344 0 16C0 24.8366 7.16344 32 16 32Z" fill="#598182"/>
<path fill-rule="evenodd" clip-rule="evenodd" d="M13.5476 25.408C14.393 24.3157 15.2383 23.2233 16.0836 22.131C17.0326 22.279 17.9676 22.195 18.8616 21.807C19.1846 21.667 19.4736 21.449 19.7776 21.265C19.8206 21.239 19.8606 21.205 19.8936 21.18L22.9656 24.218C22.7106 24.388 22.4576 24.572 22.1886 24.73C21.1479 25.3333 20.0007 25.7306 18.8096 25.9C18.1068 25.9985 17.3959 26.0253 16.6876 25.98C15.6201 25.931 14.5639 25.7386 13.5476 25.408ZM12.5816 25.032C12.2403 24.8794 11.9078 24.7078 11.5856 24.518C9.93942 23.564 8.63992 22.1104 7.87564 20.368C7.47224 19.4592 7.20697 18.4952 7.08864 17.508C6.99579 16.7423 6.97503 15.9696 7.02664 15.2C7.14964 13.225 7.75064 11.41 8.96164 9.81299C10.0796 8.33899 11.5476 7.32999 13.2846 6.68299C14.1087 6.37024 14.9717 6.17173 15.8496 6.09299C16.5126 6.03599 17.1826 5.97899 17.8456 6.00799C18.2556 6.02499 18.6586 6.06499 19.0556 6.12799C18.1983 7.37266 17.341 8.61733 16.4836 9.86199C15.6259 9.93387 14.7986 10.214 14.0736 10.678C12.7436 11.522 11.9476 12.738 11.5736 14.238C11.415 14.87 11.3423 15.5205 11.3576 16.172C11.3666 16.514 11.3956 16.849 11.4466 17.176L11.1386 17.623C10.8906 17.983 11.1956 18.459 11.6366 18.401L11.7486 18.387C12.0066 19.116 12.3976 19.797 12.9386 20.422C13.2746 20.808 13.6496 21.132 14.0626 21.392L12.6176 24.883C12.5978 24.9308 12.5856 24.9814 12.5816 25.033V25.032ZM20.0246 6.33399C20.9149 6.57119 21.7588 6.95694 22.5206 7.47499C22.6586 7.56899 22.7846 7.67999 22.9166 7.78299C22.9416 7.80199 22.9676 7.81899 22.9996 7.84099C22.9576 7.88899 22.9336 7.92099 22.9046 7.94899C21.9936 8.84699 21.0806 9.74199 20.1726 10.643C20.0726 10.743 20.0096 10.759 19.8886 10.673C19.5221 10.4125 19.1168 10.2113 18.6876 10.077L19.9706 6.70199L20.0046 6.61499C20.0388 6.52533 20.0457 6.42759 20.0246 6.33399ZM16.3206 17.282L11.5676 17.903L19.4756 6.41999L19.5196 6.43999L16.4646 14.471L22.0396 13.591L13.1406 25.101L13.0976 25.071L16.3206 17.282Z" fill="white"/>
</svg>
