<svg width="32" height="32" viewBox="0 0 32 32" fill="none" xmlns="http://www.w3.org/2000/svg">
<path d="M16 32C24.8366 32 32 24.8366 32 16C32 7.16344 24.8366 0 16 0C7.16344 0 0 7.16344 0 16C0 24.8366 7.16344 32 16 32Z" fill="#0576B4"/>
<path d="M24.6679 18.863L23.6089 18.2L25.9189 18.173L25.9669 18.147V18.172L26.9209 18.162L25.3019 20.796L25.1569 19.526L17.7929 23.589L14.9999 19.86L7.16992 23.986V23.046L15.2429 18.793L18.0349 22.522L24.6689 18.863H24.6679ZM14.5559 17.958L11.4959 19.569V8.64398H14.5559V17.958ZM23.2089 18.439L20.1489 20.139V8.64398H23.2089V18.439Z" fill="white"/>
<path opacity="0.5" d="M18.8829 20.843L18.2259 21.207L15.8219 17.997V9.89398H18.8819V20.843H18.8829ZM10.2289 20.236L7.16895 21.848V11.312H10.2289V20.236Z" fill="white"/>
</svg>
