<svg width="32" height="32" viewBox="0 0 32 32" fill="none" xmlns="http://www.w3.org/2000/svg">
<path d="M16 32C24.8366 32 32 24.8366 32 16C32 7.16344 24.8366 0 16 0C7.16344 0 0 7.16344 0 16C0 24.8366 7.16344 32 16 32Z" fill="#4C6BAE"/>
<path opacity="0.5" fill-rule="evenodd" clip-rule="evenodd" d="M6.383 17.01L5 17.153C5.74 15.083 7.203 13.427 9.391 12.185C9.598 13.901 10.411 15.32 11.831 16.444L10.531 16.579C10.6577 17.7726 11.1711 18.8921 11.9931 19.7668C12.8151 20.6415 13.9005 21.2235 15.084 21.424C14.2125 22.0795 13.1809 22.4888 12.097 22.609C12.778 23.809 13.584 24.792 14.514 25.556C12.406 25.2274 10.4658 24.2113 8.99525 22.6657C7.5247 21.12 6.60631 19.1317 6.383 17.01ZM25.617 14.99L27 14.847C26.26 16.917 24.797 18.573 22.609 19.815C22.402 18.099 21.589 16.68 20.169 15.556L21.469 15.421C21.341 14.2147 20.8181 13.0846 19.9815 12.2062C19.1449 11.3279 18.0416 10.7505 16.843 10.564C17.7115 9.91523 18.7375 9.51027 19.815 9.39098C19.128 8.18198 18.316 7.19498 17.377 6.42798C19.5072 6.73518 21.4741 7.74396 22.9665 9.2947C24.459 10.8454 25.3916 12.8496 25.617 14.99Z" fill="white"/>
<path fill-rule="evenodd" clip-rule="evenodd" d="M16.9217 25.626L17.0647 27C14.9947 26.26 13.3387 24.797 12.0967 22.609C13.8117 22.402 15.2307 21.589 16.3547 20.169L16.4907 21.479C17.7142 21.369 18.8656 20.8529 19.7617 20.0127C20.6579 19.1726 21.2471 18.0568 21.4357 16.843C22.0845 17.7115 22.4894 18.7375 22.6087 19.815C23.8177 19.128 24.8047 18.316 25.5717 17.377C25.2624 19.5222 24.2416 21.5014 22.6731 22.9972C21.1046 24.493 19.0792 25.4188 16.9217 25.626ZM14.9897 6.383L14.8467 5C16.9167 5.74 18.5727 7.203 19.8147 9.391C18.0987 9.598 16.6797 10.411 15.5557 11.831L15.4207 10.531C14.2145 10.659 13.0843 11.1819 12.206 12.0185C11.3276 12.8551 10.7503 13.9584 10.5637 15.157C9.91498 14.2885 9.51002 13.2625 9.39073 12.185C8.18173 12.872 7.19473 13.684 6.42773 14.623C6.73493 12.4928 7.74372 10.5259 9.29446 9.03346C10.8452 7.54104 12.8493 6.60836 14.9897 6.383Z" fill="white"/>
</svg>
