<svg width="32" height="32" viewBox="0 0 32 32" fill="none" xmlns="http://www.w3.org/2000/svg">
<path d="M16 32C24.8366 32 32 24.8366 32 16C32 7.16344 24.8366 0 16 0C7.16344 0 0 7.16344 0 16C0 24.8366 7.16344 32 16 32Z" fill="#77C3B0"/>
<path d="M25.6778 13.283L23.9898 11.595C23.7362 11.3401 23.4344 11.1381 23.1021 11.0007C22.7698 10.8634 22.4134 10.7935 22.0538 10.795H21.7938V10.525C21.7938 10.052 21.6818 9.60197 21.4458 9.19697C21.3244 8.96209 21.1645 8.74916 20.9728 8.56697L19.2848 6.87797C19.0311 6.62294 18.7292 6.42088 18.3966 6.28354C18.0641 6.14621 17.7076 6.07633 17.3478 6.07797H9.56983C8.83783 6.07797 8.15183 6.35997 7.63383 6.87797L5.94583 8.56597C5.6902 8.81678 5.48764 9.11646 5.3502 9.44717C5.21277 9.77788 5.14327 10.1329 5.14583 10.491L5.10083 17.786C5.09083 18.517 5.38283 19.226 5.90083 19.744L7.58884 21.433C7.84252 21.6877 8.14431 21.8896 8.47666 22.0267C8.80901 22.1639 9.1653 22.2337 9.52483 22.232H9.82884V22.502C9.82884 22.975 9.94184 23.425 10.1778 23.83C10.3018 24.067 10.4588 24.28 10.6508 24.46L12.3388 26.15C12.5928 26.4043 12.8946 26.6058 13.2269 26.7428C13.5592 26.8798 13.9154 26.9495 14.2748 26.948H22.0648C22.7968 26.948 23.4828 26.667 24.0008 26.149L25.6898 24.461C25.9443 24.2071 26.146 23.9053 26.2831 23.573C26.4203 23.2407 26.4902 22.8845 26.4888 22.525V15.208C26.4869 14.8496 26.4144 14.4952 26.2754 14.1649C26.1364 13.8346 25.9337 13.5349 25.6788 13.283H25.6778ZM9.52483 19.755C9.4534 19.7551 9.38479 19.727 9.33383 19.677L8.48983 18.832L7.64483 17.988C7.60858 17.9454 7.58167 17.8956 7.56583 17.842V10.503C7.56583 10.423 7.59983 10.356 7.64583 10.311L9.33383 8.62297C9.35583 8.59997 9.37884 8.58897 9.40084 8.57797C9.44255 8.55621 9.48879 8.54456 9.53584 8.54397H17.3258C17.3708 8.54397 17.4048 8.55497 17.4498 8.57797C17.4838 8.58897 17.5058 8.61197 17.5288 8.63397L19.2168 10.323C19.2415 10.3441 19.2607 10.3708 19.2728 10.401C19.2848 10.413 19.2848 10.424 19.2848 10.435C19.2848 10.446 19.2948 10.458 19.2948 10.469C19.2948 10.48 19.3068 10.514 19.3068 10.536V10.896C19.3068 11.054 19.1828 11.166 19.0368 11.166H17.6868C17.6151 11.1663 17.546 11.1383 17.4948 11.088L16.7288 10.323H10.1328L9.85184 10.603L9.46883 10.987V17.324L10.1328 17.988H16.7178L17.4838 17.212L17.4938 17.2C17.5168 17.189 17.5398 17.166 17.5618 17.155C17.5958 17.133 17.6418 17.133 17.6748 17.133H19.0248C19.1148 17.133 19.1948 17.178 19.2508 17.245C19.2859 17.2903 19.3055 17.3457 19.3068 17.403V17.786C19.3067 17.8576 19.2783 17.9262 19.2278 17.977L18.3838 18.821L17.5398 19.665C17.5288 19.677 17.5058 19.688 17.4948 19.699C17.4948 19.699 17.4838 19.71 17.4718 19.71C17.4608 19.722 17.4498 19.722 17.4378 19.722C17.4278 19.722 17.4278 19.722 17.4158 19.733C17.4048 19.733 17.3928 19.744 17.3818 19.744H9.52483V19.755ZM24.0238 22.502C24.0234 22.5737 23.9946 22.6423 23.9438 22.693L22.2558 24.382C22.2362 24.4007 22.2136 24.4159 22.1888 24.427C22.1471 24.4487 22.1009 24.4604 22.0538 24.461H14.2638C14.2203 24.4603 14.1776 24.4486 14.1398 24.427C14.1097 24.4148 14.083 24.3956 14.0618 24.371L12.3728 22.682C12.3508 22.66 12.3278 22.637 12.3168 22.603C12.3048 22.593 12.3048 22.581 12.3048 22.57C12.3048 22.558 12.2948 22.547 12.2948 22.536C12.2948 22.525 12.2828 22.491 12.2828 22.468V22.108C12.2828 21.951 12.4068 21.838 12.5528 21.838H13.9028C13.9828 21.838 14.0498 21.872 14.0948 21.917L14.8608 22.682H21.4458L21.7268 22.401L22.1098 22.018V15.681L21.4458 15.016H14.8718L14.1068 15.793L14.0948 15.804C14.0728 15.816 14.0498 15.838 14.0278 15.849C13.9938 15.872 13.9488 15.872 13.9148 15.872H12.5648C12.5211 15.8711 12.4782 15.8605 12.4391 15.841C12.4 15.8214 12.3657 15.7934 12.3388 15.759C12.304 15.7139 12.2844 15.6589 12.2828 15.602V15.219C12.2828 15.1835 12.2898 15.1484 12.3033 15.1156C12.3169 15.0828 12.3368 15.0531 12.3618 15.028L13.2058 14.184L14.0498 13.339C14.0618 13.328 14.0838 13.317 14.0948 13.305C14.0948 13.305 14.1068 13.295 14.1178 13.295C14.1288 13.283 14.1398 13.283 14.1518 13.283C14.1618 13.283 14.1618 13.283 14.1738 13.272C14.1848 13.272 14.1968 13.26 14.2078 13.26H22.0538C22.1318 13.26 22.1998 13.294 22.2448 13.34L23.0888 14.184L23.9338 15.028C23.9438 15.039 23.9558 15.05 23.9668 15.073C23.9868 15.1042 24.0019 15.1383 24.0118 15.174V15.23C24.0238 15.208 24.0238 22.502 24.0238 22.502Z" fill="white"/>
</svg>
