<svg width="32" height="32" viewBox="0 0 32 32" fill="none" xmlns="http://www.w3.org/2000/svg">
<path d="M16 32C24.8366 32 32 24.8366 32 16C32 7.16344 24.8366 0 16 0C7.16344 0 0 7.16344 0 16C0 24.8366 7.16344 32 16 32Z" fill="black"/>
<path d="M15.8973 4.39802C15.7513 4.06802 16.2793 3.83402 16.4253 4.14802C19.8573 10.06 23.2893 15.975 26.7213 21.896C26.5383 21.896 26.3623 21.836 26.1863 21.808L17.0263 19.982C16.7263 19.967 16.6603 19.482 16.9533 19.41L20.5473 18.42C20.5902 18.4092 20.6301 18.389 20.6642 18.3609C20.6983 18.3328 20.7258 18.2976 20.7448 18.2576C20.7637 18.2177 20.7735 18.1741 20.7736 18.1299C20.7737 18.0857 20.7641 18.042 20.7453 18.002L15.8973 4.39002V4.39702V4.39802Z" fill="white"/>
<path d="M15.37 4.42804C15.403 4.47604 15.432 4.52804 15.457 4.58204C16.543 7.66204 17.657 10.742 18.735 13.822C18.831 14.078 18.471 14.291 18.295 14.1C17.371 13.132 16.491 12.135 15.582 11.167C15.435 11.035 15.222 11.123 15.127 11.262L5.682 22.358C5.572 22.475 5.477 22.651 5.293 22.673C5.161 22.673 5.073 22.57 5 22.468V22.298C8.461 16.344 11.918 10.388 15.37 4.42804Z" fill="white"/>
<path d="M12.4799 14.995C12.6559 14.944 12.8899 15.068 12.8319 15.281C12.4649 16.557 12.0769 17.826 11.6949 19.094C11.6369 19.256 11.7829 19.402 11.9369 19.41C16.8799 20.4 21.8229 21.426 26.7649 22.416C26.8609 22.431 26.9269 22.504 26.9999 22.563V22.768L26.8599 22.915H5.87988C8.07988 20.275 10.2729 17.62 12.4799 14.995Z" fill="white"/>
</svg>
