<svg width="32" height="32" viewBox="0 0 32 32" fill="none" xmlns="http://www.w3.org/2000/svg">
<path d="M16 32C24.8366 32 32 24.8366 32 16C32 7.16344 24.8366 0 16 0C7.16344 0 0 7.16344 0 16C0 24.8366 7.16344 32 16 32Z" fill="#008CE7"/>
<path d="M19.086 8.00403H11.81L11.208 11.371L17.77 11.381C21.001 11.381 21.96 12.554 21.929 14.501C21.915 15.499 21.48 17.187 21.296 17.731C20.799 19.191 19.775 20.853 15.937 20.848L9.55903 20.844L8.95703 24.215H16.214C18.773 24.215 19.863 23.916 21.014 23.385C23.568 22.207 25.089 19.684 25.7 16.391C26.606 11.491 25.476 8.00403 19.085 8.00403H19.086Z" fill="white"/>
<path d="M15.8069 15.798C16.0439 14.813 16.1189 14.418 16.1189 14.418H8.67291C6.76891 14.418 6.49691 15.658 6.31591 16.408C6.07891 17.389 6.00391 17.789 6.00391 17.789H13.4509C15.3539 17.789 15.6259 16.549 15.8069 15.798Z" fill="white"/>
</svg>
