<svg width="32" height="32" viewBox="0 0 32 32" fill="none" xmlns="http://www.w3.org/2000/svg">
<path d="M16 32C24.8366 32 32 24.8366 32 16C32 7.16344 24.8366 0 16 0C7.16344 0 0 7.16344 0 16C0 24.8366 7.16344 32 16 32Z" fill="#F4AE95"/>
<path d="M15.8067 8.95802L9.71275 21.965H19.8297C20.1227 21.965 20.3877 22.145 20.5027 22.42L20.5137 22.445C20.5514 22.5346 20.5681 22.6316 20.5627 22.7286C20.5574 22.8256 20.53 22.9201 20.4827 23.005C20.4001 23.1543 20.2792 23.2788 20.1324 23.3658C19.9857 23.4528 19.8184 23.4992 19.6477 23.5H8.89575C8.72935 23.4997 8.56693 23.4492 8.42975 23.355L8.37375 23.317C8.20446 23.1988 8.08246 23.0246 8.02938 22.8251C7.9763 22.6255 7.99556 22.4137 8.08375 22.227L15.2737 7.07802C15.3487 6.92002 15.4557 6.78002 15.5867 6.66802C15.7104 6.56141 15.8677 6.50193 16.0309 6.5001C16.1941 6.49827 16.3528 6.55421 16.4787 6.65802C16.536 6.70462 16.5821 6.76337 16.6137 6.83002L23.9067 22.082C24.0067 22.289 24.0267 22.526 23.9647 22.748C23.9325 22.8689 23.8613 22.9758 23.7623 23.0522C23.6633 23.1287 23.5418 23.1704 23.4167 23.171H23.3327C23.1649 23.17 23.0009 23.1209 22.8601 23.0294C22.7194 22.9379 22.6078 22.808 22.5387 22.655L16.2487 8.96002C16.2298 8.91733 16.199 8.88097 16.16 8.85527C16.121 8.82957 16.0754 8.81559 16.0287 8.81502C15.9819 8.81504 15.9361 8.82853 15.8967 8.85389C15.8574 8.87925 15.8261 8.91539 15.8067 8.95802Z" fill="white"/>
</svg>
