<svg width="32" height="32" viewBox="0 0 32 32" fill="none" xmlns="http://www.w3.org/2000/svg">
<path d="M16 32C24.8366 32 32 24.8366 32 16C32 7.16344 24.8366 0 16 0C7.16344 0 0 7.16344 0 16C0 24.8366 7.16344 32 16 32Z" fill="#2C398F"/>
<path d="M25.0754 19.1C25.6018 19.0738 26.104 18.8705 26.5004 18.523C25.9494 21.339 24.4094 24.11 21.7664 25.633C19.7444 26.811 17.2164 27.203 14.7584 26.903C14.3904 25.841 13.4254 24.71 11.7484 23.856C9.10538 22.494 7.86438 20.139 6.73838 21.293C6.63438 21.393 6.54838 21.51 6.48538 21.639C6.43505 21.5332 6.38901 21.4255 6.34738 21.316C4.18738 15.96 6.34738 10.58 10.6674 6.725C13.2414 4.439 16.2514 4.693 18.9404 5.94C18.779 6.07037 18.6495 6.23589 18.5618 6.42393C18.4741 6.61197 18.4305 6.81756 18.4344 7.025V12.427C17.3166 11.776 16.0032 11.5451 14.7304 11.7757C13.4576 12.0063 12.3088 12.6833 11.4904 13.685C10.6687 14.6889 10.2285 15.9509 10.2475 17.248C10.2666 18.5451 10.7436 19.7937 11.5944 20.773C12.4422 21.7499 13.6106 22.3923 14.8896 22.585C16.1686 22.7776 17.4745 22.5078 18.5724 21.824C18.7069 22.1137 18.9365 22.3486 19.223 22.4897C19.5096 22.6307 19.8358 22.6694 20.1474 22.5993C20.459 22.5292 20.7372 22.3544 20.9357 22.1042C21.1341 21.854 21.241 21.5434 21.2384 21.224V7.302C23.3064 8.756 24.9604 10.603 25.7184 11.873C26.0884 12.511 26.3524 13.205 26.5004 13.928C26.1754 13.688 25.7964 13.528 25.3974 13.466C24.5474 13.42 23.9034 14.575 24.3404 16.236C24.7084 17.738 24.2484 19.054 25.0754 19.1ZM14.7124 19.192C11.8164 17.53 14.2524 13.259 17.1484 14.921C18.0214 15.406 18.1134 16.953 17.9524 17.945C17.6534 19.654 16.0454 19.954 14.7124 19.192ZM16.0684 8.156C15.4244 8.179 14.9654 8.964 14.9884 9.311C15.0104 9.657 15.4934 9.865 16.1594 9.634C16.7574 9.426 17.3094 9.564 17.2854 9.218C17.2624 8.872 16.6884 8.133 16.0684 8.156Z" fill="white"/>
</svg>
