<svg width="32" height="32" viewBox="0 0 32 32" fill="none" xmlns="http://www.w3.org/2000/svg">
<path d="M16 32C24.8366 32 32 24.8366 32 16C32 7.16344 24.8366 0 16 0C7.16344 0 0 7.16344 0 16C0 24.8366 7.16344 32 16 32Z" fill="#242D3D"/>
<path d="M23.1341 17.467C22.5831 15.04 20.8701 12.364 20.8701 12.364C22.8441 17.751 22.0841 21.814 21.5611 24.119C21.5611 24.119 20.8711 26.697 22.3561 24.549C24.2081 21.861 23.1341 17.467 23.1341 17.467Z" fill="white"/>
<path d="M18.258 7.91102C19.285 11.569 19.75 14.674 19.895 17.263C20.15 21.675 19.477 24.578 19.059 26.111C18.925 26.61 19.483 26.981 19.808 26.604L19.814 26.598C20.626 25.669 21.01 23.493 21.19 21.583L21.242 20.956C21.41 18.656 21.312 16.335 20.772 14.111C19.779 10.007 18.258 7.91102 18.258 7.91102ZM16.418 14.355C16.168 8.34702 15.715 3.01202 15.715 3.01202C15.715 3.01202 15.257 8.08002 15.007 13.954C14.967 14.907 14.931 15.876 14.902 16.851C14.862 18.268 14.844 19.691 14.844 21.066C14.85 23.51 14.944 25.803 15.164 27.632C15.251 28.357 16.191 28.357 16.278 27.632C16.429 26.384 16.516 24.851 16.551 23.167C16.5835 21.3464 16.5758 19.5253 16.528 17.705C16.498 16.59 16.464 15.464 16.418 14.355ZM9.39999 21.594C9.26297 20.4617 9.2315 19.3191 9.30599 18.181C9.36399 17.287 9.49199 16.329 9.71299 15.307C9.91599 14.372 10.194 13.391 10.572 12.358C10.572 12.358 9.36399 14.245 8.65599 16.282C8.51599 16.672 8.40099 17.072 8.31299 17.461C8.31299 17.461 8.08699 18.483 8.05299 19.847C8.02899 20.793 8.10399 21.913 8.40599 22.97C8.55863 23.5233 8.78749 24.0528 9.08599 24.543C9.08599 24.543 10.572 26.755 9.88099 24.113C9.66601 23.2847 9.50501 22.4432 9.39899 21.594H9.39999Z" fill="white"/>
<path d="M11.5175 20.41C11.469 19.2139 11.4884 18.016 11.5755 16.822C11.6358 15.9405 11.7289 15.0616 11.8545 14.187C12.1145 12.306 12.5395 10.222 13.1845 7.91101C13.1845 7.91101 11.6565 10.007 10.6645 14.111C10.6115 14.331 10.5645 14.552 10.5185 14.767C10.3385 15.661 10.2225 16.567 10.1645 17.484C10.0945 18.634 10.1125 19.794 10.1945 20.95L10.2465 21.583C10.4265 23.493 10.8035 25.669 11.6215 26.598L11.6275 26.604C11.9525 26.976 12.5155 26.604 12.3775 26.111C12.0745 24.979 11.6275 23.098 11.5175 20.41Z" fill="white"/>
<path d="M14.0547 20.636C14.0219 19.3049 14.0159 17.9733 14.0367 16.642C14.0487 15.766 14.0717 14.842 14.1127 13.873C14.2117 11.371 14.6817 7.75403 15.0067 4.68903C15.0067 4.68903 13.4047 8.00403 12.6727 13.984C12.5747 14.802 12.4817 15.684 12.4117 16.637L12.3597 17.345C12.3597 17.345 12.2727 18.61 12.3067 20.317C12.3537 22.511 12.5967 25.437 13.5027 27.353C13.5327 27.411 13.5667 27.463 13.6127 27.503L13.6187 27.51C13.9617 27.835 14.4897 27.527 14.4437 27.022C14.2307 24.8992 14.1006 22.769 14.0537 20.636H14.0547ZM17.3747 20.636C17.4047 19.44 17.4157 18.106 17.3927 16.642C17.3807 15.766 17.3577 14.842 17.3167 13.873C17.2187 11.371 16.7487 7.75403 16.4227 4.68903C16.4227 4.68903 18.0257 8.00403 18.7567 13.984C18.8557 14.802 18.9487 15.684 19.0177 16.637L19.0707 17.345C19.0707 17.345 19.1577 18.61 19.1227 20.317C19.0757 22.511 18.8327 25.437 17.9267 27.353C17.9001 27.4097 17.8627 27.4606 17.8167 27.503L17.8107 27.51C17.4677 27.835 16.9407 27.527 16.9867 27.022C17.1027 25.925 17.2997 23.748 17.3747 20.636Z" fill="white"/>
</svg>
