<svg width="32" height="32" viewBox="0 0 32 32" fill="none" xmlns="http://www.w3.org/2000/svg">
<path d="M16 32C24.8366 32 32 24.8366 32 16C32 7.16344 24.8366 0 16 0C7.16344 0 0 7.16344 0 16C0 24.8366 7.16344 32 16 32Z" fill="#3C80F1"/>
<path d="M16.0838 4C10.6138 4.004 6.17983 8.436 6.17383 13.905C6.17883 14.439 6.23883 14.971 6.35183 15.493C6.35758 15.5177 6.36935 15.5406 6.38608 15.5597C6.40281 15.5787 6.42399 15.5933 6.44774 15.6022C6.47148 15.6111 6.49706 15.6141 6.5222 15.6107C6.54733 15.6073 6.57125 15.5978 6.59183 15.583C6.97042 15.3119 7.42419 15.1658 7.88983 15.165C7.91233 15.1658 7.93471 15.1615 7.95537 15.1525C7.97602 15.1436 7.99443 15.1302 8.00926 15.1132C8.0241 15.0963 8.03498 15.0763 8.04113 15.0546C8.04728 15.033 8.04854 15.0102 8.04483 14.988C7.97898 14.6344 7.94484 14.2757 7.94283 13.916C7.94283 12.847 8.15338 11.7885 8.56245 10.801C8.97152 9.81337 9.57111 8.91602 10.327 8.16015C11.0828 7.40428 11.9802 6.80469 12.9678 6.39562C13.9554 5.98655 15.0139 5.776 16.0828 5.776C17.1518 5.776 18.2103 5.98655 19.1979 6.39562C20.1855 6.80469 21.0828 7.40428 21.8387 8.16015C22.5945 8.91602 23.1941 9.81337 23.6032 10.801C24.0123 11.7885 24.2228 12.847 24.2228 13.916C24.2228 18.406 18.4788 24.141 16.4228 26.166C16.3323 26.2548 16.2106 26.3046 16.0838 26.3046C15.957 26.3046 15.8353 26.2548 15.7448 26.166C14.8744 25.3165 14.0297 24.4412 13.2118 23.541H13.1718C12.3852 23.4637 11.613 23.2786 10.8768 22.991L10.7408 22.936C10.7093 22.9215 10.6738 22.9182 10.6402 22.9266C10.6065 22.9351 10.5768 22.9548 10.5559 22.9824C10.535 23.0101 10.5242 23.0441 10.5253 23.0788C10.5264 23.1134 10.5393 23.1467 10.5618 23.173C11.8348 24.6942 13.1856 26.1484 14.6088 27.53C15.0027 27.9141 15.5311 28.1292 16.0813 28.1292C16.6315 28.1292 17.1599 27.9141 17.5538 27.53C21.1738 23.954 25.9938 18.664 25.9938 13.905C25.9878 8.435 21.5538 4.004 16.0838 4Z" fill="white"/>
<path d="M20.204 14.907C20.204 15.047 20.193 15.184 20.18 15.32C20.144 15.8407 20.0234 16.3521 19.823 16.834C19.607 17.314 19.319 17.757 18.97 18.15L18.98 18.159C18.2886 18.9315 17.4349 19.5414 16.48 19.945C15.5343 20.3519 14.5025 20.5175 13.477 20.427C12.4998 20.3299 11.5657 19.9755 10.77 19.4C11.027 19.392 11.282 19.353 11.53 19.284C11.7539 19.222 11.9685 19.1302 12.168 19.011C12.5992 18.7536 12.9337 18.3614 13.12 17.895C13.207 17.682 13.266 17.46 13.298 17.232C13.318 17.042 13.323 16.849 13.316 16.657V10.167C13.3155 10.1607 13.3155 10.1543 13.316 10.148V10.114C13.3305 10.0358 13.3693 9.9642 13.427 9.90942C13.4847 9.85464 13.5582 9.81949 13.637 9.80901H15.78C16.288 9.84901 16.785 9.98201 17.245 10.202C18.2036 10.6553 19.0054 11.3839 19.548 12.295C19.68 12.519 19.796 12.753 19.893 12.995C19.986 13.235 20.06 13.485 20.113 13.737C20.166 13.989 20.196 14.245 20.203 14.502V14.908L20.204 14.907ZM21.968 14.441C21.9571 14.0809 21.914 13.7224 21.839 13.37C21.6903 12.673 21.4282 12.0051 21.063 11.393C20.3392 10.1757 19.2675 9.20294 17.986 8.60001C17.3312 8.2891 16.6248 8.10131 15.902 8.04601C15.811 8.04601 15.723 8.04601 15.623 8.03601H13.625C13.561 8.03601 13.495 8.03601 13.43 8.05001C13.169 8.08001 12.915 8.16001 12.682 8.28401C12.3617 8.45516 12.0901 8.7049 11.8928 9.00979C11.6955 9.31468 11.5789 9.6647 11.554 10.027V16.657C11.554 16.773 11.546 16.889 11.53 17.004C11.52 17.082 11.501 17.158 11.473 17.232C11.4511 17.2871 11.4207 17.3383 11.383 17.384C11.2908 17.483 11.1709 17.552 11.039 17.582C10.842 17.632 10.639 17.648 10.436 17.629C9.7119 17.5581 9.03057 17.2534 8.49499 16.761C8.34117 16.6187 8.14181 16.5357 7.93247 16.5268C7.72313 16.5178 7.51741 16.5836 7.35202 16.7122C7.18663 16.8408 7.0723 17.024 7.02944 17.2291C6.98657 17.4342 7.01796 17.6479 7.11799 17.832C7.74195 18.9717 8.59846 19.9676 9.63199 20.755C10.165 21.1527 10.7489 21.4772 11.368 21.72C11.9894 21.9625 12.6411 22.1186 13.305 22.184C14.6228 22.306 15.9503 22.0985 17.168 21.58C18.3809 21.0784 19.4564 20.2943 20.305 19.293L20.316 19.302C20.7842 18.7726 21.1686 18.1747 21.456 17.529C21.7284 16.8715 21.8922 16.1741 21.941 15.464C21.955 15.286 21.964 15.125 21.97 14.955V14.704C21.977 14.63 21.971 14.529 21.97 14.441H21.968Z" fill="white"/>
</svg>
