<svg width="32" height="32" viewBox="0 0 32 32" fill="none" xmlns="http://www.w3.org/2000/svg">
<path d="M16 32C24.8366 32 32 24.8366 32 16C32 7.16344 24.8366 0 16 0C7.16344 0 0 7.16344 0 16C0 24.8366 7.16344 32 16 32Z" fill="#121747"/>
<path d="M18.032 22.87C18.032 24.015 17.112 24.944 15.976 24.944C14.84 24.944 13.921 24.015 13.921 22.869V9.07998C13.921 7.93498 14.841 7.00598 15.976 7.00598C17.111 7.00598 18.032 7.93498 18.032 9.08098V22.87ZM11.112 22.875C11.1187 23.241 11.0282 23.6022 10.85 23.9219C10.6717 24.2416 10.4119 24.5083 10.097 24.695C9.78386 24.8801 9.42676 24.9777 9.063 24.9777C8.69924 24.9777 8.34215 24.8801 8.029 24.695C7.71432 24.5082 7.45472 24.2414 7.27662 23.9217C7.09851 23.602 7.00824 23.2409 7.015 22.875V19.775C7.00824 19.4091 7.09851 19.0479 7.27662 18.7283C7.45472 18.4086 7.71432 18.1418 8.029 17.955C8.34215 17.7699 8.69924 17.6722 9.063 17.6722C9.42676 17.6722 9.78386 17.7699 10.097 17.955C10.4117 18.1418 10.6713 18.4086 10.8494 18.7283C11.0275 19.0479 11.1178 19.4091 11.111 19.775L11.112 22.875Z" fill="white"/>
<path opacity="0.5" d="M24.9557 17.4C24.9557 18.545 24.0357 19.474 22.8997 19.474C21.7637 19.474 20.8438 18.544 20.8438 17.399V12.166C20.8438 11.02 21.7637 10.091 22.8997 10.091C24.0357 10.091 24.9557 11.02 24.9557 12.166V17.4Z" fill="white"/>
</svg>
