<svg width="32" height="32" viewBox="0 0 32 32" fill="none" xmlns="http://www.w3.org/2000/svg">
<path d="M16 32C24.8366 32 32 24.8366 32 16C32 7.16344 24.8366 0 16 0C7.16344 0 0 7.16344 0 16C0 24.8366 7.16344 32 16 32Z" fill="#AA15DD"/>
<path d="M15.999 25.612C16.239 25.613 16.434 25.812 16.435 26.056C16.4361 26.1725 16.3909 26.2847 16.3093 26.368C16.2278 26.4512 16.1166 26.4987 16 26.5C15.9422 26.4995 15.8851 26.4876 15.8319 26.465C15.7788 26.4424 15.7306 26.4095 15.6901 26.3683C15.6496 26.3271 15.6176 26.2783 15.596 26.2247C15.5744 26.1711 15.5635 26.1138 15.564 26.056C15.5635 25.9982 15.5744 25.9409 15.596 25.8873C15.6176 25.8337 15.6496 25.7849 15.6901 25.7437C15.7306 25.7025 15.7788 25.6696 15.8319 25.647C15.8851 25.6244 15.9422 25.6125 16 25.612H15.999ZM7.21903 11.358C7.11801 11.2976 7.04468 11.2 7.01477 11.0862C6.98486 10.9723 7.00075 10.8513 7.05903 10.749C7.10181 10.6729 7.16644 10.6115 7.24455 10.5725C7.32267 10.5336 7.41066 10.519 7.49716 10.5306C7.58366 10.5423 7.66467 10.5796 7.72972 10.6378C7.79477 10.696 7.84086 10.7723 7.86203 10.857C7.88452 10.942 7.88164 11.0317 7.85374 11.115C7.82584 11.1984 7.77414 11.2717 7.70503 11.326C7.63663 11.3796 7.55367 11.4113 7.46697 11.417C7.38027 11.4227 7.29386 11.4022 7.21903 11.358ZM7.21903 20.652C7.26877 20.6232 7.32373 20.6045 7.38074 20.5971C7.43775 20.5897 7.49566 20.5937 7.55111 20.6089C7.60656 20.6241 7.65844 20.6501 7.70375 20.6855C7.74905 20.7209 7.78688 20.7649 7.81503 20.815C7.87289 20.9169 7.88855 21.0374 7.85864 21.1506C7.82873 21.2639 7.75564 21.361 7.65503 21.421C7.60536 21.4501 7.55038 21.469 7.49331 21.4765C7.43624 21.4841 7.37825 21.4801 7.32272 21.4649C7.2672 21.4498 7.21527 21.4236 7.16999 21.3881C7.1247 21.3526 7.08698 21.3083 7.05903 21.258C7.00116 21.1561 6.9855 21.0356 7.01541 20.9224C7.04532 20.8091 7.11841 20.712 7.21903 20.652ZM24.779 11.358C24.7293 11.3868 24.6743 11.4055 24.6173 11.4129C24.5603 11.4203 24.5024 11.4163 24.4469 11.4011C24.3915 11.386 24.3396 11.3599 24.2943 11.3245C24.249 11.2892 24.2112 11.2451 24.183 11.195C24.1392 11.1186 24.1188 11.031 24.1241 10.943C24.1294 10.8551 24.1603 10.7706 24.213 10.7C24.265 10.63 24.3369 10.5773 24.4194 10.5488C24.5018 10.5202 24.5909 10.5172 24.675 10.54C24.7596 10.5639 24.8353 10.6122 24.8926 10.6788C24.95 10.7454 24.9865 10.8274 24.9976 10.9146C25.0087 11.0018 24.9939 11.0903 24.955 11.1692C24.9161 11.248 24.8549 11.3137 24.779 11.358ZM16 6.38801C15.8846 6.38512 15.7748 6.33695 15.6946 6.25388C15.6143 6.17081 15.5699 6.05951 15.571 5.944C15.571 5.764 15.679 5.60101 15.842 5.53301C15.9223 5.49959 16.0109 5.49126 16.096 5.50911C16.1812 5.52696 16.2589 5.57015 16.319 5.633C16.3798 5.69639 16.4207 5.77618 16.4367 5.86254C16.4527 5.9489 16.4431 6.03805 16.409 6.119C16.3756 6.19963 16.3188 6.26837 16.2458 6.31632C16.1729 6.36428 16.0873 6.38925 16 6.38801ZM23.8 20.582C23.694 20.7691 23.6581 20.9878 23.6988 21.1989C23.7395 21.41 23.8541 21.5998 24.022 21.734L16.871 25.934C16.8435 25.7223 16.7402 25.5278 16.5802 25.3864C16.4203 25.245 16.2145 25.1664 16.001 25.165C15.7876 25.1664 15.5818 25.245 15.4219 25.3864C15.2619 25.5278 15.1586 25.7223 15.131 25.934L7.97803 21.734C8.14541 21.5995 8.25947 21.4099 8.29978 21.199C8.34009 20.9881 8.30402 20.7697 8.19803 20.583C8.09455 20.3972 7.92669 20.2557 7.72609 20.1852C7.52549 20.1146 7.30601 20.1199 7.10903 20.2V11.8C7.30577 11.8799 7.52493 11.8852 7.72529 11.8148C7.92565 11.7445 8.09341 11.6034 8.19703 11.418C8.30308 11.2317 8.33948 11.0138 8.29973 10.8032C8.25998 10.5925 8.14667 10.4028 7.98003 10.268L15.131 6.068C15.1586 6.2797 15.2619 6.47424 15.4219 6.61562C15.5818 6.757 15.7876 6.83565 16.001 6.837C16.2147 6.83562 16.4205 6.75683 16.5805 6.61524C16.7405 6.47366 16.8437 6.27888 16.871 6.067L24.024 10.267C23.8569 10.4014 23.743 10.5909 23.7027 10.8016C23.6624 11.0122 23.6983 11.2304 23.804 11.417C23.9075 11.6028 24.0754 11.7443 24.276 11.8148C24.4766 11.8854 24.696 11.8801 24.893 11.8V20.195C24.6952 20.1148 24.4748 20.1099 24.2736 20.1813C24.0724 20.2526 23.9042 20.3951 23.801 20.582H23.8ZM17.688 19.295C16.9111 19.7518 15.992 19.903 15.1097 19.7192C14.2274 19.5355 13.445 19.0299 12.915 18.301L17.633 15.537L19.241 14.593L20.003 14.143L20.047 14.122L23.287 12.216C23.487 12.099 23.557 11.839 23.443 11.635C23.4169 11.586 23.381 11.543 23.3375 11.5084C23.2941 11.4738 23.2441 11.4485 23.1905 11.434C23.1369 11.4195 23.0809 11.416 23.026 11.424C22.9711 11.4319 22.9183 11.451 22.871 11.48L20.489 12.885C20.0361 12.2075 19.4412 11.6366 18.7457 11.2118C18.0502 10.7871 17.2706 10.5186 16.461 10.425V7.69601C16.4616 7.63875 16.4508 7.58195 16.4294 7.52885C16.408 7.47575 16.3763 7.42739 16.3362 7.38653C16.296 7.34567 16.2483 7.31311 16.1956 7.29072C16.1429 7.26832 16.0863 7.25653 16.029 7.25601C15.9717 7.2564 15.915 7.2681 15.8622 7.29043C15.8094 7.31277 15.7615 7.34531 15.7212 7.38618C15.681 7.42705 15.6493 7.47545 15.6278 7.52862C15.6063 7.58178 15.5955 7.63866 15.596 7.69601V10.4C14.7074 10.4435 13.8426 10.7023 13.076 11.154C12.3842 11.5595 11.7864 12.1072 11.322 12.761L9.13803 11.48C9.09045 11.4521 9.03778 11.4341 8.98312 11.4268C8.92846 11.4196 8.8729 11.4234 8.81971 11.4379C8.76652 11.4524 8.71677 11.4774 8.67338 11.5115C8.62999 11.5455 8.59383 11.5878 8.56703 11.636C8.51195 11.7336 8.49712 11.8488 8.52569 11.9571C8.55427 12.0654 8.62399 12.1583 8.72003 12.216L10.887 13.49C10.4235 14.4192 10.2196 15.4565 10.297 16.492L10.498 17.636C10.588 17.946 10.701 18.248 10.839 18.539L8.72003 19.784C8.62336 19.8419 8.55328 19.9354 8.52485 20.0444C8.49643 20.1535 8.51193 20.2693 8.56803 20.367C8.59511 20.4152 8.63152 20.4575 8.67513 20.4914C8.71874 20.5254 8.76867 20.5503 8.82202 20.5647C8.87536 20.5791 8.93104 20.5828 8.98582 20.5754C9.04059 20.5681 9.09335 20.55 9.14103 20.522L11.268 19.276C11.7548 19.9868 12.3974 20.577 13.147 21.0016C13.8965 21.4262 14.7331 21.674 15.593 21.726V24.304C15.593 24.547 15.787 24.744 16.026 24.744C16.0833 24.7435 16.1399 24.7317 16.1926 24.7093C16.2453 24.6869 16.293 24.6543 16.3332 24.6135C16.3733 24.5726 16.405 24.5243 16.4264 24.4712C16.4478 24.4181 16.4586 24.3613 16.458 24.304V21.704C17.2361 21.624 17.9874 21.3749 18.659 20.974C19.4168 20.5237 20.0562 19.8991 20.524 19.152L22.861 20.52C23.061 20.634 23.313 20.563 23.428 20.361C23.4835 20.264 23.4991 20.1493 23.4715 20.041C23.4439 19.9328 23.3752 19.8395 23.28 19.781L20.928 18.401C20.934 18.388 20.948 18.373 20.948 18.357C21.662 16.713 19.751 16.007 19.326 17.273C19.0421 18.123 18.4599 18.8413 17.687 19.295H17.688ZM24.78 20.652C24.8805 20.7124 24.9535 20.8096 24.9833 20.923C25.0132 21.0364 24.9977 21.1569 24.94 21.259C24.912 21.3092 24.8742 21.3534 24.8289 21.3888C24.7836 21.4242 24.7316 21.4503 24.6761 21.4654C24.6206 21.4805 24.5626 21.4843 24.5056 21.4767C24.4486 21.4691 24.3936 21.4501 24.344 21.421C24.2434 21.361 24.1703 21.2639 24.1404 21.1506C24.1105 21.0374 24.1262 20.9169 24.184 20.815C24.212 20.7647 24.2497 20.7205 24.295 20.6849C24.3403 20.6494 24.3922 20.6233 24.4477 20.6081C24.5032 20.5929 24.5612 20.5889 24.6183 20.5965C24.6754 20.604 24.7304 20.6229 24.78 20.652ZM12.284 16.587C12.241 14.92 12.439 13.757 14.018 12.829C14.6556 12.4537 15.3929 12.2828 16.1306 12.3393C16.8683 12.3958 17.571 12.677 18.144 13.145L12.284 16.587Z" fill="white"/>
</svg>
