<svg width="32" height="32" viewBox="0 0 32 32" fill="none" xmlns="http://www.w3.org/2000/svg">
<path d="M16 32C24.8366 32 32 24.8366 32 16C32 7.16344 24.8366 0 16 0C7.16344 0 0 7.16344 0 16C0 24.8366 7.16344 32 16 32Z" fill="#2B1544"/>
<path d="M24.9898 12.502V19.158C24.9898 19.454 25.0048 19.756 24.9378 20.047C24.7862 20.7202 24.4374 21.333 23.9358 21.807C23.6998 22.034 23.4058 22.181 23.1248 22.347C21.2178 23.457 19.3168 24.57 17.4108 25.682C16.8288 25.993 16.1408 26.046 15.4948 25.966C15.1574 25.9248 14.8313 25.8182 14.5348 25.652C12.5278 24.482 10.5208 23.309 8.51479 22.14C8.02479 21.867 7.65879 21.417 7.38979 20.933C7.16979 20.513 7.00879 20.051 7.00879 19.57V12.384C7.04579 11.684 7.35579 11.021 7.79679 10.492C7.9755 10.2684 8.19172 10.0775 8.43579 9.92797C10.3008 8.84197 12.1658 7.75197 14.0298 6.66197C14.3368 6.49197 14.6278 6.28397 14.9598 6.16997C15.5212 5.99465 16.1172 5.96098 16.6948 6.07197C16.9518 6.14397 17.2138 6.21997 17.4448 6.35597C19.4748 7.54697 21.5078 8.72897 23.5368 9.92097C24.0778 10.241 24.4748 10.776 24.7328 11.347C24.8958 11.707 24.9898 12.104 24.9898 12.502ZM15.9398 10.026C15.5091 10.6646 15.0105 11.2547 14.4528 11.786C14.1608 12.063 13.8798 12.362 13.7128 12.733C13.5788 12.995 13.4888 13.293 13.5268 13.593C13.5718 13.997 13.8598 14.353 14.2338 14.497C14.6138 14.649 15.0438 14.615 15.4218 14.467C15.4898 14.4366 15.5651 14.4262 15.6388 14.437C15.5648 14.911 15.2768 15.311 15.0488 15.72L15.0588 15.788C15.2648 16.008 15.4818 16.216 15.6868 16.432C15.7388 16.481 15.7868 16.549 15.8588 16.572C16.0978 16.387 16.2848 16.144 16.5048 15.94C16.5538 15.884 16.6548 15.823 16.6018 15.736C16.3888 15.336 16.1528 14.931 16.0858 14.469C16.1258 14.375 16.2388 14.454 16.3058 14.477C16.6608 14.651 17.0898 14.677 17.4608 14.534C17.9658 14.341 18.2798 13.75 18.1668 13.216C18.0808 12.736 17.8268 12.296 17.4828 11.96C16.9528 11.415 16.4438 10.833 16.0818 10.159C16.069 10.128 16.0497 10.1 16.0252 10.0771C16.0007 10.0541 15.9716 10.0367 15.9398 10.026ZM12.3068 16.536C11.7068 16.862 11.3058 17.501 11.2068 18.18C11.0698 19.133 11.6268 20.129 12.4898 20.519C13.0358 20.754 13.6698 20.749 14.2198 20.534C14.5038 20.42 14.7468 20.234 14.9558 20.015C15.0348 19.931 15.1498 19.856 15.1498 19.727C15.1398 19.598 15.0238 19.527 14.9488 19.439C14.8508 19.352 14.7728 19.239 14.6608 19.17C14.4808 19.091 14.3728 19.288 14.2568 19.386C13.8018 19.848 12.9828 19.852 12.5168 19.401C12.3666 19.2597 12.2536 19.0836 12.1877 18.8883C12.1217 18.6929 12.105 18.4843 12.1388 18.281C12.1948 17.898 12.4228 17.535 12.7628 17.353C12.9828 17.243 13.2298 17.183 13.4728 17.194C13.8158 17.216 14.1298 17.398 14.3618 17.648C15.1538 18.436 15.9158 19.253 16.7048 20.044C17.1228 20.457 17.7018 20.722 18.2918 20.699C18.7418 20.709 19.1748 20.529 19.5408 20.275C20.0798 19.9 20.4078 19.249 20.4408 18.591C20.5128 17.549 19.7578 16.498 18.7408 16.297C18.0918 16.165 17.3588 16.301 16.8588 16.763C16.5028 17.087 16.1788 17.451 15.8268 17.784C15.4638 17.485 15.1768 17.107 14.8218 16.801C14.6702 16.6572 14.4941 16.5417 14.3018 16.46C14.2658 16.437 14.2538 16.426 14.2058 16.407C13.9014 16.2776 13.5708 16.2219 13.2409 16.2443C12.9109 16.2668 12.5909 16.3667 12.3068 16.536ZM17.3438 17.588C17.6028 17.33 17.9688 17.179 18.3338 17.209C18.7298 17.22 19.1138 17.432 19.3238 17.773C19.6518 18.273 19.5558 18.992 19.1338 19.404C18.6998 19.825 17.9558 19.878 17.4888 19.48C17.1418 19.185 16.8508 18.833 16.5188 18.523C16.5148 18.501 16.5108 18.459 16.5068 18.44C16.7838 18.152 17.0668 17.876 17.3438 17.588Z" fill="white"/>
</svg>
