<svg width="32" height="32" viewBox="0 0 32 32" fill="none" xmlns="http://www.w3.org/2000/svg">
<path d="M16 32C24.8366 32 32 24.8366 32 16C32 7.16344 24.8366 0 16 0C7.16344 0 0 7.16344 0 16C0 24.8366 7.16344 32 16 32Z" fill="#0FACF3"/>
<path d="M9.4707 9.01601H14.9027C17.0567 9.01601 18.1267 8.94801 19.7327 9.09501C21.3397 9.26501 22.9467 9.92101 23.9867 11.178C25.2117 12.638 25.5697 14.608 25.4887 16.441C25.4087 18.264 24.7837 20.176 23.3507 21.421C22.0797 22.565 20.3007 22.984 18.6127 22.995C15.3307 23.006 12.0597 22.995 8.77771 22.995C8.41971 22.972 8.01471 23.006 7.73771 22.757C7.25271 22.271 7.54171 21.229 8.31571 21.274C10.1417 21.218 11.9787 21.274 13.8057 21.24C13.7707 19.701 13.7937 18.162 13.7937 16.634C12.3837 16.622 10.9847 16.634 9.57571 16.634C9.26271 16.622 8.9157 16.622 8.6737 16.418C8.3847 16.158 8.38471 15.717 8.51171 15.378C8.67371 15.004 9.1127 14.936 9.4827 14.936C10.9157 14.924 12.3607 14.936 13.7927 14.936C13.8167 13.532 13.7707 12.128 13.8167 10.736C12.2097 10.725 10.6037 10.736 8.9967 10.736C8.6387 10.725 8.2347 10.725 7.9567 10.476C7.6687 10.102 7.7267 9.57001 7.9687 9.19601C8.43071 8.97001 8.9627 9.01601 9.4707 9.01601ZM15.8047 14.936C16.4627 14.947 17.1217 14.89 17.7807 14.981C18.5667 15.094 18.5667 16.475 17.7687 16.588C17.1217 16.69 16.4517 16.622 15.7927 16.634C15.8047 17.969 15.7927 19.294 15.7927 20.629C15.8047 20.856 15.8157 21.195 16.1047 21.218C16.8907 21.286 17.5747 21.263 18.4627 21.263C19.7797 21.32 21.1667 20.913 22.0907 19.95C23.0387 18.943 23.3857 17.54 23.4087 16.203C23.4437 14.721 23.1657 13.091 22.0787 11.981C21.0977 10.985 19.6187 10.646 18.2427 10.725C17.4587 10.725 16.7867 10.702 16.0587 10.77C15.8277 10.838 15.8157 11.121 15.8047 11.325V14.935V14.936Z" fill="white"/>
</svg>
