<svg width="32" height="32" viewBox="0 0 32 32" fill="none" xmlns="http://www.w3.org/2000/svg">
<path d="M16 32C24.8366 32 32 24.8366 32 16C32 7.16344 24.8366 0 16 0C7.16344 0 0 7.16344 0 16C0 24.8366 7.16344 32 16 32Z" fill="#00ADED"/>
<path d="M10.0967 23.603L10.0987 23.599L13.2867 15.983L10.0967 8.36798L15.9817 15.983L10.1007 23.598L10.0967 23.603ZM21.8727 23.603L21.8687 23.598L15.9877 15.983L21.8727 8.36798L18.6827 15.983L21.8707 23.599L21.8727 23.603Z" fill="white"/>
<path d="M15.9847 15.984V21.29L10.0947 23.6L15.9847 15.98V10.674L21.8747 8.36401L15.9847 15.984Z" fill="white" fill-opacity="0.8"/>
<path d="M15.9847 21.29V25.941L10.0947 23.597L15.9847 21.282V15.984L10.0947 8.36401L15.9847 10.674V6.02301L21.8747 8.36601L15.9847 10.681V15.98L21.8747 23.6L15.9847 21.29Z" fill="white" fill-opacity="0.5"/>
<path d="M10.0947 8.36601L15.9847 6.02301V10.681L10.0947 8.36601ZM21.8747 23.597L15.9847 25.941V21.282L21.8747 23.597Z" fill="white" fill-opacity="0.145"/>
</svg>
