<svg width="32" height="32" viewBox="0 0 32 32" fill="none" xmlns="http://www.w3.org/2000/svg">
<path d="M16 32C24.8366 32 32 24.8366 32 16C32 7.16344 24.8366 0 16 0C7.16344 0 0 7.16344 0 16C0 24.8366 7.16344 32 16 32Z" fill="#F6C054"/>
<path d="M26.8216 15.568L16.4315 5.17802C16.3752 5.12142 16.3081 5.07651 16.2344 5.04587C16.1606 5.01522 16.0815 4.99945 16.0016 4.99945C15.9217 4.99945 15.8425 5.01522 15.7687 5.04587C15.695 5.07651 15.6279 5.12142 15.5716 5.17802L5.17955 15.569C5.12295 15.6254 5.07804 15.6924 5.04739 15.7662C5.01675 15.84 5.00098 15.9191 5.00098 15.999C5.00098 16.0789 5.01675 16.158 5.04739 16.2318C5.07804 16.3056 5.12295 16.3726 5.17955 16.429L15.5695 26.822C15.6259 26.8785 15.6929 26.9233 15.7666 26.9538C15.8403 26.9844 15.9193 27.0001 15.9991 27.0001C16.0788 27.0001 16.1578 26.9844 16.2315 26.9538C16.3052 26.9233 16.3722 26.8785 16.4286 26.822L26.8186 16.433C26.8759 16.3768 26.9215 16.3097 26.9528 16.2357C26.9841 16.1617 27.0003 16.0822 27.0007 16.0019C27.0011 15.9215 26.9855 15.8419 26.955 15.7676C26.9244 15.6933 26.8794 15.6258 26.8225 15.569L26.8216 15.568ZM24.5375 16.088L16.9216 23.704V16H15.0736V23.704L7.45755 16.088C7.44606 16.0768 7.43693 16.0635 7.43069 16.0487C7.42445 16.0339 7.42124 16.0181 7.42124 16.002C7.42124 15.986 7.42445 15.9701 7.43069 15.9553C7.43693 15.9406 7.44606 15.9272 7.45755 15.916L15.9116 7.46302C15.9227 7.45153 15.9361 7.4424 15.9509 7.43616C15.9656 7.42993 15.9815 7.42671 15.9976 7.42671C16.0136 7.42671 16.0295 7.42993 16.0442 7.43616C16.059 7.4424 16.0724 7.45153 16.0835 7.46302L24.5375 15.916C24.549 15.9272 24.5582 15.9406 24.5644 15.9553C24.5706 15.9701 24.5739 15.986 24.5739 16.002C24.5739 16.0181 24.5706 16.0339 24.5644 16.0487C24.5582 16.0635 24.549 16.0768 24.5375 16.088C24.5375 16.084 24.5375 16.084 24.5375 16.088Z" fill="white"/>
</svg>
