<svg width="32" height="32" viewBox="0 0 32 32" fill="none" xmlns="http://www.w3.org/2000/svg">
<path d="M16 32C24.8366 32 32 24.8366 32 16C32 7.16344 24.8366 0 16 0C7.16344 0 0 7.16344 0 16C0 24.8366 7.16344 32 16 32Z" fill="#FA5836"/>
<path d="M14.7366 4.50198C14.6286 4.51698 14.2116 4.59498 13.8106 4.65598C11.5726 5.03398 9.50562 6.12998 7.79262 7.84998C6.07262 9.56297 5.02262 11.546 4.58262 13.907C4.38262 14.98 4.38262 17.078 4.58262 18.151C5.02262 20.511 6.07262 22.494 7.79262 24.207C9.50562 25.927 11.4876 26.977 13.8486 27.417C14.9216 27.617 17.0196 27.617 18.0926 27.417C20.4526 26.977 22.4366 25.927 24.1496 24.207C25.8696 22.494 26.9196 20.512 27.3596 18.151C27.5596 17.078 27.5596 14.98 27.3596 13.907C26.9196 11.547 25.8696 9.56297 24.1496 7.84998C22.4746 6.16798 20.5846 5.14198 18.2936 4.67998C17.5836 4.53298 15.2226 4.41698 14.7366 4.50198ZM18.8566 8.59198C18.9486 8.62998 18.9796 8.74498 18.9796 9.05398V9.47097H18.4936C17.8766 9.47097 17.3906 9.70198 17.1896 10.088C17.0586 10.335 17.0506 10.636 17.0506 14.293C17.0506 16.453 17.0206 18.266 16.9896 18.32C16.8276 18.567 15.6396 18.637 15.1066 18.428L14.8906 18.343V14.355C14.8906 10.635 14.8826 10.335 14.7516 10.088C14.5516 9.70198 14.0646 9.47097 13.4476 9.47097H12.9616V9.05398C12.9616 8.79198 13.0006 8.62197 13.0616 8.59898C13.2016 8.53698 18.7096 8.53697 18.8566 8.59097V8.59198ZM14.4276 11.808V12.758L14.2036 12.888C13.8726 13.082 13.3166 13.66 13.0936 14.038C12.9581 14.2858 12.8492 14.5472 12.7686 14.818L12.6456 15.258H11.7586C10.7476 15.258 10.7786 15.296 10.9946 14.448C11.2646 13.421 11.9206 12.379 12.7146 11.747C13.1546 11.392 14.1266 10.859 14.3196 10.859C14.4046 10.859 14.4276 11.06 14.4276 11.809V11.808ZM18.2546 11.13C18.9138 11.4592 19.4951 11.9254 19.9596 12.4975C20.424 13.0695 20.7609 13.7342 20.9476 14.447C21.1636 15.296 21.1946 15.257 20.1836 15.257H19.2966L19.1726 14.817C19.0923 14.5466 18.9837 14.2855 18.8486 14.038C18.6246 13.66 18.0686 13.082 17.7376 12.888L17.5136 12.758V11.808C17.5136 11.06 17.5366 10.859 17.6216 10.859C17.6756 10.859 17.9616 10.983 18.2546 11.129V11.13ZM12.6536 15.983C12.6536 16.345 12.8926 17.086 13.1396 17.472C14.4586 19.562 17.4826 19.562 18.8026 17.472C19.0496 17.086 19.2886 16.345 19.2886 15.982V15.72H21.1326L21.0936 16.121C20.9006 17.996 19.8666 19.509 18.2466 20.311C17.4986 20.681 16.8426 20.836 15.9706 20.836C13.2706 20.836 11.1336 18.868 10.8476 16.121L10.8096 15.721H12.6536V15.983ZM17.0896 21.561C17.1896 22.101 17.7456 22.433 18.5786 22.433H18.9796V23.281H12.9616V22.455L13.5246 22.417C13.8876 22.394 14.1806 22.325 14.3426 22.232C14.5826 22.093 14.8906 21.63 14.8906 21.414C14.8906 21.337 15.1376 21.314 15.9626 21.314H17.0426L17.0896 21.561Z" fill="#FEFFFF"/>
</svg>
