<svg width="32" height="32" viewBox="0 0 32 32" fill="none" xmlns="http://www.w3.org/2000/svg">
<path d="M16 32C24.8366 32 32 24.8366 32 16C32 7.16344 24.8366 0 16 0C7.16344 0 0 7.16344 0 16C0 24.8366 7.16344 32 16 32Z" fill="#443F54"/>
<path opacity="0.7" d="M15.5083 26.708C14.0923 25.846 12.3693 24.8 10.9543 23.938C10.3383 23.569 9.66234 23.2 9.04634 22.769C8.80034 22.585 8.80034 22.4 8.80034 22.277C9.41534 19.385 10.0923 16.247 10.7703 13.415L10.3383 12.062C10.3383 12.062 8.86234 19.138 8.12334 22.277C8.00034 22.707 8.12334 22.954 8.55334 23.2C10.9533 24.615 15.8153 27.692 15.8153 27.692L15.5083 26.708ZM16.6773 26.708C18.0923 25.846 19.8153 24.8 21.2313 23.938C21.8463 23.569 22.5233 23.2 23.1383 22.769C23.3853 22.585 23.3853 22.4 23.3853 22.277C22.7693 19.385 22.0923 16.247 21.4153 13.415L21.9083 12.123C21.9083 12.123 23.3853 19.138 24.0623 22.277C24.1853 22.707 24.0623 22.954 23.6313 23.2C21.2313 24.615 16.3693 27.692 16.3693 27.692L16.6773 26.708ZM21.3543 12.185L21.1083 11.815H11.1383L10.8923 12.185C10.8923 12.185 11.0773 12.677 11.0153 12.492H21.2923C21.1693 12.615 21.3543 12.185 21.3543 12.185Z" fill="#FEFFFE"/>
<path d="M21.6621 11.63C21.6621 11.63 18.2771 6.70898 16.8001 4.55498C16.4921 4.18498 16.3081 4.00098 16.1231 4.00098C15.9381 4.00098 15.6931 4.18598 15.4461 4.55498C13.9691 6.64698 10.5851 11.632 10.5851 11.632C10.2771 12.062 10.2771 12.186 10.5231 12.739C10.5231 12.739 12.9231 19.386 13.9081 22.339C14.4001 23.693 15.6921 27.57 15.6921 27.57C15.7541 27.693 16.0001 27.755 16.1231 27.755C16.2841 27.7475 16.4369 27.6817 16.5531 27.57C16.5531 27.57 17.9081 23.693 18.3381 22.34C19.3231 19.447 21.7231 12.74 21.7231 12.74C21.9691 12.186 21.9691 12.063 21.6621 11.632V11.63ZM16.1231 25.538C14.5556 21.0693 12.9966 16.5976 11.4461 12.123C11.4461 12.123 14.7691 7.26198 16.0621 5.35298C17.3541 7.26198 20.6771 12.123 20.6771 12.123C20.6771 12.123 17.5381 21.353 16.1231 25.538Z" fill="#FEFFFE"/>
</svg>
