<svg width="32" height="32" viewBox="0 0 32 32" fill="none" xmlns="http://www.w3.org/2000/svg">
<path d="M16 32C24.8366 32 32 24.8366 32 16C32 7.16344 24.8366 0 16 0C7.16344 0 0 7.16344 0 16C0 24.8366 7.16344 32 16 32Z" fill="#00FFBA"/>
<path d="M10.8711 10.904C10.5965 11.185 10.4272 11.5522 10.3919 11.9435C10.3566 12.3348 10.4573 12.7263 10.6771 13.052C10.8325 13.2859 11.0437 13.4775 11.2916 13.6094C11.5395 13.7414 11.8163 13.8097 12.0971 13.808C12.6775 13.8081 13.2341 14.0388 13.6445 14.4494C14.0548 14.8599 14.2852 15.4166 14.2851 15.997C14.285 16.5774 14.0543 17.134 13.6438 17.5444C13.2332 17.9547 12.6765 18.1851 12.0961 18.185C10.8888 18.1855 9.70856 17.8268 8.70562 17.1547C7.70268 16.4825 6.92232 15.5272 6.4638 14.4104C6.00527 13.2935 5.88931 12.0654 6.13064 10.8825C6.37198 9.69949 6.95972 8.61503 7.8191 7.76701C8.89564 6.70217 10.3306 6.07704 11.8435 6.0138C13.3563 5.95055 14.8384 6.45374 16.0001 7.42501C15.3164 7.99662 14.7666 8.71143 14.3895 9.51891C14.0125 10.3264 13.8174 11.2068 13.8181 12.098C13.8178 12.6762 14.0464 13.2311 14.454 13.6412C14.8615 14.0514 15.4149 14.2836 15.9931 14.287C15.7057 14.287 15.4211 14.2304 15.1556 14.1204C14.89 14.0103 14.6488 13.8491 14.4456 13.6458C14.2424 13.4425 14.0813 13.2012 13.9714 12.9356C13.8615 12.6701 13.805 12.3854 13.8051 12.098C13.8068 11.7577 13.7057 11.4249 13.5151 11.143C13.3289 10.8674 13.0671 10.6514 12.7611 10.521C12.5505 10.4329 12.3244 10.3875 12.0961 10.3875C11.8678 10.3875 11.6417 10.4329 11.4311 10.521C11.2208 10.6101 11.0304 10.7403 10.8711 10.904ZM25.5111 17.532C25.9762 18.6345 26.1064 19.8495 25.8855 21.0255C25.6647 22.2015 25.1025 23.2864 24.2691 24.145C23.4253 25.0145 22.3412 25.6122 21.1556 25.8616C19.9699 26.111 18.7369 26.0008 17.6143 25.545C16.4917 25.0892 15.5308 24.3086 14.8547 23.3033C14.1785 22.2979 13.8179 21.1136 13.8191 19.902C13.8129 19.6108 13.8649 19.3213 13.972 19.0504C14.0791 18.7796 14.2393 18.5329 14.443 18.3247C14.6467 18.1166 14.89 17.9512 15.1585 17.8383C15.427 17.7254 15.7153 17.6672 16.0066 17.6672C16.2979 17.6672 16.5862 17.7254 16.8547 17.8383C17.1232 17.9512 17.3665 18.1166 17.5702 18.3247C17.7739 18.5329 17.9341 18.7796 18.0412 19.0504C18.1483 19.3213 18.2003 19.6108 18.1941 19.902C18.1925 20.2388 18.2909 20.5685 18.477 20.8493C18.663 21.1301 18.9283 21.3492 19.2391 21.479C19.6691 21.659 20.1521 21.657 20.5801 21.474C20.9893 21.2968 21.3138 20.9677 21.4851 20.556C21.656 20.1385 21.6557 19.6705 21.4843 19.2532C21.3129 18.8359 20.9841 18.5028 20.5691 18.326C20.3587 18.237 20.1325 18.1914 19.9041 18.192C19.3237 18.192 18.767 17.9614 18.3566 17.551C17.9462 17.1406 17.7156 16.5839 17.7156 16.0035C17.7156 15.4231 17.9462 14.8664 18.3566 14.456C18.767 14.0456 19.3237 13.815 19.9041 13.815C21.1006 13.8144 22.2706 14.1667 23.2678 14.8278C24.265 15.489 25.045 16.4297 25.5101 17.532H25.5111Z" fill="white"/>
<path opacity="0.7" d="M15.9939 17.714C17.2019 17.714 18.1819 18.694 18.1819 19.902C18.1827 21.1155 17.8206 22.3015 17.1423 23.3077C16.4639 24.3138 15.5002 25.0942 14.375 25.5485C13.2498 26.0028 12.0144 26.1103 10.8276 25.8572C9.64083 25.6041 8.55682 25.0019 7.71487 24.128C6.88552 23.2683 6.32747 22.1835 6.11026 21.0088C5.89305 19.8342 6.02628 18.6216 6.49334 17.5221C6.9604 16.4226 7.74066 15.4849 8.73689 14.8257C9.73312 14.1665 10.9013 13.815 12.0959 13.815C12.6763 13.815 13.2329 14.0456 13.6434 14.456C14.0538 14.8664 14.2844 15.4231 14.2844 16.0035C14.2844 16.584 14.0538 17.1406 13.6434 17.551C13.2329 17.9615 12.6763 18.192 12.0959 18.192C11.7559 18.191 11.4239 18.292 11.1419 18.482C10.8661 18.6684 10.6501 18.9306 10.5199 19.237C10.3898 19.5457 10.3533 19.8857 10.4148 20.215C10.4763 20.5442 10.6332 20.8481 10.8659 21.089V21.091C11.1446 21.3804 11.5164 21.5621 11.9159 21.6042C12.3155 21.6462 12.717 21.546 13.0499 21.321C13.2831 21.165 13.4742 20.9537 13.6059 20.706C13.7376 20.4582 13.806 20.1816 13.8049 19.901C13.8049 18.694 14.7849 17.714 15.9939 17.714ZM25.3199 9.31803C25.7957 10.2462 26.0251 11.2811 25.9861 12.3234C25.9472 13.3657 25.6412 14.3806 25.0975 15.2707C24.5538 16.1608 23.7905 16.8963 22.8809 17.4068C21.9714 17.9173 20.9459 18.1856 19.9029 18.186C19.3223 18.186 18.7655 17.9554 18.355 17.5449C17.9445 17.1344 17.7139 16.5776 17.7139 15.997C17.7139 15.4165 17.9445 14.8597 18.355 14.4492C18.7655 14.0387 19.3223 13.808 19.9029 13.808C20.2394 13.8083 20.5685 13.7094 20.849 13.5235C21.1296 13.3376 21.349 13.0731 21.4799 12.763C21.5761 12.5328 21.6211 12.2844 21.6118 12.0351C21.6024 11.7857 21.539 11.5414 21.4259 11.319C21.3164 11.1032 21.1622 10.9132 20.9736 10.7616C20.7849 10.6099 20.5662 10.5002 20.3319 10.4397C20.0976 10.3791 19.8531 10.3692 19.6146 10.4104C19.3761 10.4517 19.1492 10.5433 18.9489 10.679C18.7153 10.8348 18.524 11.046 18.392 11.2938C18.2601 11.5416 18.1917 11.8183 18.1929 12.099C18.199 12.3902 18.147 12.6797 18.0398 12.9506C17.9326 13.2214 17.7724 13.4681 17.5686 13.6762C17.3648 13.8843 17.1215 14.0496 16.853 14.1624C16.5845 14.2753 16.2961 14.3334 16.0049 14.3333C15.7136 14.3332 15.4253 14.275 15.1568 14.162C14.8883 14.0491 14.6451 13.8837 14.4414 13.6755C14.2377 13.4673 14.0776 13.2205 13.9706 12.9496C13.8635 12.6788 13.8116 12.3892 13.8179 12.098C13.8172 10.9697 14.1302 9.86332 14.722 8.90262C15.3139 7.94192 16.1612 7.1647 17.1693 6.6578C18.1774 6.1509 19.3066 5.93428 20.4307 6.03215C21.5548 6.13003 22.6295 6.53853 23.5349 7.21203L23.5389 7.21503C24.2847 7.77118 24.8936 8.49051 25.3189 9.31803H25.3199Z" fill="white"/>
</svg>
