<svg width="32" height="32" viewBox="0 0 32 32" fill="none" xmlns="http://www.w3.org/2000/svg">
<path d="M16 32C24.8366 32 32 24.8366 32 16C32 7.16344 24.8366 0 16 0C7.16344 0 0 7.16344 0 16C0 24.8366 7.16344 32 16 32Z" fill="#1D9AD7"/>
<path fill-rule="evenodd" clip-rule="evenodd" d="M26 12.212C24.991 11.158 22.918 10.276 19.052 9.73499C17.833 9.56431 16.6091 9.43125 15.382 9.33599C14.429 9.27899 13.504 9.22199 12.608 9.22199C11.123 11.442 9.72198 14.119 8.48898 17.336C7.14398 20.866 5.93998 24.34 5.09998 27.5H4.84798C4.93198 24.112 5.49198 20.269 6.64098 16.283C7.39798 13.693 8.29398 11.414 9.30298 9.42199C4.76298 9.90599 1.51298 11.301 0.000976562 13.293C1.28998 10.133 5.12798 7.45699 10.984 6.51799C14.094 1.87699 17.764 -0.202015 20.818 0.709985C21.882 1.02299 22.779 1.70599 23.508 2.67399C23.423 2.61699 23.339 2.55999 23.228 2.53199C20.986 1.62099 17.96 2.92999 15.018 6.17599H15.158C21.742 6.14799 25.076 8.93799 26.001 12.212H26ZM17.763 16.482C19.556 16.482 21.013 17.991 21.013 19.842C21.013 21.692 19.556 23.201 17.763 23.201C15.97 23.201 14.513 21.692 14.513 19.841C14.513 17.963 15.97 16.482 17.763 16.482Z" fill="white"/>
</svg>
