<svg width="32" height="32" viewBox="0 0 32 32" fill="none" xmlns="http://www.w3.org/2000/svg">
<path d="M16 32C24.8366 32 32 24.8366 32 16C32 7.16344 24.8366 0 16 0C7.16344 0 0 7.16344 0 16C0 24.8366 7.16344 32 16 32Z" fill="#ED1968"/>
<path d="M12.6999 26.9C11.4222 26.546 10.231 25.9333 9.19987 25.1C8.18388 24.3173 7.30522 23.3711 6.59987 22.3C5.84773 21.1733 5.30567 19.9197 4.99987 18.6C4.64978 17.0191 4.64978 15.3808 4.99987 13.8C5.29823 12.4627 5.80437 11.1805 6.49987 9.99999C7.51808 8.36641 8.97287 7.05017 10.6999 6.19999C11.3063 5.87357 11.9426 5.60569 12.5999 5.39999C13.5999 6.59999 14.5999 7.89999 15.5999 9.19999C15.6999 9.39999 15.8999 9.49999 15.9999 9.69999C14.9968 9.74204 14.0117 9.97983 13.0999 10.4C12.2938 10.8214 11.5799 11.3993 10.9999 12.1C10.4292 12.8544 9.9897 13.6995 9.69987 14.6C9.43282 15.6886 9.46739 16.8295 9.79987 17.9L14.0999 14.5C15.0999 15.8 16.0999 17 17.0999 18.3C15.6999 19.4 14.1999 20.5 12.7999 21.7C14.1999 23.5 15.6999 25.4 17.0999 27.3C15.6214 27.4748 14.1226 27.3385 12.6999 26.9ZM22.2299 14.786C22.1932 14.6223 22.1498 14.4602 22.0999 14.3C21.9649 14.406 18.9899 16.68 17.7999 17.7C16.7999 16.4 15.7999 15.2 14.7999 13.9C16.1999 12.8 17.6999 11.7 19.0999 10.5C17.6999 8.69999 16.2999 6.89999 14.7999 4.99999C14.7999 4.89999 14.6999 4.89999 14.6999 4.79999H16.0999C18.665 4.82393 21.1411 5.74362 23.0999 7.39999C24.0545 8.18882 24.8663 9.13596 25.4999 10.2C26.246 11.3454 26.7246 12.6442 26.8999 14C27.1678 15.5586 27.1338 17.1542 26.7999 18.7C26.5136 19.9952 25.9695 21.2196 25.1999 22.3C24.5282 23.3372 23.6825 24.2507 22.6999 25C21.7429 25.8314 20.617 26.4456 19.3999 26.8C18.4999 25.7 17.6999 24.7 16.8999 23.6C16.601 23.2579 16.3333 22.8897 16.0999 22.5C17.0461 22.5032 17.9803 22.2883 18.8301 21.8721C19.6798 21.4559 20.4223 20.8495 20.9999 20.1C21.5759 19.3632 21.9853 18.5103 22.1999 17.6C22.3859 16.841 22.3959 15.903 22.2299 14.786ZM17.5069 23.159C18.1975 24.1023 18.9144 25.026 19.6569 25.929C20.6066 25.5855 21.4842 25.0684 22.2449 24.404C23.167 23.699 23.9601 22.8397 24.5889 21.864C25.2994 20.867 25.802 19.7372 26.0669 18.542C26.3809 17.09 26.4119 15.591 26.1569 14.096C25.9933 12.8423 25.5486 11.6417 24.8559 10.584C24.2646 9.59153 23.5069 8.70829 22.6159 7.97299C20.816 6.45028 18.546 5.59486 16.1889 5.55099C17.1159 6.73099 18.0549 7.93399 19.6919 10.04L20.1319 10.604L19.5879 11.069C18.8766 11.674 18.1504 12.2611 17.4099 12.83C17.3399 12.885 16.4899 13.538 15.8519 14.032C16.1149 14.367 16.4199 14.749 16.8859 15.332C17.3459 15.907 17.6509 16.29 17.9139 16.625C18.3779 16.242 18.8839 15.84 19.4899 15.37C19.5879 15.294 21.1859 14.064 21.6369 13.71L22.4929 13.037L22.8159 14.077C23.1885 15.2755 23.228 16.5528 22.9299 17.772C22.691 18.7862 22.2352 19.7367 21.5939 20.558C20.5741 21.8814 19.1094 22.7905 17.4709 23.117L17.5069 23.159Z" fill="white"/>
</svg>
