<svg width="32" height="32" viewBox="0 0 32 32" fill="none" xmlns="http://www.w3.org/2000/svg">
<path d="M16 32C24.8366 32 32 24.8366 32 16C32 7.16344 24.8366 0 16 0C7.16344 0 0 7.16344 0 16C0 24.8366 7.16344 32 16 32Z" fill="#2D475B"/>
<path d="M12.8693 12.685H23.9543V15.173H12.8693V12.685ZM23.9543 16.829H24.0003V23.372C24.0003 23.372 15.3533 29.637 8.63733 22.82C8.63733 22.82 4.95733 19.088 6.29133 13.652C6.29133 13.652 7.34933 6.88099 15.3993 6.05199C15.3993 6.05199 20.3663 5.35999 23.5863 9.04599L21.6543 10.934C21.6543 10.934 17.5603 6.69599 12.0873 10.014C12.0873 10.014 7.62533 12.501 9.46533 18.766C9.46533 18.766 11.4893 24.202 17.8363 23.096C17.8363 23.096 19.9983 22.604 21.1023 21.652V19.317H12.8703V16.829H23.9543Z" fill="white"/>
</svg>
