<svg width="32" height="32" viewBox="0 0 32 32" fill="none" xmlns="http://www.w3.org/2000/svg">
<path d="M16 32C24.8366 32 32 24.8366 32 16C32 7.16344 24.8366 0 16 0C7.16344 0 0 7.16344 0 16C0 24.8366 7.16344 32 16 32Z" fill="#008DDE"/>
<path d="M24.0293 17.326C24.127 17.3296 24.2244 17.3135 24.3157 17.2787C24.407 17.2438 24.4903 17.1908 24.5607 17.123C24.6311 17.0552 24.6871 16.9739 24.7253 16.8839C24.7635 16.794 24.7832 16.6973 24.7832 16.5995C24.7832 16.5018 24.7635 16.405 24.7253 16.3151C24.6871 16.2251 24.6311 16.1438 24.5607 16.076C24.4903 16.0082 24.407 15.9553 24.3157 15.9204C24.2244 15.8855 24.127 15.8694 24.0293 15.873H22.3693V14.231H25.8403C25.938 14.2346 26.0354 14.2185 26.1267 14.1837C26.218 14.1488 26.3013 14.0958 26.3717 14.028C26.4421 13.9602 26.4981 13.8789 26.5363 13.7889C26.5745 13.699 26.5942 13.6023 26.5942 13.5045C26.5942 13.4068 26.5745 13.31 26.5363 13.2201C26.4981 13.1301 26.4421 13.0488 26.3717 12.981C26.3013 12.9132 26.218 12.8603 26.1267 12.8254C26.0354 12.7905 25.938 12.7744 25.8403 12.778H22.3553C22.2848 12 21.9588 11.2673 21.428 10.6942C20.8972 10.121 20.1916 9.73982 19.4213 9.61001V7.86101C19.4249 7.76334 19.4088 7.66594 19.3739 7.57463C19.339 7.48333 19.2861 7.39999 19.2183 7.32961C19.1505 7.25923 19.0692 7.20324 18.9792 7.165C18.8893 7.12676 18.7925 7.10705 18.6948 7.10705C18.597 7.10705 18.5003 7.12676 18.4104 7.165C18.3204 7.20324 18.2391 7.25923 18.1713 7.32961C18.1035 7.39999 18.0505 7.48333 18.0156 7.57463C17.9808 7.66594 17.9647 7.76334 17.9683 7.86101V9.56101H16.3263V5.74001C16.3299 5.64234 16.3138 5.54494 16.2789 5.45363C16.244 5.36233 16.1911 5.27899 16.1233 5.20861C16.0555 5.13823 15.9742 5.08224 15.8842 5.044C15.7943 5.00576 15.6975 4.98605 15.5998 4.98605C15.502 4.98605 15.4053 5.00576 15.3154 5.044C15.2254 5.08224 15.1441 5.13823 15.0763 5.20861C15.0085 5.27899 14.9555 5.36233 14.9206 5.45363C14.8858 5.54494 14.8697 5.64234 14.8733 5.74001V9.56001H13.2303V7.86001C13.2233 7.672 13.1437 7.49401 13.0082 7.36346C12.8727 7.23291 12.6919 7.15997 12.5038 7.15997C12.3156 7.15997 12.1348 7.23291 11.9993 7.36346C11.8639 7.49401 11.7843 7.672 11.7773 7.86001V9.61001C11.007 9.73982 10.3014 10.121 9.77058 10.6942C9.23979 11.2673 8.91372 12 8.84329 12.778H4.74029C4.64261 12.7744 4.54521 12.7905 4.45391 12.8254C4.3626 12.8603 4.27927 12.9132 4.20888 12.981C4.1385 13.0488 4.08252 13.1301 4.04428 13.2201C4.00604 13.31 3.98633 13.4068 3.98633 13.5045C3.98633 13.6023 4.00604 13.699 4.04428 13.7889C4.08252 13.8789 4.1385 13.9602 4.20888 14.028C4.27927 14.0958 4.3626 14.1488 4.45391 14.1837C4.54521 14.2185 4.64261 14.2346 4.74029 14.231H8.83029V15.873H7.17029C7.07261 15.8694 6.97521 15.8855 6.88391 15.9204C6.7926 15.9553 6.70927 16.0082 6.63888 16.076C6.5685 16.1438 6.51252 16.2251 6.47428 16.3151C6.43604 16.405 6.41633 16.5018 6.41633 16.5995C6.41633 16.6973 6.43604 16.794 6.47428 16.8839C6.51252 16.9739 6.5685 17.0552 6.63888 17.123C6.70927 17.1908 6.7926 17.2438 6.88391 17.2787C6.97521 17.3135 7.07261 17.3296 7.17029 17.326H8.83029V18.968H5.66729C5.56961 18.9644 5.47221 18.9805 5.38091 19.0154C5.2896 19.0503 5.20627 19.1032 5.13588 19.171C5.0655 19.2388 5.00952 19.3201 4.97128 19.4101C4.93304 19.5 4.91333 19.5968 4.91333 19.6945C4.91333 19.7923 4.93304 19.889 4.97128 19.9789C5.00952 20.0689 5.0655 20.1502 5.13588 20.218C5.20627 20.2858 5.2896 20.3388 5.38091 20.3736C5.47221 20.4085 5.56961 20.4246 5.66729 20.421H8.84329C8.91372 21.199 9.23979 21.9317 9.77058 22.5049C10.3014 23.078 11.007 23.4592 11.7773 23.589V24.719C11.7737 24.8167 11.7898 24.9141 11.8246 25.0054C11.8595 25.0967 11.9125 25.18 11.9803 25.2504C12.0481 25.3208 12.1294 25.3768 12.2194 25.415C12.3093 25.4533 12.406 25.473 12.5038 25.473C12.6015 25.473 12.6983 25.4533 12.7882 25.415C12.8782 25.3768 12.9595 25.3208 13.0273 25.2504C13.0951 25.18 13.148 25.0967 13.1829 25.0054C13.2178 24.9141 13.2339 24.8167 13.2303 24.719V23.638H14.8723V26.929C14.8793 27.117 14.9589 27.295 15.0943 27.4256C15.2298 27.5561 15.4106 27.6291 15.5988 27.6291C15.7869 27.6291 15.9677 27.5561 16.1032 27.4256C16.2387 27.295 16.3183 27.117 16.3253 26.929V23.638H17.9673V25.338C17.9637 25.4357 17.9798 25.5331 18.0146 25.6244C18.0495 25.7157 18.1025 25.799 18.1703 25.8694C18.2381 25.9398 18.3194 25.9958 18.4094 26.034C18.4993 26.0723 18.596 26.092 18.6938 26.092C18.7915 26.092 18.8883 26.0723 18.9782 26.034C19.0682 25.9958 19.1495 25.9398 19.2173 25.8694C19.2851 25.799 19.338 25.7157 19.3729 25.6244C19.4078 25.5331 19.4239 25.4357 19.4203 25.338V23.59C20.1906 23.4602 20.8962 23.079 21.427 22.5059C21.9578 21.9327 22.2838 21.2 22.3543 20.422H27.1653C27.263 20.4256 27.3604 20.4095 27.4517 20.3747C27.543 20.3398 27.6263 20.2868 27.6967 20.219C27.7671 20.1512 27.8231 20.0699 27.8613 19.9799C27.8995 19.89 27.9192 19.7933 27.9192 19.6955C27.9192 19.5978 27.8995 19.501 27.8613 19.4111C27.8231 19.3211 27.7671 19.2398 27.6967 19.172C27.6263 19.1042 27.543 19.0513 27.4517 19.0164C27.3604 18.9815 27.263 18.9654 27.1653 18.969H22.3703V17.327H24.0293V17.326ZM21.2093 20.108C21.2088 20.7364 20.9589 21.3389 20.5145 21.7833C20.0702 22.2276 19.4677 22.4775 18.8393 22.478H12.3593C11.7309 22.4775 11.1284 22.2276 10.684 21.7833C10.2397 21.3389 9.98982 20.7364 9.98929 20.108V13.09C9.98982 12.4616 10.2397 11.8591 10.684 11.4148C11.1284 10.9704 11.7309 10.7205 12.3593 10.72H18.8393C19.4677 10.7205 20.0702 10.9704 20.5145 11.4148C20.9589 11.8591 21.2088 12.4616 21.2093 13.09V20.107V20.108Z" fill="white"/>
<path d="M13.9012 12.435C13.6206 12.4305 13.3399 12.4402 13.0602 12.464C12.6182 12.514 12.2932 12.914 12.2792 13.348C12.2572 14.332 12.2752 15.318 12.2692 16.302C12.2832 16.804 12.2352 17.312 12.3092 17.809C12.3802 18.253 12.8142 18.539 13.2452 18.538C14.5852 18.547 15.9252 18.541 17.2652 18.542V19.097H12.9502L12.3952 20.762H16.6892C17.1912 20.748 17.6982 20.796 18.1962 20.723C18.6402 20.652 18.9252 20.218 18.9242 19.787C18.9342 18.034 18.9262 16.281 18.9292 14.527C18.9132 14.057 18.9702 13.578 18.8752 13.114C18.7742 12.641 18.2672 12.408 17.8192 12.437H14.7432C14.4632 12.442 14.1812 12.436 13.9002 12.434L13.9012 12.435ZM13.9342 14.102H17.2642V16.877H13.9342V14.102Z" fill="white"/>
</svg>
