<svg width="32" height="32" viewBox="0 0 32 32" fill="none" xmlns="http://www.w3.org/2000/svg">
<path d="M16 32C24.8366 32 32 24.8366 32 16C32 7.16344 24.8366 0 16 0C7.16344 0 0 7.16344 0 16C0 24.8366 7.16344 32 16 32Z" fill="#005396"/>
<path d="M12.3277 4.59799C13.3668 4.26332 14.4469 4.07254 15.5377 4.03099C17.0347 3.96299 18.5397 4.20599 19.9547 4.68899C22.2618 5.50332 24.2659 7.00157 25.6997 8.98399C26.0297 9.42399 26.3077 9.89699 26.5757 10.377C26.8867 10.985 27.1677 11.611 27.3797 12.26C27.6597 13.151 27.8697 14.074 27.9347 15.009C27.9687 15.211 27.9467 15.417 27.9747 15.619C27.9847 15.872 27.9807 16.125 27.9747 16.38C27.9467 16.583 27.9687 16.789 27.9347 16.991C27.8747 17.833 27.7007 18.665 27.4607 19.475C27.2585 20.144 26.9974 20.7939 26.6807 21.417C25.5011 23.7334 23.6031 25.6054 21.2707 26.753C20.6203 27.0773 19.9393 27.3362 19.2377 27.526C18.0627 27.863 16.8377 28.006 15.6197 27.972C15.4167 27.944 15.2077 27.966 15.0087 27.932C14.0957 27.869 13.1977 27.67 12.3247 27.398C10.5738 26.8297 8.97661 25.8672 7.65608 24.5846C6.33555 23.302 5.32689 21.7336 4.70773 20C4.31773 18.865 4.06773 17.678 4.03773 16.475C3.99673 15.898 4.04073 15.318 4.08773 14.742C4.17473 13.891 4.36773 13.049 4.62973 12.236C5.42573 9.85128 6.94825 7.77555 8.98373 6.29999C9.42373 5.96999 9.89673 5.68999 10.3767 5.42399C11.0019 5.09266 11.6547 4.81628 12.3277 4.59799ZM14.6377 8.92799V11.73C14.6317 11.78 14.6777 11.808 14.7027 11.842C15.1327 12.294 15.5667 12.742 15.9967 13.195C15.9936 11.7727 15.9936 10.3503 15.9967 8.92799C15.5447 8.92799 15.0897 8.92499 14.6367 8.92799H14.6377ZM8.72773 10.378C8.83073 10.446 8.90573 10.545 8.99273 10.63C9.91873 11.565 10.8477 12.497 11.7697 13.438C12.6147 14.292 13.4627 15.143 14.3037 15.997C13.2847 17.041 12.2467 18.067 11.2307 19.111C10.4177 19.931 9.60373 20.751 8.79373 21.57C8.77232 21.5874 8.7503 21.6041 8.72773 21.62C9.92473 21.62 11.1247 21.623 12.3247 21.614C13.5497 20.332 14.7807 19.054 16.0027 17.77C17.2277 19.051 18.4557 20.332 19.6807 21.614C20.8777 21.623 22.0747 21.617 23.2707 21.62C23.0877 21.473 22.9437 21.29 22.7727 21.13C21.9157 20.264 21.0527 19.397 20.1977 18.528C19.3687 17.683 18.5247 16.851 17.7017 16C17.9017 15.8 18.0877 15.592 18.2937 15.395C19.8617 13.815 21.4237 12.229 22.9907 10.648C23.0847 10.558 23.1627 10.452 23.2707 10.378C22.0707 10.378 20.8747 10.374 19.6777 10.38C18.4527 11.661 17.2247 12.94 15.9997 14.22C14.7777 12.936 13.5467 11.658 12.3217 10.38C11.1247 10.377 9.92473 10.377 8.72773 10.377V10.378ZM16.0057 18.793C16.0057 20.22 16.0087 21.645 16.0027 23.073C16.4577 23.069 16.9127 23.073 17.3647 23.073V20.267C17.3666 20.252 17.3648 20.2367 17.3594 20.2226C17.354 20.2085 17.3452 20.1959 17.3337 20.186C17.1037 19.936 16.8597 19.703 16.6327 19.454C16.4267 19.229 16.2057 19.024 16.0057 18.793Z" fill="white"/>
</svg>
