<svg width="32" height="32" viewBox="0 0 32 32" fill="none" xmlns="http://www.w3.org/2000/svg">
<path d="M16 32C24.8366 32 32 24.8366 32 16C32 7.16344 24.8366 0 16 0C7.16344 0 0 7.16344 0 16C0 24.8366 7.16344 32 16 32Z" fill="#372D2C"/>
<path d="M9.96541 18.487L10.0664 18.412H10.0324L9.56641 18.842C9.67623 18.6996 9.81193 18.5791 9.96641 18.487H9.96541Z" fill="black"/>
<path d="M26.9502 13.44C26.9008 13.3632 26.8239 13.3081 26.7352 13.286C26.3897 13.2012 26.043 13.1212 25.6952 13.046L25.7892 12.582L25.8492 12.29L25.8772 12.142L25.9042 11.982C25.9421 11.7447 25.9156 11.5015 25.8272 11.278C25.7338 11.0397 25.5804 10.8296 25.3819 10.6681C25.1834 10.5065 24.9465 10.399 24.6942 10.356C24.6111 9.85192 24.4962 9.3536 24.3502 8.86401L24.3332 8.80401L21.8472 5.78401L21.7542 5.75701C21.6532 5.73001 19.4132 5.06801 16.3642 5.06701L16.3982 4.46501C16.6785 4.37278 16.9166 4.18332 17.0693 3.93087C17.2221 3.67842 17.2795 3.37965 17.2312 3.08856C17.1829 2.79746 17.032 2.53326 16.8059 2.3437C16.5798 2.15414 16.2933 2.05174 15.9982 2.05501C15.7037 2.05249 15.418 2.15522 15.1925 2.34471C14.967 2.53419 14.8166 2.79796 14.7683 3.0885C14.7201 3.37905 14.7772 3.67728 14.9293 3.92946C15.0815 4.18164 15.3187 4.37121 15.5982 4.46401L15.6332 5.06901C12.5712 5.07201 10.3192 5.73001 10.2232 5.76201L10.1302 5.78901L7.64422 8.80901L7.62822 8.86901C7.48222 9.35901 7.36722 9.85601 7.28422 10.359H7.27622L7.10022 10.403C6.77152 10.5032 6.4892 10.7171 6.30378 11.0064C6.11836 11.2957 6.04195 11.6415 6.08822 11.982L6.11522 12.141L6.14322 12.289L6.20322 12.581L6.29722 13.047C5.95222 13.123 5.60722 13.201 5.26322 13.285C5.17448 13.3069 5.09753 13.362 5.04822 13.439C5.01374 13.4967 4.99711 13.5634 5.00041 13.6306C5.00371 13.6977 5.0268 13.7624 5.06678 13.8165C5.10675 13.8706 5.16182 13.9116 5.22507 13.9345C5.28831 13.9574 5.3569 13.961 5.42222 13.945C5.75822 13.863 6.09422 13.785 6.43122 13.712L6.45622 13.84C5.67087 16.3309 5.8515 19.0262 6.96222 21.39C8.47022 24.608 11.9402 28.078 16.0002 28.078C20.0592 28.078 23.5302 24.608 25.0422 21.385C26.1493 19.0191 26.326 16.3232 25.5372 13.833L25.5612 13.715C25.8992 13.789 26.2372 13.867 26.5742 13.949C26.6395 13.965 26.7081 13.9614 26.7714 13.9385C26.8346 13.9156 26.8897 13.8746 26.9297 13.8205C26.9696 13.7664 26.9927 13.7017 26.996 13.6346C26.9993 13.5674 26.9827 13.5007 26.9482 13.443L26.9502 13.44ZM15.1122 3.29801C15.113 3.04049 15.2149 2.79358 15.3959 2.61046C15.577 2.42735 15.8227 2.32268 16.0802 2.31901C16.6202 2.31901 16.6202 4.27201 16.0802 4.27701C15.8227 4.27334 15.577 4.16867 15.3959 3.98555C15.2149 3.80243 15.113 3.55552 15.1122 3.29801ZM15.7602 4.50801C15.8392 4.52301 15.9182 4.53101 15.9982 4.53101H16.0362L16.1122 6.63301C16.1614 6.69842 16.1852 6.77939 16.1793 6.861C16.1734 6.9426 16.1382 7.01932 16.0802 7.07701C16.0485 7.1088 16.0107 7.134 15.9692 7.15116C15.9277 7.16832 15.8832 7.17711 15.8382 7.17701C15.3322 7.17701 14.9252 7.02301 14.9252 6.83701C14.9252 6.66501 15.2672 6.52201 15.7152 6.49801L15.8382 6.49501H15.8722L15.7602 4.50801ZM8.15622 9.34501L8.44722 9.24101L8.94222 9.07601L9.59222 8.88401C9.82822 8.81201 10.0922 8.74601 10.3672 8.67401L11.2412 8.47701C11.5442 8.41701 11.8572 8.35001 12.1812 8.29501C12.5062 8.24001 12.8312 8.19601 13.1612 8.14101C13.4912 8.08601 13.8212 8.05901 14.1452 8.02101C14.4702 7.98101 14.7892 7.96501 15.1022 7.93801C15.2672 7.92301 15.4362 7.91601 15.5972 7.91001H15.6142L15.9992 11.337L16.3892 7.88101H16.8072C17.0552 7.88101 17.2862 7.87001 17.4892 7.88101L18.0172 7.90301L18.4792 7.91901L18.0232 7.87501L17.4952 7.82501C17.2912 7.80401 17.0652 7.79801 16.8132 7.78201C16.544 7.76208 16.2742 7.75108 16.0042 7.74901H16.0002C15.7162 7.74901 15.4102 7.73201 15.0982 7.74301C14.7872 7.75401 14.4602 7.74901 14.1302 7.77101L13.1292 7.83701C12.7932 7.86401 12.4582 7.89201 12.1282 7.93601C11.7982 7.98001 11.4732 8.02901 11.1652 8.06801C10.8682 8.10501 10.5752 8.16201 10.2992 8.21101L9.80722 8.17201L10.7862 6.83601L15.6752 5.77001L15.7052 6.30001C15.0452 6.35201 14.5502 6.57101 14.5502 6.83401C14.5502 7.13401 15.2002 7.37801 16.0022 7.37801C16.8042 7.37801 17.4542 7.13501 17.4542 6.83401C17.4542 6.57101 16.9592 6.35201 16.2992 6.30001L16.3292 5.77201L21.1972 6.83501L22.1772 8.17101L20.8152 8.28101L20.7902 8.27801L20.8052 8.28201H20.7852L23.3922 9.57401C23.3922 9.57401 24.5162 13.184 22.9672 16.252C22.7904 16.5987 22.5847 16.9299 22.3522 17.242C22.3522 17.242 19.9462 18.353 16.2472 18.549L16.0002 17.532C16.3027 17.5421 16.604 17.4897 16.8852 17.378L17.6552 17.125C19.2192 16.643 20.7852 16.168 22.3522 15.701L22.5062 15.657L22.5562 15.514L22.6062 15.371L22.6442 15.233L22.7152 14.963C22.8412 14.433 22.9312 13.895 22.9852 13.352L23.0292 12.802L23.0392 12.527V12.247L23.0452 11.961L23.0182 11.675L22.9742 11.389C22.9554 11.2961 22.9314 11.2043 22.9022 11.114L22.8582 10.971L22.8082 10.8L22.7732 10.795L22.7592 10.751L22.7092 10.58L22.5122 10.553C20.8885 10.3636 19.2566 10.2515 17.6222 10.217L17.4522 10.212L17.3802 10.355L16.4842 12.111L16.0002 12.119L15.4702 12.129L14.5102 10.409L14.4602 10.316L14.3602 10.322C13.5472 10.367 12.7352 10.433 11.9242 10.52C11.1162 10.6057 10.3111 10.7175 9.51022 10.855H9.52622H9.51622L9.48222 10.965C9.47328 10.9934 9.46528 11.0221 9.45822 11.051C9.47422 10.986 9.49322 10.922 9.51322 10.855C9.48161 10.9434 9.44489 11.0299 9.40322 11.114C9.38522 11.184 9.36522 11.253 9.35222 11.323L9.34222 11.35L9.28222 11.62L9.23822 11.889L9.21022 12.164C9.20022 12.346 9.19422 12.533 9.20022 12.714L9.22122 13.264C9.25822 13.814 9.33122 14.362 9.44122 14.903L9.50122 15.173L9.57922 15.448L9.60122 15.514L9.67822 15.541L12.7912 16.564C13.7072 16.862 14.6222 17.169 15.5352 17.483C15.6132 17.499 15.6922 17.51 15.7722 17.516L15.8272 17.521H15.8432L15.8712 17.527L15.9862 17.532H16.0032L15.7492 18.567C14.8414 18.5935 13.9328 18.5608 13.0292 18.469C10.8072 18.171 9.34522 17.639 8.96522 17.488C7.73201 14.9573 7.44539 12.0687 8.15722 9.34501H8.15622ZM19.9562 10.875L17.0152 16.42L16.8182 16.79L16.6752 16.839C16.504 16.9009 16.3242 16.936 16.1422 16.943C15.8633 16.971 15.5816 16.9372 15.3172 16.844L15.2172 16.806L15.3432 16.571L18.4232 10.771L18.5622 10.508C19.0622 10.53 19.5742 10.569 20.0962 10.613L19.9562 10.875ZM20.8602 10.965L21.0042 10.693L21.4272 10.732L21.8292 10.776L21.8792 10.781H21.9112L21.7632 11.061L19.3232 15.659L19.1232 16.036L17.9792 16.399L18.1762 16.026L20.8602 10.965ZM6.51022 12.235L6.49422 12.087L6.48322 11.944C6.46809 11.7181 6.53135 11.4938 6.66233 11.3091C6.79331 11.1244 6.984 10.9905 7.20222 10.93C7.00986 12.566 7.15276 14.224 7.62222 15.803L7.57722 15.789C7.4148 15.7316 7.26728 15.6386 7.14547 15.5168C7.02366 15.3949 6.93064 15.2474 6.87322 15.085C6.82953 14.9473 6.80201 14.805 6.79122 14.661L6.54322 12.535L6.51022 12.235ZM9.26422 23.688L9.24922 23.676L9.25622 23.686C9.20045 23.6709 9.14904 23.6428 9.10622 23.604C8.48926 22.8388 7.96495 22.0033 7.54422 21.115C6.68048 19.2722 6.41474 17.2054 6.78422 15.204L6.78822 15.214C6.87386 15.3772 6.99443 15.5196 7.14135 15.6309C7.28827 15.7422 7.45791 15.8197 7.63822 15.858C7.85122 16.56 8.12722 17.241 8.46322 17.893L8.51322 17.981L8.60622 18.025C8.95822 18.169 9.31722 18.295 9.68222 18.404H9.69122L9.66522 18.412C9.58439 18.4392 9.50466 18.4696 9.42622 18.503C9.36025 18.5306 9.2949 18.5596 9.23022 18.59L8.80622 18.793L8.66922 18.859L8.65222 18.997C8.53273 20.043 8.63703 21.1024 8.95822 22.105C9.11322 22.604 9.33122 23.081 9.60722 23.525L9.61222 23.535L9.62922 23.579C9.65322 23.69 9.43922 23.735 9.26422 23.689V23.688ZM13.0442 25.9C12.27 25.6168 11.5623 25.1774 10.9652 24.609C10.6247 24.2761 10.3341 23.8959 10.1022 23.48C9.87191 23.0637 9.69453 22.6203 9.57422 22.16C9.45622 21.6989 9.38421 21.2273 9.35922 20.752C9.32939 20.3351 9.34246 19.9162 9.39822 19.502L9.65622 19.399C9.92122 19.312 10.1892 19.235 10.4592 19.169L10.8722 19.086C11.2292 19.026 11.5882 18.983 11.9502 18.959H11.9932L12.0092 18.961C11.7002 19.8032 11.5444 20.6939 11.5492 21.591C11.5492 23.381 12.1392 24.904 13.0762 25.919L13.0442 25.9ZM17.3442 24.757C16.9302 24.9913 16.4619 25.1127 15.9862 25.109C15.4906 25.1114 15.0037 24.9782 14.5782 24.724C14.3762 24.5054 14.204 24.2609 14.0662 23.997C14.2993 24.2675 14.587 24.4857 14.9103 24.6373C15.2335 24.7889 15.5852 24.8706 15.9422 24.8769C16.2992 24.8832 16.6536 24.8141 16.982 24.674C17.3105 24.5339 17.6057 24.3261 17.8482 24.064C17.7113 24.3164 17.5419 24.5497 17.3442 24.758V24.757ZM15.9862 24.339C15.7287 24.3402 15.4736 24.2906 15.2352 24.1932C14.9969 24.0957 14.7801 23.9522 14.5973 23.771C14.4144 23.5897 14.2691 23.3742 14.1696 23.1367C14.07 22.8992 14.0183 22.6445 14.0172 22.387V22.38C14.0168 21.9927 14.1312 21.614 14.3459 21.2916C14.5606 20.9692 14.866 20.7177 15.2235 20.5688C15.581 20.4198 15.9746 20.3801 16.3547 20.4547C16.7348 20.5293 17.0842 20.7148 17.3589 20.9879C17.6336 21.2609 17.8213 21.6092 17.8982 21.9888C17.9751 22.3684 17.9378 22.7623 17.7911 23.1207C17.6443 23.4791 17.3947 23.786 17.0736 24.0027C16.7526 24.2194 16.3745 24.336 15.9872 24.338V24.339H15.9862ZM18.4742 22C18.3735 21.405 18.0629 20.8658 17.5987 20.4803C17.1345 20.0947 16.5475 19.8883 15.9441 19.8984C15.3408 19.9086 14.761 20.1347 14.3101 20.5357C13.8591 20.9366 13.5668 21.486 13.4862 22.084C13.4564 21.8574 13.4381 21.6295 13.4312 21.401C13.6325 20.8876 13.9845 20.4473 14.4409 20.1379C14.8974 19.8286 15.4368 19.6647 15.9882 19.668H15.9982C16.5388 19.6667 17.0675 19.826 17.5174 20.1256C17.9673 20.4253 18.318 20.8518 18.5252 21.351C18.5184 21.5684 18.5014 21.7853 18.4742 22.001V22ZM18.9062 25.931H18.9162L18.8962 25.938C19.8462 24.922 20.4462 23.389 20.4462 21.585C20.4516 20.6878 20.2954 19.7969 19.9852 18.955H19.9992C21.4142 19.159 22.1512 19.885 22.1512 19.885C22.1512 19.885 22.3012 24.031 18.9082 25.931H18.9062ZM25.3692 16.991V17.205C25.3692 17.254 25.3652 17.302 25.3642 17.35C25.3608 17.4595 25.3548 17.5688 25.3462 17.678C25.3462 17.712 25.3402 17.747 25.3372 17.781C25.3312 17.852 25.3252 17.924 25.3172 17.994C25.3172 18.01 25.3142 18.026 25.3122 18.042C25.3046 18.1108 25.2963 18.1794 25.2872 18.248V18.258L25.2592 18.456V18.463C25.1007 19.4947 24.7772 20.4941 24.3012 21.423L24.2672 21.489C24.2322 21.556 24.1972 21.624 24.1602 21.691C23.7975 22.3675 23.3723 23.0087 22.8902 23.606C22.8496 23.6447 22.8002 23.6729 22.7462 23.688L22.7522 23.678L22.7372 23.69C22.5642 23.74 22.3432 23.697 22.3672 23.58L22.3842 23.536L22.3942 23.526C22.6672 23.08 22.8842 22.604 23.0392 22.106C23.355 21.1044 23.4578 20.0478 23.3412 19.004L23.3252 18.867L23.1872 18.801C23.0442 18.729 22.9072 18.658 22.7642 18.597L22.3292 18.421L22.2902 18.407L22.3002 18.404C22.6632 18.297 23.0202 18.169 23.3692 18.023L23.4622 17.979L23.5122 17.891C23.8472 17.239 24.1222 16.559 24.3342 15.859C24.7092 15.782 25.0292 15.542 25.2072 15.204C25.3122 15.766 25.3672 16.337 25.3722 16.909C25.3704 16.9363 25.3694 16.9636 25.3692 16.991Z" fill="white"/>
<path d="M9.6461 11.135L9.8771 10.855H9.9541H9.8391C9.7231 11.025 9.5811 11.188 9.4541 11.355C9.5271 11.281 9.5841 11.212 9.6461 11.135Z" fill="black"/>
<path d="M16.9505 6.20999C17.4345 6.33699 17.7535 6.56799 17.7535 6.83699C17.7535 7.10699 17.4295 7.33699 16.9505 7.46399C17.6105 7.40399 18.1055 7.14499 18.1055 6.83699C18.1055 6.52899 17.6105 6.26799 16.9505 6.20999ZM15.3595 8.68199C15.4262 8.682 15.4902 8.65579 15.5377 8.60902C15.5852 8.56224 15.6124 8.49866 15.6135 8.43199C15.6135 8.39852 15.6069 8.36537 15.594 8.33448C15.5811 8.30358 15.5623 8.27554 15.5385 8.25199C15.5148 8.22869 15.4866 8.21046 15.4557 8.19842C15.4247 8.18639 15.3917 8.1808 15.3585 8.18199C15.2929 8.18278 15.2303 8.20954 15.1843 8.25639C15.1384 8.30325 15.1129 8.36639 15.1135 8.43199C15.1135 8.56999 15.2235 8.68199 15.3595 8.68199ZM8.71447 9.52399C8.66486 9.52446 8.61648 9.53956 8.57542 9.56741C8.53435 9.59525 8.50242 9.6346 8.48362 9.68052C8.46483 9.72644 8.46001 9.77689 8.46976 9.82554C8.47952 9.87419 8.50342 9.91887 8.53847 9.95399C8.58547 10.001 8.64847 10.026 8.71447 10.024C8.76409 10.0235 8.81246 10.0084 8.85353 9.98058C8.8946 9.95273 8.92653 9.91338 8.94532 9.86746C8.96412 9.82154 8.96894 9.77109 8.95918 9.72245C8.94942 9.6738 8.92552 9.62911 8.89047 9.59399C8.86753 9.57085 8.84005 9.55269 8.80977 9.54064C8.77949 9.5286 8.74705 9.52293 8.71447 9.52399ZM9.40747 17.597C9.45709 17.5965 9.50546 17.5814 9.54653 17.5536C9.5876 17.5257 9.61953 17.4864 9.63832 17.4405C9.65712 17.3945 9.66194 17.3441 9.65218 17.2954C9.64242 17.2468 9.61852 17.2021 9.58347 17.167C9.56053 17.1438 9.53305 17.1257 9.50277 17.1136C9.47249 17.1016 9.44005 17.0959 9.40747 17.097C9.34133 17.0975 9.27805 17.124 9.23127 17.1708C9.1845 17.2176 9.158 17.2808 9.15747 17.347C9.16247 17.487 9.27247 17.597 9.40747 17.597ZM15.4795 18.554C15.5291 18.5535 15.5775 18.5384 15.6185 18.5106C15.6596 18.4827 15.6915 18.4434 15.7103 18.3975C15.7291 18.3515 15.7339 18.3011 15.7242 18.2524C15.7144 18.2038 15.6905 18.1591 15.6555 18.124C15.6325 18.1009 15.6051 18.0827 15.5748 18.0706C15.5445 18.0586 15.512 18.0529 15.4795 18.054C15.4127 18.0553 15.3491 18.0827 15.3024 18.1304C15.2556 18.1781 15.2295 18.2422 15.2295 18.309C15.2338 18.3734 15.2617 18.4339 15.3078 18.4791C15.3539 18.5243 15.415 18.5509 15.4795 18.554ZM16.8445 8.68699C16.9112 8.687 16.9752 8.66079 17.0227 8.61402C17.0702 8.56724 17.0974 8.50366 17.0985 8.43699C17.0985 8.40352 17.0919 8.37037 17.079 8.33948C17.0661 8.30858 17.0473 8.28054 17.0235 8.25699C16.9998 8.23369 16.9716 8.21546 16.9407 8.20342C16.9097 8.19139 16.8767 8.1858 16.8435 8.18699C16.7779 8.18778 16.7153 8.21453 16.6693 8.26139C16.6234 8.30825 16.5979 8.37139 16.5985 8.43699C16.5985 8.57599 16.7085 8.68699 16.8445 8.68699ZM16.7225 18.06C16.6565 18.061 16.5935 18.0877 16.5468 18.1344C16.5002 18.181 16.4735 18.244 16.4725 18.31C16.4825 18.447 16.5895 18.555 16.7225 18.56C16.7721 18.5595 16.8205 18.5444 16.8615 18.5166C16.9026 18.4887 16.9345 18.4494 16.9533 18.4035C16.9721 18.3575 16.9769 18.3071 16.9672 18.2584C16.9574 18.2098 16.9335 18.1651 16.8985 18.13C16.8755 18.1068 16.8481 18.0887 16.8178 18.0766C16.7875 18.0646 16.755 18.0589 16.7225 18.06ZM9.94547 19.743C9.9019 19.7398 9.85832 19.7491 9.81976 19.7696C9.78119 19.7901 9.7492 19.8211 9.72747 19.859C9.70439 19.8979 9.6917 19.942 9.69065 19.9872C9.6896 20.0324 9.70022 20.0771 9.72147 20.117C9.76547 20.197 9.84747 20.246 9.93547 20.242H9.94547C10.0109 20.2407 10.0732 20.2138 10.119 20.167C10.1648 20.1203 10.1905 20.0574 10.1905 19.992C10.1912 19.9283 10.1676 19.8668 10.1245 19.82C10.1015 19.7953 10.0736 19.7757 10.0426 19.7625C10.0116 19.7492 9.97819 19.7426 9.94447 19.743H9.94547ZM11.4545 19.292C11.4219 19.2923 11.3897 19.2989 11.3597 19.3116C11.3297 19.3243 11.3025 19.3428 11.2797 19.366C11.2569 19.3893 11.2388 19.4167 11.2266 19.4469C11.2144 19.4771 11.2082 19.5094 11.2085 19.542C11.2085 19.68 11.3185 19.792 11.4545 19.792C11.5212 19.792 11.5852 19.7658 11.6327 19.719C11.6802 19.6722 11.7074 19.6087 11.7085 19.542C11.7085 19.5085 11.7019 19.4754 11.689 19.4445C11.6761 19.4136 11.6573 19.3855 11.6335 19.362C11.6098 19.3387 11.5816 19.3205 11.5507 19.3084C11.5197 19.2964 11.4867 19.2908 11.4535 19.292H11.4545ZM20.7505 19.292C20.7176 19.2932 20.6854 19.3009 20.6555 19.3147C20.6257 19.3284 20.5988 19.3478 20.5765 19.3719C20.5541 19.396 20.5368 19.4243 20.5254 19.4551C20.514 19.4859 20.5087 19.5187 20.51 19.5515C20.5112 19.5843 20.5189 19.6166 20.5326 19.6464C20.5464 19.6763 20.5658 19.7032 20.5899 19.7255C20.614 19.7478 20.6423 19.7652 20.6731 19.7766C20.7039 19.788 20.7366 19.7932 20.7695 19.792C20.8358 19.7893 20.8983 19.7605 20.9433 19.7117C20.9883 19.6629 21.0121 19.5983 21.0095 19.532C21.0068 19.4657 20.9779 19.4032 20.9292 19.3581C20.8804 19.3131 20.8158 19.2893 20.7495 19.292H20.7505Z" fill="white"/>
</svg>
