<svg width="32" height="32" viewBox="0 0 32 32" fill="none" xmlns="http://www.w3.org/2000/svg">
<path d="M16 32C24.8366 32 32 24.8366 32 16C32 7.16344 24.8366 0 16 0C7.16344 0 0 7.16344 0 16C0 24.8366 7.16344 32 16 32Z" fill="#001D57"/>
<path d="M20.4991 5.28799L21.7021 6.49199L19.4251 8.83199C19.9051 9.56199 20.1631 10.423 20.1631 11.311C20.1712 12.4794 19.7193 13.6041 18.9051 14.442C18.3105 15.07 17.536 15.4983 16.6881 15.668V17.707C17.5318 17.8812 18.3033 18.3065 18.9011 18.927C19.7177 19.7657 20.1711 20.8924 20.1631 22.063C20.1709 23.2333 19.7175 24.3595 18.9011 25.198C18.5031 25.6102 18.0262 25.938 17.4987 26.1617C16.9712 26.3854 16.404 26.5005 15.8311 26.5C15.2579 26.5017 14.6903 26.3873 14.1627 26.1635C13.635 25.9397 13.1582 25.6112 12.7611 25.198C11.9471 24.358 11.4944 23.2327 11.5001 22.063C11.5001 20.883 11.9481 19.764 12.7581 18.931C13.3527 18.3034 14.1272 17.8754 14.9751 17.706V15.666C14.1313 15.4917 13.3599 15.0664 12.7621 14.446C11.9475 13.6059 11.4944 12.4801 11.5001 11.31C11.5001 10.13 11.9481 9.01099 12.7621 8.17499C13.1599 7.76258 13.6368 7.43462 14.1643 7.21074C14.6918 6.98686 15.259 6.87165 15.8321 6.87199C16.6921 6.87199 17.5191 7.13399 18.2271 7.62099L20.5001 5.28799H20.4991ZM15.8321 19.345C15.4849 19.3422 15.1409 19.4109 14.8214 19.5468C14.5019 19.6827 14.2138 19.8829 13.9751 20.135C13.4746 20.6516 13.1964 21.3437 13.2001 22.063C13.2001 22.788 13.4751 23.465 13.9751 23.99C14.2156 24.2397 14.504 24.4384 14.8231 24.5741C15.1422 24.7098 15.4853 24.7799 15.8321 24.78C16.1791 24.7826 16.5229 24.7139 16.8422 24.578C17.1615 24.4421 17.4494 24.2419 17.6881 23.99C18.1883 23.4736 18.4664 22.7819 18.4631 22.063C18.4631 21.338 18.1881 20.661 17.6851 20.132C17.4466 19.8808 17.1591 19.6814 16.8403 19.546C16.5215 19.4106 16.1784 19.3422 15.8321 19.345ZM17.6851 13.255C18.1871 12.7379 18.4664 12.0447 18.4631 11.324C18.4676 10.9674 18.4015 10.6134 18.2685 10.2825C18.1354 9.95153 17.9382 9.65025 17.6881 9.39599C17.4477 9.14632 17.1594 8.94767 16.8405 8.81193C16.5216 8.6762 16.1786 8.60615 15.8321 8.60599C15.4849 8.60321 15.1409 8.67192 14.8214 8.80783C14.5019 8.94374 14.2138 9.14395 13.9751 9.39599C13.4746 9.91263 13.1964 10.6047 13.2001 11.324C13.2001 12.049 13.4751 12.726 13.9751 13.251C14.2156 13.5007 14.504 13.6994 14.8231 13.8351C15.1422 13.9708 15.4853 14.0409 15.8321 14.041C16.5431 14.041 17.1991 13.765 17.6851 13.255Z" fill="white"/>
</svg>
