<svg width="32" height="32" viewBox="0 0 32 32" fill="none" xmlns="http://www.w3.org/2000/svg">
<path d="M16 32C24.8366 32 32 24.8366 32 16C32 7.16344 24.8366 0 16 0C7.16344 0 0 7.16344 0 16C0 24.8366 7.16344 32 16 32Z" fill="#FFF300"/>
<path d="M22.6398 9.56799C22.2998 8.80699 21.9848 7.30299 21.1148 6.96799C19.9948 6.53799 19.3038 9.35599 19.1388 10.068H18.9718C18.6898 8.84799 18.3118 7.11799 16.9718 6.73399C16.3518 9.33899 17.6198 12.148 18.8058 14.403C20.0718 13.797 20.6888 11.903 20.8058 10.568H20.9728L22.3068 14.569C23.3798 14.261 23.7528 13.199 24.1398 12.235C24.9718 10.167 25.6698 7.62299 25.1398 5.39999C23.5398 5.85399 23.0518 8.14299 22.6398 9.56799ZM6.63577 14.903C8.06777 14.219 8.74977 12.053 8.96977 10.568H9.13577C9.30577 11.284 9.75877 13.13 10.6528 13.248C11.7928 13.399 12.3898 10.871 12.4698 10.068H12.6368C12.9998 11.323 13.3828 12.956 14.6368 13.569C15.1008 11.625 14.5468 9.55199 13.8358 7.73399C13.6528 7.26699 13.2778 6.00599 12.6328 6.00599C11.5768 6.00599 10.9828 8.78999 10.8028 9.56799H10.6368L9.30277 5.56699C6.95677 6.68699 5.68277 12.644 6.63577 14.903ZM4.13477 16.903C5.87477 24.497 13.9058 28.803 21.1398 25.595C23.7624 24.4296 25.8691 22.3464 27.0638 19.737C27.3748 19.063 27.9858 17.842 27.6298 16.957C27.2748 16.075 23.8348 17.515 22.9748 17.892C22.9154 17.9183 22.8635 17.959 22.824 18.0106C22.7845 18.0621 22.7587 18.1228 22.7488 18.187C22.7347 18.2785 22.7398 18.372 22.7636 18.4615C22.7874 18.5511 22.8294 18.6347 22.8871 18.7072C22.9447 18.7797 23.0167 18.8395 23.0986 18.8828C23.1805 18.9261 23.2704 18.9521 23.3628 18.959L24.8068 19.071C22.1918 24.133 15.1208 26.371 10.1368 22.327C9.02077 21.422 8.02577 20.347 7.35577 19.071C7.03177 18.454 6.73077 17.665 6.18077 17.241C5.65077 16.835 4.84877 16.695 4.13477 16.903Z" fill="white"/>
</svg>
