<svg width="32" height="32" viewBox="0 0 32 32" fill="none" xmlns="http://www.w3.org/2000/svg">
<path d="M16 32C24.8366 32 32 24.8366 32 16C32 7.16344 24.8366 0 16 0C7.16344 0 0 7.16344 0 16C0 24.8366 7.16344 32 16 32Z" fill="#35A5F3"/>
<path d="M7.02019 7.02701C8.29019 5.70001 10.6102 5.64701 11.9212 6.93701C13.2912 8.27701 14.6472 9.62901 15.9892 10.994C17.4172 9.63701 18.7532 8.18901 20.1872 6.83801C21.5512 5.60601 23.8712 5.75501 25.0822 7.13501C26.3242 8.43701 26.3042 10.708 25.0152 11.972C23.6882 13.323 22.3442 14.654 21.0052 15.994C22.3732 17.403 23.7982 18.757 25.1552 20.184C26.3712 21.517 26.2552 23.789 24.9362 25.014C23.6392 26.324 21.3132 26.328 20.0182 25.012C18.6712 23.69 17.3532 22.336 16.0152 21.008C14.5872 22.382 13.2252 23.824 11.7822 25.184C10.4002 26.41 8.07019 26.227 6.88019 24.82C5.68019 23.521 5.71019 21.308 6.96019 20.05C8.13501 18.8472 9.32376 17.6582 10.5262 16.483L12.0332 17.988C10.8572 19.202 9.62019 20.364 8.46219 21.596C7.68119 22.396 8.36919 23.888 9.46619 23.87C10.1312 23.929 10.5902 23.378 11.0222 22.962C12.1692 21.794 13.3332 20.647 14.4802 19.479C11.9802 16.957 9.44019 14.47 6.95219 11.937C5.65419 10.629 5.69519 8.29701 7.02219 7.02701H7.02019ZM8.47319 10.417C9.79619 11.797 11.1702 13.128 12.5172 14.485C13.1672 13.827 13.8212 13.173 14.4792 12.522C13.1762 11.209 11.8782 9.88701 10.5572 8.59201C10.1362 8.13701 9.41619 7.96801 8.86719 8.29401C8.10319 8.66401 7.86219 9.80001 8.47219 10.417H8.47319ZM21.4132 8.62701C18.9272 11.067 16.4912 13.559 14.0182 16.011C14.6852 16.658 15.3502 17.307 16.0012 17.971C16.5002 17.479 16.9962 16.981 17.4932 16.483C17.9952 16.984 18.4942 17.488 19.0002 17.986C18.5092 18.486 18.0152 18.982 17.5162 19.476C18.8572 20.825 20.1722 22.199 21.5572 23.504C22.2602 24.244 23.6242 23.795 23.8272 22.82C24.0452 22.13 23.5492 21.533 23.0812 21.099C20.8778 18.9061 18.6791 16.7084 16.4852 14.506C16.9875 14.005 17.4879 13.502 17.9862 12.997C18.4862 13.495 18.9852 13.993 19.4962 14.483C20.8112 13.12 22.2052 11.833 23.5002 10.449C24.1532 9.81501 23.8922 8.60001 23.0582 8.25701C22.4982 7.96801 21.8152 8.17201 21.4122 8.62701H21.4132Z" fill="white"/>
</svg>
