<svg width="32" height="32" viewBox="0 0 32 32" fill="none" xmlns="http://www.w3.org/2000/svg">
<path d="M16 32C24.8366 32 32 24.8366 32 16C32 7.16344 24.8366 0 16 0C7.16344 0 0 7.16344 0 16C0 24.8366 7.16344 32 16 32Z" fill="#117FC0"/>
<path d="M26.4956 10.332L18.0406 24.272H12.9986L16.8736 17.875H13.0226L8.53264 25.279C10.673 27.0189 13.3511 27.9616 16.1094 27.946C18.8676 27.9304 21.5349 26.9575 23.6555 25.1935C25.776 23.4296 27.2182 20.984 27.7357 18.2746C28.2532 15.5653 27.8138 12.7603 26.4926 10.339L26.4956 10.332ZM19.1136 7.82999L15.4436 13.87H19.2996L23.5736 6.82099C21.4333 5.0811 18.7552 4.13841 15.9969 4.154C13.2386 4.16959 10.5714 5.14248 8.45083 6.90645C6.33028 8.67043 4.88806 11.116 4.37058 13.8254C3.8531 16.5347 4.29248 19.3397 5.61364 21.761L14.0656 7.83099H19.1126L19.1136 7.82999Z" fill="white"/>
</svg>
