<svg width="32" height="32" viewBox="0 0 32 32" fill="none" xmlns="http://www.w3.org/2000/svg">
<path d="M16 32C24.8366 32 32 24.8366 32 16C32 7.16344 24.8366 0 16 0C7.16344 0 0 7.16344 0 16C0 24.8366 7.16344 32 16 32Z" fill="#D59143"/>
<path d="M7.97345 16.453C7.45545 16.865 6.99345 17.597 7.01645 18.716C7.03345 19.49 7.44945 20.02 7.97345 20.38V21.762C7.97345 22.626 8.39345 23.435 9.10145 23.93L13.9544 27.249V10.29L7.97345 12.04V16.453ZM9.27645 16.045C10.2834 16.782 10.2834 21.161 10.2834 21.161C10.2834 21.161 9.14445 21.051 8.20345 20.525C8.97945 20.786 9.60245 20.728 9.87345 20.758L9.89145 20.759H9.89545L9.90945 20.761L9.94745 20.764L9.96045 20.766H9.97345C9.97345 20.766 10.1334 16.944 8.97645 16.274C8.78845 16.209 8.45645 16.247 8.09045 16.364C8.55645 16.05 9.04345 15.944 9.27645 16.045ZM14.3734 22.949H17.6364V27.255H14.3744V22.95L14.3734 22.949ZM13.6334 9.969L7.97345 11.591V5.52C7.9733 5.41914 8.00306 5.32051 8.05896 5.23656C8.11487 5.15261 8.19441 5.08713 8.28753 5.04838C8.38064 5.00964 8.48316 4.99937 8.58211 5.01888C8.68106 5.03839 8.77201 5.08681 8.84345 5.158L13.9234 10.258L13.6334 9.968V9.969ZM14.3734 16.04H17.6364V22.534H14.3744V16.04H14.3734ZM18.3664 9.97L18.1564 10.18L23.1564 5.16C23.2277 5.08858 23.3186 5.03991 23.4175 5.02014C23.5164 5.00037 23.619 5.01038 23.7123 5.04892C23.8055 5.08746 23.8852 5.15279 23.9413 5.23664C23.9974 5.3205 24.0274 5.41911 24.0274 5.52V11.59L18.3674 9.97H18.3664ZM14.3744 10.291H17.6364V15.621H14.3744V10.291ZM24.0274 16.453V12.04L18.0564 10.294V27.255L22.8994 23.93C23.2477 23.686 23.532 23.3616 23.7284 22.9844C23.9247 22.6072 24.0273 22.1882 24.0274 21.763V20.38C24.5514 20.02 24.9674 19.49 24.9844 18.716C25.0084 17.597 24.5454 16.865 24.0274 16.453ZM22.0674 20.827H22.0804L22.0924 20.826L22.1094 20.824H22.1135L22.1484 20.821H22.1504L22.1664 20.819L22.3154 20.802H22.3224C22.6484 20.76 23.0484 20.764 23.6624 20.572L23.7984 20.527C22.8564 21.053 21.7184 21.163 21.7184 21.163C21.7184 21.163 21.7184 16.785 22.7254 16.048C22.9584 15.946 23.4454 16.052 23.9104 16.368C23.5444 16.251 23.2134 16.213 23.0244 16.278C21.8674 16.947 22.0664 20.828 22.0664 20.828L22.0674 20.827Z" fill="white"/>
</svg>
