<svg width="32" height="32" viewBox="0 0 32 32" fill="none" xmlns="http://www.w3.org/2000/svg">
<path d="M16 32C24.8366 32 32 24.8366 32 16C32 7.16344 24.8366 0 16 0C7.16344 0 0 7.16344 0 16C0 24.8366 7.16344 32 16 32Z" fill="#2A3069"/>
<path d="M18.347 10.533C18.347 7.01301 16.64 4.02701 15.36 3.06701C15.36 3.06701 15.253 2.96001 15.253 3.17301C15.147 9.89301 11.733 11.707 9.92003 14.267C5.54703 19.92 9.60003 26.213 13.76 27.387C16.107 28.027 13.227 26.213 12.907 22.48C12.373 17.787 18.347 14.373 18.347 10.533Z" fill="white"/>
<path d="M20.5868 12.88C20.3728 13.733 19.5198 15.547 18.3468 17.253C14.3998 22.907 16.6398 25.68 17.9198 27.173C18.6668 28.027 17.9198 27.173 19.7328 26.32C19.8398 26.213 23.3598 24.4 23.6798 20.24C24.1068 16.187 21.5468 13.627 20.5868 12.88Z" fill="white"/>
</svg>
