<svg width="32" height="32" viewBox="0 0 32 32" fill="none" xmlns="http://www.w3.org/2000/svg">
<path d="M16 32C24.8366 32 32 24.8366 32 16C32 7.16344 24.8366 0 16 0C7.16344 0 0 7.16344 0 16C0 24.8366 7.16344 32 16 32Z" fill="#005FFA"/>
<path fill-rule="evenodd" clip-rule="evenodd" d="M20.6943 14.598C20.2514 14.3968 19.7706 14.2928 19.2843 14.293H14.3673C13.9137 14.293 13.4788 14.1128 13.1581 13.7921C12.8374 13.4715 12.6573 13.0365 12.6573 12.583V6.69299H9.23926V14.293C9.23926 15.2 9.59958 16.0699 10.241 16.7113C10.8823 17.3527 11.7522 17.713 12.6593 17.713H17.5753C18.0288 17.713 18.4637 17.8932 18.7844 18.2138C19.1051 18.5345 19.2853 18.9695 19.2853 19.423V25.313H22.7043V17.713C22.7042 17.0555 22.5146 16.4119 22.1581 15.8594C21.8016 15.3069 21.2933 14.869 20.6943 14.598ZM9.35626 19.803V25.547H12.7763V23.222C12.776 22.3151 12.4156 21.4455 11.7742 20.8043C11.1329 20.1632 10.2631 19.803 9.35626 19.803ZM19.8803 6.92899H19.1663V9.25399C19.1663 10.161 19.5266 11.0309 20.168 11.6723C20.8093 12.3137 21.6792 12.674 22.5863 12.674V6.92799H19.8803V6.92899Z" fill="white"/>
</svg>
