<svg width="32" height="32" viewBox="0 0 32 32" fill="none" xmlns="http://www.w3.org/2000/svg">
<path d="M16 32C24.8366 32 32 24.8366 32 16C32 7.16344 24.8366 0 16 0C7.16344 0 0 7.16344 0 16C0 24.8366 7.16344 32 16 32Z" fill="#B2A3F6"/>
<path d="M13.446 12.287C12.686 12.287 12.071 11.686 12.071 10.945C12.071 10.204 12.686 9.602 13.446 9.602C14.205 9.602 14.821 10.203 14.821 10.945C14.821 11.687 14.205 12.287 13.446 12.287ZM17.373 10.753C16.614 10.753 15.998 10.152 15.998 9.411C15.998 8.669 16.614 8.068 17.373 8.068C18.133 8.068 18.748 8.669 18.748 9.411C18.748 10.152 18.133 10.753 17.373 10.753ZM18.946 19.958C18.186 19.958 17.571 19.358 17.571 18.616C17.571 17.874 18.186 17.273 18.946 17.273C19.705 17.273 20.321 17.874 20.321 18.616C20.321 19.358 19.705 19.958 18.946 19.958ZM5.78602 18.04C5.68403 18.0413 5.58278 18.0225 5.48806 17.9847C5.39334 17.9468 5.30701 17.8907 5.23401 17.8194C5.16101 17.7482 5.10277 17.6633 5.06262 17.5695C5.02247 17.4757 5.0012 17.375 5.00002 17.273C5.00002 16.85 5.35202 16.506 5.78502 16.506C6.21802 16.506 6.57102 16.85 6.57102 17.273C6.56985 17.375 6.54858 17.4757 6.50843 17.5695C6.46828 17.6633 6.41004 17.7482 6.33704 17.8194C6.26403 17.8907 6.1777 17.9468 6.08299 17.9847C5.98827 18.0225 5.88701 18.0413 5.78502 18.04H5.78602ZM7.94602 23.028C7.86946 23.0289 7.79347 23.0148 7.72238 22.9863C7.65129 22.9579 7.58651 22.9157 7.53172 22.8622C7.47693 22.8087 7.43321 22.745 7.40307 22.6746C7.37292 22.6042 7.35694 22.5286 7.35602 22.452C7.35602 22.134 7.62002 21.877 7.94602 21.877C8.27202 21.877 8.53602 22.134 8.53602 22.452C8.53511 22.5286 8.51912 22.6042 8.48898 22.6746C8.45883 22.745 8.41512 22.8087 8.36033 22.8622C8.30554 22.9157 8.24075 22.9579 8.16967 22.9863C8.09858 23.0148 8.02259 23.0289 7.94602 23.028ZM14.231 26.863C13.905 26.863 13.641 26.605 13.641 26.287C13.641 25.969 13.905 25.712 14.231 25.712C14.557 25.712 14.821 25.969 14.821 26.287C14.821 26.605 14.557 26.863 14.231 26.863ZM24.446 23.411C24.12 23.411 23.856 23.153 23.856 22.835C23.856 22.517 24.12 22.259 24.446 22.259C24.771 22.259 25.036 22.517 25.036 22.835C25.036 23.153 24.771 23.411 24.446 23.411ZM18.16 22.261C18.0835 22.2619 18.0075 22.2478 17.9364 22.2193C17.8653 22.1909 17.8005 22.1487 17.7457 22.0952C17.6909 22.0417 17.6472 21.978 17.6171 21.9076C17.5869 21.8372 17.5709 21.7616 17.57 21.685C17.57 21.367 17.835 21.11 18.16 21.11C18.485 21.11 18.75 21.367 18.75 21.685C18.7491 21.7616 18.7331 21.8372 18.703 21.9076C18.6728 21.978 18.6291 22.0417 18.5743 22.0952C18.5195 22.1487 18.4548 22.1909 18.3837 22.2193C18.3126 22.2478 18.2366 22.2619 18.16 22.261ZM21.696 19.576C21.37 19.576 21.106 19.318 21.106 19C21.106 18.682 21.37 18.425 21.696 18.425C22.021 18.425 22.286 18.682 22.286 19C22.286 19.318 22.021 19.576 21.696 19.576ZM17.571 26.863C17.137 26.863 16.785 26.519 16.785 26.096C16.785 25.673 17.137 25.329 17.571 25.329C18.004 25.329 18.356 25.672 18.356 26.096C18.356 26.52 18.004 26.863 17.571 26.863ZM21.106 17.273C21.0041 17.2742 20.903 17.2553 20.8084 17.2174C20.7138 17.1795 20.6276 17.1233 20.5547 17.0521C20.4818 16.9809 20.4236 16.896 20.3835 16.8023C20.3434 16.7086 20.3222 16.6079 20.321 16.506C20.321 16.083 20.672 15.739 21.106 15.739C21.54 15.739 21.891 16.083 21.891 16.506C21.8898 16.6079 21.8686 16.7086 21.8285 16.8023C21.7884 16.896 21.7303 16.9809 21.6574 17.0521C21.5845 17.1233 21.4983 17.1795 21.4037 17.2174C21.3091 17.2553 21.2079 17.2742 21.106 17.273ZM22.286 24.945C22.184 24.9463 22.0828 24.9275 21.9881 24.8897C21.8933 24.8518 21.807 24.7957 21.734 24.7244C21.661 24.6532 21.6028 24.5683 21.5626 24.4745C21.5225 24.3808 21.5012 24.28 21.5 24.178C21.5 23.754 21.852 23.411 22.285 23.411C22.719 23.411 23.071 23.754 23.071 24.178C23.0698 24.28 23.0486 24.3808 23.0084 24.4745C22.9683 24.5683 22.91 24.6532 22.837 24.7244C22.764 24.7957 22.6777 24.8518 22.583 24.8897C22.4883 24.9275 22.387 24.9463 22.285 24.945H22.286ZM6.76502 21.11C6.22302 21.11 5.78302 20.68 5.78302 20.151C5.78302 19.622 6.22302 19.193 6.76502 19.193C7.30702 19.193 7.74702 19.623 7.74702 20.151C7.74702 20.679 7.30702 21.11 6.76502 21.11ZM16.195 24.945C15.435 24.945 14.82 24.344 14.82 23.602C14.82 22.86 15.435 22.259 16.195 22.259C16.954 22.259 17.57 22.861 17.57 23.602C17.57 24.343 16.954 24.945 16.195 24.945ZM8.73002 18.425C7.97002 18.425 7.35502 17.823 7.35502 17.082C7.35502 16.341 7.97002 15.739 8.73002 15.739C9.49002 15.739 10.105 16.34 10.105 17.082C10.105 17.824 9.48902 18.425 8.73002 18.425ZM16.195 21.492C15.652 21.492 15.212 21.063 15.212 20.534C15.212 20.005 15.652 19.576 16.195 19.576C16.737 19.576 17.177 20.005 17.177 20.534C17.177 21.063 16.737 21.492 16.195 21.492ZM11.48 13.056C11.154 13.056 10.89 12.798 10.89 12.48C10.89 12.162 11.154 11.904 11.48 11.904C11.806 11.904 12.07 12.162 12.07 12.48C12.07 12.798 11.806 13.056 11.48 13.056ZM15.212 15.356C14.562 15.356 14.034 14.841 14.034 14.206C14.034 13.57 14.562 13.054 15.212 13.054C15.862 13.054 16.39 13.57 16.39 14.205C16.39 14.841 15.863 15.357 15.212 15.357V15.356ZM17.962 16.506C17.8601 16.5072 17.759 16.4883 17.6644 16.4504C17.5698 16.4125 17.4836 16.3563 17.4107 16.2851C17.3378 16.2139 17.2796 16.129 17.2395 16.0353C17.1994 15.9416 17.1782 15.8409 17.177 15.739C17.177 15.316 17.528 14.972 17.962 14.972C18.396 14.972 18.747 15.316 18.747 15.739C18.7458 15.8409 18.7246 15.9416 18.6845 16.0353C18.6444 16.129 18.5863 16.2139 18.5134 16.2851C18.4405 16.3563 18.3543 16.4125 18.2597 16.4504C18.1651 16.4883 18.0639 16.5072 17.962 16.506ZM19.337 6.918C19.011 6.918 18.747 6.661 18.747 6.343C18.747 6.025 19.011 5.767 19.337 5.767C19.663 5.767 19.927 6.025 19.927 6.343C19.927 6.661 19.663 6.918 19.337 6.918ZM16.587 6.917C16.4596 6.91858 16.333 6.89503 16.2147 6.84768C16.0963 6.80033 15.9884 6.73011 15.8972 6.64104C15.806 6.55198 15.7333 6.44581 15.6831 6.32861C15.633 6.2114 15.6065 6.08547 15.605 5.958C15.6066 5.83061 15.6332 5.70478 15.6834 5.5877C15.7336 5.47061 15.8064 5.36456 15.8976 5.2756C15.9888 5.18664 16.0966 5.11651 16.2149 5.06922C16.3332 5.02193 16.4596 4.99841 16.587 5C16.7145 4.99828 16.841 5.0217 16.9595 5.06893C17.0779 5.11616 17.1858 5.18626 17.2771 5.27524C17.3684 5.36421 17.4413 5.47031 17.4915 5.58746C17.5418 5.70461 17.5685 5.83053 17.57 5.958C17.5686 6.08555 17.542 6.21157 17.4918 6.32884C17.4416 6.44611 17.3688 6.55232 17.2774 6.6414C17.1861 6.73048 17.0782 6.80068 16.9597 6.84797C16.8412 6.89526 16.7146 6.91871 16.587 6.917ZM17.177 13.054C16.743 13.054 16.392 12.711 16.392 12.287C16.392 11.863 16.743 11.52 17.177 11.52C17.611 11.52 17.962 11.864 17.962 12.287C17.962 12.71 17.611 13.054 17.177 13.054ZM9.71202 21.494C9.06202 21.494 8.53402 20.979 8.53402 20.343C8.53402 19.707 9.06202 19.192 9.71202 19.192C10.362 19.192 10.89 19.707 10.89 20.342C10.89 20.979 10.363 21.494 9.71202 21.494ZM21.105 22.644C20.455 22.644 19.927 22.128 19.927 21.492C19.927 20.857 20.454 20.342 21.105 20.342C21.756 20.342 22.283 20.857 22.283 21.492C22.283 22.128 21.755 22.644 21.105 22.644ZM19.535 25.329C18.884 25.329 18.356 24.813 18.356 24.178C18.356 23.542 18.884 23.026 19.534 23.026C20.184 23.026 20.712 23.542 20.712 24.178C20.712 24.813 20.185 25.328 19.534 25.328L19.535 25.329ZM10.302 25.329C9.54202 25.329 8.92702 24.728 8.92702 23.986C8.92702 23.244 9.54302 22.644 10.302 22.644C11.061 22.644 11.677 23.244 11.677 23.986C11.677 24.728 11.061 25.329 10.302 25.329ZM6.17702 15.357C5.52702 15.357 4.99902 14.841 4.99902 14.205C4.99902 13.57 5.52602 13.055 6.17702 13.055C6.82802 13.055 7.35502 13.57 7.35502 14.205C7.35502 14.841 6.82702 15.357 6.17702 15.357Z" fill="white"/>
<path opacity="0.5" d="M12.0703 17.273C11.2023 17.273 10.4983 16.587 10.4983 15.739C10.4983 14.892 11.2023 14.205 12.0713 14.205C12.9403 14.205 13.6433 14.892 13.6433 15.739C13.6433 16.587 12.9393 17.273 12.0713 17.273H12.0703ZM20.3203 14.973C19.4523 14.973 18.7483 14.286 18.7483 13.438C18.7483 12.591 19.4523 11.904 20.3213 11.904C21.1893 11.904 21.8933 12.591 21.8933 13.438C21.8933 14.286 21.1893 14.972 20.3213 14.972L20.3203 14.973ZM24.6413 21.494C23.9913 21.494 23.4633 20.979 23.4633 20.343C23.4633 19.707 23.9913 19.192 24.6413 19.192C25.2913 19.192 25.8193 19.707 25.8193 20.342C25.8193 20.979 25.2923 21.494 24.6413 21.494ZM25.8213 16.891C25.6683 16.8927 25.5165 16.8643 25.3745 16.8073C25.2325 16.7503 25.1031 16.666 24.9937 16.559C24.8843 16.452 24.797 16.3245 24.7369 16.1838C24.6768 16.0431 24.645 15.892 24.6433 15.739C24.6433 15.104 25.1703 14.589 25.8213 14.589C26.4713 14.589 26.9983 15.104 26.9983 15.739C26.9983 16.375 26.4713 16.891 25.8213 16.891ZM21.3033 11.521C21.1757 11.5226 21.0491 11.499 20.9307 11.4516C20.8123 11.4042 20.7044 11.3339 20.6132 11.2447C20.5219 11.1555 20.4492 11.0492 20.3991 10.9319C20.349 10.8146 20.3226 10.6885 20.3213 10.561C20.3229 10.4336 20.3495 10.3078 20.3997 10.1907C20.4499 10.0736 20.5227 9.96755 20.6139 9.87859C20.705 9.78963 20.8129 9.7195 20.9312 9.67221C21.0495 9.62492 21.1759 9.6014 21.3033 9.60299C21.4308 9.6014 21.5573 9.62496 21.6756 9.67231C21.794 9.71966 21.9019 9.78987 21.9931 9.87894C22.0843 9.96801 22.157 10.0742 22.2072 10.1914C22.2573 10.3086 22.2839 10.4345 22.2853 10.562C22.2837 10.6894 22.2571 10.8152 22.2069 10.9323C22.1567 11.0494 22.0839 11.1554 21.9927 11.2444C21.9015 11.3333 21.7937 11.4035 21.6754 11.4508C21.5571 11.498 21.4307 11.5216 21.3033 11.52V11.521ZM21.4983 8.45199C21.0653 8.45199 20.7133 8.10899 20.7133 7.68499C20.7133 7.26099 21.0653 6.91799 21.4983 6.91799C21.9323 6.91799 22.2843 7.26199 22.2843 7.68499C22.2843 8.10799 21.9323 8.45199 21.4983 8.45199ZM23.2663 9.21899C22.9403 9.21899 22.6763 8.96099 22.6763 8.64399C22.6763 8.32699 22.9403 8.06799 23.2663 8.06799C23.5923 8.06799 23.8563 8.32599 23.8563 8.64399C23.8563 8.96199 23.5923 9.21899 23.2663 9.21899ZM26.4103 13.823C26.0853 13.823 25.8203 13.565 25.8203 13.247C25.8203 12.929 26.0853 12.671 26.4103 12.671C26.7353 12.671 27.0003 12.929 27.0003 13.247C27.0003 13.565 26.7363 13.823 26.4103 13.823ZM9.51629 8.83599C9.19029 8.83599 8.92629 8.57899 8.92629 8.26099C8.92629 7.94299 9.19029 7.68499 9.51629 7.68499C9.84229 7.68499 10.1063 7.94299 10.1063 8.26099C10.1063 8.57899 9.84229 8.83599 9.51629 8.83599ZM8.73129 13.823C8.40529 13.823 8.14129 13.565 8.14129 13.247C8.14129 12.929 8.40529 12.671 8.73129 12.671C9.05729 12.671 9.32129 12.929 9.32129 13.247C9.32129 13.565 9.05729 13.823 8.73129 13.823ZM10.3033 14.59C9.97729 14.59 9.71329 14.332 9.71329 14.014C9.71329 13.696 9.97729 13.438 10.3033 13.438C10.6293 13.438 10.8933 13.696 10.8933 14.014C10.8933 14.332 10.6293 14.59 10.3033 14.59ZM12.2663 7.29999C11.9403 7.29999 11.6763 7.04199 11.6763 6.72399C11.6763 6.40599 11.9403 6.14899 12.2663 6.14899C12.5923 6.14899 12.8563 6.40599 12.8563 6.72399C12.8563 7.04199 12.5923 7.29999 12.2663 7.29999ZM26.4103 18.809C26.0853 18.809 25.8203 18.551 25.8203 18.233C25.8203 17.915 26.0853 17.658 26.4103 17.658C26.7353 17.658 27.0003 17.915 27.0003 18.233C27.0003 18.551 26.7363 18.809 26.4103 18.809ZM24.4463 12.671C23.6863 12.671 23.0713 12.071 23.0713 11.329C23.0713 10.587 23.6863 9.98599 24.4463 9.98599C25.2053 9.98599 25.8213 10.587 25.8213 11.329C25.8213 12.07 25.2053 12.671 24.4463 12.671ZM23.2663 15.739C23.1389 15.7406 23.0125 15.717 22.8942 15.6698C22.7759 15.6225 22.668 15.5523 22.5769 15.4634C22.4857 15.3744 22.4129 15.2684 22.3627 15.1513C22.3125 15.0342 22.2859 14.9084 22.2843 14.781C22.2843 14.251 22.7243 13.823 23.2663 13.823C23.3937 13.8214 23.5201 13.8449 23.6384 13.8922C23.7567 13.9395 23.8645 14.0096 23.9557 14.0986C24.0469 14.1875 24.1197 14.2936 24.1699 14.4107C24.2201 14.5278 24.2467 14.6536 24.2483 14.781C24.2467 14.9084 24.2201 15.0342 24.1699 15.1513C24.1197 15.2684 24.0469 15.3744 23.9557 15.4634C23.8645 15.5523 23.7567 15.6225 23.6384 15.6698C23.5201 15.717 23.3937 15.7406 23.2663 15.739ZM9.91029 11.52C9.7829 11.5216 9.65645 11.498 9.53816 11.4508C9.41987 11.4035 9.31205 11.3333 9.22086 11.2444C9.12967 11.1554 9.0569 11.0494 9.0067 10.9323C8.9565 10.8152 8.92986 10.6894 8.92829 10.562C8.92829 10.032 9.36829 9.60299 9.91029 9.60299C10.4523 9.60299 10.8933 10.033 10.8933 10.562C10.8917 10.6895 10.865 10.8154 10.8148 10.9325C10.7645 11.0497 10.6917 11.1558 10.6004 11.2447C10.5091 11.3337 10.4011 11.4038 10.2827 11.4511C10.1643 11.4983 10.0378 11.5217 9.91029 11.52ZM14.2303 8.83499C14.1029 8.83657 13.9765 8.81305 13.8582 8.76576C13.7399 8.71847 13.632 8.64835 13.5409 8.55939C13.4497 8.47043 13.3769 8.36437 13.3267 8.24729C13.2765 8.1302 13.2499 8.00437 13.2483 7.87699C13.2483 7.34699 13.6883 6.91799 14.2313 6.91799C14.7743 6.91799 15.2133 7.34799 15.2133 7.87699C15.2117 8.00437 15.1851 8.1302 15.1349 8.24729C15.0847 8.36437 15.0119 8.47043 14.9207 8.55939C14.8295 8.64835 14.7217 8.71847 14.6034 8.76576C14.4851 8.81305 14.3587 8.83657 14.2313 8.83499H14.2303ZM11.6783 9.21899C11.2443 9.21899 10.8933 8.87599 10.8933 8.45199C10.8933 8.02799 11.2443 7.68499 11.6783 7.68499C12.1123 7.68499 12.4633 8.02899 12.4633 8.45199C12.4633 8.87499 12.1123 9.21899 11.6783 9.21899ZM7.35629 12.287C7.25438 12.2882 7.15324 12.2693 7.05863 12.2314C6.96403 12.1935 6.87782 12.1373 6.80492 12.0661C6.73203 11.9949 6.67388 11.91 6.63379 11.8163C6.5937 11.7226 6.57246 11.6219 6.57129 11.52C6.57129 11.097 6.92229 10.753 7.35629 10.753C7.79029 10.753 8.14129 11.097 8.14129 11.52C8.14011 11.6219 8.11888 11.7226 8.07879 11.8163C8.0387 11.91 7.98055 11.9949 7.90765 12.0661C7.83476 12.1373 7.74855 12.1935 7.65394 12.2314C7.55934 12.2693 7.4582 12.2882 7.35629 12.287ZM23.8563 18.425C23.7544 18.4262 23.6532 18.4073 23.5586 18.3694C23.464 18.3315 23.3778 18.2753 23.3049 18.2041C23.232 18.1329 23.1739 18.048 23.1338 17.9543C23.0937 17.8606 23.0725 17.7599 23.0713 17.658C23.0713 17.234 23.4223 16.891 23.8563 16.891C24.2903 16.891 24.6413 17.234 24.6413 17.658C24.6401 17.7599 24.6189 17.8606 24.5788 17.9543C24.5387 18.048 24.4805 18.1329 24.4077 18.2041C24.3348 18.2753 24.2486 18.3315 24.1539 18.3694C24.0593 18.4073 23.9582 18.4262 23.8563 18.425ZM15.4103 18.809C14.6503 18.809 14.0353 18.208 14.0353 17.466C14.0353 16.724 14.6513 16.124 15.4103 16.124C16.1703 16.124 16.7853 16.724 16.7853 17.466C16.7853 18.208 16.1703 18.809 15.4103 18.809ZM12.8563 19.576C12.7544 19.5772 12.6532 19.5583 12.5586 19.5204C12.464 19.4825 12.3778 19.4263 12.3049 19.3551C12.232 19.2839 12.1739 19.199 12.1338 19.1053C12.0937 19.0116 12.0725 18.9109 12.0713 18.809C12.0713 18.385 12.4223 18.042 12.8563 18.042C13.2903 18.042 13.6413 18.385 13.6413 18.809C13.6401 18.9109 13.6189 19.0116 13.5788 19.1053C13.5387 19.199 13.4806 19.2839 13.4077 19.3551C13.3348 19.4263 13.2485 19.4825 13.1539 19.5204C13.0593 19.5583 12.9582 19.5772 12.8563 19.576ZM13.2483 22.644C12.5983 22.644 12.0713 22.128 12.0713 21.492C12.0713 20.857 12.5983 20.342 13.2483 20.342C13.8983 20.342 14.4263 20.857 14.4263 21.492C14.4263 22.128 13.8993 22.644 13.2483 22.644ZM13.2483 24.944C13.0426 24.9464 12.8445 24.8671 12.6973 24.7234C12.5501 24.5798 12.4659 24.3836 12.4633 24.178C12.4633 23.754 12.8153 23.411 13.2483 23.411C13.6813 23.411 14.0343 23.754 14.0343 24.178C14.0331 24.28 14.0118 24.3807 13.9717 24.4745C13.9315 24.5683 13.8733 24.6532 13.8003 24.7244C13.7273 24.7957 13.641 24.8518 13.5463 24.8897C13.4515 24.9275 13.3503 24.9463 13.2483 24.945V24.944Z" fill="white"/>
</svg>
