<svg width="32" height="32" viewBox="0 0 32 32" fill="none" xmlns="http://www.w3.org/2000/svg">
<path d="M16 32C24.8366 32 32 24.8366 32 16C32 7.16344 24.8366 0 16 0C7.16344 0 0 7.16344 0 16C0 24.8366 7.16344 32 16 32Z" fill="#0CAFA5"/>
<path d="M8.41254 11.919C8.37954 11.899 8.35254 11.915 8.35254 11.954V14.256C8.35361 14.277 8.3596 14.2974 8.37002 14.3157C8.38044 14.3339 8.39501 14.3494 8.41254 14.361L11.3225 16.043C11.3401 16.0546 11.3546 16.0701 11.3651 16.0884C11.3755 16.1066 11.3815 16.127 11.3825 16.148V24.478C11.3839 24.4991 11.3902 24.5197 11.401 24.5379C11.4118 24.5561 11.4267 24.5716 11.4445 24.583L13.4375 25.733C13.4705 25.753 13.4975 25.737 13.4975 25.698V14.928C13.4966 14.9069 13.4907 14.8862 13.4803 14.8678C13.4698 14.8494 13.4552 14.8337 13.4375 14.822L8.41254 11.919ZM23.5865 11.919C23.6195 11.899 23.6465 11.915 23.6465 11.954V14.256C23.6455 14.277 23.6395 14.2974 23.6291 14.3157C23.6186 14.3339 23.6041 14.3494 23.5865 14.361L20.6765 16.041C20.6589 16.0527 20.6442 16.0684 20.6338 16.0868C20.6234 16.1052 20.6175 16.1259 20.6165 16.147V24.477C20.6154 24.4982 20.6093 24.5189 20.5987 24.5373C20.5881 24.5557 20.5733 24.5714 20.5555 24.583L18.5625 25.733C18.5285 25.753 18.5015 25.737 18.5015 25.698V14.928C18.5025 14.9069 18.5085 14.8863 18.5189 14.8679C18.5293 14.8494 18.5439 14.8337 18.5615 14.822L23.5865 11.919Z" fill="white"/>
<path d="M23.9796 7.50299C23.9796 7.46499 23.9526 7.44899 23.9196 7.46799L16.0596 12.014C16.0409 12.0233 16.0204 12.0282 15.9996 12.0282C15.9787 12.0282 15.9582 12.0233 15.9396 12.014L8.07955 7.46799C8.04555 7.44799 8.01855 7.46499 8.01855 7.50299V9.80499C8.01963 9.82597 8.02561 9.8464 8.03604 9.86464C8.04646 9.88288 8.06102 9.89842 8.07856 9.90999L14.8826 13.844C14.9 13.8556 14.9146 13.8712 14.925 13.8894C14.9354 13.9076 14.9414 13.928 14.9426 13.949V28.234C14.9436 28.2552 14.9496 28.2759 14.9603 28.2944C14.9709 28.3128 14.9857 28.3284 15.0036 28.34L15.9386 28.88C15.9575 28.8893 15.9784 28.8942 15.9996 28.8942C16.0207 28.8942 16.0416 28.8893 16.0606 28.88L16.9956 28.34C17.0132 28.3283 17.0279 28.3126 17.0383 28.2942C17.0487 28.2758 17.0546 28.2551 17.0556 28.234V13.95C17.0568 13.9289 17.063 13.9085 17.0736 13.8902C17.0842 13.872 17.0989 13.8565 17.1166 13.845L23.9196 9.90999C23.9372 9.89832 23.9519 9.88263 23.9623 9.8642C23.9727 9.84578 23.9786 9.82514 23.9796 9.80399V7.50399V7.50299ZM16.0356 13.319C16.0276 13.319 16.0246 13.313 16.0286 13.306C16.0326 13.299 16.0386 13.299 16.0426 13.306C16.0466 13.313 16.0426 13.319 16.0356 13.319Z" fill="white"/>
<path d="M15.0114 7.202C14.9921 7.20625 14.9749 7.21684 14.9624 7.23207C14.9499 7.2473 14.9428 7.26629 14.9424 7.286V10.159C14.9436 10.18 14.9498 10.2005 14.9604 10.2187C14.971 10.237 14.9857 10.2525 15.0034 10.264L15.9384 10.804C15.9764 10.824 16.0214 10.824 16.0604 10.804L16.9954 10.264C17.0129 10.2524 17.0274 10.2368 17.0378 10.2186C17.0482 10.2004 17.0542 10.18 17.0554 10.159V7.285C17.0552 7.26538 17.0484 7.24641 17.036 7.23116C17.0237 7.21591 17.0065 7.20528 16.9874 7.201L16.0674 7.032C16.022 7.0251 15.9758 7.0251 15.9304 7.032L15.0114 7.202Z" fill="white"/>
</svg>
