<svg width="32" height="32" viewBox="0 0 32 32" fill="none" xmlns="http://www.w3.org/2000/svg">
<path d="M16 32C24.8366 32 32 24.8366 32 16C32 7.16344 24.8366 0 16 0C7.16344 0 0 7.16344 0 16C0 24.8366 7.16344 32 16 32Z" fill="#00D4D5"/>
<path d="M16.5186 5V10.457L21.2566 7.732L16.5186 5Z" fill="white"/>
<path opacity="0.9" d="M21.2568 7.73199V13.189L25.9938 10.457L21.2568 7.73199Z" fill="white"/>
<path opacity="0.8" d="M16.5186 10.457V15.914L21.2566 13.189L16.5186 10.457ZM21.2566 13.19V18.646L25.9936 15.914L21.2566 13.19Z" fill="white"/>
<path opacity="0.8" d="M16.5186 15.914V21.371L21.2566 18.646L16.5186 15.914Z" fill="white"/>
<path d="M21.2568 18.646V24.103L25.9938 21.371L21.2568 18.646Z" fill="white"/>
<path opacity="0.4" d="M4.27344 10.273V15.73L9.01144 12.998L4.27344 10.273Z" fill="white"/>
<path opacity="0.2" d="M10.25 12.302V17.759L14.98 15.034L10.25 12.302Z" fill="white"/>
<path opacity="0.3" d="M6.73828 15.753V21.21L11.4753 18.478L6.73828 15.753Z" fill="white"/>
<path opacity="0.9" d="M9.86035 19.871V25.328L14.5904 22.596L9.86035 19.871Z" fill="white"/>
<path opacity="0.7" d="M16.4805 22.22V27.678L21.2105 24.945L16.4805 22.22Z" fill="white"/>
<path opacity="0.9" d="M11.0391 9.60699V15.065L15.7691 12.34L11.0391 9.60699Z" fill="white"/>
<path opacity="0.8" d="M16.5192 5V10.457L11.7812 7.732L16.5192 5Z" fill="white"/>
<path opacity="0.6" d="M11.0388 7.32001V12.776L6.2998 10.044L11.0388 7.32001Z" fill="white"/>
<path opacity="0.6" d="M15.7771 10.02V15.478L11.0391 12.745L15.7771 10.02Z" fill="white"/>
<path opacity="0.95" d="M10.2282 12.302V17.759L5.49023 15.034L10.2282 12.302Z" fill="white"/>
<path opacity="0.6" d="M16.5191 15.914V21.371L11.7891 18.646L16.5191 15.914Z" fill="white"/>
<path opacity="0.55" d="M6.738 17.185V22.642L2 19.909L6.738 17.185Z" fill="white"/>
<path d="M25.9938 10.457V15.914L21.2568 13.189L25.9938 10.457Z" fill="white"/>
<path opacity="0.95" d="M21.2566 13.19V18.646L16.5186 15.914L21.2566 13.19Z" fill="white"/>
<path opacity="0.9" d="M25.9938 15.914V21.371L21.2568 18.646L25.9938 15.914Z" fill="white"/>
<path opacity="0.7" d="M21.2566 18.646V24.103L16.5186 21.371L21.2566 18.646Z" fill="white"/>
<path opacity="0.4" d="M15.4704 20.92V26.377L10.7334 23.652L15.4704 20.92Z" fill="white"/>
<path d="M21.2566 7.73199V13.189L16.5186 10.457L21.2566 7.73199Z" fill="white"/>
</svg>
