<svg width="32" height="32" viewBox="0 0 32 32" fill="none" xmlns="http://www.w3.org/2000/svg">
<path d="M16 32C24.8366 32 32 24.8366 32 16C32 7.16344 24.8366 0 16 0C7.16344 0 0 7.16344 0 16C0 24.8366 7.16344 32 16 32Z" fill="#EA0017"/>
<path d="M20.7174 15.412C20.7484 15.412 20.8234 15.444 20.8874 15.482C21.0634 15.589 21.1544 15.804 21.1374 16.062C21.1274 16.238 21.0844 16.358 20.9074 16.718C20.7874 16.962 20.5614 17.371 20.4074 17.628C20.1414 18.066 20.0144 18.296 20.0144 18.331C20.0144 18.341 20.1944 18.179 20.4144 17.971C20.8264 17.583 21.1154 17.399 21.2464 17.441C21.4234 17.498 21.4764 17.833 21.3594 18.169C21.2924 18.369 21.1124 18.733 20.9324 19.04C20.8284 19.21 20.8194 19.244 20.9944 19.144L21.1404 19.058C21.5044 18.839 21.7374 18.815 21.8644 18.988C22.0044 19.178 21.9804 19.757 21.8074 20.258C21.7684 20.371 21.7474 20.473 21.7574 20.484C21.7684 20.494 21.8774 20.459 21.9974 20.406C22.1214 20.35 22.3054 20.286 22.4114 20.262C22.7674 20.177 22.9194 20.329 22.9864 20.833C23.0464 21.271 22.8804 21.635 22.5764 21.744C22.5244 21.762 22.5164 21.754 22.5344 21.688C22.5484 21.642 22.5664 21.561 22.5804 21.504C22.5984 21.412 22.5944 21.409 22.5304 21.444C22.4284 21.497 22.3124 21.709 22.2704 21.921C22.1434 22.549 21.9844 22.859 21.5674 23.283C21.1084 23.749 20.6324 24.063 19.8914 24.395C19.5454 24.55 19.0584 24.857 18.5394 25.249L18.3874 25.365L18.0874 25.09L17.9374 24.958C17.6364 24.704 17.3344 24.506 17.0924 24.408C17.0201 24.3805 16.9484 24.3515 16.8774 24.321C16.8704 24.314 16.9304 24.236 17.0114 24.144C17.0903 24.0529 17.1514 23.9477 17.1914 23.834C17.2414 23.639 17.2684 23.594 17.3784 23.53C17.5054 23.46 17.7104 23.516 18.1974 23.76C18.4124 23.865 18.5954 23.954 18.6134 23.954C18.6524 23.954 18.6454 23.851 18.5954 23.721C18.5574 23.615 18.5714 23.551 18.7334 23.064C18.9484 22.422 19.0054 22.189 18.9634 22.146C18.9104 22.093 18.8674 22.178 18.6204 22.806C18.4904 23.135 18.3774 23.414 18.3704 23.421C18.3594 23.431 18.2814 23.403 18.1934 23.361C18.0484 23.29 18.0344 23.269 18.0524 23.191C18.1544 22.781 18.2144 21.857 18.1514 21.631C18.1054 21.472 18.0554 21.539 18.0134 21.818C17.9214 22.411 17.8194 22.881 17.7774 22.923C17.7374 22.962 17.7134 22.951 17.6354 22.859L17.5444 22.746V19.43L18.3274 18.42L18.4884 18.212C19.7414 16.595 20.1004 16.129 20.3784 15.773C20.5334 15.575 20.6854 15.413 20.7174 15.413V15.412ZM13.8454 20.432C14.1804 20.113 14.2554 20.085 14.3714 20.248C14.4594 20.368 14.5084 20.65 14.5084 21.035V21.352L14.6714 21.525L14.7374 21.601C14.8024 21.681 14.8614 21.771 14.8824 21.821C14.9354 21.952 14.9574 22.453 14.9144 22.623C14.9004 22.679 14.9354 22.785 15.0314 22.969C15.6844 24.219 15.8184 24.49 15.8014 24.511L15.7794 24.515L15.7394 24.512C15.7013 24.5053 15.6638 24.4953 15.6274 24.482C15.4754 24.434 15.2954 24.426 14.6574 24.444C14.2724 24.454 14.0424 24.391 14.0214 24.268C14.0114 24.218 14.1554 23.988 14.4594 23.568C14.5514 23.442 14.5614 23.368 14.5094 23.283C14.4844 23.241 14.3604 23.226 13.9094 23.213C13.1534 23.188 13.1294 23.145 13.6614 22.743C13.8844 22.573 14.1454 22.305 14.1764 22.213C14.1874 22.178 14.1694 22.111 14.1384 22.062L14.0784 21.97L13.6484 21.995L13.5314 22.001C13.0574 22.021 12.9714 21.953 13.1314 21.73C13.1714 21.677 13.1914 21.624 13.1784 21.61C13.1684 21.6 12.9584 21.589 12.7224 21.589C12.3164 21.589 11.9494 21.543 11.8864 21.486C11.8724 21.472 12.0454 21.402 12.2744 21.331C12.6664 21.211 13.1924 20.971 13.4324 20.801C13.5747 20.6829 13.7124 20.5595 13.8454 20.431V20.432ZM15.1524 17.392C15.1684 17.402 15.2074 17.717 15.2494 18.095C15.2894 18.472 15.3204 18.818 15.3204 18.86C15.3204 18.906 15.3344 18.942 15.3524 18.942C15.3694 18.942 15.4754 18.8 15.5884 18.624C15.7054 18.451 15.8084 18.306 15.8184 18.306C15.8464 18.306 15.8644 18.44 15.9584 19.443C16.0054 19.905 16.0514 20.283 16.0614 20.283C16.0714 20.283 16.1284 20.085 16.1814 19.842C16.2384 19.598 16.2944 19.4 16.3084 19.4C16.3294 19.4 17.3004 22.21 17.2974 22.266C17.2974 22.344 17.2124 22.252 16.8734 21.815C16.6684 21.546 16.4744 21.299 16.4434 21.257L16.3794 21.183L16.2844 21.289L16.2444 21.334C16.1536 21.4361 16.0619 21.5375 15.9694 21.638L15.7474 21.882L15.7294 21.762L15.7264 21.732C15.7104 21.602 15.6654 21.132 15.6204 20.625C15.5744 20.064 15.5254 19.591 15.5104 19.573C15.5004 19.556 15.3664 19.655 15.2104 19.796C15.0554 19.937 14.9144 20.06 14.8934 20.064C14.8724 20.071 14.8684 20.022 14.8794 19.94C14.9044 19.76 15.1444 17.495 15.1444 17.427C15.1444 17.399 15.1514 17.385 15.1614 17.392H15.1524ZM10.6224 15.444C10.8764 15.412 11.4024 15.44 11.6464 15.507C11.9144 15.574 12.2144 15.702 12.4544 15.839C12.6914 15.98 13.2734 16.542 13.3614 16.719C13.4314 16.859 13.4674 16.877 13.0404 16.552C12.7033 16.3021 12.3295 16.1058 11.9324 15.97C11.7344 15.908 11.6224 15.892 11.3174 15.89L11.1734 15.889C10.7284 15.889 10.6514 15.899 10.3964 15.984C8.78339 16.531 7.96839 18.582 8.81239 19.969C9.06239 20.385 9.46539 20.756 10.0084 21.069C10.3154 21.249 10.2914 21.279 9.91339 21.183C9.57711 21.0993 9.26362 20.942 8.99557 20.7223C8.72752 20.5027 8.51159 20.2263 8.36339 19.913C8.16939 19.517 8.08539 19.15 8.06039 18.624C8.02539 17.774 8.24739 17.099 8.77639 16.457C9.19639 15.945 9.94139 15.539 10.6224 15.444ZM9.32339 18.194C9.37639 18.031 9.38339 18.042 9.51839 18.416C9.7873 19.125 10.1953 19.7731 10.7184 20.322C10.8414 20.452 10.9434 20.569 10.9434 20.582C10.9434 20.639 10.6654 20.569 10.4004 20.449C9.75839 20.149 9.38039 19.524 9.29939 18.609C9.28539 18.419 9.28939 18.292 9.32339 18.193V18.194ZM12.2854 12.924C12.7294 12.857 12.7514 12.864 12.4614 12.998C12.3164 13.065 12.1754 13.128 12.1514 13.146L12.1234 13.163C12.0434 13.221 12.1904 13.243 12.6984 13.259C13.3444 13.277 13.3484 13.28 13.2944 13.492C13.2734 13.577 13.2664 13.577 12.8744 13.577C12.6488 13.58 12.4237 13.5977 12.2004 13.63C11.9254 13.68 11.5264 13.845 11.5264 13.912C11.5264 13.93 11.6924 13.965 11.8964 13.99C12.5254 14.064 13.1364 14.23 13.5594 14.442C13.7254 14.53 13.8134 14.642 14.1454 15.218C15.0384 16.76 15.1724 16.979 15.4934 17.406C15.9034 17.95 16.3434 18.444 16.8234 18.899L17.2614 19.312V19.885C17.2574 20.093 17.2444 20.253 17.2264 20.265C17.1914 20.286 17.2124 20.322 16.7324 19.506C16.3825 18.9116 16.0044 18.3343 15.5994 17.776C15.4961 17.6363 15.3993 17.4918 15.3094 17.343C15.2994 17.311 15.2674 17.283 15.2424 17.279C15.2184 17.279 15.1024 17.166 14.9854 17.029C14.6534 16.64 13.9054 15.966 13.3964 15.603C13.1044 15.391 12.7194 15.13 12.6984 15.13C12.6914 15.13 12.5674 15.066 12.4224 14.985C12.1022 14.8152 11.7667 14.6759 11.4204 14.569C11.1764 14.502 10.6904 14.484 10.3794 14.526C9.93083 14.606 9.49969 14.7637 9.10539 14.992C9.00735 15.0553 8.90586 15.113 8.80139 15.165C8.77639 15.165 8.46639 15.387 8.22639 15.582C8.11639 15.67 8.02839 15.719 8.02139 15.698C8.00339 15.648 8.30039 15.236 8.55839 14.943C8.90772 14.5754 9.29449 14.2453 9.71239 13.958C10.4424 13.471 11.5124 13.04 12.2854 12.924ZM9.87439 17.325C9.74439 16.969 9.74739 16.94 9.91339 17.035C10.0301 17.1076 10.1442 17.1843 10.2554 17.265C10.9384 17.7729 11.4892 18.4376 11.8614 19.203C12.0134 19.524 12.1194 19.824 12.0944 19.849L12.0754 19.853L12.0424 19.843C11.8724 19.773 11.3424 19.343 10.9434 18.942C10.4394 18.43 10.0864 17.904 9.87439 17.325ZM11.0494 16.372C11.0494 16.33 11.4274 16.429 11.6494 16.531C12.1124 16.739 12.4514 17.141 12.5994 17.643C12.6984 17.982 12.7264 18.239 12.6914 18.504C12.6624 18.74 12.6664 18.748 12.4444 18.25C12.1786 17.6981 11.8269 17.1918 11.4024 16.75C11.2807 16.6278 11.163 16.5017 11.0494 16.372ZM16.8384 10.478C17.0114 10.428 17.0084 10.428 17.0644 10.513C17.1594 10.661 17.3324 11.237 17.4064 11.657C17.4524 11.932 17.4844 12.31 17.4984 12.761L17.5184 13.446L17.3464 13.422L17.3074 13.416C17.0634 13.376 16.8644 13.301 15.5424 12.747C14.8294 12.447 14.2404 12.211 14.2294 12.221C14.2124 12.239 14.5654 12.934 14.8014 13.347C15.2314 14.096 16.0294 14.502 16.9514 14.442C17.2154 14.424 17.3114 14.431 17.3914 14.47C17.5824 14.572 17.7064 14.749 17.8224 15.094C17.9674 15.518 18.2324 16.034 18.4584 16.33C18.5534 16.457 18.6284 16.563 18.6284 16.563C18.6244 16.566 18.5114 16.545 18.3734 16.52C17.7554 16.393 16.6864 15.945 16.3974 15.691C16.0654 15.398 16.3684 15.867 16.7214 16.189C17.1514 16.584 17.7734 16.926 18.4824 17.163C18.6944 17.233 18.8744 17.297 18.8784 17.3C18.9174 17.336 17.8754 18.553 17.8124 18.553C17.7484 18.553 17.3884 18.338 17.0394 18.095C16.6544 17.826 15.7824 16.969 15.4724 16.559C14.5805 15.3623 13.9285 14.0043 13.5524 12.56L13.4424 12.158L13.5804 12.017L13.6694 11.933C14.1944 11.473 15.5224 10.863 16.8384 10.478ZM22.2484 9.28501C22.3258 9.29258 22.4008 9.31643 22.4684 9.35501C22.5245 9.39451 22.5733 9.44359 22.6124 9.50001C22.6444 9.54601 23.0184 10.95 23.4424 12.613C24.2894 15.927 24.2824 15.882 24.0914 16.083C24.0313 16.1422 23.9608 16.1896 23.8834 16.223C23.7204 16.277 21.2034 16.823 21.1904 16.81C21.2041 16.736 21.2291 16.6645 21.2644 16.598C21.4444 16.188 21.4544 15.808 21.2844 15.536C21.1684 15.346 20.8684 15.166 20.6744 15.166C20.5614 15.166 20.5264 15.2 19.9264 15.976C19.5804 16.426 19.2844 16.778 19.2704 16.764C19.2554 16.75 18.9344 15.374 18.5504 13.711C18.0554 11.565 17.8614 10.654 17.8794 10.581C17.9161 10.4455 18.0015 10.3283 18.1194 10.252C18.2714 10.171 22.1114 9.27101 22.2494 9.28501H22.2484ZM22.8314 13.291C22.8244 13.277 22.6974 13.379 22.5484 13.521C22.4004 13.658 22.0974 13.941 21.8784 14.149L21.4754 14.526L20.6114 14.247C20.3171 14.1458 20.0193 14.0554 19.7184 13.976C19.7044 13.979 20.0354 14.293 20.4594 14.671C20.8864 15.049 21.3494 15.465 21.4934 15.599C21.6384 15.729 21.7684 15.825 21.7834 15.811C21.8214 15.772 22.8414 13.319 22.8314 13.291ZM20.7174 14.392C20.9604 14.473 21.2324 14.547 21.3204 14.562L21.4794 14.582L21.5964 15.109C21.6594 15.398 21.7054 15.642 21.6944 15.649C21.6874 15.656 21.6034 15.585 21.5114 15.493C21.2691 15.2633 21.0231 15.0376 20.7734 14.816C20.5768 14.6424 20.3851 14.4633 20.1984 14.279C20.1774 14.226 20.2614 14.244 20.7174 14.392ZM12.0904 9.99101C12.6834 9.84301 12.9194 9.80701 12.9194 9.86701C12.9194 9.88501 12.8344 9.92001 12.7354 9.94101C12.4464 10.012 11.7014 10.273 11.3314 10.436C10.9284 10.612 10.4134 10.912 10.2194 11.081L10.0784 11.201L10.2014 11.23L10.3534 11.266C10.8574 11.4 11.7834 11.749 12.2234 11.978C12.5454 12.144 12.9544 12.423 12.9544 12.479C12.9544 12.493 12.8484 12.518 12.7184 12.532C12.1784 12.585 11.2924 12.804 10.6604 13.037C9.88739 13.327 8.90639 13.852 8.30639 14.304C7.91439 14.6 7.91439 14.6 8.05239 14.403C8.21839 14.163 8.72239 13.64 9.02939 13.393C9.69339 12.867 10.5654 12.486 11.4894 12.32L11.6314 12.296L11.3814 12.179L11.2564 12.126C10.7094 11.908 9.56239 11.626 8.87839 11.547C8.78978 11.5385 8.7023 11.5207 8.61739 11.494C8.52539 11.445 9.72139 10.803 10.4314 10.524C10.973 10.3128 11.5271 10.1348 12.0904 9.99101ZM20.5604 10.654C20.2964 11.434 19.6604 13.404 19.6604 13.446C19.6604 13.478 19.6464 13.513 19.6254 13.524C19.5124 13.594 19.6434 13.654 20.4694 13.926C20.9524 14.082 21.3724 14.212 21.4044 14.212C21.4744 14.212 22.7844 12.987 22.7844 12.924C22.7844 12.899 22.3324 12.409 21.7854 11.837C21.4231 11.4624 21.0654 11.0834 20.7124 10.7C20.6384 10.605 20.5854 10.587 20.5604 10.654ZM15.8524 13.602C15.8174 13.502 15.8174 13.502 15.9304 13.524C15.9904 13.538 16.1304 13.591 16.2374 13.644C16.4944 13.767 16.5054 13.824 16.2724 13.824C16.0534 13.824 15.8984 13.743 15.8524 13.602ZM20.6104 10.845C20.6274 10.863 20.7234 11.24 20.8224 11.685L21.0054 12.497L20.9064 12.592C20.7694 12.726 19.7204 13.51 19.7064 13.492C19.6964 13.485 19.7204 13.418 19.7594 13.34C19.8294 13.203 20.5254 11.103 20.5604 10.916C20.5744 10.859 20.5964 10.827 20.6104 10.845ZM12.8344 10.295L12.8064 10.548L12.7954 10.649C12.7744 10.861 12.7874 10.912 12.8484 10.912C12.8884 10.912 12.9124 10.986 12.9404 11.194C13.0004 11.597 13.0144 11.996 12.9724 12.014C12.9514 12.017 12.8024 11.943 12.6374 11.847C12.2521 11.6184 11.8484 11.4224 11.4304 11.261C11.2784 11.205 11.1544 11.149 11.1544 11.138C11.1544 11.064 11.5884 10.732 11.8504 10.605C12.1854 10.443 12.6054 10.298 12.7464 10.295H12.8344ZM18.2324 8.60001C19.4674 8.36701 19.7254 8.34601 19.9444 8.45901C20.0184 8.49801 20.1144 8.57601 20.1524 8.63201C20.2404 8.75201 20.4734 9.23601 20.4734 9.29201C20.4734 9.31701 20.2754 9.36201 19.9724 9.41201C17.7524 9.76201 15.9314 10.287 14.5444 10.982C14.2075 11.1416 13.8861 11.3321 13.5844 11.551C13.3474 11.731 13.3724 11.781 13.2874 10.979C13.2274 10.436 13.2274 10.404 13.2874 10.245C13.3444 10.097 13.3754 10.068 13.5844 9.96301C14.0758 9.73744 14.5788 9.53816 15.0914 9.36601C16.0334 9.06601 16.9754 8.83601 18.2314 8.60001H18.2324ZM14.8084 6.21701H14.8444C14.8644 6.21701 14.9284 6.31701 14.9924 6.43301C15.2924 6.98001 15.8994 8.67101 15.8254 8.74501C15.7764 8.77368 15.7218 8.79173 15.6654 8.79801L15.5424 8.81901L15.4224 8.56101L15.3624 8.43201C15.0024 7.68201 14.3564 6.66001 14.2794 6.73301C14.2694 6.74301 14.2934 6.84601 14.3324 6.96301C14.5124 7.47801 14.7554 8.63201 14.7554 8.96001C14.7554 9.05901 14.7384 9.09001 14.6674 9.12301C14.6242 9.14496 14.5775 9.15918 14.5294 9.16501C14.5094 9.16501 14.3924 9.03801 14.2794 8.88301C14.1664 8.72701 14.0604 8.61101 14.0464 8.62501C14.0364 8.64301 14.0004 8.81901 13.9684 9.02001C13.9154 9.38401 13.8624 9.51001 13.8064 9.42001C13.7924 9.39401 13.7604 9.03801 13.7364 8.62501C13.7243 8.34217 13.7043 8.05973 13.6764 7.77801C13.6654 7.72501 13.6724 7.68301 13.6894 7.68301C13.7074 7.68301 13.8454 7.79901 13.9934 7.94301C14.1414 8.08501 14.2684 8.19401 14.2754 8.18001C14.3044 8.12701 13.9224 6.98701 13.6824 6.40801C13.6624 6.35901 13.6964 6.34101 13.8984 6.31001C14.1414 6.26701 14.7804 6.20701 14.8444 6.21801L14.8084 6.21701ZM11.9354 6.97301C12.2184 6.79301 12.4584 6.73301 12.6164 6.79701C12.6644 6.81401 12.6764 6.84701 12.6774 7.09001V7.31501C12.6748 7.5635 12.6665 7.8119 12.6524 8.06001L12.6274 8.31001L11.9714 8.29301L11.7034 8.28901C11.1574 8.28102 10.6131 8.35004 10.0864 8.49401C9.86339 8.55101 9.65939 8.60401 9.63439 8.60701C9.60939 8.61401 9.58439 8.59301 9.57839 8.56501C9.55639 8.43801 10.3684 7.85901 11.2784 7.35101C11.5514 7.19501 11.8474 7.02601 11.9354 6.97301ZM15.4854 6.20001L15.6984 6.56001L15.7684 6.68001C16.1274 7.31201 16.6264 8.37001 16.6264 8.50801C16.6264 8.56801 16.3894 8.62801 16.3474 8.57901C16.3112 8.51848 16.2805 8.45491 16.2554 8.38901C15.9943 7.80325 15.7073 7.22936 15.3954 6.66901C15.3071 6.52131 15.2234 6.37091 15.1444 6.21801C15.1444 6.20801 15.2214 6.20001 15.3134 6.20001H15.4864H15.4854ZM16.1354 6.23501H16.1924C16.3224 6.23501 16.7224 6.26001 17.0784 6.28801C17.4314 6.31701 17.7584 6.34801 17.8084 6.35901L17.9854 6.39401C18.0954 6.41901 18.1794 6.55401 18.4264 7.08301C18.5884 7.43901 18.8284 8.07101 18.8044 8.08801C18.3782 8.15439 17.9534 8.22974 17.5304 8.31401C17.0704 8.41001 16.9794 8.41001 16.9794 8.30701C16.9794 8.23301 16.4214 7.08701 16.1894 6.68401C15.9064 6.20001 15.9064 6.23501 16.1924 6.23501H16.1354Z" fill="white"/>
<path d="M16.7847 10.672C16.8727 10.887 16.9187 11.117 16.9647 11.6C17.0107 12.116 17.0947 12.829 17.1447 13.125C17.1657 13.277 17.2257 13.309 17.2257 13.171C17.2257 13.121 17.2007 12.927 17.1727 12.737C17.1325 12.4176 17.0972 12.0975 17.0667 11.777C17.0448 11.5194 17.0141 11.2625 16.9747 11.007C16.9297 10.792 16.8477 10.612 16.7987 10.612C16.7737 10.612 16.7707 10.637 16.7847 10.672ZM17.5437 14.802C17.5437 14.957 18.0377 16.093 18.1997 16.309C18.3097 16.46 18.2807 16.323 18.1537 16.093C17.9697 15.7614 17.8126 15.4156 17.6837 15.059C17.6037 14.833 17.5437 14.724 17.5437 14.802Z" fill="white"/>
<path d="M13.3682 5.31001C16.1568 4.62951 19.1014 5.07882 21.5602 6.56001C23.1202 7.48801 24.5502 8.94901 25.4362 10.523C26.3962 12.221 26.8662 13.978 26.8662 15.863C26.8692 17.144 26.7032 18.175 26.3112 19.35C25.939 20.4463 25.3997 21.4785 24.7122 22.41C24.1455 23.1353 23.5054 23.8002 22.8022 24.394C21.0622 25.802 19.0472 26.607 16.7502 26.801C14.3042 27.013 11.6002 26.254 9.58816 24.793C7.22016 23.077 5.65316 20.589 5.15816 17.769C4.62616 14.734 5.45216 11.539 7.39616 9.12201C7.69616 8.74801 8.38116 8.03801 8.80116 7.66801C10.0612 6.55601 11.6952 5.71201 13.3682 5.31001ZM16.5912 5.87501C15.5197 5.80823 14.4444 5.90945 13.4042 6.17501C12.1582 6.49901 10.7242 7.19801 9.81416 7.92501L9.44416 8.21801C8.99216 8.56801 8.00716 9.64801 7.63616 10.202C6.43616 11.992 5.86116 13.855 5.86116 15.937C5.86116 17.61 6.20016 19.011 6.98016 20.537C7.92637 22.389 9.43005 23.8972 11.2792 24.849C12.4792 25.467 13.8202 25.855 15.1092 25.957C17.3252 26.134 19.4002 25.619 21.3592 24.408C22.2632 23.85 23.4202 22.781 23.9992 21.973C25.0792 20.458 25.6762 19.022 25.9292 17.313C26.0212 16.703 26.0252 15.037 25.9332 14.497C25.6162 12.574 24.8182 10.795 23.6852 9.48201C23.5752 9.35501 23.4382 9.19201 23.3812 9.12501C23.033 8.74167 22.6541 8.38749 22.2482 8.06601C21.2082 7.26901 20.4132 6.83101 19.2202 6.40001C18.4122 6.11101 17.6212 5.95201 16.5902 5.87501H16.5912Z" fill="white"/>
</svg>
