<svg width="32" height="32" viewBox="0 0 32 32" fill="none" xmlns="http://www.w3.org/2000/svg">
<path d="M16 32C24.8366 32 32 24.8366 32 16C32 7.16344 24.8366 0 16 0C7.16344 0 0 7.16344 0 16C0 24.8366 7.16344 32 16 32Z" fill="#31CB9E"/>
<path d="M14.9272 16.162L22.6472 20.585C22.7093 20.6223 22.7803 20.6424 22.8527 20.6432C22.9252 20.644 22.9966 20.6254 23.0595 20.5895C23.1225 20.5535 23.1747 20.5014 23.2108 20.4386C23.247 20.3758 23.2657 20.3045 23.2652 20.232V12.086C23.2662 12.0134 23.2476 11.9419 23.2115 11.8789C23.1754 11.8159 23.123 11.7638 23.0598 11.728C22.9966 11.6922 22.925 11.6741 22.8524 11.6755C22.7798 11.6769 22.7089 11.6978 22.6472 11.736L14.9272 16.162ZM22.4842 9.77899L17.2062 5.89699C17.1515 5.855 17.0874 5.8271 17.0195 5.81575C16.9515 5.80439 16.8818 5.80992 16.8165 5.83185C16.7512 5.85379 16.6923 5.89145 16.645 5.94152C16.5976 5.9916 16.5634 6.05254 16.5452 6.11899L14.6182 14.766L22.4382 10.443C22.4974 10.4122 22.5478 10.3666 22.5845 10.3108C22.6211 10.2549 22.6428 10.1905 22.6474 10.1239C22.652 10.0572 22.6394 9.99051 22.6108 9.93011C22.5823 9.86972 22.5386 9.81768 22.4842 9.77899ZM17.2002 26.424L22.4842 22.542C22.5396 22.503 22.584 22.4505 22.6132 22.3894C22.6425 22.3283 22.6555 22.2607 22.6511 22.1931C22.6467 22.1256 22.6249 22.0603 22.588 22.0035C22.5511 21.9467 22.5002 21.9004 22.4402 21.869L14.6182 17.546L16.5452 26.193C16.5611 26.2602 16.5935 26.3224 16.6395 26.374C16.6855 26.4256 16.7435 26.465 16.8085 26.4886C16.8734 26.5122 16.9432 26.5193 17.0116 26.5092C17.08 26.4992 17.1448 26.4723 17.2002 26.431" fill="white"/>
<path d="M12.9201 16.002L14.9271 6.613C14.9426 6.53514 14.9344 6.45444 14.9036 6.38126C14.8729 6.30809 14.821 6.24578 14.7545 6.20235C14.6881 6.15892 14.6102 6.13634 14.5308 6.13753C14.4514 6.13871 14.3742 6.1636 14.3091 6.209L9.16712 10.152C9.03677 10.2519 8.93131 10.3807 8.85897 10.5281C8.78663 10.6756 8.74937 10.8378 8.75012 11.002V21.008C8.74512 21.345 8.90012 21.664 9.16712 21.869L14.2841 25.801C14.3493 25.8465 14.4266 25.8715 14.5061 25.8726C14.5856 25.8738 14.6636 25.8511 14.7301 25.8076C14.7966 25.764 14.8485 25.7015 14.8792 25.6281C14.9098 25.5548 14.9178 25.4739 14.9021 25.396L12.9191 16.002H12.9201Z" fill="white"/>
</svg>
