<svg width="32" height="32" viewBox="0 0 32 32" fill="none" xmlns="http://www.w3.org/2000/svg">
<path d="M16 32C24.8366 32 32 24.8366 32 16C32 7.16344 24.8366 0 16 0C7.16344 0 0 7.16344 0 16C0 24.8366 7.16344 32 16 32Z" fill="#006149"/>
<path d="M24.1756 17.184L23.3786 16.985L23.6206 16.015L26.1056 16.636L25.4856 19.121L24.5146 18.879L24.7296 18.017L15.8576 23.51L6.01855 18.594V14.842L16.2426 8.448L25.6176 13.021V14.565L15.8586 20.628L8.61156 17.035L9.05555 16.139L15.8046 19.485L24.6176 14.009V13.646L16.3026 9.59L7.01955 15.396V17.976L15.8066 22.366L24.1756 17.184Z" fill="white"/>
</svg>
