<svg width="32" height="32" viewBox="0 0 32 32" fill="none" xmlns="http://www.w3.org/2000/svg">
<path d="M16 32C24.8366 32 32 24.8366 32 16C32 7.16344 24.8366 0 16 0C7.16344 0 0 7.16344 0 16C0 24.8366 7.16344 32 16 32Z" fill="#48BEFF"/>
<path d="M22.1935 26.239L5.80949 14.744C5.2512 14.3522 4.79546 13.8318 4.48084 13.2267C4.16621 12.6215 4.00195 11.9495 4.00195 11.2675C4.00195 10.5855 4.16621 9.91347 4.48084 9.30834C4.79546 8.70321 5.2512 8.18276 5.80949 7.791L9.77949 5L26.1655 16.494C26.7238 16.8858 27.1795 17.4062 27.4942 18.0113C27.8088 18.6165 27.973 19.2885 27.973 19.9705C27.973 20.6525 27.8088 21.3245 27.4942 21.9297C27.1795 22.5348 26.7238 23.0552 26.1655 23.447L22.1935 26.239ZM9.7755 6.863L6.6825 9.027C6.3227 9.27857 6.02892 9.61324 5.82607 10.0026C5.62323 10.3919 5.51731 10.8245 5.51731 11.2635C5.51731 11.7025 5.62323 12.1351 5.82607 12.5244C6.02892 12.9138 6.3227 13.2484 6.6825 13.5L22.1965 24.377L25.2905 22.213C25.6503 21.9614 25.9441 21.6268 26.1469 21.2374C26.3498 20.8481 26.4557 20.4155 26.4557 19.9765C26.4557 19.5375 26.3498 19.1049 26.1469 18.7156C25.9441 18.3262 25.6503 17.9916 25.2905 17.74L9.7755 6.863Z" fill="white"/>
<path d="M9.76252 24.377L6.67252 22.21C6.31273 21.9584 6.01894 21.6237 5.81609 21.2344C5.61325 20.845 5.50733 20.4125 5.50733 19.9735C5.50733 19.5345 5.61325 19.1019 5.81609 18.7126C6.01894 18.3232 6.31273 17.9886 6.67252 17.737L14.6725 12.154L13.3525 11.226L5.80852 16.494C5.25022 16.8857 4.79449 17.4062 4.47986 18.0113C4.16524 18.6165 4.00098 19.2885 4.00098 19.9705C4.00098 20.6525 4.16524 21.3245 4.47986 21.9297C4.79449 22.5348 5.25022 23.0552 5.80852 23.447L9.76552 26.226L14.6625 22.797L13.3485 21.871L9.76252 24.377ZM26.1695 7.79699L22.2095 5.01999L17.3095 8.44899L18.6235 9.37399L22.2035 6.86899L25.2935 9.03599C25.6533 9.28756 25.9471 9.62223 26.1499 10.0116C26.3528 10.4009 26.4587 10.8335 26.4587 11.2725C26.4587 11.7115 26.3528 12.1441 26.1499 12.5334C25.9471 12.9228 25.6533 13.2574 25.2935 13.509L17.2935 19.091L18.6085 20.017L26.1625 14.74C26.7208 14.3482 27.1766 13.8278 27.4912 13.2227C27.8058 12.6175 27.9701 11.9455 27.9701 11.2635C27.9701 10.5815 27.8058 9.90946 27.4912 9.30433C27.1766 8.6992 26.7208 8.17875 26.1625 7.78699L26.1705 7.79699H26.1695Z" fill="white"/>
<path d="M6.74512 15.829L12.9751 11.467L13.8431 12.707L7.61212 17.069L6.74512 15.829ZM24.4951 14.071L21.4601 16.196L22.3281 17.437L25.4701 15.233C25.1361 14.851 24.8131 14.461 24.4891 14.07L24.4951 14.071Z" fill="white"/>
</svg>
