<svg width="32" height="32" viewBox="0 0 32 32" fill="none" xmlns="http://www.w3.org/2000/svg">
<path d="M16 32C24.8366 32 32 24.8366 32 16C32 7.16344 24.8366 0 16 0C7.16344 0 0 7.16344 0 16C0 24.8366 7.16344 32 16 32Z" fill="#033B4A"/>
<path d="M15.5315 7.064C16.0885 6.901 16.6795 7.067 17.1605 7.358C19.3056 8.58662 21.4604 9.79833 23.6245 10.993C24.4575 11.434 25.0115 12.339 24.9995 13.273C24.9975 16.367 24.9895 19.463 24.9945 22.557C25.0285 22.772 24.8825 23.017 24.6385 22.995C23.6775 23.001 22.7165 22.997 21.7555 22.996C21.5455 23.027 21.3435 22.851 21.3655 22.638C21.2735 20.003 21.3085 17.365 21.3355 14.728C21.3355 14.398 21.2715 14.05 21.0585 13.783C20.8425 13.5 20.5015 13.355 20.1965 13.187C19.6965 12.925 19.2255 12.608 18.7075 12.379C18.5115 12.301 18.2565 12.217 18.0715 12.366C17.8665 12.559 17.8685 12.864 17.8475 13.124C17.8097 14.417 17.806 15.7108 17.8365 17.004C17.8355 17.31 17.8455 17.666 17.6115 17.904C17.3725 18.138 17.0115 18.142 16.6975 18.147C16.1295 18.141 15.5615 18.162 14.9955 18.134C14.7555 18.108 14.4675 18.094 14.3115 17.884C14.1715 17.677 14.1775 17.416 14.1655 17.178C14.1625 15.819 14.1795 14.459 14.1655 13.101C14.1515 12.861 14.1555 12.591 13.9855 12.401C13.8225 12.233 13.5625 12.288 13.3665 12.359C12.9415 12.525 12.5605 12.779 12.1575 12.989C11.7545 13.221 11.3215 13.419 10.9755 13.735C10.7505 13.94 10.6905 14.252 10.6835 14.54C10.6785 17.21 10.6865 19.878 10.6635 22.548C10.6865 22.75 10.5665 22.996 10.3305 22.992C9.34053 23.004 8.35053 22.997 7.36053 22.995C7.16253 23.014 6.98053 22.84 7.00053 22.643C7.04053 19.398 7.01553 16.152 7.01853 12.906C7.00924 12.5666 7.09363 12.2312 7.26245 11.9366C7.43127 11.642 7.67799 11.3996 7.97553 11.236C10.2305 9.972 12.4895 8.716 14.7355 7.437C14.9895 7.293 15.2455 7.142 15.5315 7.064Z" fill="white"/>
</svg>
