<svg width="32" height="32" viewBox="0 0 32 32" fill="none" xmlns="http://www.w3.org/2000/svg">
<path d="M16 32C24.8366 32 32 24.8366 32 16C32 7.16344 24.8366 0 16 0C7.16344 0 0 7.16344 0 16C0 24.8366 7.16344 32 16 32Z" fill="black"/>
<path d="M8.67285 22.007L15.6289 26.383H16.4709L23.3149 22.007L22.2489 21.166L16.0219 25.149L9.57085 21.166L8.67285 22.007ZM12.0389 11.854L15.9659 5.90699L20.0049 11.91L20.9589 11.068L16.4709 4.33699C16.4709 4.33699 16.0779 3.83199 15.4609 4.33699L10.8609 11.237L12.0389 11.854Z" fill="white" fill-opacity="0.703"/>
<path d="M16.0775 23.859C16.3015 23.073 16.5825 22.344 16.8075 21.559C17.8175 18.417 18.8265 15.219 19.8365 12.078C19.8925 11.91 19.9485 11.685 20.0045 11.518C20.1165 11.18 20.2845 11.012 20.6215 11.012C20.7679 11.0081 20.9107 11.057 21.024 11.1497C21.1372 11.2424 21.2134 11.3728 21.2385 11.517C21.5185 12.639 21.7435 13.817 22.0235 14.939C22.5285 17.071 22.9775 19.259 23.4825 21.39C23.5945 21.895 23.4265 22.232 23.0335 22.344C22.6405 22.456 22.3605 22.176 22.2485 21.671C21.6875 19.259 21.1265 16.846 20.6215 14.378C20.6215 14.266 20.5655 14.21 20.5095 14.041C20.463 14.1945 20.4065 14.3448 20.3405 14.491C19.2755 17.744 18.2655 20.998 17.1995 24.251C17.0315 24.868 16.8065 25.429 16.6385 26.046C16.5265 26.439 16.3015 26.607 15.9655 26.607C15.6285 26.607 15.4045 26.439 15.2925 26.047C14.0585 22.176 12.8235 18.305 11.6455 14.434C11.5895 14.322 11.5895 14.266 11.5335 14.041C11.4335 14.5486 11.3214 15.0537 11.1975 15.556C10.7475 17.576 10.2995 19.651 9.85053 21.671C9.73853 22.231 9.29053 22.512 8.84053 22.231C8.56053 22.063 8.50453 21.783 8.56053 21.446C9.17753 18.641 9.85053 15.836 10.4675 13.032C10.5795 12.582 10.6925 12.134 10.7475 11.685C10.8605 11.237 11.0845 11.012 11.4215 11.012C11.7585 11.012 11.9815 11.237 12.0945 11.685C13.3845 15.725 14.6745 19.82 15.9095 23.859H16.0775Z" fill="white"/>
</svg>
