<svg width="32" height="32" viewBox="0 0 32 32" fill="none" xmlns="http://www.w3.org/2000/svg">
<path d="M16 32C24.8366 32 32 24.8366 32 16C32 7.16344 24.8366 0 16 0C7.16344 0 0 7.16344 0 16C0 24.8366 7.16344 32 16 32Z" fill="#DA1157"/>
<path d="M20.9853 19.168C21.7878 19.168 22.5575 18.8492 23.125 18.2817C23.6924 17.7142 24.0113 16.9446 24.0113 16.142C24.0113 15.3395 23.6924 14.5698 23.125 14.0023C22.5575 13.4348 21.7878 13.116 20.9853 13.116C20.1827 13.116 19.413 13.4348 18.8456 14.0023C18.2781 14.5698 17.9593 15.3395 17.9593 16.142C17.9593 16.9446 18.2781 17.7142 18.8456 18.2817C19.413 18.8492 20.1827 19.168 20.9853 19.168ZM20.9853 9.16301C22.1376 9.16232 23.2722 9.44695 24.2878 9.99149C25.3034 10.536 26.1683 11.3235 26.8055 12.2837C27.4426 13.2439 27.8321 14.3469 27.9392 15.4943C28.0463 16.6417 27.8677 17.7977 27.4192 18.8592C26.9708 19.9208 26.2665 20.8547 25.3693 21.5778C24.472 22.3009 23.4097 22.7906 22.2771 23.0032C21.1445 23.2158 19.9769 23.1447 18.8785 22.7962C17.7801 22.4477 16.7851 21.8327 15.9823 21.006C17.2514 19.7052 17.9611 17.9594 17.9593 16.142C17.9612 14.3246 17.2515 12.5787 15.9823 11.278C16.6317 10.608 17.4093 10.0754 18.2688 9.71207C19.1283 9.34872 20.0521 9.162 20.9853 9.16301ZM10.9803 19.168C11.7828 19.168 12.5525 18.8492 13.12 18.2817C13.6874 17.7142 14.0063 16.9446 14.0063 16.142C14.0063 15.3395 13.6874 14.5698 13.12 14.0023C12.5525 13.4348 11.7828 13.116 10.9803 13.116C10.1777 13.116 9.40804 13.4348 8.84055 14.0023C8.27307 14.5698 7.95426 15.3395 7.95426 16.142C7.95426 16.9446 8.27307 17.7142 8.84055 18.2817C9.40804 18.8492 10.1777 19.168 10.9803 19.168ZM15.9833 11.278C14.7144 12.5789 14.0052 14.3248 14.0073 16.142C14.0073 18.034 14.7613 19.749 15.9833 21.006C15.0153 22.0023 13.7721 22.6871 12.4127 22.9728C11.0533 23.2585 9.63959 23.1321 8.35245 22.6098C7.06532 22.0874 5.9633 21.1929 5.18741 20.0408C4.41153 18.8886 3.99707 17.5311 3.99707 16.142C3.99707 14.7529 4.41153 13.3954 5.18741 12.2433C5.9633 11.0911 7.06532 10.1966 8.35245 9.67425C9.63959 9.15193 11.0533 9.02554 12.4127 9.31123C13.7721 9.59693 15.0153 10.2817 15.9833 11.278ZM14.0063 16.143C14.0063 18.035 14.7603 19.75 15.9833 21.007C17.2522 19.7061 17.9614 17.9602 17.9593 16.143C17.9614 14.3258 17.2522 12.5799 15.9833 11.279C14.714 12.5797 14.0044 14.3256 14.0063 16.143Z" fill="white"/>
</svg>
