<svg width="32" height="32" viewBox="0 0 32 32" fill="none" xmlns="http://www.w3.org/2000/svg">
<path d="M16 32C24.8366 32 32 24.8366 32 16C32 7.16344 24.8366 0 16 0C7.16344 0 0 7.16344 0 16C0 24.8366 7.16344 32 16 32Z" fill="#7F368A"/>
<path d="M25.5689 21.316C25.6339 21.579 25.3719 21.71 25.1749 21.645H21.8969C21.6999 21.645 21.5689 21.579 21.4369 21.513C21.2409 21.447 21.1099 21.185 21.0439 20.922V20.856L17.9619 9.49C17.8969 9.49 17.6999 9.687 17.6339 9.687C17.5689 9.752 17.4369 9.818 17.3719 9.752C17.2409 9.687 17.1749 9.49 17.2409 9.358C17.3709 9.03 17.6999 8.832 18.0279 8.767C18.4209 8.701 18.7489 8.701 19.1419 8.701H21.5689C21.7649 8.701 21.9619 8.701 22.1589 8.767C22.3559 8.898 22.4209 9.161 22.4869 9.358C22.6169 9.818 22.6829 10.278 22.8149 10.738L24.3879 16.652L24.9779 19.017C25.1749 19.74 25.4379 20.529 25.5679 21.317L25.5689 21.316ZM17.9619 21.316C18.0279 21.579 17.7649 21.71 17.5689 21.645H14.2899C14.0929 21.645 13.9619 21.579 13.8299 21.513C13.6339 21.447 13.5029 21.185 13.4369 20.922V20.856L10.3559 9.49C10.2899 9.49 10.0929 9.687 10.0279 9.687C9.9619 9.752 9.8309 9.818 9.7649 9.752C9.6349 9.687 9.5689 9.49 9.6349 9.358C9.7649 9.03 10.0929 8.832 10.4209 8.767C10.8149 8.701 11.1419 8.701 11.5359 8.701H13.9619C14.1589 8.701 14.3559 8.701 14.5519 8.767C14.7489 8.898 14.8149 9.161 14.8799 9.358C15.0109 9.818 15.0769 10.278 15.2079 10.738L16.7819 16.652L17.3719 19.017C17.5689 19.74 17.8309 20.529 17.9619 21.317V21.316ZM11.9289 18.819L11.1419 21.316C11.1056 21.4457 11.0287 21.5603 10.9226 21.6431C10.8164 21.7258 10.6865 21.7724 10.5519 21.776H7.0769C6.90291 21.7755 6.73621 21.7061 6.61327 21.5829C6.49033 21.4598 6.42116 21.293 6.4209 21.119V20.987L9.1749 10.606C9.2409 10.474 9.3719 10.343 9.5029 10.343C9.6999 10.343 9.8309 10.474 9.8309 10.606L11.9289 18.819ZM19.6669 18.622L19.2079 20.002C19.1419 20.133 19.0769 20.199 18.9459 20.199C18.8149 20.199 18.7489 20.133 18.6829 20.002L16.3879 11.985L16.8479 10.343C16.8479 10.211 16.9779 10.146 17.1099 10.146C17.2399 10.146 17.3719 10.211 17.3719 10.343L19.6669 18.622Z" fill="white"/>
</svg>
