<svg width="32" height="32" viewBox="0 0 32 32" fill="none" xmlns="http://www.w3.org/2000/svg">
<path d="M16 32C24.8366 32 32 24.8366 32 16C32 7.16344 24.8366 0 16 0C7.16344 0 0 7.16344 0 16C0 24.8366 7.16344 32 16 32Z" fill="#47B95C"/>
<path d="M16 6C10.48 6 6 10.48 6 16C6 16.133 6.013 16.26 6.02 16.393H10.713L12.98 12.493L16 16.82L19.013 12.493L21.28 16.393H25.973C25.98 16.26 25.993 16.133 25.993 16C26 10.48 21.52 6 16 6ZM22.893 15.187C22.487 11.74 19.553 9.06 16 9.06C12.447 9.06 9.513 11.747 9.107 15.187H7.893C8.3 11.073 11.78 7.853 16 7.853C20.22 7.853 23.693 11.073 24.107 15.187H22.893Z" fill="white"/>
<path d="M18.9266 14.733L15.9996 18.933L13.0726 14.733L11.4066 17.6H6.13965C6.90665 22.36 11.0196 26 15.9996 26C20.9796 26 25.0926 22.36 25.8596 17.593H20.5926L18.9266 14.733ZM22.3466 18.8H23.6396C22.4926 21.913 19.5066 24.147 15.9996 24.147C12.4926 24.147 9.50665 21.913 8.35965 18.8H9.65265C10.7326 21.233 13.1666 22.94 15.9996 22.94C18.8326 22.94 21.2666 21.233 22.3466 18.8Z" fill="white"/>
</svg>
