<svg width="32" height="32" viewBox="0 0 32 32" fill="none" xmlns="http://www.w3.org/2000/svg">
<path d="M16 32C24.8366 32 32 24.8366 32 16C32 7.16344 24.8366 0 16 0C7.16344 0 0 7.16344 0 16C0 24.8366 7.16344 32 16 32Z" fill="#36A9CF"/>
<path fill-rule="evenodd" clip-rule="evenodd" d="M26.3103 18.475C26.4863 18.552 26.5513 18.791 26.4563 19.009C26.4279 19.0813 26.3812 19.1448 26.3206 19.1934C26.2601 19.242 26.1879 19.2739 26.1113 19.286L23.8863 23.389C23.9059 23.4806 23.9013 23.5758 23.8729 23.665C23.8445 23.7543 23.7933 23.8346 23.7243 23.898C23.6693 23.9555 23.6024 24.0002 23.5283 24.029C23.4542 24.0579 23.3746 24.0702 23.2953 24.065L18.9563 26.663C18.9225 26.7485 18.8669 26.8237 18.7949 26.8809C18.723 26.9381 18.6372 26.9754 18.5463 26.989C18.3323 27.03 18.1283 26.952 18.0303 26.807L12.9323 26.45C12.8689 26.4983 12.7955 26.5319 12.7174 26.5481C12.6394 26.5644 12.5587 26.563 12.4813 26.544C12.2293 26.489 12.0553 26.288 12.0653 26.081L8.12628 23.239C8.044 23.2537 7.95939 23.2487 7.87942 23.2244C7.79945 23.2001 7.7264 23.1571 7.66628 23.099C7.49428 22.943 7.43228 22.716 7.49828 22.544L5.87828 18.787C5.70128 18.752 5.54828 18.578 5.50828 18.348C5.47528 18.141 5.54328 17.946 5.67028 17.842L5.90928 12.155C5.85548 12.0817 5.82089 11.996 5.80867 11.9059C5.79644 11.8158 5.80696 11.724 5.83928 11.639C5.91928 11.406 6.11228 11.259 6.30228 11.269L10.5543 6.814C10.5173 6.604 10.6773 6.381 10.9283 6.302C11.0062 6.27544 11.0891 6.26731 11.1707 6.27824C11.2522 6.28917 11.3301 6.31887 11.3983 6.365L17.5163 5.253C17.5953 5.073 17.8193 4.967 18.0613 5.01C18.2813 5.048 18.4463 5.199 18.4853 5.373L21.3113 6.985C21.3896 6.95997 21.4725 6.95219 21.5541 6.9622C21.6358 6.97221 21.7143 6.99978 21.7843 7.043C21.8614 7.08787 21.9272 7.14975 21.9768 7.22392C22.0264 7.29809 22.0583 7.3826 22.0703 7.471L23.2863 8.289C23.3647 8.26773 23.447 8.26478 23.5268 8.28039C23.6065 8.29599 23.6816 8.32973 23.7463 8.379C23.9743 8.543 24.0563 8.829 23.9263 9.019L23.9183 9.029L25.7013 12.509C25.8713 12.486 26.0453 12.618 26.1073 12.827C26.1753 13.056 26.0813 13.289 25.8993 13.347C25.7163 13.407 25.5133 13.269 25.4463 13.041L25.4343 12.991L21.7653 11.026C21.7069 11.1082 21.6274 11.1731 21.5353 11.214V21.008C21.6551 21.0609 21.7529 21.1536 21.812 21.2705C21.8711 21.3874 21.8878 21.5212 21.8593 21.649L23.3493 23.167C23.4256 23.1347 23.509 23.1229 23.5913 23.133L25.8413 19.157C25.8025 19.093 25.7802 19.0204 25.7766 18.9457C25.7729 18.8709 25.7879 18.7965 25.8203 18.729C25.9153 18.511 26.1353 18.398 26.3103 18.475ZM26.3143 18.95C26.3523 18.862 26.3253 18.767 26.2553 18.736C26.1853 18.706 26.0973 18.751 26.0593 18.838C26.0213 18.925 26.0473 19.02 26.1183 19.052C26.1883 19.082 26.2753 19.037 26.3143 18.95ZM23.6493 23.742C23.7293 23.662 23.7433 23.544 23.6803 23.478C23.6173 23.412 23.5013 23.423 23.4203 23.502C23.3403 23.582 23.3263 23.701 23.3893 23.767C23.4523 23.833 23.5693 23.822 23.6493 23.742ZM23.0203 23.492L23.0313 23.468L21.6023 22.014C21.5168 22.0674 21.4181 22.0958 21.3173 22.096C21.2123 22.0958 21.1095 22.0655 21.0211 22.0088C20.9327 21.9521 20.8623 21.8714 20.8183 21.776H18.9003C18.8507 21.8802 18.7704 21.9667 18.6703 22.024L18.8573 24.731C18.9313 24.763 18.9973 24.809 19.0473 24.866L23.0203 23.492ZM18.8523 26.278L22.3193 24.202L19.1593 25.294C19.1384 25.373 19.0991 25.4459 19.0447 25.5069C18.9903 25.5679 18.9224 25.6152 18.8463 25.645L18.7503 26.209C18.7873 26.2271 18.8217 26.2503 18.8523 26.278ZM18.5273 26.816C18.6373 26.796 18.7123 26.706 18.6963 26.614C18.6803 26.524 18.5763 26.466 18.4663 26.488C18.3573 26.508 18.2813 26.598 18.2973 26.689C18.3143 26.78 18.4173 26.837 18.5273 26.816ZM18.0233 26.418C18.0897 26.3086 18.1934 26.2269 18.3153 26.188L18.4063 25.653C18.3252 25.6228 18.2523 25.5742 18.1933 25.511L14.2153 26.153L18.0233 26.418ZM14.3023 22.082L13.0083 25.899L18.0243 25.089L14.4753 22.009C14.4222 22.043 14.3637 22.0677 14.3023 22.082ZM12.6373 25.637L13.8713 21.998C13.79 21.9416 13.7251 21.8647 13.6833 21.775H11.4273C11.4134 21.8027 11.3977 21.8294 11.3803 21.855L12.6373 25.637ZM12.4843 26.372C12.5943 26.396 12.6983 26.342 12.7163 26.252C12.7363 26.162 12.6633 26.069 12.5533 26.044C12.4433 26.021 12.3393 26.074 12.3203 26.164C12.3013 26.256 12.3743 26.348 12.4843 26.372ZM8.39728 22.96L12.2023 25.706L11.0003 22.09C10.9136 22.1013 10.8255 22.0918 10.7432 22.0622C10.661 22.0326 10.5869 21.9839 10.5273 21.92L8.40428 22.845C8.40733 22.8834 8.40531 22.9221 8.39828 22.96H8.39728ZM8.04128 22.362C8.09537 22.3859 8.14586 22.4172 8.19128 22.455L10.3743 21.505C10.3786 21.3969 10.4133 21.2923 10.4743 21.203L7.09828 17.714L8.04128 22.362ZM8.01828 22.971C8.07828 22.903 8.05828 22.785 7.97528 22.709C7.89128 22.634 7.77528 22.628 7.71528 22.697C7.65528 22.767 7.67328 22.885 7.75728 22.96C7.84128 23.035 7.95828 23.04 8.01728 22.971H8.01828ZM6.22828 18.638L7.39028 21.331L6.61128 17.493L6.30428 18.147C6.3292 18.2293 6.33531 18.3162 6.32216 18.4012C6.309 18.4861 6.27692 18.5671 6.22828 18.638ZM6.20028 14.298L6.06028 17.65L6.33828 17.06C6.29238 16.9729 6.27033 16.8753 6.27437 16.7769C6.27841 16.6786 6.30839 16.583 6.36128 16.5L6.20028 14.298ZM6.00028 11.647C5.96228 11.755 6.00328 11.867 6.08828 11.898C6.17428 11.928 6.27228 11.866 6.30928 11.758C6.34628 11.65 6.30728 11.538 6.22128 11.507C6.13528 11.477 6.03728 11.539 5.99928 11.647H6.00028ZM6.84428 16.8C6.84428 16.686 6.76128 16.594 6.66128 16.594C6.56028 16.594 6.47728 16.686 6.47728 16.8C6.47728 16.915 6.56028 17.007 6.66128 17.007C6.76128 17.007 6.84428 16.915 6.84428 16.8ZM6.61428 11.914C6.58611 11.9989 6.5393 12.0765 6.47728 12.141L6.76728 16.131L8.54728 10.502L6.64228 11.795C6.63668 11.8355 6.62731 11.8753 6.61428 11.914ZM9.64028 8.329L7.20628 10.879L8.45328 10.033C8.47003 9.91912 8.51934 9.81251 8.59528 9.726C8.67346 9.63309 8.77927 9.56758 8.89728 9.539L9.64028 8.329ZM10.8943 7.122L9.30728 9.704C9.34562 9.77534 9.3623 9.85632 9.35528 9.937L10.5303 10.298C10.5916 10.2322 10.6683 10.1826 10.7535 10.1536C10.8386 10.1246 10.9297 10.1171 11.0184 10.1317C11.1072 10.1464 11.191 10.1827 11.2623 10.2376C11.3336 10.2924 11.3903 10.364 11.4273 10.446H13.3943C13.4308 10.3676 13.485 10.2988 13.5527 10.245C13.6204 10.1912 13.6997 10.1539 13.7843 10.136L14.8533 7.862C14.7957 7.78615 14.7578 7.69714 14.7433 7.603L11.4753 6.879C11.4012 6.98666 11.2925 7.06571 11.1673 7.103C11.0791 7.1312 10.9856 7.13806 10.8943 7.123V7.122ZM10.9523 6.469C10.8453 6.502 10.7803 6.601 10.8063 6.689C10.8333 6.778 10.9413 6.822 11.0473 6.789C11.1543 6.756 11.2203 6.657 11.1933 6.569C11.1673 6.48 11.0603 6.435 10.9523 6.469ZM17.2003 5.705L12.2683 6.603L14.8483 7.174C14.9179 7.07892 15.0162 7.00879 15.1288 6.97402C15.2414 6.93926 15.3622 6.94171 15.4733 6.981L17.2003 5.705ZM17.8053 5.802L15.9663 7.162L21.0113 7.302L21.0223 7.264L18.3483 5.74C18.2874 5.78461 18.2179 5.81608 18.1443 5.83244C18.0706 5.84879 17.9943 5.84966 17.9203 5.835C17.8809 5.82793 17.8424 5.81687 17.8053 5.802ZM18.0433 5.183C17.9333 5.163 17.8303 5.221 17.8153 5.313C17.8003 5.403 17.8753 5.493 17.9863 5.513C18.0963 5.533 18.1983 5.475 18.2143 5.383C18.2303 5.293 18.1533 5.203 18.0433 5.183ZM21.2763 7.908C21.208 7.86584 21.1486 7.81082 21.1013 7.746L15.8383 7.6C15.8343 7.63127 15.8272 7.66209 15.8173 7.692L17.9413 10.141C18.064 10.1143 18.1921 10.1301 18.3047 10.1857C18.4174 10.2412 18.5078 10.3334 18.5613 10.447H20.8183C20.8734 10.3297 20.9674 10.235 21.0843 10.179L21.2763 7.908ZM21.3163 10.466C21.1953 10.466 21.0963 10.568 21.0963 10.693C21.0963 10.818 21.1953 10.919 21.3163 10.919C21.4393 10.919 21.5393 10.818 21.5393 10.693C21.5393 10.568 21.4393 10.466 21.3173 10.466H21.3163ZM21.4153 7.266C21.3603 7.362 21.4013 7.492 21.5073 7.554C21.6123 7.618 21.7433 7.591 21.7973 7.494C21.8533 7.398 21.8123 7.269 21.7063 7.206C21.6003 7.143 21.4703 7.17 21.4153 7.266ZM25.3303 12.584L21.7033 7.997L21.5203 10.166C21.6174 10.2057 21.7015 10.2716 21.7633 10.3564C21.8251 10.4412 21.8622 10.5414 21.8703 10.646L25.3303 12.584ZM23.0373 8.587L22.2233 8.041L24.8503 11.461L23.5723 9.174C23.4654 9.16571 23.363 9.12798 23.2763 9.065C23.1063 8.944 23.0163 8.755 23.0363 8.587H23.0373ZM23.4173 8.53C23.3653 8.606 23.3973 8.72 23.4893 8.786C23.5803 8.851 23.6973 8.843 23.7493 8.766C23.8013 8.691 23.7693 8.576 23.6783 8.511C23.5853 8.446 23.4693 8.454 23.4183 8.531L23.4173 8.53ZM17.8473 10.693C17.8473 10.815 17.9423 10.914 18.0633 10.914C18.1213 10.9132 18.1766 10.8895 18.2173 10.8482C18.2579 10.8068 18.2805 10.751 18.2803 10.693C18.2808 10.6348 18.2583 10.5788 18.2176 10.5372C18.1769 10.4956 18.1215 10.4718 18.0633 10.471C18.0051 10.4718 17.9496 10.4956 17.9089 10.5372C17.8683 10.5788 17.8457 10.6348 17.8463 10.693H17.8473ZM17.9663 15.466C17.9369 15.4663 17.9078 15.4723 17.8807 15.4838C17.8536 15.4953 17.8291 15.512 17.8085 15.533C17.7879 15.554 17.7716 15.5788 17.7606 15.6061C17.7495 15.6334 17.744 15.6626 17.7443 15.692C17.7443 15.817 17.8443 15.919 17.9663 15.919C17.9957 15.9186 18.0247 15.9124 18.0518 15.9008C18.0788 15.8892 18.1033 15.8724 18.1238 15.8513C18.1443 15.8302 18.1605 15.8053 18.1714 15.778C18.1823 15.7506 18.1877 15.7214 18.1873 15.692C18.1877 15.6626 18.1823 15.6335 18.1714 15.6062C18.1605 15.5789 18.1443 15.5541 18.1237 15.5331C18.1032 15.5121 18.0787 15.4953 18.0517 15.4838C18.0247 15.4723 17.9956 15.4663 17.9663 15.466ZM15.0693 7.442C15.0693 7.567 15.1683 7.668 15.2903 7.668C15.3197 7.66774 15.3488 7.66169 15.3758 7.65019C15.4029 7.63869 15.4275 7.62197 15.4481 7.60098C15.4687 7.58 15.485 7.55516 15.496 7.52788C15.507 7.5006 15.5125 7.47142 15.5123 7.442C15.5123 7.317 15.4123 7.215 15.2903 7.215C15.2609 7.21539 15.2318 7.22158 15.2048 7.2332C15.1778 7.24482 15.1533 7.26165 15.1328 7.28273C15.1122 7.30381 15.0961 7.32872 15.0852 7.35605C15.0743 7.38338 15.0689 7.41259 15.0693 7.442ZM15.2313 8.079L14.2173 10.234C14.3306 10.3173 14.409 10.4397 14.4373 10.5776C14.4656 10.7154 14.4417 10.8588 14.3703 10.98L17.7503 15.17C17.7813 15.1571 17.8134 15.1471 17.8463 15.14V11.214C17.7721 11.1817 17.7057 11.1339 17.6516 11.0738C17.5975 11.0136 17.5569 10.9426 17.5325 10.8655C17.5082 10.7884 17.5006 10.7069 17.5104 10.6266C17.5202 10.5463 17.5471 10.469 17.5893 10.4L15.5293 8.026C15.4368 8.07104 15.3336 8.08939 15.2313 8.079ZM13.6713 10.693C13.6713 10.818 13.7713 10.919 13.8933 10.919C14.0143 10.919 14.1143 10.818 14.1143 10.693C14.1143 10.568 14.0143 10.466 13.8933 10.466C13.8338 10.4668 13.777 10.4911 13.7354 10.5337C13.6938 10.5762 13.6707 10.6335 13.6713 10.693ZM10.7113 10.693C10.7113 10.815 10.8073 10.914 10.9273 10.914C11.0473 10.914 11.1443 10.815 11.1443 10.693C11.1443 10.57 11.0473 10.471 10.9273 10.471C10.8073 10.471 10.7113 10.571 10.7113 10.693ZM10.9273 21.303C10.898 21.3034 10.8691 21.3096 10.8422 21.3211C10.8153 21.3327 10.7909 21.3494 10.7705 21.3704C10.75 21.3914 10.7339 21.4162 10.7231 21.4434C10.7123 21.4706 10.7069 21.4997 10.7073 21.529C10.7073 21.654 10.8053 21.755 10.9273 21.755C10.9567 21.7547 10.9858 21.7487 11.0129 21.7372C11.0399 21.7257 11.0645 21.709 11.0851 21.688C11.1057 21.667 11.122 21.6422 11.133 21.6149C11.144 21.5876 11.1495 21.5584 11.1493 21.529C11.1497 21.4996 11.1442 21.4703 11.1333 21.443C11.1223 21.4156 11.106 21.3907 11.0854 21.3697C11.0647 21.3487 11.0401 21.332 11.013 21.3205C10.9859 21.3091 10.9567 21.3031 10.9273 21.303ZM8.73128 9.843C8.65828 9.929 8.65228 10.048 8.72128 10.109C8.78828 10.169 8.90328 10.151 8.97728 10.064C9.05128 9.979 9.05628 9.86 8.98828 9.799C8.92028 9.737 8.80628 9.757 8.73128 9.843ZM7.10628 16.502C7.16233 16.5913 7.19182 16.6946 7.19128 16.8C7.19128 16.91 7.16128 17.012 7.10928 17.095L10.7113 20.817V11.214C10.6135 11.1709 10.5299 11.101 10.4702 11.0123C10.4106 10.9236 10.3773 10.8198 10.3743 10.713L9.15228 10.338C9.11432 10.3725 9.07195 10.4017 9.02628 10.425L7.10628 16.502ZM18.4003 20.962C18.6393 20.962 18.8423 21.117 18.9203 21.332H20.7983C20.8239 21.2603 20.864 21.1946 20.9159 21.1389C20.9678 21.0832 21.0306 21.0386 21.1003 21.008V11.214C21.0305 11.1834 20.9678 11.1389 20.9158 11.0832C20.8639 11.0275 20.8239 10.9617 20.7983 10.89H18.5823C18.5564 10.9616 18.5162 11.0272 18.4644 11.0828C18.4125 11.1385 18.3498 11.1831 18.2803 11.214V15.224C18.3549 15.277 18.4157 15.3472 18.4575 15.4287C18.4993 15.5101 18.5208 15.6005 18.5203 15.692C18.5219 15.8406 18.4644 15.9838 18.3606 16.0901C18.2567 16.1964 18.1149 16.2572 17.9663 16.259C17.8927 16.2582 17.8199 16.2429 17.7522 16.214C17.6845 16.1851 17.6231 16.1431 17.5717 16.0904C17.5202 16.0377 17.4797 15.9754 17.4523 15.9071C17.425 15.8387 17.4114 15.7656 17.4123 15.692C17.4123 15.622 17.4243 15.555 17.4483 15.492L14.0203 11.244C13.8878 11.2745 13.7487 11.2553 13.6295 11.19C13.5102 11.1248 13.4191 11.018 13.3733 10.89H11.4473C11.4212 10.9617 11.381 11.0273 11.3289 11.083C11.2768 11.1387 11.214 11.1832 11.1443 11.214V21.008C11.2843 21.068 11.3933 21.186 11.4473 21.332H13.6623C13.6883 21.2604 13.7286 21.1947 13.7807 21.139C13.8327 21.0833 13.8955 21.0388 13.9653 21.008V16.938C13.8837 16.8868 13.8165 16.8157 13.77 16.7314C13.7234 16.6471 13.6991 16.5523 13.6993 16.456C13.6984 16.3823 13.712 16.3091 13.7394 16.2407C13.7668 16.1723 13.8075 16.1099 13.859 16.0573C13.9106 16.0046 13.9721 15.9626 14.0399 15.9337C14.1077 15.9049 14.1806 15.8897 14.2543 15.889C14.3452 15.8893 14.4346 15.9117 14.5149 15.9544C14.5952 15.997 14.6639 16.0585 14.7151 16.1336C14.7663 16.2087 14.7985 16.2952 14.8088 16.3855C14.8191 16.4758 14.8072 16.5673 14.7743 16.652L18.2573 20.982C18.3039 20.9695 18.352 20.9628 18.4003 20.962ZM18.6403 25.009C18.5203 25.009 18.4203 25.099 18.4203 25.211C18.4203 25.323 18.5203 25.412 18.6403 25.412C18.7633 25.412 18.8633 25.322 18.8633 25.212C18.8633 25.102 18.7633 25.009 18.6413 25.009H18.6403ZM18.1793 21.529C18.1793 21.654 18.2783 21.755 18.3993 21.755C18.4288 21.7549 18.458 21.7489 18.4852 21.7375C18.5124 21.726 18.537 21.7093 18.5577 21.6883C18.5785 21.6673 18.5948 21.6425 18.6059 21.6151C18.617 21.5878 18.6225 21.5585 18.6223 21.529C18.6225 21.4996 18.617 21.4704 18.606 21.4431C18.595 21.4158 18.5787 21.391 18.5581 21.37C18.5375 21.349 18.5129 21.3323 18.4859 21.3208C18.4588 21.3093 18.4297 21.3033 18.4003 21.303C18.341 21.3038 18.2845 21.328 18.2431 21.3704C18.2017 21.4127 18.1787 21.4698 18.1793 21.529ZM14.0323 16.456C14.0323 16.581 14.1323 16.682 14.2543 16.682C14.3763 16.682 14.4753 16.581 14.4753 16.456C14.4753 16.33 14.3763 16.23 14.2543 16.23C14.1323 16.23 14.0323 16.33 14.0323 16.456ZM14.1823 21.303C14.1529 21.3033 14.1238 21.3093 14.0967 21.3208C14.0696 21.3323 14.0451 21.349 14.0245 21.37C14.0039 21.391 13.9876 21.4158 13.9766 21.4431C13.9655 21.4704 13.96 21.4996 13.9603 21.529C13.9603 21.654 14.0603 21.755 14.1823 21.755C14.3043 21.755 14.4033 21.654 14.4033 21.529C14.4037 21.4996 14.3983 21.4705 14.3874 21.4432C14.3765 21.4159 14.3603 21.3911 14.3397 21.3701C14.3192 21.3491 14.2947 21.3323 14.2677 21.3208C14.2407 21.3093 14.2116 21.3033 14.1823 21.303ZM14.3983 21.008C14.5177 21.0604 14.6153 21.1524 14.6747 21.2684C14.7341 21.3845 14.7516 21.5175 14.7243 21.645L18.3173 24.762C18.35 24.743 18.3845 24.7272 18.4203 24.715L18.2363 22.071C18.1223 22.0335 18.0231 21.9609 17.953 21.8635C17.883 21.7661 17.8456 21.649 17.8463 21.529C17.8463 21.429 17.8713 21.336 17.9163 21.256L14.4733 16.976C14.449 16.9867 14.4239 16.9954 14.3983 17.002V21.008ZM21.5383 21.528C21.5385 21.4987 21.533 21.4697 21.5221 21.4425C21.5111 21.4154 21.4949 21.3906 21.4744 21.3697C21.4539 21.3488 21.4294 21.3322 21.4025 21.3207C21.3755 21.3093 21.3466 21.3033 21.3173 21.303C21.2879 21.3033 21.2588 21.3093 21.2317 21.3208C21.2046 21.3323 21.1801 21.349 21.1595 21.37C21.1389 21.391 21.1226 21.4158 21.1116 21.4431C21.1005 21.4704 21.095 21.4996 21.0953 21.529C21.0953 21.654 21.1953 21.755 21.3173 21.755C21.4393 21.755 21.5393 21.654 21.5393 21.529L21.5383 21.528ZM5.82828 18.507C5.91828 18.492 5.97528 18.388 5.95628 18.276C5.93628 18.163 5.84928 18.084 5.76028 18.1C5.67028 18.115 5.61428 18.22 5.63328 18.332C5.65128 18.445 5.73928 18.524 5.82828 18.507ZM25.8003 12.793C25.7283 12.816 25.6903 12.91 25.7173 13.001C25.7443 13.092 25.8253 13.147 25.8973 13.124C25.9713 13.101 26.0073 13.007 25.9813 12.916C25.9553 12.824 25.8733 12.77 25.8013 12.793H25.8003Z" fill="white"/>
</svg>
