<svg width="32" height="32" viewBox="0 0 32 32" fill="none" xmlns="http://www.w3.org/2000/svg">
<path d="M16 32C24.8366 32 32 24.8366 32 16C32 7.16344 24.8366 0 16 0C7.16344 0 0 7.16344 0 16C0 24.8366 7.16344 32 16 32Z" fill="#1A4199"/>
<path opacity="0.7" d="M10.676 7.12499L21.408 13.316V19.635L5 10.159L10.265 7.12499C10.3288 7.08813 10.4013 7.06873 10.475 7.06873C10.5487 7.06873 10.6212 7.08813 10.685 7.12499" fill="white"/>
<path opacity="0.9" d="M21.4084 7L15.9414 10.16L21.4084 13.316V7Z" fill="white"/>
<path d="M21.4082 7L26.6722 10.036C26.7384 10.0718 26.7937 10.1248 26.8324 10.1894C26.8711 10.2539 26.8918 10.3277 26.8922 10.403V22.792L21.4082 19.635V7Z" fill="white"/>
<path opacity="0.9" d="M26.8808 22.792L21.6168 25.825C21.5524 25.86 21.4802 25.8784 21.4068 25.8784C21.3335 25.8784 21.2613 25.86 21.1968 25.825L10.4648 19.635V13.307L26.8808 22.792Z" fill="white"/>
<path opacity="0.6" d="M5 10.16V22.547C5.00024 22.6224 5.02079 22.6964 5.05951 22.7612C5.09822 22.8259 5.15366 22.8791 5.22 22.915L10.485 25.951V13.307L5 10.16Z" fill="white"/>
<path opacity="0.7" d="M10.4756 25.95L15.9406 22.792L10.4756 19.635V25.95Z" fill="white"/>
</svg>
