<svg width="32" height="32" viewBox="0 0 32 32" fill="none" xmlns="http://www.w3.org/2000/svg">
<path d="M16 32C24.8366 32 32 24.8366 32 16C32 7.16344 24.8366 0 16 0C7.16344 0 0 7.16344 0 16C0 24.8366 7.16344 32 16 32Z" fill="#2AB0FD"/>
<path fill-rule="evenodd" clip-rule="evenodd" d="M25.5148 14.804C25.6798 14.802 25.7848 14.824 25.8508 14.884C25.9208 14.948 25.9488 15.052 25.9638 15.215C26.4298 20.594 22.3618 25.456 16.9658 25.955C11.4018 26.47 6.57182 22.455 6.04382 16.875C5.52982 11.456 9.59882 6.54 15.0298 6.046C18.1058 5.766 20.7618 6.732 22.9978 8.862C23.0208 8.884 23.0158 8.976 22.9898 9.002C22.4877 9.51354 21.981 10.0206 21.4698 10.523C21.4408 10.551 21.3368 10.547 21.3048 10.518C18.9978 8.404 16.3248 7.778 13.4018 8.843C10.4458 9.92 8.75482 12.15 8.41982 15.29C7.96982 19.539 11.1768 23.284 15.4548 23.607C19.3328 23.899 22.8468 21.154 23.4898 17.322C23.4958 17.284 23.4098 17.189 23.3658 17.189C20.9708 17.182 18.5758 17.184 16.1818 17.175C16.1198 17.175 16.0048 17.06 16.0028 16.997C15.9903 16.3277 15.9903 15.6583 16.0028 14.989C16.0038 14.929 16.1108 14.821 16.1698 14.82C17.7658 14.811 23.9958 14.825 25.5138 14.803L25.5148 14.804Z" fill="white"/>
</svg>
