<svg width="32" height="32" viewBox="0 0 32 32" fill="none" xmlns="http://www.w3.org/2000/svg">
<path d="M16 32C24.8366 32 32 24.8366 32 16C32 7.16344 24.8366 0 16 0C7.16344 0 0 7.16344 0 16C0 24.8366 7.16344 32 16 32Z" fill="#EEC315"/>
<path d="M18.99 8.185C18.9901 8.09509 18.9725 8.00604 18.9382 7.92294C18.9039 7.83984 18.8535 7.76431 18.79 7.70069C18.7265 7.63707 18.651 7.5866 18.568 7.55216C18.4849 7.51772 18.3959 7.5 18.306 7.5H13.132L13.14 7.51H8.147C7.513 7.51 7 8.024 7 8.658V23.342C7 23.976 7.513 24.49 8.147 24.49H10.002C10.636 24.49 11.149 23.976 11.149 23.342V12.618C11.149 11.602 12.371 11.087 13.097 11.797L17.072 15.683C17.731 16.327 18.797 15.963 18.99 15.133C19.01 15.047 19.02 14.957 19.02 14.862L18.99 8.185Z" fill="white"/>
<path d="M23.9655 7.51H21.8855C21.3155 7.51 20.8515 7.974 20.8515 8.546V19.648C20.8515 20.565 19.7485 21.03 19.0935 20.388L14.7385 16.131C14.0825 15.491 12.9805 15.955 12.9805 16.872V19.236C12.9805 19.272 12.9825 19.308 12.9855 19.344L12.9805 19.339V23.563C12.9805 24.081 13.3995 24.5 13.9165 24.5H19.6565L19.6425 24.49H23.9655C24.5375 24.49 25.0005 24.026 25.0005 23.454V8.546C25.0005 7.974 24.5375 7.51 23.9655 7.51Z" fill="white"/>
</svg>
