<svg width="32" height="32" viewBox="0 0 32 32" fill="none" xmlns="http://www.w3.org/2000/svg">
<path d="M16 32C24.8366 32 32 24.8366 32 16C32 7.16344 24.8366 0 16 0C7.16344 0 0 7.16344 0 16C0 24.8366 7.16344 32 16 32Z" fill="black"/>
<path d="M27.9856 14.669V14.733C26.5986 15.601 25.2016 16.459 23.8086 17.325C23.7822 17.3441 23.7614 17.37 23.7486 17.4C24.1206 17.5 24.5056 17.575 24.8586 17.737C25.1846 17.882 25.5186 18.071 25.7026 18.388C25.8786 18.71 25.9226 19.088 25.8246 19.441C25.7716 19.705 25.6606 19.953 25.5606 20.204C25.1426 21.206 24.7226 22.205 24.3076 23.211C24.2874 23.2608 24.2605 23.3076 24.2276 23.35C24.0906 23.347 23.9596 23.297 23.8256 23.266C23.1496 23.099 22.4696 22.935 21.7936 22.766C21.5736 22.704 21.3476 22.668 21.1306 22.596C21.1366 22.459 21.2146 22.342 21.2606 22.219L22.1886 19.998C22.2586 19.844 22.2996 19.652 22.1996 19.502C22.0746 19.288 21.8236 19.207 21.6016 19.146C20.7856 18.936 19.9636 18.742 19.1456 18.539C19.0286 18.514 18.9146 18.461 18.7916 18.477C18.7196 18.603 18.6776 18.745 18.6196 18.881C18.2716 19.697 17.9376 20.518 17.5916 21.334C17.5416 21.448 17.5116 21.574 17.4356 21.674C17.2996 21.674 17.1716 21.621 17.0406 21.59C16.3416 21.418 15.6426 21.242 14.9406 21.072C14.7436 21.019 14.5376 20.986 14.3426 20.919C14.345 20.8636 14.3572 20.8091 14.3786 20.758L17.9116 12.288C17.9238 12.2596 17.9431 12.2348 17.9676 12.216C18.0906 12.224 18.2076 12.274 18.3276 12.302C18.9226 12.444 19.5186 12.597 20.1146 12.742C20.4236 12.822 20.7406 12.884 21.0476 12.976C21.0636 13.034 21.0356 13.093 21.0136 13.148C20.7736 13.694 20.5536 14.248 20.3206 14.794L19.5996 16.526C19.5186 16.729 19.4126 16.924 19.3566 17.138C19.4606 17.102 19.5496 17.041 19.6406 16.979L24.3466 14.029C24.4326 13.975 24.5106 13.903 24.6086 13.878C24.7526 13.867 24.8886 13.922 25.0256 13.953C25.5056 14.056 25.9776 14.193 26.4536 14.303C26.9696 14.418 27.4756 14.56 27.9856 14.669ZM16.8816 12.97C16.9066 13.474 16.7146 13.953 16.5176 14.404C15.9856 15.682 15.4476 16.957 14.9186 18.235C14.7266 18.686 14.5596 19.157 14.2646 19.555C14.0546 19.851 13.7626 20.079 13.4246 20.209C12.9985 20.3422 12.5473 20.3748 12.1066 20.304C11.3466 20.209 10.6066 20.004 9.86258 19.825C8.85258 19.572 7.83558 19.327 6.82558 19.073C6.15458 18.912 5.47758 18.739 4.85358 18.433C4.58433 18.3025 4.35553 18.1013 4.19158 17.851C4.06494 17.6444 4.00912 17.4022 4.03258 17.161C4.08558 16.718 4.24958 16.297 4.42758 15.891L6.05758 11.976C6.18758 11.676 6.30157 11.366 6.46858 11.083C6.61145 10.8212 6.80127 10.588 7.02857 10.395C7.29658 10.191 7.61158 10.06 7.94458 10.013C8.18958 9.991 8.43458 10.003 8.67958 10.008C9.43723 10.12 10.1876 10.2769 10.9266 10.478C11.9626 10.728 12.9956 10.991 14.0306 11.241C14.5066 11.358 14.9806 11.478 15.4456 11.637C15.7566 11.751 16.0746 11.867 16.3476 12.065C16.6576 12.266 16.8556 12.601 16.8816 12.97ZM13.2616 13.861C13.2816 13.714 13.1766 13.588 13.0536 13.524C12.8036 13.388 12.5186 13.338 12.2466 13.268C11.5246 13.088 10.8026 12.91 10.0766 12.734C9.87084 12.6737 9.65425 12.66 9.44257 12.694C9.19758 12.764 9.07457 13.012 8.99157 13.229C8.58157 14.204 8.18158 15.181 7.76958 16.153C7.72458 16.267 7.67958 16.381 7.66958 16.503C7.66958 16.643 7.76658 16.765 7.88558 16.823C8.06458 16.915 8.25958 16.966 8.44858 17.016L10.7036 17.57C10.9656 17.631 11.2406 17.698 11.5086 17.64C11.7336 17.567 11.8486 17.336 11.9316 17.133L13.0366 14.482C13.1236 14.282 13.2346 14.084 13.2626 13.862L13.2616 13.861Z" fill="white"/>
</svg>
