<svg width="32" height="32" viewBox="0 0 32 32" fill="none" xmlns="http://www.w3.org/2000/svg">
<path d="M16 32C24.8366 32 32 24.8366 32 16C32 7.16344 24.8366 0 16 0C7.16344 0 0 7.16344 0 16C0 24.8366 7.16344 32 16 32Z" fill="black"/>
<path fill-rule="evenodd" clip-rule="evenodd" d="M15.943 26.311C21.683 26.311 26.031 22.465 26.933 17.433H22.036C21.304 20.105 19.032 22.061 16.001 22.061C12.992 22.061 10.691 20.091 9.928 17.433H5C5.869 22.483 10.18 26.311 15.943 26.311Z" fill="white"/>
<path d="M15.9713 10.054C17.367 10.054 18.4983 8.92262 18.4983 7.527C18.4983 6.13138 17.367 5 15.9713 5C14.5757 5 13.4443 6.13138 13.4443 7.527C13.4443 8.92262 14.5757 10.054 15.9713 10.054Z" fill="white"/>
<path fill-rule="evenodd" clip-rule="evenodd" d="M9.65527 17.433V17.383C9.65527 13.79 12.2293 10.857 15.9403 10.857C19.6523 10.857 22.2803 13.84 22.2863 17.433H9.65527Z" fill="white"/>
</svg>
