<svg width="32" height="32" viewBox="0 0 32 32" fill="none" xmlns="http://www.w3.org/2000/svg">
<path d="M16 32C24.8366 32 32 24.8366 32 16C32 7.16344 24.8366 0 16 0C7.16344 0 0 7.16344 0 16C0 24.8366 7.16344 32 16 32Z" fill="#25AAE1"/>
<path fill-rule="evenodd" clip-rule="evenodd" d="M16.3459 24.993C14.7059 25.011 13.3289 24.715 12.0309 24.07C11.9509 24.03 11.8909 24.028 11.8109 24.073C11.0225 24.5186 10.157 24.811 9.25991 24.935C8.87591 24.985 8.48791 25.039 8.10191 24.96C7.86422 24.9133 7.64321 24.8043 7.46154 24.6441C7.27986 24.4839 7.14405 24.2783 7.06804 24.0483C6.99202 23.8183 6.97852 23.5722 7.02893 23.3353C7.07934 23.0984 7.19185 22.8791 7.35491 22.7C7.81315 22.1795 8.15721 21.5687 8.36491 20.907C8.37712 20.874 8.38104 20.8385 8.37633 20.8036C8.37163 20.7688 8.35843 20.7356 8.33791 20.707C7.63 19.5833 7.19284 18.3105 7.06091 16.989C6.76691 14.067 7.67591 11.564 9.77091 9.512C11.0894 8.20601 12.7956 7.36253 14.6339 7.108C17.1709 6.737 19.4829 7.323 21.5139 8.896C23.3259 10.3 24.4539 12.149 24.8469 14.407C25.3449 17.265 24.6239 19.811 22.7069 21.987C21.2899 23.595 19.4899 24.55 17.3719 24.889C16.9699 24.954 16.5619 24.972 16.3459 24.993ZM9.91591 22.605C9.98091 22.587 10.0189 22.577 10.0559 22.565C10.6247 22.3729 11.1618 22.0976 11.6499 21.748C12.0019 21.5 12.3489 21.488 12.7199 21.7C13.5159 22.156 14.3689 22.44 15.2839 22.537C16.7709 22.696 18.1739 22.413 19.4289 21.607C21.5989 20.215 22.6789 18.211 22.5619 15.616C22.4869 13.954 21.8359 12.519 20.6569 11.35C19.2359 9.942 17.5069 9.3 15.5039 9.438C14.1539 9.532 12.9339 9.996 11.8949 10.863C9.88191 12.543 9.10491 14.697 9.55091 17.28C9.69691 18.13 10.0359 18.91 10.5139 19.63C10.6051 19.7587 10.6676 19.9055 10.6971 20.0604C10.7266 20.2153 10.7225 20.3748 10.6849 20.528C10.5706 21.0253 10.4099 21.5107 10.2049 21.978C10.1159 22.181 10.0199 22.38 9.91691 22.605H9.91591ZM16.0069 12.193L16.5769 13.35C16.7769 13.76 16.9829 14.17 17.1769 14.584C17.2269 14.692 17.2939 14.73 17.4059 14.745C18.2459 14.862 19.0849 14.985 19.9239 15.106C19.9529 15.111 19.9819 15.119 20.0179 15.126C19.8629 15.286 19.7189 15.442 19.5679 15.589C19.0939 16.052 18.6189 16.513 18.1409 16.971C18.0579 17.051 18.0249 17.126 18.0469 17.249C18.1969 18.092 18.3369 18.937 18.4789 19.782C18.4819 19.803 18.4819 19.825 18.4849 19.866C18.4389 19.848 18.4039 19.837 18.3719 19.82C17.6299 19.429 16.8869 19.039 16.1479 18.642C16.0479 18.588 15.9699 18.583 15.8659 18.639C15.1219 19.036 14.3749 19.427 13.6279 19.819C13.5979 19.836 13.5659 19.849 13.5079 19.877C13.5449 19.65 13.5769 19.447 13.6119 19.245C13.7299 18.563 13.8469 17.88 13.9719 17.199C13.9899 17.099 13.9339 17.052 13.8779 16.997C13.2825 16.4117 12.6858 15.8277 12.0879 15.245C12.0539 15.211 12.0059 15.192 11.9639 15.166L11.9949 15.118L12.9109 14.986C13.4869 14.904 14.0619 14.82 14.6389 14.741C14.7309 14.728 14.7729 14.679 14.8109 14.601C15.1879 13.832 15.5689 13.065 15.9479 12.297C15.9619 12.27 15.9779 12.245 16.0079 12.193H16.0069Z" fill="white"/>
</svg>
