<svg width="32" height="32" viewBox="0 0 32 32" fill="none" xmlns="http://www.w3.org/2000/svg">
<path d="M16 32C24.8366 32 32 24.8366 32 16C32 7.16344 24.8366 0 16 0C7.16344 0 0 7.16344 0 16C0 24.8366 7.16344 32 16 32Z" fill="#34445B"/>
<path d="M15.9373 10.222L17.9473 7.086C18.4631 7.16965 18.9912 7.05123 19.4218 6.75538C19.8525 6.45953 20.1525 6.00903 20.2594 5.49761C20.3663 4.9862 20.2719 4.45324 19.9959 4.00965C19.7198 3.56605 19.2834 3.24597 18.7773 3.116C18.3742 3.03252 17.9553 3.07357 17.576 3.2337C17.1968 3.39383 16.8752 3.66546 16.6539 4.01258C16.4326 4.3597 16.3221 4.76589 16.337 5.17727C16.3519 5.58866 16.4915 5.98579 16.7373 6.316L14.2433 10.207C13.2025 10.3094 12.1921 10.6158 11.2698 11.1089C10.3475 11.602 9.53134 12.2719 8.86807 13.0805C8.20481 13.8892 7.70738 14.8205 7.40424 15.8215C7.10109 16.8224 6.99816 17.8733 7.10133 18.914C7.30937 21.0153 8.34329 22.948 9.97583 24.2873C11.6084 25.6265 13.7059 26.2627 15.8073 26.056C17.9088 25.8482 19.8418 24.8144 21.1812 23.1818C22.5207 21.5493 23.157 19.4516 22.9503 17.35C22.7708 15.5398 21.9772 13.8455 20.7014 12.5487C19.4256 11.252 17.7444 10.4309 15.9373 10.222ZM15.0223 22.344C14.4676 22.3445 13.9181 22.2357 13.4055 22.0236C12.8928 21.8116 12.427 21.5006 12.0347 21.1083C11.6424 20.7161 11.3312 20.2504 11.1191 19.7378C10.9069 19.2252 10.7979 18.6758 10.7983 18.121C10.7978 17.5661 10.9067 17.0166 11.1188 16.5039C11.3309 15.9912 11.642 15.5253 12.0343 15.133C12.4267 14.7407 12.8925 14.4296 13.4052 14.2175C13.918 14.0054 14.4675 13.8965 15.0223 13.897C15.8804 13.8968 16.7182 14.1582 17.4239 14.6463C18.1296 15.1344 18.6698 15.826 18.9723 16.629C18.5754 16.1179 17.9919 15.7852 17.3499 15.704C16.7079 15.6228 16.06 15.7998 15.5483 16.196C15.037 16.5927 14.7041 17.1763 14.6229 17.8184C14.5417 18.4604 14.7188 19.1085 15.1153 19.62C15.3431 19.913 15.6346 20.1502 15.9678 20.3136C16.301 20.477 16.667 20.5622 17.0381 20.5629C17.4092 20.5636 17.7756 20.4796 18.1093 20.3175C18.4431 20.1553 18.7355 19.9192 18.9643 19.627C18.6605 20.4264 18.1207 21.1144 17.4166 21.5997C16.7126 22.085 15.8775 22.3446 15.0223 22.344Z" fill="white"/>
<path d="M15.9373 10.222L17.9473 7.086C18.4631 7.16965 18.9912 7.05123 19.4218 6.75538C19.8525 6.45953 20.1525 6.00903 20.2594 5.49761C20.3663 4.9862 20.2719 4.45324 19.9959 4.00965C19.7198 3.56605 19.2834 3.24597 18.7773 3.116C18.3742 3.03252 17.9553 3.07357 17.576 3.2337C17.1968 3.39383 16.8752 3.66546 16.6539 4.01258C16.4326 4.3597 16.3221 4.76589 16.337 5.17727C16.3519 5.58866 16.4915 5.98579 16.7373 6.316L14.2433 10.207C13.2025 10.3094 12.1921 10.6158 11.2698 11.1089C10.3475 11.602 9.53134 12.2719 8.86807 13.0805C8.20481 13.8892 7.70738 14.8205 7.40424 15.8215C7.10109 16.8224 6.99816 17.8733 7.10133 18.914C7.30937 21.0153 8.34329 22.948 9.97583 24.2873C11.6084 25.6265 13.7059 26.2627 15.8073 26.056C17.9088 25.8482 19.8418 24.8144 21.1812 23.1818C22.5207 21.5493 23.157 19.4516 22.9503 17.35C22.7708 15.5398 21.9772 13.8455 20.7014 12.5487C19.4256 11.252 17.7444 10.4309 15.9373 10.222ZM15.0223 22.344C14.4676 22.3445 13.9181 22.2357 13.4055 22.0236C12.8928 21.8116 12.427 21.5006 12.0347 21.1083C11.6424 20.7161 11.3312 20.2504 11.1191 19.7378C10.9069 19.2252 10.7979 18.6758 10.7983 18.121C10.7978 17.5661 10.9067 17.0166 11.1188 16.5039C11.3309 15.9912 11.642 15.5253 12.0343 15.133C12.4267 14.7407 12.8925 14.4296 13.4052 14.2175C13.918 14.0054 14.4675 13.8965 15.0223 13.897C15.8804 13.8968 16.7182 14.1582 17.4239 14.6463C18.1296 15.1344 18.6698 15.826 18.9723 16.629C18.5754 16.1179 17.9919 15.7852 17.3499 15.704C16.7079 15.6228 16.06 15.7998 15.5483 16.196C15.037 16.5927 14.7041 17.1763 14.6229 17.8184C14.5417 18.4604 14.7188 19.1085 15.1153 19.62C15.3431 19.913 15.6346 20.1502 15.9678 20.3136C16.301 20.477 16.667 20.5622 17.0381 20.5629C17.4092 20.5636 17.7756 20.4796 18.1093 20.3175C18.4431 20.1553 18.7355 19.9192 18.9643 19.627C18.6605 20.4264 18.1207 21.1144 17.4166 21.5997C16.7126 22.085 15.8775 22.3446 15.0223 22.344Z" fill="white"/>
</svg>
