<svg width="32" height="32" viewBox="0 0 32 32" fill="none" xmlns="http://www.w3.org/2000/svg">
<path d="M16 32C24.8366 32 32 24.8366 32 16C32 7.16344 24.8366 0 16 0C7.16344 0 0 7.16344 0 16C0 24.8366 7.16344 32 16 32Z" fill="#5F45BA"/>
<path d="M10.4426 9.16C10.3317 9.34701 10.1677 9.49691 9.97159 9.59074C9.77544 9.68456 9.55586 9.71809 9.34065 9.68708C9.12544 9.65607 8.92426 9.56191 8.76257 9.41653C8.60088 9.27115 8.48595 9.08107 8.43233 8.87035C8.3787 8.65963 8.38879 8.43774 8.46131 8.23275C8.53384 8.02777 8.66554 7.8489 8.83975 7.71879C9.01396 7.58867 9.22285 7.51316 9.43999 7.50181C9.65713 7.49046 9.87276 7.54377 10.0596 7.655C10.5806 7.965 10.7526 8.638 10.4426 9.16ZM6.69259 8.672C6.61421 8.80433 6.49832 8.91042 6.3596 8.97684C6.22087 9.04325 6.06556 9.067 5.91333 9.04508C5.7611 9.02316 5.6188 8.95656 5.50445 8.8537C5.3901 8.75085 5.30885 8.61637 5.27098 8.4673C5.23312 8.31823 5.24035 8.16128 5.29175 8.01632C5.34316 7.87136 5.43643 7.74492 5.55975 7.65301C5.68307 7.5611 5.83089 7.50786 5.98449 7.50002C6.13809 7.49219 6.29056 7.53012 6.42259 7.609C6.79059 7.829 6.91259 8.304 6.69259 8.672ZM17.1316 24.572C18.2516 24.4398 19.3344 24.0873 20.3175 23.5348C21.3007 22.9823 22.1649 22.2407 22.8602 21.3528C23.5555 20.4648 24.0683 19.4481 24.3689 18.3611C24.6696 17.2742 24.7522 16.1385 24.6121 15.0194C24.4719 13.9004 24.1117 12.8201 23.5522 11.8409C22.9928 10.8617 22.2451 10.0029 21.3522 9.31385C20.4594 8.62486 19.439 8.11933 18.3499 7.82639C17.2609 7.53345 16.1246 7.45889 15.0066 7.607C14.2876 7.67424 13.5832 7.85095 12.9176 8.131C12.1426 8.511 11.6426 9.144 11.6426 9.991C11.6426 11.091 12.5346 11.985 13.6366 11.985C13.8206 11.985 14.4576 11.783 14.6096 11.731C15.3274 11.4805 16.096 11.4116 16.8469 11.5305C17.5978 11.6493 18.3077 11.9521 18.9131 12.412C19.5185 12.8718 20.0006 13.4744 20.3166 14.1659C20.6325 14.8574 20.7723 15.6163 20.7236 16.375C20.663 17.3395 20.3007 18.2606 19.6878 19.0079C19.075 19.7552 18.2428 20.291 17.3088 20.5393C16.3748 20.7877 15.3863 20.736 14.4833 20.3918C13.5802 20.0475 12.8083 19.4281 12.2766 18.621V18.622C11.3566 17.417 11.5686 15.491 11.5676 15.466C11.5496 14.9892 11.3615 14.5345 11.0373 14.1844C10.7131 13.8343 10.2742 13.6118 9.80015 13.5573C9.3261 13.5028 8.84819 13.6198 8.45297 13.8872C8.05775 14.1546 7.77134 14.5547 7.64559 15.015C7.60059 15.182 7.57759 15.671 7.58459 15.736C7.53416 16.9718 7.75252 18.2038 8.2246 19.3469C8.69668 20.4901 9.41124 21.5172 10.3189 22.3572C11.2266 23.1973 12.3058 23.8304 13.482 24.2128C14.6582 24.5952 15.9034 24.7177 17.1316 24.572ZM9.29959 12.21C9.1558 12.4521 8.94344 12.6462 8.68937 12.7676C8.43531 12.889 8.15094 12.9324 7.87221 12.8923C7.59349 12.8521 7.33293 12.7302 7.12347 12.542C6.91402 12.3538 6.76507 12.1077 6.69545 11.8349C6.62584 11.562 6.63869 11.2746 6.73238 11.0091C6.82607 10.7435 6.99639 10.5117 7.22181 10.3429C7.44723 10.1741 7.71763 10.076 7.99883 10.0609C8.28002 10.0458 8.55938 10.1144 8.80159 10.258C9.47759 10.66 9.69959 11.534 9.29859 12.21" fill="white"/>
</svg>
