<svg width="32" height="32" viewBox="0 0 32 32" fill="none" xmlns="http://www.w3.org/2000/svg">
<path d="M16 32C24.8366 32 32 24.8366 32 16C32 7.16344 24.8366 0 16 0C7.16344 0 0 7.16344 0 16C0 24.8366 7.16344 32 16 32Z" fill="#E4CE4D"/>
<path d="M18.6032 6.912C20.3412 8.139 22.1512 8.276 24.4662 8.702C26.5722 9.093 27.0192 11.244 26.0572 13.982C25.999 13.8836 25.939 13.7862 25.8772 13.69L26.0572 13.982L26.0402 14.027L26.0572 13.982C27.5242 16.474 27.5132 19.173 24.3382 20.554C18.6852 23.014 18.3482 27.859 13.0052 25.251C12.2477 24.878 11.5675 24.3653 11.0002 23.74L10.7922 23.503L10.5992 23.47C7.01318 22.835 4.65918 20.891 6.83718 15.931C8.76418 11.548 7.04318 7.235 12.9532 7.427H12.9552C14.5832 5.9 16.4602 5.403 18.6022 6.912H18.6032ZM13.0962 11.344C10.6182 13.123 9.80218 16.436 11.4522 19.009C11.842 19.6201 12.3488 20.1481 12.9436 20.5624C13.5384 20.9768 14.2092 21.2693 14.9176 21.4231C15.6259 21.577 16.3577 21.5891 17.0708 21.4588C17.7838 21.3285 18.464 21.0584 19.0722 20.664C21.6302 19.004 21.9802 15.784 20.7162 12.997C19.4212 10.14 15.8662 9.355 13.0962 11.344Z" fill="white"/>
</svg>
