<svg width="32" height="32" viewBox="0 0 32 32" fill="none" xmlns="http://www.w3.org/2000/svg">
<path d="M16 32C24.8366 32 32 24.8366 32 16C32 7.16344 24.8366 0 16 0C7.16344 0 0 7.16344 0 16C0 24.8366 7.16344 32 16 32Z" fill="#96B73D"/>
<path d="M11.5936 16.105C11.6796 16.363 11.8066 16.605 11.9706 16.823L9.47758 14.305C9.2178 14.043 9.07204 13.689 9.07204 13.32C9.07204 12.951 9.2178 12.597 9.47758 12.335L12.6226 9.188C12.6876 9.14 12.7496 9.088 12.8096 9.034L12.9006 8.954L15.4476 6.405C15.5757 6.27637 15.728 6.17435 15.8957 6.10483C16.0634 6.03531 16.2432 5.99967 16.4247 5.99994C16.6062 6.00022 16.7859 6.03642 16.9534 6.10646C17.1209 6.17649 17.2729 6.27897 17.4006 6.408L25.7436 14.811C25.9337 15.0812 26.0228 15.4097 25.9952 15.7389C25.9676 16.0682 25.8251 16.3772 25.5926 16.612C25.3631 16.8434 25.0611 16.9891 24.7371 17.0246C24.4131 17.0601 24.0867 16.9833 23.8126 16.807L16.4426 9.367L16.4346 9.357L16.4106 9.331L12.4676 13.275L12.4076 13.325C12.4053 13.3277 12.403 13.3304 12.4006 13.333L16.2966 17.26C16.4681 17.4333 16.5914 17.6485 16.6541 17.8842C16.7168 18.1198 16.7168 18.3678 16.6542 18.6035C16.5915 18.8392 16.4683 19.0544 16.2969 19.2278C16.1254 19.4012 15.9116 19.5267 15.6766 19.592C15.4417 19.6553 15.1942 19.6552 14.9594 19.5918C14.7245 19.5284 14.5107 19.4039 14.3396 19.231L12.3436 17.221C12.3146 17.195 12.2856 17.161 12.2496 17.125L12.1576 17.033C12.0907 16.9577 12.0282 16.8786 11.9706 16.796L12.0156 16.849L11.9856 16.81C11.8181 16.5975 11.6857 16.3594 11.5936 16.105ZM19.7396 18.678L15.8386 14.749C15.5788 14.487 15.433 14.133 15.433 13.764C15.433 13.395 15.5788 13.041 15.8386 12.779C15.9669 12.6502 16.1195 12.5481 16.2875 12.4786C16.4555 12.409 16.6356 12.3734 16.8174 12.3738C16.9992 12.3741 17.1792 12.4105 17.3469 12.4807C17.5146 12.551 17.6668 12.6537 17.7946 12.783L19.7916 14.793C19.8196 14.818 19.8486 14.853 19.8856 14.888L19.9766 14.98C20.0286 15.038 20.0766 15.1 20.1206 15.163L20.1426 15.19C20.1145 15.1499 20.0858 15.1102 20.0566 15.071L22.6666 17.698C22.9267 17.9602 23.0727 18.3146 23.0727 18.684C23.0727 19.0534 22.9267 19.4078 22.6666 19.67L19.5196 22.818C19.4537 22.865 19.3903 22.9154 19.3296 22.969L16.7056 25.593C16.5777 25.722 16.4255 25.8244 16.2578 25.8942C16.0901 25.9641 15.9102 26.0001 15.7286 26.0001C15.5469 26.0001 15.3671 25.9641 15.1994 25.8942C15.0317 25.8244 14.8795 25.722 14.7516 25.593L6.27458 17.046C6.06803 16.7658 5.97263 16.4189 6.0068 16.0725C6.04097 15.726 6.20227 15.4045 6.45958 15.17C6.71606 14.9367 7.05082 14.8083 7.39753 14.8101C7.74423 14.812 8.0776 14.944 8.33158 15.18L15.7156 22.635L15.7406 22.665L19.6756 18.731L19.7336 18.684C19.7356 18.682 19.7376 18.68 19.7396 18.678Z" fill="white"/>
</svg>
