<svg width="32" height="32" viewBox="0 0 32 32" fill="none" xmlns="http://www.w3.org/2000/svg">
<path d="M16 32C24.8366 32 32 24.8366 32 16C32 7.16344 24.8366 0 16 0C7.16344 0 0 7.16344 0 16C0 24.8366 7.16344 32 16 32Z" fill="#05BCA9"/>
<path fill-rule="evenodd" clip-rule="evenodd" d="M27.9947 15.954C28.0047 15.9997 27.9989 16.0475 27.9782 16.0895C27.9575 16.1315 27.9231 16.1652 27.8807 16.185L27.8047 16.221L25.4987 18.533L26.3927 21.878C26.4067 21.9306 26.3994 21.9867 26.3722 22.0339C26.345 22.0812 26.3002 22.1157 26.2477 22.13L23.0387 22.991L22.1537 26.301C22.1398 26.3535 22.1057 26.3983 22.0588 26.4257C22.012 26.453 21.9562 26.4607 21.9037 26.447L18.5137 25.537L16.1157 27.94C16.0967 27.9592 16.0741 27.9744 16.0492 27.9848C16.0243 27.9952 15.9976 28.0005 15.9707 28.0005C15.9437 28.0005 15.917 27.9952 15.8921 27.9848C15.8672 27.9744 15.8446 27.9592 15.8257 27.94L13.4567 25.565L10.1747 26.447C10.1487 26.4539 10.1217 26.4557 10.095 26.4522C10.0684 26.4486 10.0428 26.4399 10.0195 26.4264C9.99632 26.4129 9.97598 26.395 9.9597 26.3737C9.94341 26.3523 9.9315 26.328 9.92465 26.302L9.03865 22.992L5.83065 22.13C5.80454 22.123 5.78007 22.111 5.75863 22.0945C5.7372 22.0781 5.71923 22.0576 5.70575 22.0342C5.69227 22.0107 5.68356 21.9849 5.68011 21.9581C5.67666 21.9313 5.67855 21.9041 5.68565 21.878L6.55065 18.641L4.06065 16.144C4.02242 16.1054 4.00098 16.0533 4.00098 15.999C4.00098 15.9447 4.02242 15.8926 4.06065 15.854L6.48165 13.425L5.61665 10.189C5.60261 10.1362 5.61011 10.08 5.63748 10.0328C5.66486 9.98552 5.70988 9.95107 5.76265 9.937L9.11765 9.035L9.99165 5.765C10.0057 5.71223 10.0402 5.66721 10.0874 5.63983C10.1347 5.61245 10.1909 5.60496 10.2437 5.619L13.4177 6.472L15.8257 4.058C15.8647 4.02071 15.9166 3.9999 15.9707 3.9999C16.0247 3.9999 16.0766 4.02071 16.1157 4.058L18.5527 6.5L21.8347 5.618C21.8607 5.61106 21.8879 5.60934 21.9146 5.61292C21.9414 5.61651 21.9671 5.62534 21.9905 5.6389C22.0138 5.65246 22.0342 5.67049 22.0505 5.69196C22.0669 5.71343 22.0788 5.73791 22.0857 5.764L22.1087 5.85C22.1137 5.86292 22.1174 5.87633 22.1197 5.89L22.9597 9.034L26.3157 9.936C26.4257 9.966 26.4897 10.078 26.4607 10.188L25.5667 13.532L27.8237 15.795C27.8648 15.8009 27.9032 15.8191 27.9338 15.8474C27.9643 15.8756 27.9855 15.9124 27.9947 15.953V15.954ZM25.3757 18.074L26.7217 16.726L25.2047 17.433L25.3757 18.075V18.074ZM25.8667 21.501L25.1637 18.869L23.7667 20.269V20.27L25.8667 21.501ZM23.6567 20.681L23.1617 22.533L25.6667 21.86L23.6567 20.682V20.681ZM21.8587 25.817L22.5817 23.114L20.6077 23.644L21.8587 25.817ZM19.3547 24.692L18.8477 25.201L20.8367 25.735L19.3547 24.692ZM16.1757 27.298L18.0557 25.413L16.1757 24.908V27.298ZM15.7657 24.945L13.9147 25.442L15.7647 27.298V24.945H15.7657ZM10.5767 25.913L13.1227 25.23L11.7587 23.862L10.5767 25.913ZM9.49665 23.114L10.0617 25.228L10.2317 23.312L9.49665 23.114ZM6.40665 21.859L8.91665 22.533L8.41665 20.666L6.40665 21.859ZM8.21365 20.309L6.88565 18.977L6.21165 21.497L8.21365 20.309ZM4.73365 16.239L6.67365 18.183L7.19265 16.239H4.73365ZM6.81365 14.664L6.60465 13.884L4.97065 15.522L6.81365 14.664ZM6.14165 10.562L6.81665 13.089L8.16665 11.736L6.14165 10.562ZM8.47965 11.422L8.99565 9.494L6.34565 10.206L8.46665 11.435L8.47965 11.422ZM10.2517 6.382L9.57565 8.912L11.4227 8.416L10.2517 6.383V6.382ZM12.5937 7.298L13.0827 6.808L11.1667 6.293L12.5937 7.298ZM15.7657 4.7L13.8757 6.595L15.7657 7.103V4.7ZM16.1757 7.14L18.0957 6.624L16.1757 4.7V7.14ZM21.5717 6.116L18.8877 6.836L20.3257 8.279L21.5717 6.116ZM21.8747 8.744L22.5027 8.912L22.0197 7.105L21.8747 8.744ZM25.7247 10.204L23.0827 9.494L23.5927 11.406L25.7237 10.203L25.7247 10.204ZM23.7997 11.761L25.2317 13.196L25.9387 10.553L23.7997 11.761ZM27.2417 15.792L25.4447 13.991L24.9627 15.792H27.2417ZM24.8757 16.203L25.0957 17.028L26.8667 16.203H24.8767H24.8757ZM24.5657 17.275L24.7187 17.205L24.6517 16.955L24.5667 17.275H24.5657ZM24.4277 17.793L23.9777 19.474L25.0407 18.409L24.8267 17.607L24.4277 17.793ZM23.1867 20.85L20.9037 23.138L22.7037 22.655L23.1867 20.85ZM20.3197 23.143L23.3987 20.056L23.9427 18.019L18.7597 20.434L20.3197 23.143ZM20.2317 23.813L19.6497 24.396L21.1937 25.483L20.2317 23.813ZM19.1407 24.038L19.3087 24.156L19.5317 23.932L19.1407 24.038ZM18.6237 24.176L16.8317 24.658L18.3907 25.077L19.0147 24.451L18.6247 24.176H18.6237ZM15.2467 24.658L12.3597 23.882L13.5797 25.106L15.2467 24.658ZM10.6897 22.79L10.6697 23.003L10.9867 23.088L10.6897 22.79ZM10.3107 22.41L8.94165 21.04L9.37365 22.657L10.2687 22.897L10.3107 22.412V22.41ZM8.14965 19.663L7.42565 16.955L7.00765 18.518L8.14965 19.663ZM7.12465 15.828L6.92065 15.067L5.28765 15.827H7.12465V15.828ZM7.58865 14.755L7.29865 14.891L7.42565 15.367L7.58865 14.755ZM7.72765 14.238L8.26765 12.216L6.93965 13.548L7.19065 14.488L7.72765 14.238ZM9.05965 10.84L10.9187 8.977L9.45265 9.371L9.05965 10.841V10.84ZM11.7437 8.15L12.2997 7.593L10.8237 6.554L11.7437 8.15ZM12.9037 8.018L12.6407 7.833L12.2907 8.183L12.9037 8.018ZM13.4207 7.879L15.2467 7.389L13.5407 6.931L12.9347 7.537L13.4207 7.879ZM16.8307 7.389L19.6007 8.133L18.4307 6.96L16.8307 7.389ZM21.4077 9.363L21.4357 9.051L20.9727 8.927L21.4077 9.363ZM21.7857 9.743L23.0677 11.028L22.6247 9.371L21.8377 9.159L21.7857 9.743ZM23.8597 12.403L24.6517 15.367L25.1097 13.656L23.8597 12.404V12.403ZM18.0857 19.264L18.5537 20.077L24.0817 17.502L24.4287 16.204H21.2137L21.0507 18.038C21.0468 18.0811 21.0294 18.1218 21.0009 18.1544C20.9724 18.187 20.9344 18.2098 20.8922 18.2194C20.8501 18.2291 20.8059 18.2251 20.7661 18.2082C20.7263 18.1912 20.6929 18.1621 20.6707 18.125L19.6727 16.435L18.0857 19.264ZM17.3017 20.661L18.1807 20.251L17.8517 19.681L17.3017 20.661ZM13.8157 20.291L18.7027 23.731L19.9857 23.386L18.3857 20.609L16.8977 21.303C16.8581 21.3217 16.8137 21.3272 16.7708 21.3188C16.7279 21.3105 16.6888 21.2886 16.6593 21.2564C16.6297 21.2243 16.6111 21.1835 16.6063 21.1401C16.6016 21.0967 16.6108 21.0528 16.6327 21.015L17.5657 19.352L14.3357 19.388L13.8157 20.29V20.291ZM13.6097 20.648L12.0397 23.372L16.0397 24.446L18.1857 23.869L13.6097 20.648ZM13.8587 19.393L12.5617 19.408L13.4787 20.053L13.8587 19.393ZM11.2687 16.239L10.7367 22.257L11.6707 23.192L13.2727 20.41L11.8047 19.378C11.7692 19.3529 11.7426 19.3172 11.7287 19.2761C11.7148 19.2349 11.7142 19.1904 11.7271 19.149C11.7399 19.1075 11.7656 19.0711 11.8004 19.0451C11.8351 19.019 11.8772 19.0047 11.9207 19.004L13.9047 18.981L12.2847 16.239H11.2697H11.2687ZM10.8587 16.239H7.65865L8.72865 20.244L10.3587 21.877L10.8587 16.239ZM12.0407 15.828L11.4017 14.746L11.3057 15.828H12.0407ZM13.4907 12.006L8.07465 14.53L7.72765 15.828H10.8947L11.0497 14.074C11.0541 14.0313 11.0719 13.991 11.1004 13.9589C11.1288 13.9267 11.1667 13.9043 11.2086 13.8947C11.2504 13.8851 11.2943 13.8888 11.3339 13.9054C11.3736 13.9219 11.407 13.9505 11.4297 13.987L12.4327 15.684L13.9997 12.891L13.4897 12.006H13.4907ZM13.2847 11.649L11.6547 8.82L8.84765 11.635L8.21265 14.012L13.2847 11.649ZM18.2917 11.811L13.3417 8.326L12.0457 8.675L13.6577 11.475L15.2577 10.729C15.2972 10.7103 15.3416 10.7048 15.3845 10.7132C15.4274 10.7215 15.4665 10.7434 15.496 10.7756C15.5256 10.8077 15.5442 10.8485 15.549 10.8919C15.5537 10.9353 15.5445 10.9792 15.5227 11.017L14.5867 12.685L17.8087 12.649L18.2917 11.811ZM18.4977 11.453L20.0887 8.69L16.0387 7.602L13.8587 8.188L18.4977 11.453ZM18.2857 12.643L19.4557 12.631L18.6287 12.048L18.2857 12.644V12.643ZM20.8017 16.204H20.0117L20.6987 17.366L20.8017 16.204ZM14.2337 12.474L14.8537 11.371L13.8637 11.832L14.2337 12.475V12.474ZM17.7967 18.941L19.4307 16.027L17.6857 13.073L17.6807 13.062L14.3537 13.099L12.6737 16.093L14.3787 18.976L17.7767 18.938C17.7837 18.938 17.7897 18.94 17.7967 18.941ZM21.7387 10.277L21.2497 15.793H24.3417L23.2797 11.823L21.7387 10.277ZM20.8387 15.793L21.3607 9.897L20.4137 8.948L18.8337 11.69L20.2137 12.66C20.2495 12.685 20.2765 12.7207 20.2907 12.762C20.3049 12.8034 20.3056 12.8481 20.2927 12.8899C20.2798 12.9316 20.2539 12.9682 20.2188 12.9943C20.1838 13.0204 20.1413 13.0346 20.0977 13.035L18.1527 13.056L19.7697 15.793H20.8377H20.8387ZM21.4717 8.636L21.6317 6.833L20.7117 8.431L21.4717 8.636ZM10.6337 23.42L10.4687 25.278L11.4187 23.63L10.6337 23.42Z" fill="white"/>
</svg>
