<svg width="32" height="32" viewBox="0 0 32 32" fill="none" xmlns="http://www.w3.org/2000/svg">
<path d="M16 32C24.8366 32 32 24.8366 32 16C32 7.16344 24.8366 0 16 0C7.16344 0 0 7.16344 0 16C0 24.8366 7.16344 32 16 32Z" fill="#348F8D"/>
<path d="M23.312 7.044C23.5509 7.29187 23.6844 7.62273 23.6844 7.967C23.6844 8.31127 23.5509 8.64213 23.312 8.89L20.1819 12.099C20.0825 12.2006 19.9669 12.2851 19.84 12.349C19.6102 12.4786 19.3439 12.5283 19.0829 12.4901C18.8219 12.4519 18.5809 12.328 18.398 12.138L15.28 8.944L9.27495 15.103L10.725 16.586C10.933 16.8048 11.0485 17.0955 11.0472 17.3974C11.0459 17.6993 10.9279 17.989 10.718 18.206C10.6155 18.312 10.4928 18.3964 10.3572 18.4543C10.2216 18.5121 10.0758 18.5423 9.92843 18.5429C9.781 18.5436 9.63494 18.5147 9.49884 18.4581C9.36274 18.4014 9.23936 18.3181 9.13595 18.213L6.82995 15.86C6.61831 15.6411 6.5 15.3485 6.5 15.044C6.5 14.7395 6.61831 14.4469 6.82995 14.228L6.84595 14.213C6.85087 14.2082 6.85555 14.2032 6.85995 14.198L14.484 6.378H14.485L14.486 6.377L14.511 6.351C14.7012 6.15326 14.9561 6.03029 15.2293 6.00442C15.5025 5.97855 15.7759 6.05149 16 6.21C16.0719 6.259 16.14 6.314 16.2 6.377L19.184 9.43L21.511 7.044C21.6279 6.92334 21.768 6.82741 21.9228 6.7619C22.0775 6.69638 22.2439 6.66263 22.412 6.66263C22.58 6.66263 22.7464 6.69638 22.9011 6.7619C23.0559 6.82741 23.196 6.92334 23.313 7.044H23.312ZM25.17 16.146C25.3823 16.3635 25.5013 16.6553 25.5015 16.9593C25.5017 17.2633 25.3831 17.5553 25.1709 17.773L25.155 17.788C25.1497 17.7927 25.1447 17.7977 25.1399 17.803L17.486 25.65C17.3696 25.7706 17.2283 25.8642 17.0719 25.9244C16.9156 25.9845 16.7479 26.0097 16.5808 25.9982C16.4136 25.9867 16.251 25.9387 16.1044 25.8576C15.9577 25.7766 15.8306 25.6644 15.732 25.529L12.8149 22.545L10.502 24.923C10.18 25.255 9.70995 25.386 9.26895 25.265C8.82795 25.144 8.48295 24.792 8.36495 24.34C8.24795 23.889 8.37495 23.407 8.69995 23.078L11.829 19.87C12.007 19.684 12.236 19.558 12.486 19.508C12.89 19.418 13.3119 19.544 13.6049 19.844L16.731 23.042L22.725 16.898L21.275 15.415C21.0669 15.1962 20.9514 14.9055 20.9527 14.6036C20.954 14.3017 21.072 14.012 21.2819 13.795C21.3844 13.689 21.5071 13.6046 21.6427 13.5467C21.7783 13.4889 21.9241 13.4587 22.0715 13.4581C22.2189 13.4574 22.365 13.4863 22.5011 13.5429C22.6372 13.5996 22.7605 13.6829 22.864 13.788L25.1369 16.113L25.139 16.115L25.142 16.117L25.17 16.146Z" fill="white"/>
</svg>
