<svg width="32" height="32" viewBox="0 0 32 32" fill="none" xmlns="http://www.w3.org/2000/svg">
<path d="M16 32C24.8366 32 32 24.8366 32 16C32 7.16344 24.8366 0 16 0C7.16344 0 0 7.16344 0 16C0 24.8366 7.16344 32 16 32Z" fill="#3A8CBD"/>
<path d="M13.4702 18.045H15.1482C15.6277 18.0465 16.1015 17.9413 16.5352 17.737C16.9452 17.534 17.3112 17.253 17.6122 16.909C17.9112 16.553 18.1422 16.146 18.2962 15.708C18.4621 15.2641 18.5461 14.7939 18.5442 14.32C18.5469 13.8576 18.455 13.3996 18.2742 12.974C18.1008 12.5428 17.856 12.1439 17.5502 11.794C17.242 11.4435 16.8692 11.1556 16.4522 10.946C16.0245 10.7249 15.5496 10.611 15.0682 10.614H10.6582V21.317H13.4742L13.4702 18.045ZM13.4702 13.199H14.8972C15.0955 13.212 15.2811 13.3013 15.4152 13.448C15.5812 13.613 15.6852 13.904 15.6852 14.359C15.6852 14.814 15.5822 15.084 15.4352 15.231C15.3122 15.376 15.1462 15.479 14.9602 15.479H13.4702V13.2V13.199Z" fill="white"/>
<path d="M7.02344 8.03V23.918C7.02344 24.488 7.48444 24.948 8.05344 24.948H23.9414C24.5104 24.948 24.9714 24.488 24.9714 23.918V8.03C24.9716 7.89465 24.945 7.76061 24.8933 7.63553C24.8416 7.51045 24.7658 7.39678 24.6701 7.30103C24.5745 7.20528 24.4609 7.12933 24.3358 7.0775C24.2108 7.02568 24.0768 6.999 23.9414 6.999H8.05344C7.91818 6.999 7.78424 7.02564 7.65927 7.0774C7.53431 7.12917 7.42076 7.20504 7.32512 7.30068C7.22947 7.39632 7.1536 7.50987 7.10184 7.63484C7.05008 7.7598 7.02344 7.89374 7.02344 8.029V8.03ZM21.8264 22.834H10.1464C10.0111 22.8341 9.87705 22.8076 9.75197 22.7559C9.62689 22.7042 9.51322 22.6283 9.41747 22.5327C9.32172 22.437 9.24576 22.3234 9.19394 22.1984C9.14211 22.0734 9.11544 21.9393 9.11544 21.804V10.124C9.11531 9.98857 9.14188 9.85444 9.19365 9.7293C9.24542 9.60415 9.32135 9.49044 9.41712 9.39468C9.51288 9.29892 9.62659 9.22298 9.75174 9.17121C9.87688 9.11945 10.011 9.09287 10.1464 9.093H21.8264C22.3964 9.093 22.8564 9.554 22.8564 10.123V21.803C22.8564 22.373 22.3964 22.834 21.8264 22.834Z" fill="white"/>
<path d="M14.7334 19.309H21.3404V21.339H14.7334V19.309Z" fill="white"/>
</svg>
