<svg width="32" height="32" viewBox="0 0 32 32" fill="none" xmlns="http://www.w3.org/2000/svg">
<path d="M16 32C24.8366 32 32 24.8366 32 16C32 7.16344 24.8366 0 16 0C7.16344 0 0 7.16344 0 16C0 24.8366 7.16344 32 16 32Z" fill="#1061E3"/>
<path fill-rule="evenodd" clip-rule="evenodd" d="M24.2812 20.867C24.3652 21.728 24.0962 22.578 23.2632 23.13C22.8642 23.395 22.4192 23.5 21.9412 23.5C17.9812 23.498 14.0212 23.499 10.0612 23.498C9.97451 23.498 9.88781 23.4957 9.80122 23.491C8.93322 23.444 8.11322 22.815 7.83322 21.994C7.70922 21.631 7.69022 21.259 7.70522 20.867H10.1152C10.3472 20.866 10.5012 20.697 10.4492 20.486C10.422 20.4042 10.3741 20.3308 10.3102 20.273C9.32722 19.291 8.34122 18.313 7.35622 17.333L6.45422 16.435C6.11522 16.1 5.95222 15.695 6.01222 15.223C6.04222 14.991 6.11722 14.763 6.19222 14.539C6.61316 13.2702 7.28174 12.0975 8.15922 11.089C9.40218 9.64254 11.0234 8.57084 12.8412 7.994C14.0246 7.60666 15.2702 7.44486 16.5132 7.517C19.4492 7.693 21.8942 8.887 23.8322 11.088C24.8237 12.2136 25.5453 13.5505 25.9422 14.997C26.0922 15.536 25.9502 16.021 25.5512 16.418C24.8012 17.166 24.0452 17.908 23.2922 18.653C22.7392 19.2 22.1872 19.749 21.6352 20.298C21.4532 20.478 21.4712 20.718 21.6792 20.825C21.7392 20.855 21.8142 20.865 21.8822 20.865C22.6422 20.868 23.4032 20.867 24.1642 20.867H24.2812ZM8.44222 21.407C8.45322 21.729 8.53922 22.015 8.72722 22.265C9.03922 22.681 9.46022 22.877 9.98222 22.876H22.0102C22.0572 22.876 22.1042 22.874 22.1502 22.871C22.3717 22.8625 22.5883 22.8031 22.783 22.6973C22.9778 22.5915 23.1456 22.4422 23.2732 22.261C23.4592 22.011 23.5462 21.725 23.5512 21.408L8.44222 21.407ZM18.7102 13.66C18.7392 13.679 18.7602 13.69 18.7772 13.703C19.7652 14.439 20.3912 15.403 20.6292 16.61C20.7592 17.266 20.7412 17.92 20.5872 18.571C20.4469 19.1624 20.1921 19.7205 19.8372 20.214C19.8038 20.2559 19.7803 20.3049 19.7686 20.3572C19.7568 20.4095 19.757 20.4638 19.7692 20.516C19.8382 20.788 20.1472 20.876 20.3512 20.677C20.6512 20.386 20.9442 20.089 21.2412 19.795C22.4372 18.605 23.6332 17.416 24.8302 16.228C25.0902 15.97 25.2042 15.662 25.1402 15.302C25.1112 15.146 25.0552 14.994 25.0022 14.844C24.6139 13.717 24.0433 12.6613 23.3132 11.719C22.7547 10.9958 22.0906 10.3607 21.3432 9.835C21.3051 9.80763 21.2787 9.76694 21.2692 9.721C21.2583 9.61493 21.2226 9.5129 21.165 9.42312C21.1075 9.33334 21.0297 9.25831 20.9379 9.20405C20.8461 9.14978 20.7428 9.1178 20.6364 9.11067C20.53 9.10355 20.4234 9.12147 20.3252 9.163C20.2845 9.17913 20.2392 9.17948 20.1982 9.164C19.1441 8.66226 18.0035 8.36759 16.8382 8.296C15.912 8.2264 14.9807 8.27884 14.0682 8.452C13.3058 8.59726 12.5655 8.84131 11.8662 9.178C11.8396 9.19317 11.8094 9.20114 11.7787 9.20114C11.748 9.20114 11.7179 9.19317 11.6912 9.178C11.5912 9.12871 11.4803 9.10535 11.3689 9.11005C11.2574 9.11474 11.149 9.14736 11.0534 9.20489C10.9579 9.26242 10.8783 9.34303 10.822 9.43933C10.7657 9.53562 10.7345 9.64451 10.7312 9.756C10.7312 9.816 10.7092 9.851 10.6632 9.887C10.3572 10.13 10.0392 10.361 9.75322 10.626C8.40922 11.871 7.49522 13.39 6.90822 15.113C6.76022 15.549 6.85822 15.923 7.18322 16.246L10.7432 19.785C11.0412 20.082 11.3382 20.379 11.6392 20.674C11.8122 20.844 12.0732 20.814 12.1862 20.613C12.2632 20.474 12.2442 20.337 12.1532 20.209C11.6747 19.5467 11.3807 18.7692 11.3012 17.956C11.2315 17.2874 11.3101 16.6118 11.5312 15.977C11.5812 15.832 11.6432 15.69 11.7022 15.54L13.1142 16.37C12.8211 17.0789 12.8001 17.871 13.0552 18.5944C13.3102 19.3179 13.8234 19.9217 14.4962 20.29C15.1315 20.6379 15.8678 20.7545 16.5794 20.6199C17.2911 20.4853 17.9339 20.1079 18.3982 19.552C18.8582 19.005 19.1022 18.37 19.1162 17.655C19.1362 16.589 18.6952 15.739 17.8662 15.077L18.7102 13.66ZM23.3752 16.7C23.3492 16.534 23.3252 16.381 23.2992 16.228C23.203 15.6633 23.0377 15.1125 22.8072 14.588C22.7822 14.528 22.7762 14.482 22.8062 14.42C22.8457 14.3368 22.8674 14.2463 22.87 14.1542C22.8726 14.0622 22.856 13.9706 22.8213 13.8853C22.7866 13.8 22.7345 13.7229 22.6684 13.6588C22.6023 13.5947 22.5236 13.545 22.4372 13.513C22.3526 13.481 22.2623 13.4663 22.1719 13.4698C22.0815 13.4733 21.9926 13.4949 21.9107 13.5333C21.8287 13.5717 21.7553 13.6262 21.6948 13.6935C21.6343 13.7607 21.5878 13.8395 21.5582 13.925C21.5288 14.0105 21.5172 14.1012 21.5243 14.1913C21.5314 14.2815 21.5569 14.3692 21.5993 14.4491C21.6416 14.529 21.7 14.5994 21.7707 14.6558C21.8414 14.7122 21.9229 14.7534 22.0102 14.777C22.0576 14.786 22.1017 14.8076 22.1379 14.8394C22.1741 14.8712 22.2012 14.9122 22.2162 14.958C22.5202 15.703 22.6892 16.475 22.7132 17.278C22.7152 17.3259 22.6995 17.3729 22.6692 17.41C22.2122 17.87 21.7512 18.326 21.2922 18.783C21.2762 18.798 21.2572 18.81 21.2502 18.817C21.6882 16.647 21.1552 14.766 19.4122 13.35C17.6012 11.88 15.5832 11.767 13.4642 12.723L12.8172 11.606C13.0482 11.503 13.2702 11.396 13.4972 11.302C14.0819 11.0686 14.696 10.9171 15.3222 10.852C15.4032 10.843 15.4622 10.856 15.5252 10.92C15.5871 10.9838 15.6613 11.0344 15.7433 11.0689C15.8253 11.1033 15.9134 11.1208 16.0023 11.1203C16.0912 11.1198 16.1791 11.1014 16.2607 11.0661C16.3423 11.0309 16.416 10.9794 16.4772 10.915C16.4983 10.8904 16.5254 10.8715 16.5559 10.8603C16.5863 10.8491 16.6192 10.8459 16.6512 10.851C18.1842 11.017 19.5142 11.619 20.6362 12.672C20.7262 12.757 20.8112 12.846 20.8982 12.934C21.0532 13.09 21.2242 13.094 21.3822 12.942L22.4332 11.925L22.5312 11.832C22.6572 11.992 22.7842 12.146 22.9022 12.306C23.5851 13.2293 24.109 14.2601 24.4522 15.356C24.4762 15.4205 24.4803 15.4906 24.4641 15.5574C24.4478 15.6242 24.412 15.6847 24.3612 15.731L23.4372 16.65C23.4212 16.665 23.4022 16.677 23.3752 16.7ZM22.1092 11.39L21.2112 12.259C21.1842 12.236 21.1592 12.215 21.1362 12.193C20.2013 11.2934 19.0442 10.6584 17.7832 10.353C17.4302 10.267 17.0652 10.227 16.7062 10.169C16.6432 10.159 16.6002 10.146 16.5612 10.086C16.4994 9.99203 16.4151 9.91492 16.316 9.86163C16.217 9.80834 16.1062 9.78055 15.9937 9.78074C15.8812 9.78094 15.7705 9.80913 15.6716 9.86277C15.5727 9.91641 15.4887 9.99381 15.4272 10.088C15.3972 10.1284 15.3528 10.1556 15.3032 10.164C12.9892 10.418 11.1732 11.502 9.84323 13.396C9.82833 13.4192 9.80835 13.4388 9.78479 13.4532C9.76123 13.4676 9.7347 13.4764 9.70722 13.479C9.24122 13.555 9.00422 14.009 9.19722 14.439C9.21238 14.4776 9.21238 14.5204 9.19722 14.559C8.9174 15.1967 8.7305 15.8712 8.64222 16.562C8.63622 16.605 8.62722 16.647 8.61722 16.706L8.53122 16.626C8.24522 16.341 7.96122 16.053 7.67122 15.772C7.53722 15.642 7.49322 15.504 7.55622 15.322C8.22922 13.392 9.29922 11.74 10.9662 10.507C10.9852 10.493 11.0052 10.481 11.0232 10.466C11.0832 10.413 11.1382 10.398 11.2272 10.422C11.3169 10.447 11.4107 10.4531 11.5028 10.4398C11.595 10.4265 11.6833 10.3942 11.7622 10.3449C11.8412 10.2956 11.909 10.2304 11.9613 10.1535C12.0136 10.0765 12.0494 9.98952 12.0662 9.898C12.0713 9.87842 12.0801 9.86003 12.0923 9.84389C12.1045 9.82776 12.1198 9.8142 12.1372 9.804C12.5691 9.591 13.0197 9.41827 13.4832 9.288C14.5782 8.977 15.6962 8.896 16.8262 8.977C17.8671 9.04304 18.8863 9.30354 19.8312 9.745C19.8912 9.773 19.9212 9.805 19.9312 9.875C19.9457 9.97614 19.9831 10.0726 20.0406 10.1571C20.0981 10.2416 20.1741 10.3118 20.2629 10.3623C20.3517 10.4129 20.4508 10.4425 20.5528 10.4488C20.6548 10.4552 20.7569 10.4382 20.8512 10.399C20.8832 10.387 20.9342 10.386 20.9592 10.403C21.3682 10.685 21.7442 11.005 22.0912 11.358C22.0982 11.365 22.1012 11.375 22.1092 11.39ZM18.4452 17.57C18.4522 18.901 17.3552 19.998 16.0092 20.006C15.3621 20.0079 14.7406 19.7536 14.2804 19.2986C13.8202 18.8437 13.5588 18.2251 13.5532 17.578C13.5472 16.245 14.6422 15.151 15.9912 15.144C16.6382 15.1403 17.2601 15.3936 17.7203 15.8484C18.1805 16.3031 18.4413 16.922 18.4452 17.569V17.57ZM10.7472 18.834L10.1152 18.199C9.85522 17.939 9.59322 17.683 9.33522 17.421C9.30169 17.3869 9.28178 17.3417 9.27922 17.294C9.30312 16.467 9.48223 15.6518 9.80722 14.891C9.81554 14.8663 9.83048 14.8444 9.85041 14.8277C9.87034 14.8109 9.89449 14.8 9.92022 14.796C10.3692 14.691 10.5782 14.299 10.4192 13.871C10.4092 13.841 10.4092 13.796 10.4242 13.771C10.9156 13.0441 11.5465 12.4221 12.2802 11.941C12.2832 11.939 12.2862 11.939 12.3002 11.935L12.5652 12.387L13.1212 13.347C13.2332 13.543 13.3792 13.586 13.5722 13.469C14.0767 13.1631 14.6357 12.958 15.2182 12.865C16.2198 12.6955 17.2493 12.8545 18.1532 13.318C18.1622 13.323 18.1692 13.33 18.1872 13.344L17.3482 14.751C15.7632 14.156 14.4532 14.511 13.3952 15.828L11.9882 15.001C12.1142 14.832 12.2342 14.669 12.3572 14.509C12.4072 14.443 12.4652 14.383 12.5212 14.321C12.6072 14.225 12.6072 14.171 12.5192 14.081C12.4418 14.0024 12.3638 13.9244 12.2852 13.847C12.1792 13.743 12.1272 13.743 12.0272 13.851C11.6006 14.3076 11.258 14.8361 11.0152 15.412C10.6711 16.2188 10.5343 17.0988 10.6172 17.972C10.6432 18.252 10.7002 18.529 10.7472 18.834ZM15.9952 10.824C15.896 10.8219 15.8014 10.7815 15.7313 10.7113C15.6612 10.641 15.621 10.5463 15.6192 10.447C15.6225 10.3478 15.6638 10.2537 15.7345 10.1841C15.8053 10.1145 15.9 10.0747 15.9992 10.073C16.0985 10.0753 16.193 10.116 16.2629 10.1865C16.3328 10.2569 16.3727 10.3517 16.3742 10.451C16.3721 10.5504 16.3314 10.6451 16.2606 10.7149C16.1899 10.7847 16.0946 10.8242 15.9952 10.825V10.824ZM11.3952 9.41C11.4446 9.40867 11.4938 9.41717 11.5399 9.43501C11.586 9.45284 11.6281 9.47966 11.6637 9.5139C11.6993 9.54814 11.7278 9.58912 11.7475 9.63446C11.7671 9.67979 11.7776 9.72859 11.7782 9.778C11.7782 9.87825 11.7384 9.9744 11.6675 10.0453C11.5966 10.1162 11.5005 10.156 11.4002 10.156C11.3 10.156 11.2038 10.1162 11.1329 10.0453C11.062 9.9744 11.0222 9.87825 11.0222 9.778C11.0233 9.67986 11.0631 9.58611 11.1329 9.51719C11.2028 9.44826 11.2971 9.40973 11.3952 9.41ZM22.1962 14.51C22.1009 14.506 22.0108 14.4656 21.9444 14.3971C21.8781 14.3286 21.8406 14.2372 21.8397 14.1418C21.8388 14.0465 21.8746 13.9544 21.9396 13.8846C22.0047 13.8149 22.094 13.7728 22.1892 13.767C22.238 13.7665 22.2864 13.7757 22.3317 13.7939C22.3769 13.8122 22.4181 13.8392 22.4529 13.8733C22.4878 13.9075 22.5155 13.9482 22.5346 13.9931C22.5537 14.038 22.5638 14.0862 22.5642 14.135C22.5647 14.1838 22.5555 14.2322 22.5373 14.2774C22.519 14.3227 22.4921 14.3639 22.4579 14.3987C22.4237 14.4335 22.383 14.4613 22.3381 14.4804C22.2932 14.4995 22.245 14.5095 22.1962 14.51ZM20.5932 9.41C20.8062 9.41 20.9682 9.57 20.9672 9.782C20.967 9.87988 20.928 9.97368 20.8589 10.043C20.7898 10.1123 20.6961 10.1515 20.5982 10.152C20.5489 10.1528 20.5 10.1438 20.4542 10.1256C20.4084 10.1075 20.3666 10.0804 20.3313 10.046C20.296 10.0116 20.2678 9.9706 20.2484 9.92529C20.229 9.87998 20.2187 9.83128 20.2182 9.782C20.2175 9.73266 20.2268 9.68369 20.2454 9.63799C20.2641 9.5923 20.2917 9.55082 20.3267 9.51602C20.3617 9.48122 20.4033 9.45382 20.4491 9.43543C20.4949 9.41704 20.5439 9.40806 20.5932 9.409V9.41ZM10.1752 14.138C10.1755 14.1873 10.1659 14.2361 10.1471 14.2816C10.1282 14.3271 10.1005 14.3684 10.0655 14.4031C10.0304 14.4377 9.98884 14.465 9.94313 14.4834C9.89741 14.5018 9.84848 14.5108 9.79922 14.51C9.74988 14.5107 9.70091 14.5014 9.65522 14.4828C9.60953 14.4642 9.56805 14.4365 9.53325 14.4016C9.49845 14.3666 9.47104 14.3249 9.45266 14.2791C9.43427 14.2334 9.42528 14.1843 9.42622 14.135C9.42675 14.037 9.46611 13.9433 9.53565 13.8743C9.6052 13.8053 9.69927 13.7667 9.79722 13.767C9.84653 13.7661 9.89553 13.775 9.94135 13.7932C9.98717 13.8114 10.0289 13.8386 10.0641 13.8732C10.0993 13.9077 10.1272 13.9489 10.1463 13.9944C10.1654 14.0399 10.1752 14.0887 10.1752 14.138Z" fill="white"/>
</svg>
