<svg width="32" height="32" viewBox="0 0 32 32" fill="none" xmlns="http://www.w3.org/2000/svg">
<path d="M16 32C24.8366 32 32 24.8366 32 16C32 7.16344 24.8366 0 16 0C7.16344 0 0 7.16344 0 16C0 24.8366 7.16344 32 16 32Z" fill="#9D4BEF"/>
<path d="M11.4701 7.661C12.4801 7.661 13.4487 8.0622 14.1628 8.77634C14.8769 9.49048 15.2781 10.4591 15.2781 11.469C15.2781 12.4789 14.8769 13.4475 14.1628 14.1617C13.4487 14.8758 12.4801 15.277 11.4701 15.277C10.4602 15.277 9.49161 14.8758 8.77747 14.1617C8.06333 13.4475 7.66213 12.4789 7.66213 11.469C7.66213 10.4591 8.06333 9.49048 8.77747 8.77634C9.49161 8.0622 10.4602 7.661 11.4701 7.661ZM15.2771 20.531C15.2771 21.2842 15.0538 22.0204 14.6354 22.6466C14.2169 23.2728 13.6222 23.7609 12.9264 24.0491C12.2306 24.3374 11.4649 24.4128 10.7262 24.2658C9.98755 24.1189 9.30903 23.7562 8.77647 23.2237C8.24391 22.6911 7.88124 22.0126 7.7343 21.2739C7.58737 20.5352 7.66278 19.7696 7.951 19.0737C8.23922 18.3779 8.7273 17.7832 9.35352 17.3648C9.97975 16.9463 10.716 16.723 11.4691 16.723C12.8623 16.723 14.1984 16.1696 15.1836 15.1844C16.1687 14.1993 16.7221 12.8632 16.7221 11.47C16.7221 10.7168 16.9455 9.98061 17.3639 9.35439C17.7823 8.72817 18.3771 8.24008 19.0729 7.95187C19.7687 7.66365 20.5344 7.58824 21.273 7.73517C22.0117 7.8821 22.6902 8.24478 23.2228 8.77734C23.7554 9.3099 24.118 9.98842 24.265 10.7271C24.4119 11.4658 24.3365 12.2314 24.0483 12.9273C23.7601 13.6231 23.272 14.2178 22.6457 14.6362C22.0195 15.0547 21.2833 15.278 20.5301 15.278C19.1371 15.2783 17.8013 15.8318 16.8163 16.8169C15.8314 17.802 15.2781 19.138 15.2781 20.531H15.2771ZM20.5301 24.339C19.5202 24.339 18.5516 23.9378 17.8375 23.2237C17.1233 22.5095 16.7221 21.5409 16.7221 20.531C16.7221 19.5211 17.1233 18.5525 17.8375 17.8383C18.5516 17.1242 19.5202 16.723 20.5301 16.723C21.5401 16.723 22.5087 17.1242 23.2228 17.8383C23.9369 18.5525 24.3381 19.5211 24.3381 20.531C24.3381 21.5409 23.9369 22.5095 23.2228 23.2237C22.5087 23.9378 21.5401 24.339 20.5301 24.339ZM20.5301 21.679C20.8346 21.679 21.1266 21.5581 21.3419 21.3428C21.5572 21.1275 21.6781 20.8355 21.6781 20.531C21.6781 20.2265 21.5572 19.9345 21.3419 19.7192C21.1266 19.504 20.8346 19.383 20.5301 19.383C20.2257 19.383 19.9337 19.504 19.7184 19.7192C19.5031 19.9345 19.3821 20.2265 19.3821 20.531C19.3821 20.8355 19.5031 21.1275 19.7184 21.3428C19.9337 21.5581 20.2257 21.679 20.5301 21.679ZM11.4701 21.679C11.7746 21.679 12.0666 21.5581 12.2819 21.3428C12.4972 21.1275 12.6181 20.8355 12.6181 20.531C12.6181 20.2265 12.4972 19.9345 12.2819 19.7192C12.0666 19.504 11.7746 19.383 11.4701 19.383C11.1657 19.383 10.8737 19.504 10.6584 19.7192C10.4431 19.9345 10.3221 20.2265 10.3221 20.531C10.3221 20.8355 10.4431 21.1275 10.6584 21.3428C10.8737 21.5581 11.1657 21.679 11.4701 21.679ZM20.5301 12.617C20.8346 12.617 21.1266 12.4961 21.3419 12.2808C21.5572 12.0655 21.6781 11.7735 21.6781 11.469C21.6781 11.1645 21.5572 10.8725 21.3419 10.6572C21.1266 10.4419 20.8346 10.321 20.5301 10.321C20.2257 10.321 19.9337 10.4419 19.7184 10.6572C19.5031 10.8725 19.3821 11.1645 19.3821 11.469C19.3821 11.7735 19.5031 12.0655 19.7184 12.2808C19.9337 12.4961 20.2257 12.617 20.5301 12.617ZM11.4701 12.617C11.7746 12.617 12.0666 12.4961 12.2819 12.2808C12.4972 12.0655 12.6181 11.7735 12.6181 11.469C12.6181 11.1645 12.4972 10.8725 12.2819 10.6572C12.0666 10.4419 11.7746 10.321 11.4701 10.321C11.1657 10.321 10.8737 10.4419 10.6584 10.6572C10.4431 10.8725 10.3221 11.1645 10.3221 11.469C10.3221 11.7735 10.4431 12.0655 10.6584 12.2808C10.8737 12.4961 11.1657 12.617 11.4701 12.617Z" fill="white"/>
</svg>
