<svg width="32" height="32" viewBox="0 0 32 32" fill="none" xmlns="http://www.w3.org/2000/svg">
<path d="M16 32C24.8366 32 32 24.8366 32 16C32 7.16344 24.8366 0 16 0C7.16344 0 0 7.16344 0 16C0 24.8366 7.16344 32 16 32Z" fill="#3555F9"/>
<path d="M14.3601 6.627C15.2101 6.469 16.0801 6.487 16.9401 6.53C17.9321 6.646 18.9261 6.854 19.8381 7.264C21.6595 8.02513 23.2034 9.32712 24.2611 10.994C24.6541 11.567 24.9181 12.209 25.1831 12.846C25.4291 12.454 25.6491 12.046 25.8631 11.636C25.9551 11.443 26.1481 11.294 26.3731 11.304C26.5227 11.2923 26.6711 11.3388 26.7874 11.4338C26.9036 11.5288 26.9787 11.665 26.9971 11.814C27.0221 12.054 26.8711 12.261 26.7721 12.469C26.4601 13.099 26.0571 13.681 25.6401 14.249C25.5631 14.331 25.5951 14.445 25.6041 14.545C26.0681 17.282 25.1851 20.195 23.3041 22.257C22.2197 23.4623 20.8532 24.3797 19.3271 24.927C17.5691 25.542 15.6331 25.681 13.8151 25.251C11.1791 24.68 8.84706 22.942 7.52106 20.636C7.23107 20.169 7.04606 19.65 6.81706 19.154C6.56706 19.539 6.35507 19.944 6.14207 20.348C6.09202 20.4481 6.01671 20.5334 5.92358 20.5955C5.83045 20.6576 5.72273 20.6943 5.61107 20.702C5.23007 20.702 4.88407 20.292 5.03707 19.927C5.36507 19.173 5.81406 18.475 6.31706 17.823C6.42506 17.71 6.41006 17.55 6.39006 17.409C6.20329 16.2056 6.25768 14.9771 6.55007 13.795C7.32007 10.471 10.0801 7.695 13.4251 6.83C13.7351 6.757 14.0451 6.68 14.3601 6.627ZM11.9981 8.637C10.2251 9.569 8.79806 11.128 8.05806 12.969C7.63006 14.081 7.41207 15.277 7.47807 16.467C7.66584 16.326 7.84484 16.1738 8.01407 16.011C9.00907 15.123 10.1741 14.435 11.3921 13.887C13.6551 12.858 16.1471 12.415 18.6231 12.295C17.7861 11.427 16.8781 10.626 16.0411 9.758C16.3051 9.468 16.5911 9.2 16.8771 8.932C17.2021 9.226 17.5021 9.545 17.8201 9.846C18.8501 10.871 19.9111 11.866 20.9241 12.905C19.8441 13.982 18.7361 15.032 17.6561 16.109C17.565 16.1946 17.4696 16.2754 17.3701 16.351C17.0981 16.077 16.7821 15.837 16.5641 15.516C17.2281 14.82 17.9841 14.21 18.6211 13.489C17.4791 13.505 16.3431 13.667 15.2251 13.889C14.3221 14.05 13.4541 14.355 12.5871 14.646C10.7711 15.326 9.09606 16.41 7.81906 17.86C7.74306 17.935 7.75407 18.046 7.77407 18.14C7.92507 18.788 8.21007 19.394 8.52207 19.98C9.55207 21.837 11.3321 23.272 13.3771 23.92C14.5731 24.288 15.8491 24.43 17.0931 24.257C18.832 24.0385 20.4626 23.2936 21.7661 22.122C23.6311 20.478 24.6771 17.973 24.5161 15.514C24.3191 15.667 24.1431 15.841 23.9591 16.007C22.7082 17.0831 21.2694 17.9192 19.7151 18.473C17.6951 19.223 15.5431 19.611 13.3881 19.672C13.5761 19.918 13.8081 20.124 14.0271 20.343C14.6721 20.971 15.3081 21.607 15.9631 22.225C15.7111 22.522 15.4171 22.781 15.1391 23.053C14.8601 22.826 14.6191 22.562 14.3591 22.313C13.3851 21.369 12.4211 20.413 11.4491 19.465C11.3145 19.3425 11.1907 19.2087 11.0791 19.065C11.5001 18.613 11.9841 18.223 12.4151 17.781C13.1551 17.066 13.8751 16.33 14.6241 15.624C14.9041 15.896 15.1981 16.156 15.4471 16.457C14.7811 17.147 14.0721 17.796 13.3971 18.477C14.1371 18.514 14.8671 18.387 15.6011 18.317C16.1311 18.261 16.6521 18.141 17.1751 18.032C19.8601 17.412 22.4751 16.137 24.2771 14.036C23.5871 11.052 21.0501 8.596 18.0311 7.902C16.0201 7.391 13.8271 7.682 11.9981 8.637Z" fill="white"/>
</svg>
