<svg width="32" height="32" viewBox="0 0 32 32" fill="none" xmlns="http://www.w3.org/2000/svg">
<path d="M16 32C24.8366 32 32 24.8366 32 16C32 7.16344 24.8366 0 16 0C7.16344 0 0 7.16344 0 16C0 24.8366 7.16344 32 16 32Z" fill="#E30613"/>
<path opacity="0.75" fill-rule="evenodd" clip-rule="evenodd" d="M15.361 27C9.64 27 5 22.407 5 16.742C5 11.077 9.639 6.484 15.361 6.484C21.084 6.484 25.723 11.077 25.723 16.742C25.723 22.407 21.083 27 15.36 27H15.361ZM17.15 9.423C19.566 10.412 21.302 12.273 22.534 14.781L23.464 14.134C22.42 11.622 20.491 9.648 17.388 8.368L17.15 9.423Z" fill="white"/>
<path d="M26.9917 9.321C26.9917 6.935 25.0367 5 22.6267 5C20.2167 5 18.2617 6.935 18.2617 9.321C18.2617 9.549 18.2797 9.776 18.3157 10.001C19.7687 10.847 20.9357 12.061 21.8687 13.577C22.1187 13.62 22.3727 13.643 22.6267 13.643C25.0367 13.643 26.9917 11.708 26.9917 9.321Z" fill="white"/>
</svg>
