<svg width="32" height="32" viewBox="0 0 32 32" fill="none" xmlns="http://www.w3.org/2000/svg">
<path d="M16 32C24.8366 32 32 24.8366 32 16C32 7.16344 24.8366 0 16 0C7.16344 0 0 7.16344 0 16C0 24.8366 7.16344 32 16 32Z" fill="#00E6A0"/>
<path d="M23.0731 7.5C23.1615 7.49806 23.2493 7.51407 23.3313 7.54708C23.4133 7.58008 23.4878 7.62938 23.5501 7.692L23.5441 7.686C23.6429 7.78445 23.7075 7.91207 23.7281 8.05L23.7371 8.154L23.7301 11.571C23.7301 12.02 23.5521 12.451 23.2341 12.768L18.9941 16.995L23.5311 21.518C23.6907 21.6739 23.8178 21.8599 23.9051 22.0653C23.9923 22.2706 24.038 22.4912 24.0396 22.7143C24.0411 22.9374 23.9984 23.1586 23.914 23.3651C23.8296 23.5716 23.7051 23.7594 23.5477 23.9175C23.3903 24.0756 23.2031 24.201 22.997 24.2864C22.7909 24.3717 22.5699 24.4154 22.3468 24.4149C22.1237 24.4144 21.9029 24.3697 21.6971 24.2834C21.4914 24.1971 21.3048 24.0708 21.1481 23.912L15.4131 18.195C15.255 18.0383 15.1294 17.8517 15.0438 17.6462C14.9581 17.4407 14.914 17.2202 14.914 16.9975C14.914 16.7748 14.9581 16.5544 15.0438 16.3488C15.1294 16.1433 15.255 15.9568 15.4131 15.8L20.4351 10.788H11.9371V22.677C11.9409 22.9037 11.8991 23.1288 11.8141 23.3389C11.7291 23.5491 11.6027 23.74 11.4424 23.9002C11.2821 24.0605 11.0912 24.1869 10.8811 24.2719C10.6709 24.3569 10.4458 24.3988 10.2191 24.395L10.0491 24.389C9.62251 24.3519 9.22569 24.1548 8.93837 23.8373C8.65105 23.5197 8.4945 23.1052 8.50015 22.677V9.347C8.50015 8.281 9.26315 7.5 10.2961 7.5H23.0731Z" fill="white"/>
</svg>
