<svg width="32" height="32" viewBox="0 0 32 32" fill="none" xmlns="http://www.w3.org/2000/svg">
<path d="M16 32C24.8366 32 32 24.8366 32 16C32 7.16344 24.8366 0 16 0C7.16344 0 0 7.16344 0 16C0 24.8366 7.16344 32 16 32Z" fill="#CC1E46"/>
<path d="M11.816 9.24C13.4897 7.98218 15.4831 7.21989 17.569 7.04C17.781 6.997 18.011 7.131 18.004 7.365C18.024 7.925 18.01 8.485 18.01 9.045C18.024 9.219 17.932 9.445 17.732 9.45C15.886 9.654 14.132 10.408 12.608 11.45C12.464 11.531 12.496 11.718 12.508 11.854C12.614 12.836 12.542 13.825 12.571 14.81C17.545 14.824 22.521 14.808 27.497 14.818C27.734 14.798 27.984 14.933 27.965 15.198C27.99 16.873 27.97 18.548 27.975 20.222C27.979 21.132 27.785 22.074 27.234 22.818C26.364 23.987 24.834 24.688 23.38 24.43C22.35 24.276 21.46 23.637 20.836 22.826C19.1375 24.1035 17.1106 24.8718 14.992 25.041C14.777 25.044 14.616 24.833 14.649 24.627C14.656 24.041 14.637 23.453 14.659 22.867C14.709 22.557 15.091 22.617 15.318 22.566C17.062 22.294 18.73 21.563 20.154 20.526C20.0806 19.438 20.0549 18.3473 20.077 17.257C15.085 17.225 10.091 17.255 5.09901 17.241C4.87901 17.266 4.66702 17.101 4.68802 16.868C4.68402 15.105 4.68501 13.341 4.69001 11.578C4.70001 10.656 4.99102 9.724 5.60202 9.021C6.40702 8.105 7.62101 7.52 8.85301 7.592C10.033 7.639 11.116 8.31 11.816 9.24ZM6.70001 11.882C6.69801 12.915 6.69702 13.949 6.70202 14.984C7.93602 14.983 9.16801 15.001 10.401 14.974C10.403 13.966 10.416 12.959 10.395 11.951C10.376 10.985 9.50302 10.131 8.53302 10.151C7.58601 10.112 6.72301 10.941 6.70001 11.881V11.882ZM22.409 17.172C22.399 18.154 22.407 19.137 22.403 20.119C22.397 20.512 22.516 20.896 22.743 21.216C23.217 21.893 24.161 22.189 24.933 21.89C25.646 21.626 26.117 20.88 26.109 20.13C26.109 19.144 26.114 18.16 26.105 17.174C24.873 17.164 23.641 17.169 22.409 17.171V17.172Z" fill="white"/>
</svg>
