<svg width="32" height="32" viewBox="0 0 32 32" fill="none" xmlns="http://www.w3.org/2000/svg">
<path d="M16 32C24.8366 32 32 24.8366 32 16C32 7.16344 24.8366 0 16 0C7.16344 0 0 7.16344 0 16C0 24.8366 7.16344 32 16 32Z" fill="#00688C"/>
<path d="M26.9889 22.671V9.998L15.9849 3.66L15.9699 3.668L5.00391 10.005V22.675L15.9789 28.997L15.9799 28.998L26.9879 22.672L26.9889 22.671ZM22.1189 20.645L20.2419 19.569L16.0539 22C16.0418 22.0071 16.028 22.0109 16.0139 22.0109C15.9998 22.0109 15.986 22.0071 15.9739 22L11.1689 19.215L11.1669 14.37L6.94591 11.95L15.9439 6.675C15.9475 6.67279 15.9517 6.67162 15.9559 6.67162C15.9601 6.67162 15.9643 6.67279 15.9679 6.675L24.3249 11.453L22.8469 12.308L15.9719 8.352L9.87491 11.931L11.9899 13.146L15.9759 10.828L15.9779 10.826L20.8479 13.611L20.8459 18.221L24.9969 20.598L24.9959 20.668L15.9799 25.932L7.62191 21.16L9.08491 20.303L15.9659 24.25L22.1189 20.644V20.645Z" fill="white"/>
<path d="M17.3047 15.145V15.111L17.3037 15.089L17.3027 15.077L17.3007 15.052V15.044L17.2977 15.017V15.01L17.2937 14.982V14.977L17.2897 14.948V14.944L17.2847 14.914L17.2837 14.912L17.2777 14.882L17.2767 14.879L17.2697 14.849V14.847C17.2678 14.8369 17.2654 14.8269 17.2627 14.817V14.815L17.2537 14.785V14.784L17.2447 14.752C17.2393 14.7316 17.2327 14.7115 17.2247 14.692V14.691L17.2127 14.661C17.209 14.6509 17.205 14.6409 17.2007 14.631L17.1877 14.601L17.1747 14.573L17.1607 14.543L17.1467 14.515L17.1307 14.487C17.1252 14.4781 17.1199 14.4691 17.1147 14.46V14.459L17.0987 14.433L17.0977 14.432C17.0923 14.4235 17.0866 14.4152 17.0807 14.407V14.405L17.0637 14.381C17.0637 14.381 17.0637 14.379 17.0617 14.379L17.0447 14.355L17.0427 14.353C17.0367 14.345 17.0327 14.337 17.0257 14.329L17.0247 14.327L17.0057 14.304L17.0037 14.302L16.9857 14.28L16.9837 14.278L16.9637 14.257C16.9628 14.2561 16.9622 14.2551 16.9617 14.254L16.9427 14.233C16.9418 14.2321 16.9412 14.2311 16.9407 14.23L16.9217 14.21C16.914 14.2023 16.9063 14.1947 16.8987 14.187L16.8957 14.184L16.8757 14.164C16.868 14.1573 16.8603 14.1507 16.8527 14.144L16.8497 14.141C16.8429 14.1345 16.8359 14.1281 16.8287 14.122L16.8257 14.119C16.8189 14.1131 16.8119 14.1074 16.8047 14.102L16.8017 14.1L16.7797 14.082L16.7767 14.08L16.7537 14.063L16.7507 14.061L16.7277 14.044L16.7247 14.042L16.7017 14.026L16.6987 14.025L16.6747 14.009L16.6727 14.007L16.6477 13.992H16.6457L16.6197 13.976H16.6177L16.5907 13.96H16.5897C16.2705 13.8252 15.9116 13.8191 15.588 13.9429C15.2644 14.0667 15.0012 14.3109 14.8536 14.6243C14.7059 14.9377 14.6852 15.2961 14.7957 15.6245C14.9063 15.9528 15.1395 16.2257 15.4467 16.386L14.8667 19.038H17.0607L16.4757 16.388C16.9777 16.178 17.3047 15.688 17.3047 15.145Z" fill="white"/>
</svg>
