<svg width="32" height="32" viewBox="0 0 32 32" fill="none" xmlns="http://www.w3.org/2000/svg">
<path d="M16 32C24.8366 32 32 24.8366 32 16C32 7.16344 24.8366 0 16 0C7.16344 0 0 7.16344 0 16C0 24.8366 7.16344 32 16 32Z" fill="black"/>
<path d="M22.514 8.492V9.483H9.81V22.517H22.514V24.5L15.094 24.443L7.644 24.358L7.558 15.915L7.5 7.5H22.514V8.492Z" fill="white"/>
<path d="M23.6976 10.9C24.8236 11.212 25.8056 12.09 26.1226 13.082C26.2956 13.677 26.2096 13.733 25.1986 13.733C24.4186 13.733 23.9866 13.563 23.7266 13.167C23.2936 12.458 21.3296 12.373 20.7526 13.053C20.1176 13.818 20.8106 14.385 23.0626 14.895C24.1886 15.15 25.3726 15.575 25.6896 15.858C27.1336 17.133 26.5556 19.938 24.6796 20.703C23.4096 21.213 21.3296 21.213 20.0596 20.703C19.1936 20.335 18.1826 19.06 18.1826 18.267C18.1826 17.757 20.0596 17.955 20.5506 18.55C21.5906 19.712 24.0146 19.542 24.1886 18.295C24.3326 17.332 23.7836 16.907 22.1386 16.708C19.4536 16.34 18.4716 15.518 18.4716 13.648C18.4716 11.438 20.8966 10.135 23.6976 10.9Z" fill="white"/>
</svg>
