<svg width="32" height="32" viewBox="0 0 32 32" fill="none" xmlns="http://www.w3.org/2000/svg">
<path d="M16 32C24.8366 32 32 24.8366 32 16C32 7.16344 24.8366 0 16 0C7.16344 0 0 7.16344 0 16C0 24.8366 7.16344 32 16 32Z" fill="#FEC60D"/>
<path d="M26.6669 10.147L23.2289 8.168C23.1109 8.098 23.0019 8.037 22.8849 7.97C22.7709 7.905 22.6599 7.835 22.5439 7.768C21.8549 7.374 21.1639 6.992 20.4829 6.584L17.2169 4.698C17.0269 4.583 16.0449 4.006 16.0029 4.006C15.9859 4.006 15.8619 4.086 15.8349 4.103L11.3729 6.673C11.3079 6.71 11.2629 6.739 11.1969 6.775C11.1401 6.80642 11.0841 6.83909 11.0289 6.873L10.6869 7.073C10.6287 7.10814 10.57 7.14247 10.5109 7.176L10.1749 7.37C10.0569 7.44 9.94586 7.5 9.82986 7.567L9.13886 7.962C9.07886 7.993 9.02886 8.026 8.97086 8.059L8.10686 8.559C7.98686 8.629 7.87586 8.687 7.75886 8.754L7.07586 9.157C6.73286 9.353 6.38886 9.562 6.04086 9.751C5.88786 9.833 5.08486 10.323 5.00586 10.344V23.058C5.06986 23.064 5.94786 23.587 6.03886 23.641L7.41486 24.437C7.52986 24.507 7.64486 24.57 7.75886 24.636L8.43886 25.028C8.49686 25.058 8.54886 25.092 8.60886 25.125C8.67486 25.161 8.71786 25.192 8.78486 25.225C8.95986 25.315 9.12786 25.422 9.29486 25.523L10.1609 26.022C10.2209 26.055 10.2689 26.084 10.3279 26.119C10.6659 26.323 11.0169 26.506 11.3539 26.709L12.5609 27.409C13.3579 27.88 14.1709 28.319 14.9639 28.795L15.9069 29.341C16.0569 29.442 16.1119 29.328 16.3479 29.199L18.4139 28.007C18.5279 27.941 18.6389 27.877 18.7589 27.81L19.0959 27.617C19.1529 27.586 19.2059 27.553 19.2629 27.518L21.1579 26.421C21.7239 26.082 22.3079 25.775 22.8739 25.435L26.6469 23.249C26.7019 23.216 26.7569 23.183 26.8149 23.151C26.8749 23.119 26.9319 23.074 26.9999 23.059V10.344C26.8929 10.272 26.7819 10.217 26.6669 10.147ZM19.8769 22.591H16.6619V23.433C16.6619 23.443 16.6579 23.446 16.6479 23.446H15.0979V22.591H12.1289V20.211C12.1289 20.186 12.1589 20.165 12.1739 20.151L12.4749 19.826C12.4837 19.8179 12.4921 19.8092 12.4999 19.8C12.5068 19.7904 12.5145 19.7814 12.5229 19.773L12.6979 19.587L12.6999 19.584L12.7519 19.531L12.7749 19.503L12.8309 19.444L12.8369 19.437L13.0239 19.235C13.0639 19.194 13.1039 19.155 13.1419 19.11L13.1439 19.108L13.1499 19.1L13.2759 18.966C13.2939 18.946 13.3079 18.935 13.3249 18.913L13.4769 18.751L13.5019 18.726C13.5101 18.7172 13.5178 18.7078 13.5249 18.698L13.7799 18.426L13.7819 18.424L13.7879 18.417L13.8269 18.377C13.8769 18.313 13.9669 18.233 14.0199 18.169L14.0259 18.161C14.0429 18.141 14.0619 18.127 14.0779 18.108L14.1769 18.001C14.2469 17.931 14.3069 17.855 14.3769 17.785L14.6019 17.543L14.6269 17.518L14.7249 17.41C14.7439 17.391 14.7619 17.377 14.7769 17.357C14.7919 17.337 14.8109 17.323 14.8279 17.303L14.9269 17.196C14.9369 17.186 14.9449 17.179 14.9539 17.168L15.0289 17.087C15.0439 17.067 15.0629 17.053 15.0799 17.033C15.1239 16.984 15.2499 16.855 15.2769 16.819C15.2929 16.799 15.3119 16.787 15.3259 16.767C15.2863 16.7185 15.2439 16.6724 15.1989 16.629L15.1009 16.521L15.0749 16.496C15.0649 16.484 15.0619 16.478 15.0499 16.466C14.9729 16.388 14.9019 16.305 14.8239 16.226L14.6989 16.091C14.6916 16.0814 14.6836 16.0723 14.6749 16.064L13.5249 14.83C13.5172 14.8195 13.5088 14.8095 13.4999 14.8L13.3299 14.617L13.3279 14.615L12.9509 14.209C12.9429 14.199 12.9349 14.193 12.9259 14.184L12.8259 14.074C12.7579 14.004 12.6929 13.928 12.6239 13.859L12.6019 13.835L12.5999 13.833L12.5259 13.752C12.4919 13.715 12.4559 13.681 12.4229 13.644C12.4119 13.632 12.4099 13.626 12.3979 13.614C12.3299 13.545 12.2679 13.47 12.1979 13.402C12.1899 13.392 12.1819 13.386 12.1739 13.377C12.1649 13.367 12.1289 13.332 12.1289 13.321V10.932H15.0969V9.94C15.6189 9.94 16.1349 9.95 16.6569 9.95V10.9C16.6569 10.911 16.6599 10.915 16.6709 10.915H19.8769V13.326H15.4539C15.4799 13.366 15.5199 13.399 15.5509 13.435L15.7969 13.705C15.8119 13.725 15.8279 13.739 15.8449 13.759C15.8869 13.809 15.9339 13.852 15.9749 13.902L16.3329 14.295C16.4029 14.363 16.4629 14.44 16.5299 14.51L17.4429 15.513L17.4489 15.521L17.7759 15.881L17.8009 15.905C17.8449 15.949 17.8809 15.999 17.9249 16.043L18.5129 16.686C18.5369 16.712 18.5629 16.736 18.5829 16.766C18.5739 16.78 18.5669 16.784 18.5559 16.796C18.5488 16.8055 18.5411 16.8145 18.5329 16.823L18.4099 16.956C18.4028 16.9655 18.3951 16.9745 18.3869 16.983L18.0919 17.306C18.0719 17.325 18.0619 17.341 18.0419 17.36C18.0019 17.4 17.9419 17.475 17.8949 17.52L17.6889 17.749C17.6479 17.798 17.5379 17.907 17.5049 17.949L17.2119 18.269C17.1489 18.346 17.0779 18.412 17.0139 18.488L16.8939 18.618C16.8339 18.679 16.7819 18.744 16.7239 18.806C16.7139 18.816 16.7059 18.823 16.6969 18.834C16.6289 18.911 16.5549 18.984 16.4879 19.064L16.4779 19.076L16.2209 19.355L16.2149 19.362L16.2059 19.372L16.2039 19.375L16.0859 19.505C16.0775 19.513 16.0698 19.5217 16.0629 19.531C16.0551 19.5402 16.0468 19.5489 16.0379 19.557C15.9869 19.607 15.9429 19.667 15.8919 19.717C15.8836 19.7255 15.8759 19.7345 15.8689 19.744L15.7709 19.852C15.7629 19.862 15.7549 19.868 15.7459 19.877L15.4539 20.199H19.7539C19.7949 20.199 19.8769 20.189 19.8769 20.212V22.592V22.591Z" fill="white"/>
</svg>
