<svg width="32" height="32" viewBox="0 0 32 32" fill="none" xmlns="http://www.w3.org/2000/svg">
<path d="M16 32C24.8366 32 32 24.8366 32 16C32 7.16344 24.8366 0 16 0C7.16344 0 0 7.16344 0 16C0 24.8366 7.16344 32 16 32Z" fill="#199248"/>
<path d="M16 4C9.373 4 4 9.373 4 16C4 22.627 9.373 28 16 28C22.627 28 28 22.627 28 16C28 12.8174 26.7357 9.76515 24.4853 7.51472C22.2348 5.26428 19.1826 4 16 4ZM18.743 26.236C17.3625 26.6039 15.9219 26.6888 14.5078 26.4856C13.0937 26.2824 11.7352 25.7954 10.5142 25.0538C9.29308 24.3122 8.23459 23.3313 7.40232 22.1701C6.57005 21.0089 5.9812 19.6914 5.67116 18.2968C5.36112 16.9022 5.3363 15.4593 5.5982 14.0549C5.86009 12.6504 6.40329 11.3134 7.19514 10.1243C7.98698 8.93521 9.01111 7.91849 10.206 7.13532C11.4008 6.35214 12.7417 5.81868 14.148 5.567C16.8364 5.09199 19.6044 5.67285 21.875 7.18851C24.1457 8.70417 25.7438 11.0377 26.3363 13.7027C26.9287 16.3676 26.4698 19.1584 25.0552 21.4934C23.6406 23.8283 21.3794 25.5272 18.743 26.236Z" fill="white"/>
<path d="M18.9299 7.287C18.9299 7.804 18.9299 8.32 18.9499 8.837C18.2583 8.56863 17.5383 8.38008 16.8039 8.275C16.7739 7.806 16.9079 7.291 16.7709 6.846C16.2478 6.8087 15.7229 6.80236 15.1989 6.827C15.1729 7.309 15.1829 7.793 15.1989 8.277C14.4643 8.38692 13.7444 8.57947 13.0529 8.851C13.0679 8.329 13.0729 7.808 13.0659 7.285C11.2405 7.89965 9.65402 9.07174 8.53016 10.636C7.4063 12.2003 6.80176 14.0779 6.80176 16.004C6.80176 17.9301 7.4063 19.8077 8.53016 21.372C9.65402 22.9363 11.2405 24.1083 13.0659 24.723C13.0659 24.211 13.0609 23.701 13.0509 23.191C13.7371 23.4596 14.4534 23.6439 15.1839 23.74C15.1839 24.209 15.1839 24.678 15.1559 25.142C15.7159 25.222 16.2839 25.222 16.8439 25.142C16.8184 24.6801 16.8051 24.2176 16.8039 23.755C17.535 23.6522 18.2526 23.4698 18.9439 23.211C18.928 23.7175 18.928 24.2245 18.9439 24.731C20.7686 24.115 22.354 22.9418 23.4766 21.377C24.5992 19.8121 25.2024 17.9344 25.2011 16.0085C25.1999 14.0827 24.5944 12.2057 23.4698 10.6423C22.3453 9.07884 20.7584 7.90772 18.9329 7.294L18.9309 7.287H18.9299ZM20.2999 21.222C19.0919 22.317 17.3759 22.576 15.7999 22.553C14.4169 22.553 12.9529 22.178 11.9539 21.177C11.4239 20.665 11.1239 19.981 10.8549 19.302C11.8209 19.052 12.8179 18.968 13.7909 18.76C13.8514 19.0542 13.9885 19.3272 14.1883 19.5514C14.3882 19.7757 14.6436 19.9432 14.9289 20.037C15.8119 20.313 16.9059 20.352 17.6419 19.722C18.1639 19.289 18.1789 18.342 17.5319 18.018C16.0149 17.234 14.1249 17.5 12.6909 16.508C10.7159 15.263 10.5699 11.961 12.5029 10.617C13.9809 9.58 15.9569 9.451 17.6709 9.867C19.2209 10.259 20.3259 11.573 20.8579 13.028C19.9039 13.193 18.9509 13.362 17.9969 13.523C17.7459 12.008 15.6249 11.648 14.5709 12.531C13.9709 13.03 14.1249 14.093 14.8749 14.359C16.5149 15.039 18.4849 14.843 19.9379 15.981C21.6249 17.125 21.8009 19.857 20.2989 21.221L20.2999 21.222Z" fill="white"/>
</svg>
