<svg width="32" height="32" viewBox="0 0 32 32" fill="none" xmlns="http://www.w3.org/2000/svg">
<path d="M16 32C24.8366 32 32 24.8366 32 16C32 7.16344 24.8366 0 16 0C7.16344 0 0 7.16344 0 16C0 24.8366 7.16344 32 16 32Z" fill="#4BA2F2"/>
<path d="M9.86952 8.229C10.0855 8.266 9.54752 9.699 9.84752 11.336C10.1075 12.739 13.3545 18.172 13.2205 20.036C13.1165 21.206 10.4505 23.951 10.1695 23.768C9.86252 23.683 10.9795 21.818 10.5655 20.264C10.0835 18.452 7.22552 13.768 7.22852 11.7C7.22852 10.187 9.67652 8.131 9.86852 8.229H9.86952ZM15.9785 6.089C16.2525 6.136 15.5685 7.965 15.9505 10.048C16.2805 11.84 20.4235 18.768 20.2515 21.143C20.1175 22.637 16.7195 26.134 16.3595 25.903C15.9695 25.796 17.3935 23.417 16.8655 21.435C16.2525 19.127 12.6075 13.153 12.6105 10.516C12.6105 8.585 15.7325 5.966 15.9785 6.09V6.089ZM22.2835 8.229C22.4995 8.266 21.9625 9.699 22.2615 11.336C22.5215 12.739 25.7685 18.172 25.6355 20.036C25.5325 21.206 22.8655 23.951 22.5835 23.768C22.2775 23.683 23.3935 21.818 22.9795 20.264C22.4985 18.452 19.6395 13.768 19.6425 11.7C19.6425 10.187 22.0925 8.131 22.2835 8.229Z" fill="white"/>
</svg>
