<svg width="32" height="32" viewBox="0 0 32 32" fill="none" xmlns="http://www.w3.org/2000/svg">
<path d="M16 32C24.8366 32 32 24.8366 32 16C32 7.16344 24.8366 0 16 0C7.16344 0 0 7.16344 0 16C0 24.8366 7.16344 32 16 32Z" fill="#2DC4E7"/>
<path d="M5.15467 9.03601C6.22567 9.03601 7.33267 8.96401 8.40467 9.06001C8.88067 9.59501 8.98767 10.345 9.35667 10.964C14.1667 10.988 18.9997 10.964 23.8097 10.964C24.1667 10.988 24.6067 11 24.7857 11.357C24.9997 11.75 24.8457 12.214 24.6427 12.571C23.6667 14.226 22.7377 15.905 21.7857 17.571C21.4287 18.167 21.1897 18.833 20.6547 19.298C20.2147 19.667 19.6067 19.69 19.0477 19.69H12.3797C12.0227 19.69 11.6417 19.655 11.4277 19.369C10.7377 18.595 10.3677 17.607 9.91567 16.702C9.13291 15.1349 8.36686 13.5595 7.61767 11.976C7.46267 11.619 7.27267 11.298 7.09367 10.964C6.46367 10.964 5.83167 10.964 5.21367 10.94C5.09367 10.31 5.09367 9.66701 5.15367 9.03601H5.15467ZM12.6667 20.976C13.1511 20.8609 13.6548 20.8527 14.1427 20.952C14.6897 21.072 15.1667 21.488 15.2977 22.036C15.4397 22.666 15.4397 23.346 15.1897 23.952C14.9517 24.5 14.3567 24.762 13.7977 24.81C13.1547 24.857 12.4167 24.81 11.9397 24.333C11.4287 23.762 11.4287 22.929 11.5357 22.214C11.6067 21.619 12.0827 21.107 12.6657 20.976H12.6667ZM18.6187 20.976C19.2137 20.846 19.8567 20.857 20.4287 21.071C20.9757 21.298 21.2617 21.893 21.3087 22.452C21.3807 23.107 21.3087 23.857 20.8327 24.357C20.3927 24.774 19.7497 24.833 19.1667 24.821C18.5947 24.798 17.9767 24.583 17.6787 24.048C17.3947 23.4678 17.3188 22.8076 17.4637 22.178C17.5837 21.595 18.0357 21.108 18.6187 20.976Z" fill="white"/>
</svg>
