<svg width="32" height="32" viewBox="0 0 32 32" fill="none" xmlns="http://www.w3.org/2000/svg">
<path d="M16 32C24.8366 32 32 24.8366 32 16C32 7.16344 24.8366 0 16 0C7.16344 0 0 7.16344 0 16C0 24.8366 7.16344 32 16 32Z" fill="#D65892"/>
<path fill-rule="evenodd" clip-rule="evenodd" d="M13.7942 7.02C15.6562 7.177 18.1212 8.2 20.4962 9.932C22.8622 11.674 24.5982 13.747 25.3362 15.498C25.8762 16.769 25.8942 17.894 25.3542 18.668L21.6482 23.975C21.1082 24.749 20.0552 25.09 18.7152 24.98C16.8532 24.814 14.3792 23.8 12.0132 22.059C9.63823 20.326 7.91123 18.253 7.16323 16.502C6.62423 15.231 6.60623 14.106 7.14623 13.332L10.8612 8.025C11.4012 7.251 12.4452 6.91 13.7942 7.02ZM21.5822 19.468C21.5474 19.4624 21.5118 19.4707 21.4831 19.4912C21.4545 19.5116 21.435 19.5426 21.4289 19.5773C21.4229 19.612 21.4307 19.6477 21.4508 19.6767C21.4709 19.7056 21.5016 19.7255 21.5362 19.732C22.2682 19.862 22.9232 19.885 23.4702 19.796C23.5035 19.7884 23.5326 19.7685 23.5516 19.7402C23.5707 19.7119 23.5782 19.6775 23.5727 19.6438C23.5673 19.6102 23.5492 19.5799 23.5221 19.5591C23.4951 19.5383 23.4612 19.5286 23.4272 19.532C22.9132 19.616 22.2872 19.593 21.5822 19.468ZM20.3912 19.321C20.3863 19.3379 20.3849 19.3557 20.3868 19.3732C20.3888 19.3907 20.3942 19.4077 20.4028 19.4231C20.4113 19.4385 20.4228 19.4521 20.4366 19.4631C20.4504 19.474 20.4663 19.4822 20.4832 19.487C20.6592 19.537 20.8332 19.582 21.0042 19.622C21.0373 19.6264 21.0709 19.6184 21.0983 19.5994C21.1258 19.5804 21.1451 19.5518 21.1526 19.5193C21.1601 19.4868 21.1552 19.4526 21.1389 19.4236C21.1225 19.3945 21.0959 19.3725 21.0642 19.362C20.8982 19.322 20.7282 19.278 20.5552 19.229C20.5213 19.2195 20.4849 19.2238 20.4542 19.241C20.4234 19.2583 20.4008 19.2871 20.3912 19.321ZM11.3742 8.403L11.3562 8.439C10.9512 9.057 11.0412 9.932 11.4642 10.927C12.1742 12.604 13.8392 14.567 16.0972 16.226C18.3552 17.884 20.7032 18.87 22.4752 19.018C23.5372 19.101 24.3732 18.908 24.8152 18.327L24.8412 18.281C25.2732 17.672 25.1832 16.769 24.7612 15.756C24.0502 14.088 22.3852 12.126 20.1182 10.466C17.8602 8.808 15.5122 7.822 13.7402 7.675C12.6602 7.582 11.8062 7.785 11.3742 8.403ZM10.6302 10.851C10.5964 10.8612 10.5679 10.8844 10.551 10.9155C10.5342 10.9466 10.5303 10.9831 10.5402 11.017C10.9962 12.581 12.1542 14.07 13.9752 15.747L14.1802 15.935C14.3212 16.0628 14.4632 16.1895 14.6062 16.315C14.6622 16.363 14.7462 16.357 14.7942 16.301C14.8176 16.2742 14.8293 16.2393 14.8269 16.2038C14.8244 16.1684 14.808 16.1353 14.7812 16.112C14.6712 16.017 14.5652 15.922 14.4592 15.827L14.2522 15.639C12.4092 13.956 11.2422 12.473 10.7952 10.942C10.7904 10.9252 10.7823 10.9095 10.7714 10.8958C10.7605 10.8821 10.747 10.8707 10.7316 10.8622C10.7163 10.8538 10.6994 10.8484 10.682 10.8465C10.6646 10.8446 10.647 10.8461 10.6302 10.851ZM15.8812 10.568C16.7632 10.651 17.9412 11.139 19.0662 11.968C20.1992 12.798 21.0362 13.784 21.3862 14.622C21.5942 15.092 21.6482 15.507 21.4412 15.792C21.2432 16.078 20.8382 16.162 20.3432 16.115C19.4532 16.041 18.2832 15.544 17.1502 14.715C16.0162 13.885 15.1802 12.908 14.8292 12.07C14.6312 11.6 14.5772 11.185 14.7752 10.9C14.9732 10.614 15.3772 10.531 15.8812 10.568ZM10.4842 9.79C10.4489 9.79156 10.4155 9.80706 10.3916 9.8331C10.3676 9.85915 10.3549 9.89362 10.3562 9.929C10.3642 10.111 10.3832 10.294 10.4152 10.479C10.4183 10.4962 10.4246 10.5126 10.434 10.5274C10.4434 10.5421 10.4556 10.5549 10.4699 10.5649C10.4842 10.5749 10.5003 10.582 10.5173 10.5858C10.5344 10.5896 10.552 10.59 10.5692 10.587C10.5864 10.584 10.6029 10.5776 10.6176 10.5682C10.6324 10.5589 10.6451 10.5467 10.6551 10.5324C10.6652 10.5181 10.6723 10.5019 10.6761 10.4849C10.6799 10.4678 10.6803 10.4502 10.6772 10.433C10.6478 10.2627 10.6295 10.0907 10.6222 9.918C10.6216 9.90053 10.6175 9.88336 10.6102 9.86747C10.6029 9.85158 10.5926 9.83728 10.5798 9.82539C10.567 9.8135 10.5519 9.80426 10.5355 9.79819C10.5191 9.79211 10.5017 9.78933 10.4842 9.79Z" fill="white"/>
</svg>
