<svg width="32" height="32" viewBox="0 0 32 32" fill="none" xmlns="http://www.w3.org/2000/svg">
<path d="M16 32C24.8366 32 32 24.8366 32 16C32 7.16344 24.8366 0 16 0C7.16344 0 0 7.16344 0 16C0 24.8366 7.16344 32 16 32Z" fill="#434247"/>
<path d="M16.0004 4C12.8412 4 9.8115 5.25496 7.57766 7.4888C5.34383 9.72264 4.08887 12.7524 4.08887 15.9115C4.08887 19.0706 5.34383 22.1004 7.57766 24.3342C9.8115 26.568 12.8412 27.823 16.0004 27.823C22.5794 27.823 27.9114 22.49 27.9114 15.911C27.9114 9.333 22.5804 4 16.0004 4ZM16.0004 27.341C9.68237 27.341 4.56037 22.219 4.56037 15.901C4.56037 9.585 9.68337 4.463 16.0004 4.463C22.3174 4.463 27.4404 9.585 27.4404 15.903C27.4404 22.22 22.3184 27.342 16.0004 27.342" fill="white"/>
<path d="M17.3086 17.082H20.3286V21.538C20.3286 21.98 19.8756 22.216 19.4436 22.443C19.0206 22.669 18.3316 22.62 17.1706 22.62H15.7546C13.5806 22.669 12.9706 22.502 12.4496 22.275C11.9286 22.039 11.6626 21.705 11.6626 21.272V17.082H10.0986V21.803C10.0986 22.059 10.2266 22.354 10.4236 22.62C10.6496 22.925 10.6206 23.013 11.1116 23.259C11.5546 23.485 11.9976 23.662 12.7936 23.761C13.4136 23.839 13.3056 23.82 14.4076 23.839H17.0236C18.9906 23.8 19.3936 23.938 20.5636 23.348C21.5186 22.875 21.8436 22.325 21.9116 21.97V15.548H17.3186V17.082H17.3086ZM13.2366 7.993C12.4396 8.043 11.7806 8.289 11.2696 8.485C10.7486 8.682 10.6396 8.918 10.4236 9.174C10.2236 9.406 10.1116 9.703 10.1086 10.01V15.243H11.6826V10.51C11.6826 10.107 11.9286 9.783 12.4106 9.547C12.9026 9.301 13.6206 9.183 14.2896 9.183H17.3576C18.5276 9.183 19.1576 9.163 19.5216 9.379C19.8956 9.615 20.3386 9.822 20.3386 10.265V11.514H21.9116V9.833C21.8826 9.616 21.6466 8.997 20.5346 8.475C19.5316 8.003 19.2076 7.974 17.6336 7.974" fill="white"/>
</svg>
