<svg width="32" height="32" viewBox="0 0 32 32" fill="none" xmlns="http://www.w3.org/2000/svg">
<path d="M16 32C24.8366 32 32 24.8366 32 16C32 7.16344 24.8366 0 16 0C7.16344 0 0 7.16344 0 16C0 24.8366 7.16344 32 16 32Z" fill="#1A1F36"/>
<path d="M18.5248 14.464C18.6662 14.4643 18.8022 14.41 18.9045 14.3123C19.0067 14.2147 19.0673 14.0813 19.0735 13.94C19.0797 13.7988 19.0311 13.6606 18.9377 13.5544C18.8444 13.4481 18.7137 13.3821 18.5728 13.37H14.7328V12.41C14.6952 12.2772 14.6152 12.1603 14.5051 12.0771C14.3951 11.9938 14.2608 11.9488 14.1228 11.9488C13.9848 11.9488 13.8505 11.9938 13.7404 12.0771C13.6303 12.1603 13.5504 12.2772 13.5128 12.41V13.37H12.4858C12.3407 13.37 12.2016 13.4276 12.099 13.5302C11.9964 13.6328 11.9388 13.7719 11.9388 13.917C11.9388 14.0621 11.9964 14.2012 12.099 14.3038C12.2016 14.4064 12.3407 14.464 12.4858 14.464H13.5138V17.804C13.5185 18.6444 13.855 19.4489 14.45 20.0424C15.045 20.6359 15.8504 20.9704 16.6908 20.973C17.3915 20.9623 18.068 20.7153 18.6108 20.272L18.8408 20.08C18.9148 20.0281 18.977 19.9612 19.0234 19.8837C19.0699 19.8061 19.0994 19.7196 19.1101 19.6299C19.1209 19.5402 19.1126 19.4492 19.0858 19.3628C19.059 19.2765 19.0143 19.1968 18.9546 19.1289C18.8949 19.061 18.8216 19.0065 18.7394 18.9689C18.6573 18.9312 18.5681 18.9114 18.4777 18.9105C18.3873 18.9097 18.2978 18.9279 18.2149 18.964C18.132 19.0001 18.0577 19.0533 17.9968 19.12L17.8238 19.264C17.5489 19.4916 17.2139 19.6344 16.8594 19.6753C16.5049 19.7161 16.1462 19.6531 15.8268 19.494C15.5001 19.3383 15.2241 19.0935 15.0306 18.7878C14.837 18.4821 14.7338 18.1279 14.7328 17.766V14.464H18.5248ZM24.7648 18.189C24.7775 18.1272 24.7779 18.0634 24.7659 18.0014C24.7539 17.9394 24.7298 17.8804 24.6949 17.8277C24.6601 17.775 24.6152 17.7297 24.5629 17.6944C24.5105 17.6591 24.4517 17.6345 24.3898 17.622H24.1498C24.0431 17.6216 23.9394 17.6575 23.8558 17.7238C23.7722 17.7902 23.7136 17.883 23.6898 17.987C23.4568 19.0061 23.013 19.9651 22.387 20.8024C21.761 21.6396 20.9666 22.3365 20.055 22.8481C19.1434 23.3598 18.1347 23.6749 17.0939 23.7731C16.0532 23.8714 15.0034 23.7506 14.0121 23.4186C13.0208 23.0866 12.11 22.5508 11.3384 21.8455C10.5667 21.1402 9.9513 20.2812 9.53172 19.3237C9.11213 18.3662 8.89768 17.3315 8.90216 16.2861C8.90665 15.2407 9.12998 14.2079 9.55778 13.254C9.90189 12.4233 10.4063 11.6685 11.0422 11.0328C11.6781 10.3971 12.433 9.8929 13.2638 9.54901C14.8846 8.82538 16.7087 8.69629 18.4153 9.18444C20.1219 9.67258 21.6018 10.7467 22.5948 12.218C22.6651 12.3206 22.7724 12.3919 22.8942 12.4169C23.016 12.4418 23.1428 12.4186 23.2478 12.352L23.3338 12.294C23.4491 12.2211 23.531 12.1057 23.5617 11.9727C23.5924 11.8398 23.5695 11.7001 23.4978 11.584C22.4145 9.98955 20.8292 8.80313 18.994 8.21349C17.1587 7.62385 15.179 7.66487 13.3698 8.33001C12.222 8.72447 11.1776 9.37174 10.3135 10.224C9.44947 11.0763 8.78794 12.1118 8.37778 13.254C7.95152 14.3567 7.75766 15.5355 7.80837 16.7166C7.85908 17.8977 8.15326 19.0556 8.67246 20.1176C9.19166 21.1797 9.92469 22.123 10.8256 22.8885C11.7265 23.6539 12.7758 24.225 13.9078 24.5659C15.0397 24.9068 16.2299 25.0102 17.4037 24.8695C18.5775 24.7288 19.7095 24.3472 20.7289 23.7484C21.7482 23.1497 22.6329 22.3469 23.3274 21.3902C24.0219 20.4335 24.5112 19.3437 24.7648 18.189ZM16.8738 4.95001H15.9138C14.1791 5.0229 12.4838 5.48954 10.9562 6.3146C9.42866 7.13965 8.10883 8.30149 7.09672 9.71213C6.0846 11.1228 5.40675 12.7452 5.11448 14.4566C4.82221 16.168 4.92319 17.9234 5.40978 19.59C5.45183 19.7288 5.5473 19.8453 5.67519 19.9137C5.80309 19.9822 5.95294 19.997 6.09178 19.955H6.16878C6.28485 19.8989 6.3774 19.8037 6.43009 19.6861C6.48278 19.5684 6.49223 19.4359 6.45678 19.312C5.82076 17.1336 5.91838 14.8066 6.73463 12.6891C7.55088 10.5717 9.04049 8.7812 10.9741 7.59338C12.9078 6.40557 15.1782 5.88625 17.436 6.1154C19.6937 6.34454 21.8136 7.30943 23.4691 8.86152C25.1247 10.4136 26.2242 12.4669 26.5984 14.7051C26.9725 16.9434 26.6006 19.2426 25.5399 21.2488C24.4792 23.255 22.7884 24.8569 20.728 25.8079C18.6676 26.7589 16.3516 27.0063 14.1368 26.512C14.041 26.4917 13.9414 26.4989 13.8495 26.5329C13.7576 26.5669 13.6773 26.6262 13.6178 26.704C13.5584 26.7781 13.5189 26.8661 13.5031 26.9597C13.4872 27.0533 13.4956 27.1494 13.5274 27.2389C13.5591 27.3283 13.6132 27.4082 13.6845 27.4709C13.7558 27.5336 13.842 27.577 13.9348 27.597C15.4611 27.8767 17.0284 27.8427 18.5411 27.4972C20.0539 27.1517 21.4805 26.5019 22.7341 25.5874C23.9877 24.6729 25.0421 23.5127 25.8329 22.1777C26.6238 20.8426 27.1346 19.3605 27.3343 17.8217C27.534 16.2829 27.4184 14.7195 26.9945 13.2268C26.5706 11.7341 25.8473 10.3433 24.8687 9.13909C23.8901 7.93488 22.6766 6.94246 21.3021 6.22228C19.9276 5.5021 18.4209 5.06922 16.8738 4.95001Z" fill="white"/>
</svg>
