<svg width="32" height="32" viewBox="0 0 32 32" fill="none" xmlns="http://www.w3.org/2000/svg">
<path d="M16 32C24.8366 32 32 24.8366 32 16C32 7.16344 24.8366 0 16 0C7.16344 0 0 7.16344 0 16C0 24.8366 7.16344 32 16 32Z" fill="#3058A6"/>
<path d="M15.9946 27.228C9.79664 27.228 4.77164 22.203 4.77164 16.005C4.77164 9.80699 9.79664 4.78199 15.9946 4.78199C22.1926 4.78199 27.2176 9.80699 27.2176 16.005C27.2176 22.203 22.1926 27.228 15.9946 27.228ZM15.9946 4.06699C9.41164 4.06699 4.05664 9.42199 4.05664 16.005C4.05664 22.588 9.41164 27.943 15.9946 27.943C22.5776 27.943 27.9326 22.588 27.9326 16.005C27.9326 9.42199 22.5776 4.06699 15.9946 4.06699Z" fill="white"/>
<path fill-rule="evenodd" clip-rule="evenodd" d="M20.1983 20.275L19.5753 22.974L19.4253 23.627H18.7553L15.3103 23.625H15.2963C13.9153 23.602 12.8313 23.235 12.1203 22.587C12.7343 23.67 14.0383 24.297 15.8583 24.327H15.8723L19.3163 24.329H19.9863L20.1373 23.676L20.7603 20.977L20.2743 19.946L20.1983 20.275ZM19.1153 8.704L18.6233 7.681L18.5533 8.001L18.0863 10.128H18.8023L19.1153 8.704ZM21.6023 11.165L20.9823 13.79L20.8283 14.438H17.0953L16.1473 18.766C16.1273 18.89 16.1153 19.016 16.1153 19.086C16.1153 19.147 16.1223 19.186 16.1283 19.205C16.1995 19.2317 16.2752 19.2446 16.3513 19.243H16.7593L17.6573 15.141H21.3903L21.5433 14.492L22.1633 11.867L21.6813 10.831L21.6013 11.165H21.6023ZM12.3403 14.438H9.73926L10.6353 15.141H12.1873L12.3403 14.438Z" fill="white"/>
<path fill-rule="evenodd" clip-rule="evenodd" d="M16.4332 20.086H16.3382C15.6142 20.067 15.2722 19.69 15.2722 19.086C15.2722 18.942 15.2962 18.751 15.3202 18.608L16.4182 13.596H20.1622L20.7822 10.971H17.0382L17.7302 7.82098H14.6762L13.9832 10.971H10.6692L10.0732 13.596H13.3872L12.0972 19.491C12.0272 19.777 12.0022 20.111 12.0022 20.278C12.0022 21.96 13.3292 22.75 15.3102 22.783L18.7542 22.784L19.3772 20.086H16.4332Z" fill="white"/>
</svg>
