<svg width="32" height="32" viewBox="0 0 32 32" fill="none" xmlns="http://www.w3.org/2000/svg">
<path d="M16 32C24.8366 32 32 24.8366 32 16C32 7.16344 24.8366 0 16 0C7.16344 0 0 7.16344 0 16C0 24.8366 7.16344 32 16 32Z" fill="#00843D"/>
<path d="M16.0061 5.59999C16.4001 5.59999 16.7871 5.70299 17.1281 5.89999L24.2881 10.034C24.6294 10.2312 24.9128 10.5147 25.1097 10.8561C25.3067 11.1976 25.4103 11.5848 25.4101 11.979V20.413C25.4101 21.215 24.9831 21.956 24.2881 22.357L17.1271 26.492C16.7858 26.689 16.3987 26.7928 16.0046 26.7928C15.6105 26.7928 15.2234 26.689 14.8821 26.492L7.72011 22.357C7.37883 22.16 7.09541 21.8766 6.89829 21.5354C6.70117 21.1941 6.5973 20.8071 6.59711 20.413V11.979C6.59711 11.177 7.02511 10.436 7.72011 10.034L14.8801 5.89999C15.2221 5.70299 15.6101 5.59899 16.0031 5.59899H16.0051L16.0061 5.59999ZM16.0041 4.03899C15.3364 4.03938 14.6805 4.21525 14.1021 4.54899L6.94011 8.68199C6.36222 9.0168 5.88232 9.49742 5.54838 10.0758C5.21443 10.6542 5.03814 11.3101 5.03711 11.978V20.412C5.03814 21.0799 5.21443 21.7358 5.54838 22.3142C5.88232 22.8926 6.36222 23.3732 6.94011 23.708L14.1001 27.842C15.2781 28.522 16.7291 28.522 17.9061 27.842L25.0671 23.708C25.645 23.3732 26.1249 22.8926 26.4588 22.3142C26.7928 21.7358 26.9691 21.0799 26.9701 20.412V11.978C26.9691 11.3101 26.7928 10.6542 26.4588 10.0758C26.1249 9.49742 25.645 9.0168 25.0671 8.68199L17.9071 4.54699C17.3282 4.21291 16.6715 4.03703 16.0031 4.03699L16.0041 4.03899Z" fill="white"/>
<path d="M15.127 17.52C15.0447 17.5201 14.9639 17.4986 14.8926 17.4575C14.8213 17.4164 14.7621 17.3572 14.721 17.286L13.86 15.793C13.8189 15.7218 13.7973 15.6411 13.7973 15.559C13.7973 15.4768 13.8189 15.3961 13.86 15.325L14.721 13.832C14.7621 13.7607 14.8213 13.7016 14.8926 13.6605C14.9639 13.6194 15.0447 13.5979 15.127 13.598H16.885C16.967 13.5982 17.0476 13.62 17.1187 13.661C17.1897 13.7021 17.2488 13.761 17.29 13.832L18.152 15.325C18.1931 15.3961 18.2147 15.4768 18.2147 15.559C18.2147 15.6411 18.1931 15.7218 18.152 15.793L17.29 17.286C17.2489 17.3571 17.1899 17.4161 17.1188 17.4572C17.0477 17.4983 16.9671 17.5199 16.885 17.52H15.127ZM12.778 15.169C12.8602 15.1689 12.941 15.1473 13.0122 15.1062C13.0835 15.0651 13.1427 15.0061 13.184 14.935L14.045 13.442C14.0861 13.3708 14.1077 13.2901 14.1077 13.208C14.1077 13.1258 14.0861 13.0451 14.045 12.974L12.971 11.113L10.874 12.257C10.7988 12.2982 10.7364 12.3592 10.6935 12.4335C10.6507 12.5077 10.629 12.5923 10.631 12.678C10.648 13.516 10.746 14.35 10.922 15.169H12.778ZM19.233 15.169C19.1509 15.1689 19.0702 15.1473 18.9991 15.1062C18.9281 15.0651 18.869 15.0061 18.828 14.935L17.966 13.442C17.9249 13.3708 17.9033 13.2901 17.9033 13.208C17.9033 13.1258 17.9249 13.0451 17.966 12.974L19.04 11.113L21.136 12.257C21.2112 12.298 21.2737 12.3588 21.3167 12.4329C21.3598 12.5069 21.3816 12.5914 21.38 12.677C21.3629 13.515 21.2658 14.3495 21.09 15.169H19.233ZM16.23 9.57799C16.1613 9.54053 16.0842 9.5209 16.006 9.5209C15.9277 9.5209 15.8507 9.54053 15.782 9.57799L13.656 10.738L14.722 12.584C14.763 12.6551 14.8221 12.7141 14.8931 12.7552C14.9642 12.7963 15.0449 12.8179 15.127 12.818H16.885C16.9671 12.818 17.0478 12.7964 17.1189 12.7554C17.19 12.7143 17.249 12.6552 17.29 12.584L18.356 10.739L16.23 9.57899V9.57799ZM11.116 15.949C11.5171 17.3758 12.1579 18.724 13.011 19.936L14.046 18.144C14.0871 18.0728 14.1087 17.9921 14.1087 17.91C14.1087 17.8278 14.0871 17.7471 14.046 17.676L13.184 16.183C13.1429 16.1119 13.0839 16.0528 13.0128 16.0118C12.9417 15.9707 12.8611 15.949 12.779 15.949H11.116ZM20.894 15.949C20.4932 17.3757 19.8528 18.724 19 19.936L17.965 18.144C17.9239 18.0728 17.9023 17.9921 17.9023 17.91C17.9023 17.8278 17.9239 17.7471 17.965 17.676L18.828 16.183C18.869 16.1119 18.9281 16.0528 18.9991 16.0118C19.0702 15.9707 19.1509 15.949 19.233 15.949H20.895H20.894ZM15.127 18.3C15.0447 18.2999 14.9639 18.3214 14.8926 18.3625C14.8213 18.4036 14.7621 18.4627 14.721 18.534L13.521 20.614C14.1672 21.417 14.9053 22.1416 15.72 22.773C15.8021 22.8362 15.9029 22.8704 16.0065 22.8704C16.1101 22.8704 16.2108 22.8362 16.293 22.773C17.1074 22.1412 17.8451 21.4163 18.491 20.613L17.291 18.534C17.2499 18.4629 17.1909 18.4038 17.1198 18.3628C17.0487 18.3217 16.9681 18.3 16.886 18.3H15.126H15.127Z" fill="white"/>
</svg>
