<svg width="32" height="32" viewBox="0 0 32 32" fill="none" xmlns="http://www.w3.org/2000/svg">
<path d="M16 32C24.8366 32 32 24.8366 32 16C32 7.16344 24.8366 0 16 0C7.16344 0 0 7.16344 0 16C0 24.8366 7.16344 32 16 32Z" fill="#2B2E7F"/>
<path d="M17.0574 19.028V13.168H17.8274C20.3724 13.168 20.9994 10.795 20.9994 10.795H14.3164C11.1444 10.795 10.6064 13.169 10.6064 13.169H14.5494V21.986C14.5494 21.986 17.0574 21.233 17.0574 19.028Z" fill="white"/>
<path d="M24.3952 23.594C26.6432 21.258 27.5052 18.014 26.6962 14.911C26.2693 13.2874 25.4126 11.8088 24.2162 10.631C24.1082 10.525 24.0002 10.417 23.8742 10.311L23.7662 10.204C23.6929 10.1333 23.6147 10.0678 23.5322 10.008L23.3882 9.90102L23.1732 9.74102L23.0462 9.65102C22.9604 9.59481 22.8767 9.53544 22.7952 9.47302L22.6322 9.36702C22.565 9.31814 22.493 9.27625 22.4172 9.24202L22.2552 9.13502C22.1832 9.09902 22.1112 9.04502 22.0392 9.01002L21.8772 8.92002C21.8052 8.88502 21.7332 8.84902 21.6432 8.81402L21.5882 8.79602C21.7862 8.95602 21.9832 9.13502 22.1632 9.31302C22.9837 10.1265 23.6349 11.0944 24.0793 12.1608C24.5237 13.2273 24.7525 14.3712 24.7525 15.5265C24.7525 16.6819 24.5237 17.8258 24.0793 18.8922C23.6349 19.9587 22.9837 20.9266 22.1632 21.74C17.7772 26.09 10.6582 26.09 6.27023 21.74C6.10823 21.58 5.96423 21.42 5.80323 21.26L5.67723 21.117C5.58301 21.0074 5.49294 20.8944 5.40723 20.778C5.97126 21.8841 6.70554 22.8948 7.58323 23.773C12.1672 28.319 19.6092 28.319 24.1932 23.773C24.2731 23.7288 24.3421 23.6673 24.3952 23.593V23.594Z" fill="white"/>
<path d="M10.4003 22.386C10.2002 22.2229 10.008 22.0504 9.82427 21.869C9.00299 21.0548 8.35111 20.086 7.90624 19.0185C7.46138 17.951 7.23233 16.806 7.23233 15.6495C7.23233 14.493 7.46138 13.348 7.90624 12.2805C8.35111 11.213 9.00299 10.2442 9.82427 9.43001C14.2153 5.07601 21.3403 5.07601 25.7313 9.43001C26.0373 9.73401 26.3243 10.055 26.5943 10.394C26.0296 9.29251 25.2949 8.28684 24.4173 7.41401C19.8293 2.86301 12.3793 2.86301 7.79127 7.41401C7.73727 7.46701 7.68327 7.53901 7.61127 7.59201C4.57027 10.769 4.15627 15.516 6.58627 19.121C7.54027 20.511 8.87027 21.671 10.4003 22.386Z" fill="white"/>
</svg>
