<svg width="32" height="32" viewBox="0 0 32 32" fill="none" xmlns="http://www.w3.org/2000/svg">
<path d="M16 32C24.8366 32 32 24.8366 32 16C32 7.16344 24.8366 0 16 0C7.16344 0 0 7.16344 0 16C0 24.8366 7.16344 32 16 32Z" fill="#FF007A"/>
<path d="M12.2613 5.76699C11.9763 5.72299 11.9643 5.71699 12.0983 5.69699C12.3553 5.65699 12.9633 5.71199 13.3823 5.81099C14.3593 6.04399 15.2483 6.63899 16.1983 7.69599L16.4503 7.97599L16.8103 7.91899C18.3303 7.67399 19.8773 7.86899 21.1703 8.46599C21.5263 8.62999 22.0873 8.95699 22.1573 9.04199C22.1803 9.06799 22.2213 9.24099 22.2483 9.42499C22.3443 10.062 22.2963 10.55 22.1023 10.915C21.9963 11.113 21.9903 11.175 22.0613 11.345C22.095 11.4152 22.1477 11.4746 22.2135 11.5163C22.2792 11.558 22.3554 11.5804 22.4333 11.581C22.7553 11.581 23.1013 11.061 23.2613 10.338L23.3253 10.051L23.4513 10.194C24.1433 10.978 24.6863 12.047 24.7793 12.807L24.8043 13.006L24.6873 12.826C24.4873 12.516 24.2873 12.304 24.0293 12.133C23.5653 11.826 23.0743 11.722 21.7743 11.653C20.6003 11.591 19.9353 11.491 19.2773 11.276C18.1563 10.911 17.5913 10.424 16.2593 8.67699C15.6683 7.90099 15.3023 7.47199 14.9393 7.12699C14.1123 6.34099 13.3003 5.92899 12.2613 5.76699Z" fill="white"/>
<path d="M22.4227 7.49999C22.4527 6.97999 22.5227 6.63699 22.6647 6.32399C22.7207 6.19999 22.7737 6.09799 22.7817 6.09799C22.7728 6.16819 22.7543 6.23683 22.7267 6.30199C22.6237 6.60599 22.6067 7.02199 22.6777 7.50499C22.7677 8.11899 22.8197 8.20699 23.4677 8.86999C23.7727 9.18099 24.1267 9.57299 24.2547 9.74199L24.4877 10.048L24.2547 9.82899C23.9697 9.56199 23.3137 9.03899 23.1687 8.96499C23.0717 8.91499 23.0567 8.91599 22.9967 8.97499C22.9417 9.03099 22.9297 9.11299 22.9227 9.50399C22.9107 10.112 22.8277 10.504 22.6267 10.894C22.5187 11.104 22.5017 11.06 22.5997 10.821C22.6727 10.643 22.6797 10.565 22.6797 9.97599C22.6797 8.79199 22.5387 8.50799 21.7137 8.01999C21.4654 7.87595 21.2105 7.7438 20.9497 7.62399C20.8208 7.57231 20.6959 7.51148 20.5757 7.44199C20.5987 7.41899 21.4027 7.65299 21.7257 7.77799C22.2077 7.96299 22.2867 7.98699 22.3457 7.96399C22.3847 7.94899 22.4037 7.83499 22.4227 7.49999ZM12.8157 9.52499C12.2367 8.72799 11.8787 7.50499 11.9557 6.59099L11.9797 6.30799L12.1117 6.33199C12.3597 6.37699 12.7867 6.53599 12.9867 6.65799C13.5347 6.99099 13.7727 7.42999 14.0137 8.55599C14.0847 8.88599 14.1777 9.25899 14.2207 9.38599C14.2887 9.58899 14.5487 10.064 14.7607 10.373C14.9127 10.595 14.8107 10.7 14.4747 10.67C13.9607 10.623 13.2647 10.143 12.8157 9.52499ZM21.7207 15.46C19.0137 14.37 18.0607 13.424 18.0607 11.828C18.0607 11.593 18.0687 11.401 18.0777 11.401C18.0877 11.401 18.1927 11.478 18.3107 11.573C18.8597 12.013 19.4747 12.201 21.1757 12.449C22.1767 12.596 22.7407 12.714 23.2607 12.886C24.9127 13.434 25.9347 14.546 26.1787 16.06C26.2487 16.5 26.2077 17.325 26.0927 17.76C26.0027 18.104 25.7257 18.723 25.6527 18.747C25.6327 18.753 25.6127 18.676 25.6067 18.569C25.5787 18.001 25.2917 17.447 24.8087 17.032C24.2597 16.561 23.5227 16.185 21.7197 15.46H21.7207ZM19.8207 15.912C19.7887 15.7188 19.745 15.5278 19.6897 15.34L19.6197 15.134L19.7487 15.278C19.9257 15.478 20.0667 15.732 20.1847 16.072C20.2757 16.331 20.2857 16.408 20.2847 16.829C20.2847 17.243 20.2737 17.329 20.1897 17.563C20.0729 17.9061 19.8773 18.2171 19.6187 18.471C19.1237 18.975 18.4887 19.253 17.5707 19.369C17.4107 19.389 16.9467 19.423 16.5377 19.444C15.5077 19.498 14.8307 19.608 14.2217 19.822C14.1668 19.8466 14.1078 19.8608 14.0477 19.864C14.0237 19.839 14.4377 19.592 14.7807 19.427C15.2637 19.194 15.7437 19.067 16.8207 18.888C17.3527 18.799 17.9027 18.692 18.0417 18.649C19.3597 18.245 20.0367 17.203 19.8197 15.912H19.8207Z" fill="white"/>
<path d="M21.0607 18.116C20.7007 17.343 20.6187 16.596 20.8157 15.9C20.8367 15.826 20.8707 15.765 20.8907 15.765C20.9584 15.7895 21.0221 15.8239 21.0797 15.867C21.2457 15.979 21.5777 16.167 22.4627 16.649C23.5677 17.252 24.1977 17.719 24.6267 18.251C25.0017 18.718 25.2337 19.25 25.3457 19.898C25.4087 20.265 25.3717 21.148 25.2777 21.518C24.9807 22.684 24.2897 23.6 23.3057 24.134C23.2129 24.1877 23.1167 24.2355 23.0177 24.277C23.0037 24.277 23.0557 24.144 23.1347 23.98C23.4647 23.288 23.5037 22.614 23.2527 21.864C23.0997 21.405 22.7867 20.844 22.1557 19.898C21.4217 18.798 21.2417 18.504 21.0607 18.116ZM10.8937 22.287C11.8987 21.439 13.1477 20.837 14.2867 20.652C14.7767 20.572 15.5947 20.604 16.0487 20.72C16.7767 20.906 17.4287 21.324 17.7677 21.821C18.0977 22.307 18.2407 22.731 18.3877 23.673C18.4477 24.045 18.5107 24.418 18.5297 24.503C18.6397 24.991 18.8567 25.382 19.1247 25.578C19.5497 25.889 20.2827 25.908 21.0027 25.628C21.078 25.5935 21.1573 25.5686 21.2387 25.554C21.2647 25.58 20.9027 25.823 20.6467 25.951C20.3446 26.1127 20.0063 26.1946 19.6637 26.189C19.0037 26.189 18.4557 25.854 17.9987 25.169C17.9087 25.034 17.7067 24.631 17.5487 24.272C17.0667 23.172 16.8287 22.836 16.2687 22.469C15.7797 22.149 15.1507 22.092 14.6777 22.324C14.0557 22.629 13.8827 23.424 14.3277 23.927C14.5047 24.127 14.8347 24.3 15.1047 24.333C15.2225 24.3486 15.3423 24.3388 15.4559 24.3041C15.5696 24.2694 15.6744 24.2108 15.7635 24.1321C15.8525 24.0534 15.9236 23.9565 15.9719 23.848C16.0203 23.7395 16.0448 23.6218 16.0437 23.503C16.0437 23.171 15.9157 22.983 15.5957 22.838C15.1587 22.641 14.6887 22.871 14.6907 23.282C14.6917 23.457 14.7677 23.567 14.9437 23.647C15.0567 23.697 15.0587 23.702 14.9667 23.683C14.5657 23.599 14.4717 23.116 14.7947 22.795C15.1817 22.409 15.9827 22.579 16.2577 23.105C16.3737 23.326 16.3867 23.767 16.2857 24.033C16.0607 24.628 15.4027 24.94 14.7357 24.77C14.2817 24.654 14.0967 24.529 13.5497 23.965C12.5987 22.985 12.2297 22.795 10.8577 22.581L10.5947 22.54L10.8947 22.287H10.8937Z" fill="white"/>
<path fill-rule="evenodd" clip-rule="evenodd" d="M6.19629 3.35L6.29229 3.467C10.0003 8.007 11.9163 10.363 12.0383 10.531C12.2383 10.809 12.1633 11.058 11.8193 11.254C11.6283 11.363 11.2343 11.473 11.0383 11.473C10.8153 11.473 10.5643 11.366 10.3813 11.193C10.2523 11.07 9.73129 10.292 8.52829 8.425C7.96494 7.5426 7.39426 6.6649 6.81629 5.792C6.76729 5.746 6.76829 5.747 8.43429 8.728C9.48029 10.6 9.83429 11.261 9.83429 11.35C9.83429 11.53 9.78429 11.624 9.56229 11.872C9.19229 12.285 9.02729 12.749 8.90729 13.709C8.77329 14.786 8.39729 15.546 7.35329 16.847C6.74329 17.609 6.64329 17.749 6.48829 18.056C6.29429 18.442 6.24129 18.659 6.21929 19.147C6.19629 19.663 6.24129 19.997 6.39929 20.49C6.53729 20.922 6.68129 21.208 7.04929 21.778C7.36729 22.271 7.55029 22.637 7.55029 22.78C7.55029 22.894 7.57229 22.894 8.06529 22.783C9.24429 22.517 10.2013 22.048 10.7403 21.474C11.0733 21.119 11.1513 20.923 11.1543 20.436C11.1553 20.118 11.1443 20.051 11.0583 19.868C10.9183 19.57 10.6633 19.322 10.1013 18.938C9.36429 18.434 9.05029 18.028 8.96329 17.471C8.89129 17.014 8.97429 16.691 9.38229 15.837C9.80329 14.953 9.90829 14.577 9.97929 13.686C10.0243 13.11 10.0873 12.883 10.2533 12.701C10.4253 12.511 10.5813 12.446 11.0083 12.388C11.7043 12.293 12.1473 12.113 12.5113 11.778C12.8273 11.486 12.9593 11.205 12.9793 10.783L12.9953 10.463L12.8183 10.257C12.5643 9.961 10.4633 7.643 6.51429 3.301L6.40829 3.186L6.19629 3.351V3.35ZM7.91029 19.732C7.98005 19.6085 8.00089 19.4633 7.96866 19.3251C7.93644 19.1869 7.85351 19.0659 7.73629 18.986C7.50829 18.834 7.15329 18.906 7.15329 19.104C7.15329 19.164 7.18629 19.208 7.26129 19.247C7.38829 19.312 7.39729 19.386 7.29829 19.535C7.19729 19.687 7.20529 19.821 7.32129 19.912C7.50729 20.058 7.77129 19.977 7.91129 19.732H7.91029ZM13.4343 12.556C13.1073 12.656 12.7903 13.003 12.6913 13.366C12.6313 13.587 12.6653 13.976 12.7553 14.096C12.9003 14.29 13.0413 14.341 13.4213 14.338C14.1653 14.333 14.8113 14.014 14.8873 13.615C14.9493 13.288 14.6643 12.835 14.2733 12.635C14.0713 12.533 13.6423 12.492 13.4343 12.556ZM14.3043 13.236C14.4193 13.073 14.3683 12.896 14.1743 12.778C13.8023 12.551 13.2403 12.738 13.2403 13.09C13.2403 13.264 13.5333 13.455 13.8013 13.455C13.9813 13.455 14.2253 13.348 14.3043 13.236Z" fill="white"/>
</svg>
