<svg width="32" height="32" viewBox="0 0 32 32" fill="none" xmlns="http://www.w3.org/2000/svg">
<path d="M16 32C24.8366 32 32 24.8366 32 16C32 7.16344 24.8366 0 16 0C7.16344 0 0 7.16344 0 16C0 24.8366 7.16344 32 16 32Z" fill="#408AF1"/>
<path d="M23.0488 10.277C23.1554 10.0959 23.2972 9.93793 23.4658 9.81247C23.6344 9.68701 23.8264 9.59659 24.0305 9.54654C24.2347 9.49649 24.4467 9.48782 24.6543 9.52105C24.8618 9.55428 25.0605 9.62873 25.2388 9.74001C25.9888 10.21 26.2248 11.21 25.7648 11.977C24.0608 14.815 22.1378 17.785 20.5348 20.053C18.1948 23.363 17.6878 24.5 15.9998 24.5C14.3118 24.5 13.9318 23.497 11.5248 20.044C10.0948 17.994 8.30182 15.249 6.25482 12.008C6.02553 11.6453 5.94687 11.2074 6.03559 10.7875C6.1243 10.3676 6.37339 9.99899 6.72982 9.76001C6.90537 9.64442 7.10231 9.56518 7.309 9.52699C7.51569 9.48879 7.72794 9.4924 7.93322 9.53761C8.13849 9.58283 8.33261 9.66872 8.50413 9.79022C8.67565 9.91172 8.82107 10.0664 8.93182 10.245C10.9548 13.447 15.5248 20.121 16.0128 20.716C16.5228 20.112 21.3848 13.049 23.0488 10.276V10.277Z" fill="white"/>
</svg>
