<svg width="32" height="32" viewBox="0 0 32 32" fill="none" xmlns="http://www.w3.org/2000/svg">
<path d="M16 32C24.8366 32 32 24.8366 32 16C32 7.16344 24.8366 0 16 0C7.16344 0 0 7.16344 0 16C0 24.8366 7.16344 32 16 32Z" fill="#3165D4"/>
<path fill-rule="evenodd" clip-rule="evenodd" d="M8.84588 7.42801C9.39688 6.95501 10.1699 6.56801 10.8419 6.84101C12.0519 7.33101 15.2979 13.885 15.2979 13.885C15.2979 13.885 19.8409 7.42501 21.4719 6.83701C22.0289 6.63601 22.7919 6.98901 23.3739 7.42501C25.4159 8.95301 25.6269 11.085 25.4509 11.677C25.2289 12.421 13.9459 26.75 13.9459 26.75C13.6079 26.612 6.92288 14.193 6.56088 12.068C6.21488 10.037 7.39288 8.65701 8.84588 7.42801Z" fill="white"/>
</svg>
