<svg width="32" height="32" viewBox="0 0 32 32" fill="none" xmlns="http://www.w3.org/2000/svg">
<path d="M16 32C24.8366 32 32 24.8366 32 16C32 7.16344 24.8366 0 16 0C7.16344 0 0 7.16344 0 16C0 24.8366 7.16344 32 16 32Z" fill="#201A2D"/>
<path d="M22.8177 9.586L22.2177 10.186C23.6494 11.7517 24.4433 13.7964 24.4433 15.918C24.4433 18.0396 23.6494 20.0843 22.2177 21.65L22.8177 22.25C24.4099 20.523 25.2939 18.26 25.2939 15.911C25.2939 13.562 24.4099 11.299 22.8177 9.572V9.586ZM10.1997 9.638C11.7654 8.2063 13.8101 7.41235 15.9317 7.41235C18.0533 7.41235 20.098 8.2063 21.6637 9.638L22.2637 9.038C20.5367 7.4458 18.2737 6.56183 15.9247 6.56183C13.5757 6.56183 11.3127 7.4458 9.5857 9.038L10.1997 9.638ZM9.6377 21.656C8.20769 20.0907 7.41479 18.0472 7.41479 15.927C7.41479 13.8068 8.20769 11.7633 9.6377 10.198L9.0377 9.598C7.4455 11.325 6.56152 13.588 6.56152 15.937C6.56152 18.286 7.4455 20.549 9.0377 22.276L9.6377 21.656ZM21.6557 22.21C20.09 23.6417 18.0453 24.4357 15.9237 24.4357C13.8021 24.4357 11.7574 23.6417 10.1917 22.21L9.5917 22.81C11.3187 24.4022 13.5817 25.2862 15.9307 25.2862C18.2797 25.2862 20.5427 24.4022 22.2697 22.81L21.6557 22.21ZM19.7137 13.924C19.5937 12.672 18.5137 12.252 17.1477 12.124V10.4H16.0917V12.092H15.2477V10.4H14.1997V12.136H12.0577V13.266C12.0577 13.266 12.8377 13.252 12.8257 13.266C12.9663 13.2505 13.1075 13.2903 13.2194 13.3768C13.3313 13.4634 13.4053 13.59 13.4257 13.73V18.482C13.4227 18.5314 13.4098 18.5797 13.3878 18.624C13.3658 18.6683 13.3352 18.7077 13.2977 18.74C13.2609 18.7729 13.2178 18.798 13.1711 18.8138C13.1244 18.8296 13.0749 18.8358 13.0257 18.832C13.0397 18.844 12.2577 18.832 12.2577 18.832L12.0577 20.094H14.1797V21.858H15.2357V20.12H16.0797V21.85H17.1377V20.106C18.9217 19.998 20.1657 19.558 20.3217 17.888C20.4477 16.544 19.8157 15.944 18.8057 15.702C19.4197 15.4 19.7997 14.84 19.7137 13.924ZM18.2337 17.68C18.2337 18.992 15.9857 18.842 15.2697 18.842V16.514C15.9857 16.516 18.2337 16.31 18.2337 17.68ZM17.7437 14.4C17.7437 15.6 15.8677 15.454 15.2717 15.454V13.338C15.8677 13.338 17.7437 13.15 17.7437 14.4Z" fill="white"/>
<path d="M15.924 26.852C9.89 26.851 5 21.959 5 15.925C5 9.892 9.892 5 15.925 5C21.959 5 26.851 9.89 26.852 15.924C26.8523 17.3592 26.5698 18.7803 26.0207 20.1063C25.4716 21.4322 24.6667 22.637 23.6518 23.6518C22.637 24.6667 21.4322 25.4716 20.1063 26.0207C18.7803 26.5698 17.3592 26.8523 15.924 26.852ZM15.924 5.852C10.365 5.856 5.862 10.365 5.864 15.924C5.866 21.483 10.374 25.988 15.932 25.988C21.491 25.988 25.998 21.483 26 15.924C26.0005 14.6008 25.7402 13.2906 25.234 12.0681C24.7278 10.8456 23.9855 9.73486 23.0497 8.79943C22.1139 7.864 21.0029 7.12221 19.7802 6.61647C18.5575 6.11072 17.2472 5.85095 15.924 5.852Z" fill="white"/>
</svg>
