<svg width="32" height="32" viewBox="0 0 32 32" fill="none" xmlns="http://www.w3.org/2000/svg">
<path d="M16 32C24.8366 32 32 24.8366 32 16C32 7.16344 24.8366 0 16 0C7.16344 0 0 7.16344 0 16C0 24.8366 7.16344 32 16 32Z" fill="#5783CB"/>
<path d="M15.24 4H16.48C19.1876 4.13033 21.7638 5.20609 23.76 7.04C24.1 7.26 24.1 7.8 23.7 7.94C23.36 8.02 23.1 7.72 22.84 7.54C20.6296 5.85672 17.853 5.0955 15.0932 5.41623C12.3335 5.73696 9.80541 7.11467 8.04 9.26C6.5985 11.0329 5.77468 13.2276 5.69352 15.5111C5.61237 17.7947 6.27833 20.0423 7.59034 21.9131C8.90235 23.7838 10.7888 25.1755 12.9634 25.877C15.138 26.5785 17.4821 26.5514 19.64 25.8C21.4051 25.1891 22.9815 24.1309 24.2154 22.7288C25.4493 21.3266 26.2985 19.6284 26.68 17.8C26.856 17.071 26.97 16.328 27.02 15.58C27.0328 15.4704 27.0881 15.3702 27.1739 15.3009C27.2597 15.2315 27.3693 15.1986 27.4791 15.209C27.589 15.2195 27.6903 15.2725 27.7615 15.3568C27.8327 15.4411 27.8681 15.55 27.86 15.66L27.82 16.9C27.6644 19.7919 26.4382 22.5225 24.38 24.56C22.2929 26.629 19.5152 27.8541 16.58 28H15.4C12.4185 27.8493 9.59969 26.5945 7.49243 24.4798C5.38518 22.3652 4.14025 19.542 4 16.56V15.44C4.1454 12.4868 5.37062 9.68998 7.44283 7.5809C9.51505 5.47181 12.2899 4.19746 15.24 4Z" fill="white"/>
<path d="M24.9997 10.22C25.7997 9.34001 27.4597 9.82001 27.6397 11C27.8997 12.06 26.8797 12.96 25.8397 12.88C24.4597 14.28 23.3597 15.94 22.4197 17.68C22.0397 18.2 22.5197 18.88 22.2197 19.42C21.8597 20.48 20.2997 20.7 19.6197 19.82C19.1197 19.26 19.2597 18.48 19.5197 17.86C19.1391 17.07 18.6325 16.3473 18.0197 15.72L17.4197 15.74C16.1063 17.1874 15.0205 18.8262 14.1997 20.6C14.3397 21.14 14.4397 21.78 14.0597 22.26C13.5597 23.08 12.2397 23.16 11.6197 22.4C11.1597 21.88 11.2197 21.14 11.4597 20.52C10.7693 18.6423 9.78354 16.8869 8.53973 15.32C7.75973 15.28 6.93973 14.82 6.83973 14C6.57973 12.88 7.85973 11.8 8.91973 12.3C9.85973 12.64 10.1197 13.84 9.65973 14.66C10.4153 16.5776 11.4756 18.3605 12.7997 19.94C14.239 18.5134 15.4109 16.8402 16.2597 15C16.0997 14.46 15.9997 13.84 16.3597 13.34C16.8997 12.46 18.3397 12.44 18.8997 13.32C19.3197 13.86 19.1797 14.58 18.9397 15.16C19.311 15.9516 19.8036 16.6804 20.3997 17.32L20.9997 17.28C22.4597 15.74 23.7997 14.04 24.6997 12.1C24.5997 11.46 24.4797 10.7 25.0197 10.22H24.9997Z" fill="white"/>
</svg>
