<svg width="32" height="32" viewBox="0 0 32 32" fill="none" xmlns="http://www.w3.org/2000/svg">
<path d="M16 32C24.8366 32 32 24.8366 32 16C32 7.16344 24.8366 0 16 0C7.16344 0 0 7.16344 0 16C0 24.8366 7.16344 32 16 32Z" fill="#0DC9F7"/>
<path d="M18.9037 15.739L15.8587 18.103L14.6117 13.778L7.3877 11.843L16.8687 12.33L18.9037 15.739Z" fill="white" fill-opacity="0.305"/>
<path d="M8.26953 23.993L24.5855 11.33L25.9995 14.476L24.1445 13.963L24.0795 17.227L8.26953 23.993Z" fill="white" fill-opacity="0.7"/>
<path d="M22.796 17.78L18.049 9.619L6 9L15.183 11.461L17.673 19.951L22.796 17.78Z" fill="white"/>
</svg>
