<svg width="32" height="32" viewBox="0 0 32 32" fill="none" xmlns="http://www.w3.org/2000/svg">
<path d="M16 32C24.8366 32 32 24.8366 32 16C32 7.16344 24.8366 0 16 0C7.16344 0 0 7.16344 0 16C0 24.8366 7.16344 32 16 32Z" fill="#8200FF"/>
<path fill-rule="evenodd" clip-rule="evenodd" d="M18.414 13.166L17.734 13.333C17.12 13.483 16.69 14.023 16.69 14.643V19.181L14.443 19.731C14.2669 19.7755 14.0805 19.7488 13.924 19.6567C13.7675 19.5646 13.6536 19.4145 13.607 19.239C13.5935 19.1854 13.5868 19.1303 13.587 19.075V11.52C13.587 11.21 13.802 10.94 14.109 10.864L17.557 10.02C17.7331 9.9755 17.9195 10.0022 18.076 10.0943C18.2325 10.1864 18.3464 10.3365 18.393 10.512C18.407 10.565 18.413 10.62 18.413 10.675V13.166H18.414ZM10.828 13.124L9.976 13.333C9.362 13.483 8.931 14.023 8.931 14.643V19.223L6.857 19.731C6.68095 19.7755 6.49445 19.7488 6.33795 19.6567C6.18145 19.5646 6.06757 19.4145 6.021 19.239C6.00717 19.1854 6.00012 19.1303 6 19.075V11.52C6 11.21 6.215 10.94 6.522 10.864L9.971 10.02C10.1471 9.9755 10.3335 10.0022 10.49 10.0943C10.6465 10.1864 10.7604 10.3365 10.807 10.512C10.821 10.565 10.827 10.62 10.827 10.675V13.125L10.828 13.124ZM21.695 10.885L25.143 10.041C25.3189 9.99647 25.5053 10.023 25.6618 10.1149C25.8182 10.2068 25.9322 10.3567 25.979 10.532C25.9929 10.5856 26 10.6407 26 10.696V18.252C26 18.562 25.785 18.832 25.478 18.907L22.029 19.751C21.8531 19.7955 21.6667 19.769 21.5102 19.6771C21.3538 19.5852 21.2398 19.4353 21.193 19.26C21.1795 19.2064 21.1728 19.1513 21.173 19.096V11.54C21.173 11.23 21.388 10.96 21.695 10.885Z" fill="white"/>
<path opacity="0.504" fill-rule="evenodd" clip-rule="evenodd" d="M12.8971 13.314V19.075C12.8971 19.185 12.9101 19.295 12.9371 19.403C13.0233 19.7263 13.2241 20.0074 13.5021 20.1937C13.78 20.3801 14.1162 20.4591 14.4481 20.416V21.355C14.4481 21.665 14.2331 21.935 13.9261 22.01L10.4781 22.854C10.302 22.8988 10.1154 22.8724 9.9587 22.7805C9.802 22.6886 9.68788 22.5385 9.6411 22.363C9.62761 22.3094 9.62089 22.2543 9.6211 22.199V14.643C9.6211 14.333 9.8361 14.063 10.1431 13.988L12.8971 13.314ZM20.4831 13.356V19.096C20.4831 19.206 20.4971 19.316 20.5231 19.424C20.7091 20.147 21.4581 20.587 22.1971 20.406L22.2071 20.404V21.354C22.2059 21.5059 22.1538 21.6531 22.0592 21.772C21.9646 21.8909 21.8329 21.9747 21.6851 22.01L18.2361 22.854C18.0602 22.8985 17.8738 22.872 17.7173 22.7801C17.5609 22.6882 17.4469 22.5383 17.4001 22.363C17.3866 22.3094 17.3799 22.2543 17.3801 22.199V14.643C17.3801 14.333 17.5951 14.063 17.9021 13.988L20.4821 13.356H20.4831Z" fill="white"/>
</svg>
