<svg width="32" height="32" viewBox="0 0 32 32" fill="none" xmlns="http://www.w3.org/2000/svg">
<path d="M16 32C24.8366 32 32 24.8366 32 16C32 7.16344 24.8366 0 16 0C7.16344 0 0 7.16344 0 16C0 24.8366 7.16344 32 16 32Z" fill="#3B5998"/>
<path fill-rule="evenodd" clip-rule="evenodd" d="M14.1162 6.01001H15.9962V11.892L14.1162 9.92901V6.01001Z" fill="white"/>
<path fill-rule="evenodd" clip-rule="evenodd" d="M6.01077 7.993H10.9598C12.6368 9.748 14.3208 11.5 15.9978 13.259C16.9688 12.25 17.9368 11.234 18.9038 10.222C19.6188 9.481 20.3308 8.736 21.0438 7.992H25.9808C23.6768 10.322 21.3758 12.654 19.0708 14.982C18.8288 15.225 18.5858 15.47 18.3488 15.716C18.4068 15.778 18.4688 15.839 18.5208 15.905L25.2918 22.751L25.9828 23.447H22.1528C22.0538 23.447 21.9548 23.453 21.8578 23.44C21.5848 23.432 21.3108 23.444 21.0378 23.434C20.5428 22.923 20.0538 22.405 19.5588 21.892C18.5858 20.88 17.6168 19.862 16.6438 18.848C16.4278 18.624 16.2168 18.394 15.9958 18.176C15.5258 18.676 15.0438 19.169 14.5708 19.669L11.8938 22.463C11.5818 22.788 11.2738 23.115 10.9598 23.434C10.6898 23.442 10.4178 23.434 10.1458 23.438C9.99077 23.457 9.83377 23.444 9.67877 23.448H6.00977L13.2778 16.098C13.4028 15.972 13.5268 15.845 13.6478 15.716L6.00977 7.993H6.01077Z" fill="white"/>
<path fill-rule="evenodd" clip-rule="evenodd" d="M16 19.531C16.626 20.194 17.26 20.85 17.888 21.511C17.892 22.818 17.888 24.123 17.888 25.431H15.998C15.998 23.464 15.998 21.498 16.002 19.531H16Z" fill="white"/>
</svg>
