<svg width="32" height="32" viewBox="0 0 32 32" fill="none" xmlns="http://www.w3.org/2000/svg">
<path d="M16 32C24.8366 32 32 24.8366 32 16C32 7.16344 24.8366 0 16 0C7.16344 0 0 7.16344 0 16C0 24.8366 7.16344 32 16 32Z" fill="#F7931A"/>
<path d="M25.9768 19.754L25.4318 21.937L23.9768 21.575L24.5208 19.391L22.3378 18.847L22.7008 17.392L24.8838 17.936L25.4288 15.753L26.8838 16.116L26.3398 18.299L28.5228 18.843L28.1598 20.299L25.9768 19.754ZM20.6098 13.76C20.4068 15.11 19.6708 15.766 18.6978 16C20.0288 16.703 20.7028 17.787 20.0458 19.677C19.2298 22.024 17.3198 22.232 14.7838 21.757L14.1538 24.279L12.6678 23.909L13.2888 21.419C12.893 21.321 12.4984 21.2187 12.1048 21.112L11.4808 23.612L9.99684 23.242L10.6268 20.714C10.2788 20.625 9.92684 20.531 9.56684 20.441L7.63184 19.958L8.37984 18.216C8.37984 18.216 9.47484 18.507 9.45984 18.486C9.88184 18.589 10.0698 18.308 10.1448 18.121L11.1388 14.133L11.2968 14.172C11.2464 14.1519 11.1946 14.1352 11.1418 14.122L11.8518 11.275C11.8718 10.952 11.7648 10.546 11.1618 10.395C11.1858 10.38 10.0828 10.127 10.0828 10.127L10.4878 8.50301L12.5378 9.01501L12.5358 9.02201C12.8438 9.09901 13.1618 9.17201 13.4858 9.24501L14.1088 6.74701L15.5948 7.11701L14.9838 9.56701C15.3828 9.65701 15.7838 9.74901 16.1738 9.84701L16.7808 7.41401L18.2678 7.78401L17.6448 10.283C19.5208 10.933 20.8898 11.916 20.6098 13.76ZM17.1828 18.645C17.6738 16.675 14.4408 16.185 13.4328 15.933L12.5998 19.28C13.6078 19.53 16.7148 20.533 17.1848 18.644L17.1828 18.645ZM17.6698 13.749C18.1158 11.956 15.4118 11.572 14.5728 11.363L13.8158 14.4C14.6548 14.61 17.2408 15.467 17.6698 13.749Z" fill="white"/>
</svg>
