<svg width="32" height="32" viewBox="0 0 32 32" fill="none" xmlns="http://www.w3.org/2000/svg">
<path d="M16 32C24.8366 32 32 24.8366 32 16C32 7.16344 24.8366 0 16 0C7.16344 0 0 7.16344 0 16C0 24.8366 7.16344 32 16 32Z" fill="#FF6600"/>
<path d="M28 16C28 22.628 22.628 28 16 28C9.372 28 4 22.628 4 16C4 13.319 4.881 10.844 6.362 8.84701L8.322 10.807C7.28134 12.3387 6.7259 14.1482 6.728 16C6.728 21.11 10.881 25.262 15.991 25.262C21.1 25.262 25.253 21.109 25.253 16C25.2522 14.1484 24.697 12.3393 23.659 10.806L25.619 8.84601C27.1697 10.9082 28.0057 13.4198 28 16Z" fill="white"/>
<path d="M22.6373 16C22.6355 17.7597 21.9356 19.4468 20.6913 20.691C19.447 21.9353 17.76 22.6352 16.0003 22.637C14.2405 22.6354 12.5531 21.9357 11.3086 20.6914C10.0641 19.4471 9.36416 17.7599 9.3623 16C9.3623 14.847 9.6623 13.713 10.2343 12.71L16.0003 18.474L21.7663 12.708C22.338 13.7109 22.6386 14.8456 22.6383 16" fill="white"/>
<path d="M23.8473 6.92501L16.0003 14.762L10.0193 8.79101L8.15332 6.92501C10.3285 5.032 13.1168 3.99267 16.0003 4.00001C19.0003 4.00001 21.7383 5.09701 23.8473 6.92501Z" fill="white"/>
</svg>
