<svg width="32" height="32" viewBox="0 0 32 32" fill="none" xmlns="http://www.w3.org/2000/svg">
<path d="M16 32C24.8366 32 32 24.8366 32 16C32 7.16344 24.8366 0 16 0C7.16344 0 0 7.16344 0 16C0 24.8366 7.16344 32 16 32Z" fill="#FF6600"/>
<path d="M15.9705 5.23499C21.9555 5.23499 26.7955 10.075 26.7955 16.059C26.7914 17.2252 26.6031 18.3835 26.2375 19.491H23.0115V10.397L15.9715 17.437L8.93146 10.397V19.491H5.70446C5.33918 18.3835 5.15119 17.2252 5.14746 16.059C5.14746 10.075 9.98746 5.23499 15.9715 5.23499H15.9705ZM14.3585 19.02L16.0005 20.635L17.6135 19.021L20.6645 15.941V21.661H25.2115C24.247 23.2472 22.8902 24.5582 21.2717 25.4676C19.6533 26.377 17.8279 26.8541 15.9715 26.853C12.0695 26.853 8.63746 24.771 6.73146 21.661H11.2775V15.941L14.3575 19.021L14.3585 19.02Z" fill="white"/>
</svg>
