<svg width="32" height="32" viewBox="0 0 32 32" fill="none" xmlns="http://www.w3.org/2000/svg">
<path d="M16 32C24.8366 32 32 24.8366 32 16C32 7.16344 24.8366 0 16 0C7.16344 0 0 7.16344 0 16C0 24.8366 7.16344 32 16 32Z" fill="#4FA784"/>
<path fill-rule="evenodd" clip-rule="evenodd" d="M25.5755 12.846L17.4655 10.522L14.6915 15.247L11.4695 11.51L12.9295 11.322L14.4345 13.09L16.1045 10.131L8.75447 8.024C8.65573 7.99474 8.55101 7.99201 8.45088 8.0161C8.35075 8.0402 8.25873 8.09025 8.1841 8.16123C8.10948 8.23221 8.05487 8.3216 8.02579 8.4204C7.99672 8.5192 7.99419 8.62392 8.01847 8.724L11.2745 21.8L14.7715 15.912L17.9935 19.649L16.5335 19.837L15.0295 18.069L11.7195 23.586L12.2095 25.556C12.235 25.6559 12.2862 25.7474 12.3581 25.8213C12.4299 25.8953 12.5199 25.9491 12.6191 25.9774C12.7182 26.0057 12.823 26.0076 12.9231 25.9828C13.0232 25.958 13.115 25.9074 13.1895 25.836L25.8195 13.826C25.894 13.7554 25.9485 13.6662 25.9773 13.5676C26.0061 13.469 26.0082 13.3645 25.9834 13.2648C25.9586 13.1651 25.9077 13.0738 25.8361 13.0002C25.7644 12.9267 25.6745 12.8734 25.5755 12.846Z" fill="white"/>
</svg>
