<svg width="32" height="32" viewBox="0 0 32 32" fill="none" xmlns="http://www.w3.org/2000/svg">
<path d="M16 32C24.8366 32 32 24.8366 32 16C32 7.16344 24.8366 0 16 0C7.16344 0 0 7.16344 0 16C0 24.8366 7.16344 32 16 32Z" fill="#00EAAB"/>
<path d="M24.8004 9.56799L23.0204 12.338C23.5883 13.4509 23.8818 14.6835 23.8764 15.933C23.8764 20.333 20.3164 23.876 15.9334 23.876C14.6896 23.8816 13.4628 23.588 12.3564 23.02L9.56836 24.817C11.3654 26.093 13.5484 26.866 15.9164 26.866C21.9454 26.866 26.8494 21.979 26.8494 15.933C26.8494 13.548 26.0934 11.365 24.8004 9.56799Z" fill="white"/>
<path d="M15.9329 21.39C17.2134 21.3899 18.4536 20.9416 19.4381 20.1227C20.4227 19.3038 21.0895 18.1661 21.3229 16.907C19.6135 16.5349 17.8449 16.5265 16.1321 16.8825C14.4193 17.2384 12.8005 17.9507 11.3809 18.973C11.8817 19.7198 12.5593 20.3313 13.3534 20.7532C14.1476 21.175 15.0336 21.3941 15.9329 21.391V21.39Z" fill="white"/>
<path d="M18.62 15.63C19.577 15.63 20.5 15.731 21.408 15.933C21.4075 14.4766 20.8287 13.08 19.7989 12.0502C18.769 11.0203 17.3724 10.4415 15.916 10.441C15.1334 10.4416 14.36 10.6099 13.6478 10.9345C12.9356 11.259 12.3013 11.7324 11.7874 12.3226C11.2735 12.9129 10.892 13.6064 10.6685 14.3565C10.4451 15.1065 10.3849 15.8957 10.492 16.671C9.115 17.73 8.46 18.553 8.426 18.586C8.12905 17.7387 7.97594 16.8478 7.973 15.95C7.973 11.55 11.533 8.006 15.916 8.006C17.209 8.006 18.418 8.308 19.493 8.863L22.264 7.066C20.4285 5.71877 18.2098 4.99475 15.933 5C14.4969 4.99868 13.0746 5.28058 11.7476 5.82954C10.4205 6.37851 9.21476 7.18378 8.19927 8.19927C7.18379 9.21475 6.37852 10.4205 5.82955 11.7476C5.28058 13.0746 4.99869 14.4969 5 15.933C5 18.368 5.79 20.602 7.133 22.415C7.653 21.475 8.275 20.618 8.997 19.845C8.997 19.845 10.072 18.721 10.895 18.15C13.1359 16.5087 15.8423 15.6259 18.62 15.63Z" fill="white"/>
</svg>
