<svg width="32" height="32" viewBox="0 0 32 32" fill="none" xmlns="http://www.w3.org/2000/svg">
<path d="M16 32C24.8366 32 32 24.8366 32 16C32 7.16344 24.8366 0 16 0C7.16344 0 0 7.16344 0 16C0 24.8366 7.16344 32 16 32Z" fill="#07BC9C"/>
<path fill-rule="evenodd" clip-rule="evenodd" d="M23.8969 6.695C23.3279 6.553 22.0019 6.572 21.5949 7.131C22.0019 7.358 22.2859 7.708 22.7029 7.718C23.1199 7.728 23.6029 7.329 24.1329 7.557C23.9059 7.557 22.8829 7.747 22.8169 8.059C22.9599 8.294 23.1319 8.51 23.3279 8.703C23.5939 8.921 23.6219 8.997 24.0199 8.779C24.5071 8.47144 24.8747 8.00683 25.0619 7.462C25.0619 7.178 25.1469 7.367 24.9389 7.131C24.6332 6.90139 24.2751 6.75154 23.8969 6.695ZM18.5539 7.197C19.3233 6.78657 20.2173 6.67509 21.0639 6.884C20.982 5.97163 20.5554 5.1248 19.8709 4.516C20.6909 5.026 21.2679 5.846 21.4709 6.789C21.9359 6.714 22.4189 6.534 22.8639 6.467C22.7837 5.56012 22.3843 4.7111 21.7369 4.071C21.4239 3.777 20.5429 3 20.0399 3C19.5369 3 18.8839 4.137 18.6949 4.601C18.3708 5.42879 18.321 6.33879 18.5529 7.197H18.5539Z" fill="white"/>
<path fill-rule="evenodd" clip-rule="evenodd" d="M18.4303 8.684C18.2603 8.277 19.0083 8.116 19.2363 8.144C19.6433 8.264 20.0163 8.478 20.3263 8.769C20.9223 9.215 22.0963 10.532 22.9593 10.219C23.8213 9.906 22.7983 8.381 22.3243 7.983C21.937 7.61789 21.4698 7.34821 20.9599 7.19544C20.45 7.04267 19.9115 7.01102 19.3873 7.103C18.9093 7.246 18.5173 7.593 18.3173 8.049C18.2603 8.258 18.0523 8.684 18.4313 8.684H18.4303Z" fill="white"/>
<path d="M22.3899 14.368C21.8599 14.046 21.6699 13.098 21.3389 12.578C20.8839 11.848 20.2209 11.252 19.8229 10.494C19.4249 9.73602 19.3779 9.15802 18.6959 8.79802C18.4345 8.66025 18.1434 8.58826 17.8479 8.58826C17.5524 8.58826 17.2614 8.66025 16.9999 8.79802C16.1529 9.18202 15.2619 9.46202 14.3469 9.63202C13.9413 9.72809 13.5427 9.85171 13.1539 10.002C12.8294 10.1843 12.4902 10.3392 12.1399 10.465C11.2679 10.588 9.65792 9.51802 9.80992 11.175C9.80992 11.479 10.1219 11.64 10.0269 12.028C9.93292 12.417 9.51592 12.758 9.31692 13.061C8.90828 13.7466 8.58966 14.482 8.36892 15.249C7.83056 16.9863 7.93491 18.8593 8.66292 20.526C9.01292 21.346 9.47992 22.112 10.0459 22.8C10.3229 23.123 10.5659 23.472 10.7759 23.842C10.9359 24.28 11.1359 24.702 11.3729 25.102C11.5778 25.3594 11.8499 25.555 12.1592 25.6671C12.4685 25.7792 12.8027 25.8034 13.1249 25.737C13.456 25.6233 13.7739 25.4741 14.0729 25.292C14.5837 25.0889 15.1184 24.9518 15.6639 24.884C17.6544 24.572 19.47 23.5651 20.7889 22.042C21.4138 21.288 21.8985 20.4281 22.2199 19.503C22.4067 18.9871 22.543 18.4543 22.6269 17.912C22.6749 17.571 22.5709 16.708 22.8169 16.482C22.9769 16.329 23.3569 16.292 23.4709 16.149C23.5573 15.9608 23.6236 15.7641 23.6689 15.562C23.8489 15.003 22.7979 14.558 22.3909 14.368H22.3899ZM23.1099 15.723C22.9679 16.045 22.4099 16.235 22.1629 16.576C21.8088 17.2149 21.3364 17.7806 20.7709 18.243C20.2012 18.5399 19.5458 18.6285 18.9177 18.4936C18.2896 18.3587 17.7284 18.0087 17.3309 17.504C16.9115 16.98 16.6842 16.3282 16.6869 15.657C16.6869 15.136 17.2559 13.828 16.6869 13.544C16.1189 13.26 15.8539 14.179 15.6359 14.492C15.2546 15.125 14.6749 15.6143 13.9869 15.884C13.4516 16.0652 12.8771 16.0975 12.3249 15.9773C11.7727 15.8572 11.2636 15.5892 10.8519 15.202C10.5767 14.8104 10.3936 14.3615 10.3164 13.8891C10.2391 13.4167 10.2697 12.9329 10.4059 12.474C10.4186 12.0065 10.3773 11.5391 10.2829 11.081C10.2829 10.399 10.8799 10.645 11.3629 10.74C12.5603 10.9533 13.6978 11.4219 14.6979 12.114C15.6372 12.8943 16.7635 13.4164 17.9659 13.629C18.7709 13.705 19.5689 13.841 20.3539 14.037C20.7419 14.151 21.1019 14.34 21.4809 14.473C21.8809 14.603 22.2689 14.77 22.6369 14.975C22.8929 15.088 23.2619 15.315 23.1199 15.685L23.1099 15.723Z" fill="white"/>
</svg>
