<svg width="32" height="32" viewBox="0 0 32 32" fill="none" xmlns="http://www.w3.org/2000/svg">
<path d="M16 32C24.8366 32 32 24.8366 32 16C32 7.16344 24.8366 0 16 0C7.16344 0 0 7.16344 0 16C0 24.8366 7.16344 32 16 32Z" fill="#49C1BF"/>
<path d="M9 7.281L20.114 12.664L22.959 11.382L11.891 6L9 7.281Z" fill="white" fill-opacity="0.304"/>
<path d="M20.1143 12.651L22.9593 11.37V14.235L20.1143 15.516V12.651ZM20.1143 25.935V16.998L22.9593 15.703V24.654L20.1143 25.935Z" fill="white" fill-opacity="0.646"/>
<path d="M9 7.284V10.181L16.693 13.918L9 17.728V20.584L20.114 25.957V23.083L12.566 19.412L20.114 15.531V12.666L9 7.284Z" fill="white"/>
</svg>
