<svg width="32" height="32" viewBox="0 0 32 32" fill="none" xmlns="http://www.w3.org/2000/svg">
<path d="M16 32C24.8366 32 32 24.8366 32 16C32 7.16344 24.8366 0 16 0C7.16344 0 0 7.16344 0 16C0 24.8366 7.16344 32 16 32Z" fill="#00004D"/>
<path d="M15.5052 6.27399C15.4132 6.66399 15.1372 7.89399 15.0112 8.71799C14.9612 9.05599 14.7512 9.50699 15.3372 9.74999C15.2032 9.77599 15.1622 9.79299 15.1202 9.78399C14.7022 9.73199 14.2752 9.67199 13.8572 9.61999C13.7652 9.61099 13.6482 9.59399 13.5642 9.63699C13.0042 9.93199 12.7542 10.634 13.0372 11.232C13.1972 11.57 13.2472 11.882 13.1802 12.238C13.1717 12.3302 13.189 12.423 13.2302 12.506C13.5562 13.304 13.6152 14.101 13.3552 14.933C13.3132 15.063 13.3392 15.22 13.3472 15.358C13.3642 15.627 13.3802 15.896 13.4052 16.164C12.9952 15.835 12.5452 15.54 12.2012 15.141C12.0302 14.9401 11.9008 14.7072 11.8204 14.4559C11.7401 14.2046 11.7105 13.9398 11.7332 13.677C11.7412 13.573 11.6582 13.451 11.5912 13.356C11.3982 13.07 11.1732 12.81 11.0142 12.506C10.7882 12.073 10.5122 11.891 10.0602 12.03C9.83523 12.099 9.62523 12.246 9.43323 12.394C9.26623 12.514 9.12323 12.671 8.97323 12.81C8.95623 12.792 8.93123 12.775 8.91523 12.758C8.94023 12.697 8.94823 12.628 8.98223 12.567C9.21623 12.134 9.20723 12.142 8.88223 11.778C8.25423 11.076 7.71023 10.322 7.47623 9.36799C7.35923 8.89199 7.21623 8.42299 7.09223 7.95499C6.46423 8.73499 6.38123 11.545 7.00023 12.654C6.80723 11.674 6.61523 10.747 6.83223 9.79299C6.87423 10.01 6.89923 10.218 6.90823 10.435C6.94123 11.206 7.12523 11.935 7.45123 12.619C7.51823 12.766 7.71123 12.853 7.85323 12.957C7.90323 12.992 7.97023 13.009 8.02823 13.035C8.02023 13.07 8.02023 13.105 8.01123 13.13C7.70223 13.113 7.40123 13.078 7.09123 13.07C6.89123 13.061 6.65723 13.009 6.49823 13.096C6.28823 13.208 6.12123 13.426 6.00423 13.642C5.97123 13.702 6.13823 13.945 6.26423 14.041C6.59823 14.292 6.82423 14.569 6.77423 15.037C6.76523 15.15 6.89123 15.35 7.00023 15.393C7.30023 15.506 7.38423 15.731 7.43423 16.017C7.46823 16.199 7.49323 16.433 7.61023 16.537C7.98623 16.884 8.10323 17.3 8.11223 17.803C8.12023 18.123 8.28723 18.453 8.24623 18.765C8.21223 19.034 8.26223 19.233 8.37123 19.389H8.36323L8.38823 19.415C8.45523 19.519 8.54723 19.605 8.65523 19.684L8.87323 19.892C8.87323 19.892 9.24923 20.299 9.25723 20.698C9.26623 21.097 9.23223 21.148 9.34923 21.504C9.46723 21.851 9.62523 22.128 9.67623 22.423C9.72623 22.718 9.61723 22.804 9.79323 22.995C9.96823 23.185 10.1612 23.315 10.3612 23.533C10.5542 23.758 10.8302 23.836 11.0142 24.027C11.1982 24.217 11.4902 24.573 11.7162 24.798C11.8332 24.92 11.9922 25.015 12.1092 25.084C12.1432 25.119 12.1592 25.136 12.1512 25.154C11.9922 25.5 12.3182 25.492 12.4442 25.604C12.6612 25.795 12.9712 25.916 13.1292 26.15C13.4142 26.575 13.7822 26.792 14.2422 26.922C14.2842 26.931 14.3342 26.939 14.3502 26.965C14.4092 27.035 14.4502 27.121 14.5012 27.199C14.4842 27.225 14.4592 27.251 14.4422 27.277C14.9022 27.442 15.3622 27.615 15.8222 27.771C15.9142 27.806 16.0322 27.806 16.1152 27.781C16.5002 27.651 16.8852 27.511 17.2692 27.373C17.3442 27.347 17.4612 27.269 17.4532 27.234C17.3952 26.957 17.6202 27 17.7462 26.931C18.0462 26.766 18.3982 26.645 18.6242 26.411C18.9002 26.116 19.1512 25.812 19.5192 25.613C19.6692 25.526 19.9702 25.492 19.8192 25.163C19.8112 25.145 19.8952 25.076 19.9372 25.033C19.9952 24.98 20.0622 24.937 20.1462 24.868C20.2042 24.842 20.2712 24.798 20.3802 24.72C20.7204 24.4406 21.0365 24.1332 21.3252 23.801C21.5252 23.55 21.8522 23.238 21.8522 23.238C21.8522 23.238 21.6422 22.744 21.7772 22.31L22.4872 21.782C22.6382 21.461 22.6802 21.339 22.8472 21.01C23.0062 20.68 23.0472 20.048 23.2742 19.796C23.4742 19.58 23.7172 19.406 23.7082 19.268C23.7608 19.1207 23.7779 18.9631 23.7582 18.808C23.7342 18.583 23.8082 18.348 23.8342 18.123C23.8512 17.933 23.8342 17.742 23.8842 17.56C23.9682 17.265 24.0262 16.919 24.2102 16.71C24.4102 16.485 24.5452 16.286 24.5702 15.982C24.5952 15.722 24.6952 15.514 24.9552 15.392C25.0802 15.332 25.2052 15.124 25.2052 14.985C25.1972 14.595 25.3222 14.318 25.6402 14.11C25.7322 14.05 25.8002 13.945 25.8912 13.876C26.0412 13.763 26.0172 13.633 25.9332 13.486C25.7162 13.096 25.3892 12.957 24.9552 13.036C24.6282 13.096 24.1352 13.13 23.9592 13.13C23.7842 13.13 23.9092 13 23.9092 13C24.5282 12.983 24.6032 12.472 24.7452 12.056C24.8632 11.709 24.9292 11.345 24.9882 10.981C25.0472 10.634 25.0472 10.469 25.1132 9.93099C25.1802 9.39399 25.3392 10.972 25.0882 12.264C25.5902 11.501 25.4312 8.73499 24.8712 7.92099C24.8542 7.93799 24.8372 7.94699 24.8372 7.96399C24.8122 8.06799 24.7962 8.17199 24.7712 8.27599C24.5282 9.60199 24.0262 10.79 23.0982 11.761C22.7552 12.116 22.7722 12.125 23.0062 12.584C23.0312 12.628 23.0312 12.688 23.0392 12.749C22.8392 12.654 22.6892 12.515 22.5382 12.385C22.4064 12.2577 22.2503 12.1583 22.0791 12.0928C21.908 12.0273 21.7254 11.9971 21.5422 12.004C21.1422 12.004 21.0322 12.298 20.9152 12.584C20.6982 13.104 20.1882 13.425 20.1712 14.119C20.1462 15.133 19.2432 15.644 18.6572 16.32C18.6492 16.33 18.6242 16.312 18.5902 16.312C18.5822 16.277 18.5572 16.234 18.5652 16.199C18.5652 15.575 18.7332 14.942 18.4572 14.344C18.4402 14.309 18.4482 14.257 18.4572 14.223C18.5652 13.347 18.6662 12.48 18.7832 11.613C18.7992 11.501 18.8582 11.397 18.9082 11.293C19.2012 10.669 18.9832 9.95799 18.3902 9.64599C18.317 9.61277 18.236 9.60065 18.1562 9.61099C17.8292 9.65399 17.5122 9.71499 17.1942 9.75799C17.0342 9.78399 16.8682 9.78399 16.7092 9.79299C16.7002 9.76699 16.6922 9.74099 16.6842 9.72299C16.9512 9.63699 17.0852 9.47299 17.0272 9.17799L16.4242 6.17799C16.4082 6.09999 16.3912 5.70999 16.4832 5.90999C16.5752 6.11799 16.8682 7.00999 17.0352 7.57399C17.1942 8.11999 17.3192 8.68399 17.4612 9.23799C17.2272 7.68699 16.8682 6.17799 15.9812 4.79999C15.7451 5.09582 15.5562 5.4264 15.4212 5.77999C15.206 6.41098 15.0053 7.04681 14.8192 7.68699C14.6772 8.18099 14.3092 9.15199 14.4682 9.17699C14.6262 9.20399 15.4042 6.29099 15.4542 6.08299C15.5042 5.87499 15.5972 5.88299 15.5042 6.27299L15.5052 6.27399Z" fill="white"/>
</svg>
