<svg width="22" height="22" viewBox="0 0 22 22" fill="none" xmlns="http://www.w3.org/2000/svg">
<path d="M16.8822 18.297C15.1234 19.4126 13.0829 20.0033 11.0002 20C5.60815 20 1.12215 16.12 0.181152 11C0.611182 8.67072 1.78278 6.5429 3.52115 4.93401L0.392152 1.80801L1.80715 0.393005L21.6062 20.193L20.1912 21.607L16.8812 18.297H16.8822ZM4.93515 6.35001C3.57616 7.5856 2.62947 9.20879 2.22315 11C2.53545 12.3665 3.16242 13.6411 4.05416 14.7226C4.94589 15.804 6.07778 16.6624 7.3597 17.2293C8.64163 17.7962 10.0382 18.0561 11.4382 17.9881C12.8383 17.9202 14.2031 17.5264 15.4242 16.838L13.3962 14.81C12.5328 15.3538 11.5104 15.5881 10.4964 15.4744C9.48243 15.3608 8.53719 14.9059 7.81572 14.1844C7.09425 13.463 6.63938 12.5177 6.52571 11.5038C6.41205 10.4898 6.64634 9.46732 7.19015 8.60401L4.93515 6.35001ZM11.9142 13.328L8.67215 10.086C8.49422 10.5389 8.45234 11.034 8.55166 11.5104C8.65098 11.9867 8.88717 12.4238 9.23127 12.7679C9.57537 13.112 10.0124 13.3482 10.4888 13.4475C10.9652 13.5468 11.4602 13.5049 11.9132 13.327L11.9142 13.328ZM19.8072 15.592L18.3762 14.162C19.0446 13.2093 19.5205 12.1352 19.7772 11C19.5054 9.80973 18.9944 8.68715 18.2753 7.7005C17.5562 6.71385 16.6439 5.88373 15.594 5.26061C14.5441 4.63749 13.3784 4.23437 12.1679 4.07577C10.9573 3.91717 9.72716 4.00638 8.55215 4.33801L6.97415 2.76001C8.22115 2.27001 9.58015 2.00001 11.0002 2.00001C16.3922 2.00001 20.8782 5.88001 21.8192 11C21.5127 12.6657 20.824 14.2376 19.8072 15.592ZM10.7232 6.50801C11.3597 6.46867 11.9973 6.56507 12.5937 6.79082C13.1901 7.01657 13.7318 7.36652 14.1827 7.81746C14.6336 8.2684 14.9836 8.81003 15.2093 9.40646C15.4351 10.0029 15.5315 10.6405 15.4922 11.277L10.7222 6.50801H10.7232Z" fill="white" fill-opacity="0.2"/>
</svg>
