<svg width="25" height="25" viewBox="0 0 25 25" fill="none" xmlns="http://www.w3.org/2000/svg">
<path d="M10.454 3.1724C11.8029 2.88954 13.1958 2.88886 14.545 3.1704C14.6349 3.76369 14.8573 4.32909 15.1958 4.82458C15.5342 5.32007 15.98 5.73291 16.5 6.0324C17.0196 6.33293 17.6002 6.51247 18.1987 6.55766C18.7972 6.60284 19.3982 6.51252 19.957 6.2934C20.8753 7.32146 21.5709 8.52844 22 9.8384C21.5313 10.213 21.1531 10.6884 20.8934 11.2292C20.6337 11.77 20.4993 12.3624 20.5 12.9624C20.5 14.2264 21.086 15.3534 22.002 16.0864C21.5703 17.3953 20.8739 18.6013 19.956 19.6294C19.3973 19.4104 18.7965 19.3202 18.1982 19.3654C17.5999 19.4106 17.0194 19.59 16.5 19.8904C15.9805 20.1898 15.535 20.6024 15.1967 21.0975C14.8585 21.5926 14.6361 22.1576 14.546 22.7504C13.1972 23.0339 11.8043 23.0353 10.455 22.7544C10.3655 22.1606 10.1433 21.5946 9.80482 21.0985C9.46634 20.6025 9.02033 20.1892 8.5 19.8894C7.98037 19.589 7.3997 19.4097 6.80119 19.3647C6.20268 19.3196 5.60172 19.4101 5.043 19.6294C4.1246 18.601 3.42901 17.3937 3 16.0834C3.46839 15.709 3.84646 15.234 4.10614 14.6935C4.36581 14.153 4.50043 13.561 4.5 12.9614C4.50049 12.3613 4.36571 11.7688 4.10567 11.2279C3.84563 10.6871 3.46702 10.2118 2.998 9.8374C3.42967 8.52853 4.12612 7.3225 5.044 6.2944C5.60265 6.51336 6.20347 6.6036 6.8018 6.55842C7.40012 6.51323 7.98057 6.33378 8.5 6.0334C9.01955 5.734 9.46499 5.32143 9.80326 4.82631C10.1415 4.33119 10.364 3.76624 10.454 3.1734V3.1724ZM12.5 15.9624C13.2957 15.9624 14.0587 15.6463 14.6213 15.0837C15.1839 14.5211 15.5 13.7581 15.5 12.9624C15.5 12.1668 15.1839 11.4037 14.6213 10.8411C14.0587 10.2785 13.2957 9.9624 12.5 9.9624C11.7044 9.9624 10.9413 10.2785 10.3787 10.8411C9.81607 11.4037 9.5 12.1668 9.5 12.9624C9.5 13.7581 9.81607 14.5211 10.3787 15.0837C10.9413 15.6463 11.7044 15.9624 12.5 15.9624Z" fill="#7A7C94"/>
</svg>
