<svg width="25" height="25" viewBox="0 0 25 25" fill="none" xmlns="http://www.w3.org/2000/svg">
<path d="M12.5 22.9624C6.977 22.9624 2.5 18.4854 2.5 12.9624C2.5 7.4394 6.977 2.9624 12.5 2.9624C18.023 2.9624 22.5 7.4394 22.5 12.9624C22.5 18.4854 18.023 22.9624 12.5 22.9624ZM11.5 16.9624V18.9624H13.5V16.9624H14.5C14.9643 16.9624 15.4194 16.8331 15.8143 16.589C16.2093 16.3449 16.5284 15.9957 16.7361 15.5804C16.9437 15.1652 17.0316 14.7003 16.9899 14.2379C16.9482 13.7755 16.7786 13.3338 16.5 12.9624C16.7786 12.591 16.9482 12.1493 16.9899 11.6869C17.0316 11.2245 16.9437 10.7596 16.7361 10.3444C16.5284 9.9291 16.2093 9.57986 15.8143 9.33578C15.4194 9.09169 14.9643 8.9624 14.5 8.9624H13.5V6.9624H11.5V8.9624H8.5V16.9624H11.5ZM10.5 13.9624H14.5C14.6326 13.9624 14.7598 14.0151 14.8536 14.1088C14.9473 14.2026 15 14.3298 15 14.4624C15 14.595 14.9473 14.7222 14.8536 14.816C14.7598 14.9097 14.6326 14.9624 14.5 14.9624H10.5V13.9624ZM10.5 10.9624H14.5C14.6326 10.9624 14.7598 11.0151 14.8536 11.1088C14.9473 11.2026 15 11.3298 15 11.4624C15 11.595 14.9473 11.7222 14.8536 11.816C14.7598 11.9097 14.6326 11.9624 14.5 11.9624H10.5V10.9624Z" fill="#7A7C94"/>
</svg>
