<svg width="25" height="25" viewBox="0 0 25 25" fill="none" xmlns="http://www.w3.org/2000/svg">
<path d="M19.5 22.9624H5.5C4.70435 22.9624 3.94129 22.6463 3.37868 22.0837C2.81607 21.5211 2.5 20.7581 2.5 19.9624V3.9624C2.5 3.69719 2.60536 3.44283 2.79289 3.2553C2.98043 3.06776 3.23478 2.9624 3.5 2.9624H17.5C17.7652 2.9624 18.0196 3.06776 18.2071 3.2553C18.3946 3.44283 18.5 3.69719 18.5 3.9624V15.9624H22.5V19.9624C22.5 20.7581 22.1839 21.5211 21.6213 22.0837C21.0587 22.6463 20.2956 22.9624 19.5 22.9624ZM18.5 17.9624V19.9624C18.5 20.2276 18.6054 20.482 18.7929 20.6695C18.9804 20.857 19.2348 20.9624 19.5 20.9624C19.7652 20.9624 20.0196 20.857 20.2071 20.6695C20.3946 20.482 20.5 20.2276 20.5 19.9624V17.9624H18.5ZM6.5 7.9624V9.9624H14.5V7.9624H6.5ZM6.5 11.9624V13.9624H14.5V11.9624H6.5ZM6.5 15.9624V17.9624H11.5V15.9624H6.5Z" fill="white"/>
</svg>
